<REAPER_PROJECT 0.1 "5.99/x64" 1759402145
  RIPPLE 0
  GROUPOVERRIDE 0 0 0
  AUTOXFADE 1
  ENVATTACH 1
  POOLEDENVATTACH 0
  MIXERUIFLAGS 11 48
  PEAKGAIN 1
  FEEDBACK 0
  PANLAW 1
  PROJOFFS 0 0 0
  MAXPROJLEN 0 600
  GRID 3199 8 1 8 1 0 0 0
  TIMEMODE 1 5 -1 30 0 0 -1
  PANMODE 3
  CURSOR 55
  ZOOM 8.21054965341644 0 0
  VZOOMEX 8
  USE_REC_CFG 0
  RECMODE 1
  SMPTESYNC 0 30 100 40 1000 300 0 0 1 0 0
  LOOP 0
  LOOPGRAN 0 4
  RECORD_PATH "" ""
  <RECORD_CFG
  >
  <APPLYFX_CFG
  >
  RENDER_FILE "C:\Users\Dennis\OneDrive\Music\FirstLight.wav"
  RENDER_FMT 0 2 44100
  RENDER_1X 0
  RENDER_RANGE 1 0 0 18 1000
  RENDER_RESAMPLE 8 0 1
  RENDER_ADDTOPROJ 0
  RENDER_STEMS 0
  RENDER_DITHER 1
  TIMELOCKMODE 1
  TEMPOENVLOCKMODE 1
  ITEMMIX 0
  DEFPITCHMODE 589824 0
  TAKELANE 1
  SAMPLERATE 44100 0 0
  <RENDER_CFG
    ZXZhdxAAAA==
  >
  LOCK 1
  <METRONOME 6 4
    VOL 2.769931 1.384965
    FREQ 800 1600 1
    BEATLEN 4
    SAMPLES "" ""
    PATTERN 2863311530 2863311529
  >
  GLOBAL_AUTO -1
  TEMPO 120 4 4
  PLAYRATE 1 0 0.25 4
  SELECTION 10 194
  SELECTION2 10 194
  MASTERAUTOMODE 0
  MASTERTRACKHEIGHT 0 0
  MASTERPEAKCOL 16576
  MASTERMUTESOLO 0
  MASTERTRACKVIEW 1 0.6667 0.5 0.5 0 0 0
  MASTERHWOUT 0 0 1 0 0 0 0 -1
  MASTER_NCH 2 2
  MASTER_VOLUME 0.68899412821633 -0.024 -1 -1 1
  MASTER_FX 1
  MASTER_SEL 0
  <MASTERFXLIST
    WNDRECT 888 225 914 529
    SHOW 0
    LASTSEL 0
    DOCKED 0
  >
  <MASTERPLAYSPEEDENV
    ACT 0 -1
    VIS 0 1 1
    LANEHEIGHT 0 0
    ARM 0
    DEFSHAPE 0 -1 -1
  >
  <TEMPOENVEX
    ACT 0 -1
    VIS 1 0 1
    LANEHEIGHT 0 0
    ARM 0
    DEFSHAPE 1 -1 -1
  >
  <PROJBAY
  >
  <TRACK {208EEB7C-F31C-4B9A-A8B5-FA44317250B5}
    NAME "12 string rhythm"
    PEAKCOL 32672440
    BEAT -1
    AUTOMODE 0
    VOLPAN 2.36982255532589 -0.072 -1 -1 1
    MUTESOLO 0 2 0
    IPHASE 0
    ISBUS 0 0
    BUSCOMP 0 0
    SHOWINMIX 1 0.6667 0.5 1 0.5 0 0 0
    FREEMODE 0
    SEL 0
    REC 0 4096 1 0 0 0 0
    VU 2
    TRACKHEIGHT 0 0 0
    INQ 0 0 0 0.5 100 0 0 100
    NCHAN 2
    FX 1
    TRACKID {208EEB7C-F31C-4B9A-A8B5-FA44317250B5}
    PERF 0
    MIDIOUT -1
    MAINSEND 1 0
    <FXCHAIN
      WNDRECT 553 282 773 466
      SHOW 0
      LASTSEL 1
      DOCKED 0
      BYPASS 0 0 0
      <VST "VSTi: Dimension Pro (Cakewalk)" "Dimension Pro x64.dll" 0 "" 1684893299<565354646D6E7364696D656E73696F6E> ""
        c25tZO5e7f4AAAAAAgAAAAEAAAAAAAAAAgAAAAAAAAAlCAAAAQAAAAAAEAA=
        eJzt3V9sU1UcwPFztwny4INDEp+2Jixh02wZ0RHc6B+6hYFhuoAwHxrdyLpR3D/WYZEQswcSmNFAIg/MkEDkAQLqE3/mJOGPJmAAM40JqLzM+CAJCShsjjCjv3Nv17V1
        bdeuZHP3+yO/9f4559PTc869l/SwoFSvW6URJzaUuHUqs95UdXvdsalSpCcuY8+fOnnSmSylTqWVqiqcWY5yt5VWLLp5zKUz8edPN+Kd2H3ffq9bp/pPfyXs01QxjTGZ
        PW/DwFtunYnqrx2uNDOxFzv/Pq9tcumcOPv1SLFbZ+IWxNb/dddBl87J9+u9kN1M9P7TjUTzJ/76iz8+3Ux7fGc502t3S0tLTGbvurZixcEGp85E+/Mtyk9fdX5b96nz
        xvXrq7KRs/15iPhIfn0cuFzh1jmxv//yGdfNY+VR15wnLqcM97n2X1yDBU+5upyvurucH7ie+6I2/tolCGJORKq/g8TmubJ7VUue2Z7xNfxhWaVLZ6b1N20y3N9fUe6+
        fdxHCIIgCIJILzw/n8ldumxy34hsfeeNLpZcmfZ3DTg4ODg4ODg4ODg4ODg4ODg4ODg4ODg4ODg4OHPIyer6YO/xGqUuekfvbfaMrDviLPFfS9Huud8/ODg4ODg4ODg4
        ODg4ODg4ODg4ODg4ODg4ODjzyeH3B3FwcHBwcHBwcHBwcHBwcHBwcHBwcHBwcHBw7OOwPoiDg4ODg4ODg4ODg4ODg4ODg4ODg4ODg4ODYx8nN7JVvzqqTIxztLQ/pyi8
        fejOWaNh+LD5/ygbKj52erVTXFDomspxmHXycrShM649Udxtr16vdDWOOuPbbaR2koUn+WkcHBwcHBwcHBwcHBwcHBwcHBwcHBwcHBwcnPnt8PuDODg4ODg4ODg4ODg4
        ODg4ODg4ODg4ODg4ODj2cbK6Pth7vEapi97Re5s9I+uOOEv811K0e+73Dw4ODg4ODg4ODg4ODg4ODg4ODg4ODg4ODg7OfHL4/UEcHBwcHBwcHBwcHBwcHBwcHBwcHBwc
        HBwcHPs4rA/i4ODg4ODg4ODg4ODg4ODg4ODg4ODg4ODg4NjHyY1s1a+OKhPjHC3tzykKbx+6c9ZoGD7s0tuGio+dXu0UFxS6pnIcZp28HG3ojGtPFHfbq9crXY2jzvh2
        G6mdZOFJfhoHBwcHBwcHBwcHBwcHBwcHBwcHBwcHBwcHZ347/P4gDg4ODg4ODg4ODg4ODg4ODg4ODg4ODg4ODo59HNYHcXBwcHBwcHBwcHBwcHBwcHBwcHBwcHBwcHDs
        47A+iIODg4ODg4ODg4ODg4ODg4ODg4ODg4ODg4NjH4f1QRwcHBwcHBwcHBwcHBwcHBwcHBwcHBwcHBwc+zisD+Lg4ODg4ODg4ODg4ODg4ODg4ODg4ODg4ODg2MdhfRAH
        BwcHBwcHBwcHBwcHBwcHBwcHBwcHBwcHxz4O64M4ODg4ODg4ODg4ODg4ODg4ODg4ODg4ODg4OPZxWB/EwcHBwcHBwcHBwcHBwcHBwcHBwcHBwcHBwbGPw/ogDg4ODg4O
        Dg4ODg4ODg4ODg4ODg4ODg4ODo59HNYHcXBwcHBwcHBwcHBwcHBwcHBwcHBwcHBwcHBs7biz56Qql+i8R95/YPXM2/OJN9ahPU+qPf39l0zn1rH7rpm0J9bJtD0xwXym
        PWm35/8ynxv/yFft1Q9D+t95LNQH7q5Pw4ktp42+Ko+6rAosK4PxypHMk3w6vH9oW30SJ/F43Tg1eHvtn/nqfsFwaCbt0f2h63qMOvXVyuGQSuokbs9wqdWOBcrqJ+1l
        0h6zbnOslUl79Puvkdf7D/LNPu6S10za89mDyT5eEymffnui++WumKfMvk5/Pucqa+5oa+BCc67vUbLPFe9Mlns/z/j71sN8c1u/7h7aa2TSP1fzjN9WSRscYeftq8mc
        xP1zPRKP9fHFgyOZjZe+vlqkPbulvvHiXmMgqZO4PQeKWnPrpW7vNsH/ylebCseSjFfi9jw/lq/uSv2ccNvOJx2vZP3z2O0wqtUPo/nm2L88mln/VDXqz7FYnTi5RPXI
        9iLzaPrtGZfP9ZLqMzzOL81L9OHCXVOOe7WqVD5Vr7pVp2qVn02qXebKGhVQbcqvgnKuWo69I9sheW2TLZ+qkbPtcqRDzgekXofUsASfqlM7pFSPHA+aVlfEKVcVUq5U
        slbKBKRMk9QJmnX0lq6jpdfUe1JHq2VytkXtklbq7FbNkgH1rniTZya3ZhAydzwvjIX+kWiWfiu4Mh4alzkxMRYDjZNjcVG2vbqO7HzzyJp3Q+G6P8r+0KXx0O8LFpts
        0WNrLjSeX68+3tJnDHUPGhP3KoccdxmvmHNu6+nXzefFm/LeAbnvNFZYz7DoMr1j1j1Je7U1wyG9v8yw7jN7wsa+JVUyhkp9JNkgN6I9OfpeVJj7bJ71PLoudZZWDIdu
        rdy+Pd8oVvq4Nn6ak/NgheRG2fPLn7aocW7LzpgzD6acB0r5agLt/o5goLPDV9/d2drd1B70la9wlDpqdwR6mrqDvrqm7p5Ah2Njj9/f5ije0h1o3dpTUtYlZbM/IsSs
        ReWUV3jyK7s8fGXre4S+T+tre0vkvC4fkrMrpZzOsnA5JW6THC9Xy6OOEXMhrOdC/L3fIUf0bOgx50aPlNggZ7pka4fcwf1Rz4HYJ0rQnFMb5blizZPNcq5NXpdHngi6
        XIc86bUQMLe1Ev+keENa0illop8YQZk7XeF3U+GfBEEQBEEQxJMM/XfFufc9At8n8X0S3yfxfRIxu8H3SXaOfwGIRS2H
        AEM6XENha2V3YWxrIENvbnRlbnRcUmFwABAAAAA=
      >
      PRESETNAME "C:\Cakewalk Content\Rap"
      FLOATPOS 0 0 0 0
      FXID {58B2280E-8790-4582-9AC6-3D5ED12714BB}
      WAK 0
      BYPASS 0 0 0
      <VST "VST: ReaEQ (Cockos)" reaeq.dll 0 "" 1919247729<56535472656571726561657100000000> ""
        cWVlcu5e7f4CAAAAAQAAAAAAAAACAAAAAAAAAAIAAAABAAAAAAAAAAIAAAAAAAAAqAAAAAEAAAAAABAA
        IQAAAAQAAAAAAAAAAQAAAP8UvOxOZ1pAwdCAa7JTAkDAyqFFtvMMQAEIAAAAAQAAAD+jRV1lBLJAL8anh49T9z8AAAAAAAAAQAEIAAAAAQAAAGAdZxzUDJBAwIiQbT6j
        A0AAAAAAAAAAQAEBAAAAAQAAAEG4Vy0C2cNAAZ31AwFq4j8AAAAAAAAAQAABAAAAAQAAAH75Ojg9SfY/AAAAAA8CAABhAQAA
        AAAQAAAA
      >
      FLOATPOS 0 0 0 0
      FXID {1BDB1DE7-796B-4220-ABC0-776885F65BEE}
      WAK 0
    >
    <ITEM
      POSITION 8
      SNAPOFFS 0
      LENGTH 32
      LOOP 1
      ALLTAKES 0
      FADEIN 1 0 0 1 0 0
      FADEOUT 1 0 0 1 0 0
      MUTE 0
      COLOR 25233864 R
      SEL 0
      IGUID {C083FF20-5EBF-4137-A8FB-95B420DE50D7}
      IID 11
      NAME "Then There was One - r/guitar - verse"
      VOLPAN 1 0 1 -1
      SOFFS 0 0
      PLAYRATE 1 1 0 -1 0 0.0025
      CHANMODE 0
      GUID {D8B15CBD-18D6-435F-8D32-190433C70139}
      <SOURCE MIDI
        HASDATA 1 960 QN
        POOLEDEVTS {D0999985-01DC-428D-AD4E-1E607BD7CF75}
        <X 0 0 0 0 3 "EZkeys song"
          /wNFWmtleXMgc29uZw==
        >
        <X 0 0
          /wFCYXJPZmZzZXQgNDIgMC4wMDAwMDAgOC4wMDAwMDAgMTYuMDAwMA==
          MDAgMjAuMDAwMDAwIDI0LjAwMDAwMCA0MC4wMDAwMDAgNDguMDAwMA==
          MDAgNTIuMDAwMDAwIDU2LjAwMDAwMCA2NC4wMDAwMDAgNjguMDAwMA==
          MDAgNzIuMDAwMDAwIDgwLjAwMDAwMCA4NC4wMDAwMDAgODguMDAwMA==
          MDAgOTIuMDAwMDAwIDEwNC4wMDAwMDAgMTEyLjAwMDAwMCAxMTYuMA==
          MDAwMDAgMTIwLjAwMDAwMCAxMzYuMDAwMDAwIDE0NC4wMDAwMDAgMQ==
          NDguMDAwMDAwIDE1Mi4wMDAwMDAgMTYwLjAwMDAwMCAxNjQuMDAwMA==
          MDAgMTY4LjAwMDAwMCAxNzAuMDAwMDAwIDE3Mi4wMDAwMDAgMTc2Lg==
          MDAwMDAwIDE4MC4wMDAwMDAgMTg0LjAwMDAwMCAxODguMDAwMDAwIA==
          MTk2LjAwMDAwMCAyMDIuMDAwMDAwIDIwNC4wMDAwMDAgMjA4LjAwMA==
          MDAwIDIxMi4wMDAwMDAgMjE2LjAwMDAwMCAyMjAuMDAwMDAwIDIyNg==
          LjAwMDAwMCAyMjguMDAwMDAw
        >
        E 0 90 30 4d
        E 480 90 37 1b
        E 480 80 30 4d
        E 15 80 37 1b
        E 0 90 3c 35
        E 930 90 30 4a
        E 30 80 3c 35
        E 465 90 37 2d
        E 465 80 37 2d
        E 15 80 30 4a
        E 0 90 3c 24
        E 967 80 3c 24
        E 8 90 30 4e
        E 480 90 37 2c
        E 450 80 37 2c
        E 0 90 3c 31
        E 15 80 30 4e
        E 480 90 37 3e
        E 465 80 3c 31
        E 15 80 37 3e
        E 0 90 30 50
        E 465 90 37 33
        E 495 80 30 50
        E 0 90 3c 36
        E 15 80 37 33
        E 450 90 37 4b
        E 480 90 2d 51
        E 30 80 3c 36
        E 0 80 37 4b
        E 450 90 34 23
        E 495 80 34 23
        E 15 80 2d 51
        E 0 90 39 3a
        E 930 80 39 3a
        E 15 90 2d 4a
        E 480 90 34 3d
        E 480 80 2d 4a
        E 15 80 34 3d
        E 0 90 39 46
        E 960 80 39 46
        E 0 90 2d 45
        E 480 90 34 1f
        E 450 80 2d 45
        E 0 80 34 1f
        E 15 90 39 3a
        E 465 90 34 32
        E 480 80 39 3a
        E 15 80 34 32
        E 0 90 2d 50
        E 495 90 34 31
        E 465 80 2d 50
        E 0 80 34 31
        E 15 90 39 49
        E 450 90 34 55
        E 480 80 39 49
        E 15 90 29 4f
        E 15 80 34 55
        E 465 90 30 20
        E 465 80 30 20
        E 0 90 35 46
        E 30 80 29 4f
        E 945 80 35 46
        E 15 90 29 48
        E 465 90 30 53
        E 465 80 29 48
        E 15 80 30 53
        E 0 90 35 46
        E 975 80 35 46
        E 0 90 2b 58
        E 480 90 32 2f
        E 450 80 32 2f
        E 0 90 37 4d
        E 30 80 2b 58
        E 450 90 32 4a
        E 495 80 32 4a
        E 15 80 37 4d
        E 0 90 2b 50
        E 480 90 32 37
        E 480 80 2b 50
        E 0 80 32 37
        E 0 90 37 4f
        E 450 90 32 40
        E 495 80 37 4f
        E 0 80 32 40
        E 15 90 30 5c
        E 480 90 37 32
        E 465 80 37 32
        E 0 90 3c 4d
        E 15 80 30 5c
        E 930 80 3c 4d
        E 30 90 30 46
        E 450 90 37 2a
        E 480 90 3c 4d
        E 15 80 30 46
        E 0 80 37 2a
        E 975 80 3c 4d
        E 0 90 30 50
        E 480 90 37 33
        E 450 90 3c 40
        E 15 80 30 50
        E 0 80 37 33
        E 471 90 37 20
        E 474 80 3c 40
        E 0 80 37 20
        E 7 90 30 52
        E 468 90 37 3b
        E 485 90 3c 40
        E 15 80 30 52
        E 15 80 37 3b
        E 930 90 30 46
        E 15 80 3c 40
        E 480 90 37 1b
        E 465 80 37 1b
        E 15 80 30 46
        E 15 90 3c 35
        E 930 80 3c 35
        E 15 90 30 4a
        E 480 90 37 2d
        E 480 90 3c 24
        E 15 80 30 4a
        E 0 80 37 2d
        E 930 90 30 4e
        E 37 80 3c 24
        E 443 90 37 2c
        E 480 80 30 4e
        E 15 90 3c 31
        E 15 80 37 2c
        E 450 90 37 3e
        E 480 80 37 3e
        E 0 90 30 50
        E 15 80 3c 31
        E 465 90 37 33
        E 495 80 30 50
        E 0 90 3c 36
        E 15 80 37 33
        E 465 90 37 4b
        E 480 80 3c 36
        E 0 90 2d 51
        E 15 80 37 4b
        E 465 90 34 23
        E 480 90 39 3a
        E 15 80 2d 51
        E 0 80 34 23
        E 945 80 39 3a
        E 15 90 2d 4a
        E 450 90 34 3d
        E 495 80 2d 4a
        E 0 90 39 46
        E 15 80 34 3d
        E 945 80 39 46
        E 15 90 2d 45
        E 450 90 34 1f
        E 510 80 2d 45
        E 0 80 34 1f
        E 0 90 39 3a
        E 465 90 34 32
        E 465 80 34 32
        E 0 90 2d 50
        E 15 80 39 3a
        E 495 90 34 31
        E 450 90 39 49
        E 15 80 2d 50
        E 15 80 34 31
        E 465 90 34 55
        E 480 90 29 5b
        E 15 80 39 49
        E 0 80 34 55
        E 465 90 30 20
        E 480 80 30 20
        E 15 80 29 5b
        E 0 90 35 46
        E 930 80 35 46
        E 15 90 29 4b
        E 495 90 30 4e
        E 450 80 29 4b
        E 15 80 30 4e
        E 15 90 35 46
        E 945 90 2b 50
        E 15 80 35 46
        E 480 90 32 2f
        E 450 80 2b 50
        E 0 80 32 2f
        E 15 90 37 4d
        E 465 90 32 4a
        E 495 80 37 4d
        E 0 80 32 4a
        E 15 90 2b 50
        E 450 90 32 37
        E 480 80 32 37
        E 0 90 37 4f
        E 15 80 2b 50
        E 465 90 32 40
        E 480 80 37 4f
        E 0 80 32 40
        E 0 90 30 59
        E 480 90 37 32
        E 480 90 3c 4d
        E 15 80 30 59
        E 15 80 37 32
        E 945 90 30 46
        E 15 80 3c 4d
        E 465 90 37 2a
        E 480 80 30 46
        E 0 80 37 2a
        E 15 90 3c 4d
        E 930 90 30 50
        E 30 80 3c 4d
        E 465 90 37 33
        E 465 80 37 33
        E 15 80 30 50
        E 0 90 3c 40
        E 480 80 3c 40
        E 0 90 39 42
        E 240 80 39 20
        E 0 90 37 42
        E 232 90 30 52
        E 8 80 37 20
        E 430 90 37 3b
        E 515 80 30 52
        E 30 80 37 3b
        E 0 90 3c 40
        E 930 80 3c 40
        E 15 b0 7b 00
        GUID {CFE5108E-CDAD-48AF-959A-AE555B011142}
        IGNTEMPO 0 120 4 4
        SRCCOLOR 315
        VELLANE -1 100 0
        VELLANE -2 100 100
        CFGEDITVIEW 349846.857143 0.02925 55 12 0 -1 0 0 0 0.5
        KEYSNAP 0
        TRACKSEL 252
        EVTFILTER 0 -1 -1 -1 -1 0 0 0 0 -1 -1 -1 -1 0 -1 0 -1 -1
        CFGEDIT 1 0 0 1 1 1 1 1 1 1 1 0.125 402 136 1858 934 0 0 0 0 0 0 0 1 0 0.5 0 0 1 64
      >
    >
    <ITEM
      POSITION 40.00000000000501
      SNAPOFFS 0
      LENGTH 16
      LOOP 1
      ALLTAKES 0
      FADEIN 1 0 0 1 0 0
      FADEOUT 1 0 0 1 0 0
      MUTE 0
      COLOR 26607475 R
      SEL 0
      IGUID {7BDCACB1-1B3A-4E0F-AB01-E492FDA8287F}
      IID 11
      NAME "Then There was One - r/guitar - chorus"
      VOLPAN 1 0 1 -1
      SOFFS 32 64
      PLAYRATE 1 1 0 -1 0 0.0025
      CHANMODE 0
      GUID {B0A7C389-915B-46C3-9BD8-2E623DCC1909}
      <SOURCE MIDI
        HASDATA 1 960 QN
        POOLEDEVTS {34310F95-03E2-49CF-84BB-20EAB94FA747}
        <X 0 0 0 0 3 "EZkeys song"
          /wNFWmtleXMgc29uZw==
        >
        <X 0 0
          /wFCYXJPZmZzZXQgNDIgMC4wMDAwMDAgOC4wMDAwMDAgMTYuMDAwMA==
          MDAgMjAuMDAwMDAwIDI0LjAwMDAwMCA0MC4wMDAwMDAgNDguMDAwMA==
          MDAgNTIuMDAwMDAwIDU2LjAwMDAwMCA2NC4wMDAwMDAgNjguMDAwMA==
          MDAgNzIuMDAwMDAwIDgwLjAwMDAwMCA4NC4wMDAwMDAgODguMDAwMA==
          MDAgOTIuMDAwMDAwIDEwNC4wMDAwMDAgMTEyLjAwMDAwMCAxMTYuMA==
          MDAwMDAgMTIwLjAwMDAwMCAxMzYuMDAwMDAwIDE0NC4wMDAwMDAgMQ==
          NDguMDAwMDAwIDE1Mi4wMDAwMDAgMTYwLjAwMDAwMCAxNjQuMDAwMA==
          MDAgMTY4LjAwMDAwMCAxNzAuMDAwMDAwIDE3Mi4wMDAwMDAgMTc2Lg==
          MDAwMDAwIDE4MC4wMDAwMDAgMTg0LjAwMDAwMCAxODguMDAwMDAwIA==
          MTk2LjAwMDAwMCAyMDIuMDAwMDAwIDIwNC4wMDAwMDAgMjA4LjAwMA==
          MDAwIDIxMi4wMDAwMDAgMjE2LjAwMDAwMCAyMjAuMDAwMDAwIDIyNg==
          LjAwMDAwMCAyMjguMDAwMDAw
        >
        E 0 90 30 4d
        E 480 90 37 1b
        E 480 80 30 4d
        E 15 80 37 1b
        E 0 90 3c 35
        E 930 90 30 4a
        E 30 80 3c 35
        E 465 90 37 2d
        E 465 80 37 2d
        E 15 80 30 4a
        E 0 90 3c 24
        E 967 80 3c 24
        E 8 90 30 4e
        E 480 90 37 2c
        E 450 80 37 2c
        E 0 90 3c 31
        E 15 80 30 4e
        E 480 90 37 3e
        E 465 80 3c 31
        E 15 80 37 3e
        E 0 90 30 50
        E 465 90 37 33
        E 495 80 30 50
        E 0 90 3c 36
        E 15 80 37 33
        E 450 90 37 4b
        E 480 90 2d 51
        E 30 80 3c 36
        E 0 80 37 4b
        E 450 90 34 23
        E 495 80 34 23
        E 15 80 2d 51
        E 0 90 39 3a
        E 930 80 39 3a
        E 15 90 2d 4a
        E 480 90 34 3d
        E 480 80 2d 4a
        E 15 80 34 3d
        E 0 90 39 46
        E 960 80 39 46
        E 0 90 2d 45
        E 480 90 34 1f
        E 450 80 2d 45
        E 0 80 34 1f
        E 15 90 39 3a
        E 465 90 34 32
        E 480 80 39 3a
        E 15 80 34 32
        E 0 90 2d 50
        E 495 90 34 31
        E 465 80 2d 50
        E 0 80 34 31
        E 15 90 39 49
        E 450 90 34 55
        E 480 80 39 49
        E 15 90 29 4f
        E 15 80 34 55
        E 465 90 30 20
        E 465 80 30 20
        E 0 90 35 46
        E 30 80 29 4f
        E 945 80 35 46
        E 15 90 29 48
        E 465 90 30 53
        E 465 80 29 48
        E 15 80 30 53
        E 0 90 35 46
        E 975 80 35 46
        E 0 90 2b 58
        E 480 90 32 2f
        E 450 80 32 2f
        E 0 90 37 4d
        E 30 80 2b 58
        E 450 90 32 4a
        E 495 80 32 4a
        E 15 80 37 4d
        E 0 90 2b 50
        E 480 90 32 37
        E 480 80 2b 50
        E 0 80 32 37
        E 0 90 37 4f
        E 450 90 32 40
        E 495 80 37 4f
        E 0 80 32 40
        E 15 90 30 5c
        E 480 90 37 32
        E 465 80 37 32
        E 0 90 3c 4d
        E 15 80 30 5c
        E 930 80 3c 4d
        E 30 90 30 46
        E 450 90 37 2a
        E 480 90 3c 4d
        E 15 80 30 46
        E 0 80 37 2a
        E 975 80 3c 4d
        E 0 90 30 50
        E 480 90 37 33
        E 450 90 3c 40
        E 15 80 30 50
        E 0 80 37 33
        E 471 90 37 20
        E 474 80 3c 40
        E 0 80 37 20
        E 7 90 30 52
        E 468 90 37 3b
        E 485 90 3c 40
        E 15 80 30 52
        E 15 80 37 3b
        E 930 90 30 46
        E 15 80 3c 40
        E 480 90 37 1b
        E 465 80 37 1b
        E 15 80 30 46
        E 15 90 3c 35
        E 930 80 3c 35
        E 15 90 30 4a
        E 480 90 37 2d
        E 480 90 3c 24
        E 15 80 30 4a
        E 0 80 37 2d
        E 930 90 30 4e
        E 37 80 3c 24
        E 443 90 37 2c
        E 480 80 30 4e
        E 15 90 3c 31
        E 15 80 37 2c
        E 450 90 37 3e
        E 480 80 37 3e
        E 0 90 30 50
        E 15 80 3c 31
        E 465 90 37 33
        E 495 80 30 50
        E 0 90 3c 36
        E 15 80 37 33
        E 465 90 37 4b
        E 480 80 3c 36
        E 0 90 2d 51
        E 15 80 37 4b
        E 465 90 34 23
        E 480 90 39 3a
        E 15 80 2d 51
        E 0 80 34 23
        E 945 80 39 3a
        E 15 90 2d 4a
        E 450 90 34 3d
        E 495 80 2d 4a
        E 0 90 39 46
        E 15 80 34 3d
        E 945 80 39 46
        E 15 90 2d 45
        E 450 90 34 1f
        E 510 80 2d 45
        E 0 80 34 1f
        E 0 90 39 3a
        E 465 90 34 32
        E 465 80 34 32
        E 0 90 2d 50
        E 15 80 39 3a
        E 495 90 34 31
        E 450 90 39 49
        E 15 80 2d 50
        E 15 80 34 31
        E 465 90 34 55
        E 480 90 29 5b
        E 15 80 39 49
        E 0 80 34 55
        E 465 90 30 20
        E 480 80 30 20
        E 15 80 29 5b
        E 0 90 35 46
        E 930 80 35 46
        E 15 90 29 4b
        E 495 90 30 4e
        E 450 80 29 4b
        E 15 80 30 4e
        E 15 90 35 46
        E 945 90 2b 50
        E 15 80 35 46
        E 480 90 32 2f
        E 450 80 2b 50
        E 0 80 32 2f
        E 15 90 37 4d
        E 465 90 32 4a
        E 495 80 37 4d
        E 0 80 32 4a
        E 15 90 2b 50
        E 450 90 32 37
        E 480 80 32 37
        E 0 90 37 4f
        E 15 80 2b 50
        E 465 90 32 40
        E 480 80 37 4f
        E 0 80 32 40
        E 0 90 30 59
        E 480 90 37 32
        E 480 90 3c 4d
        E 15 80 30 59
        E 15 80 37 32
        E 945 90 30 46
        E 15 80 3c 4d
        E 465 90 37 2a
        E 480 80 30 46
        E 0 80 37 2a
        E 15 90 3c 4d
        E 930 90 30 50
        E 30 80 3c 4d
        E 465 90 37 33
        E 465 80 37 33
        E 15 80 30 50
        E 0 90 3c 40
        E 480 80 3c 40
        E 0 90 39 42
        E 240 80 39 20
        E 0 90 37 42
        E 232 90 30 52
        E 8 80 37 20
        E 430 90 37 3b
        E 515 80 30 52
        E 30 80 37 3b
        E 0 90 3c 40
        E 930 80 3c 40
        E 30 90 39 50
        E 930 90 41 4c
        E 30 80 39 50
        E 930 80 41 4c
        E 0 90 39 3f
        E 951 90 41 51
        E 39 80 39 3f
        E 930 80 41 51
        E 0 90 39 57
        E 480 90 3c 3f
        E 89 80 39 57
        E 391 90 41 50
        E 30 80 3c 3f
        E 930 90 39 4f
        E 15 80 41 50
        E 480 80 39 4f
        E 0 90 3c 53
        E 476 80 3c 53
        E 4 90 41 47
        E 975 80 41 47
        E 0 90 37 5b
        E 945 90 3e 4b
        E 15 80 37 5b
        E 945 80 3e 4b
        E 15 90 37 52
        E 930 80 37 52
        E 35 90 3e 4e
        E 925 80 3e 4e
        E 13 90 37 4f
        E 482 90 3b 55
        E 112 80 37 4f
        E 368 90 3e 49
        E 65 80 3b 55
        E 893 90 37 50
        E 17 80 3e 49
        E 465 90 3b 48
        E 142 80 37 50
        E 338 90 3e 53
        E 35 80 3b 48
        E 756 80 3e 53
        E 169 90 39 50
        E 960 90 41 51
        E 105 80 39 50
        E 855 80 41 51
        E 0 90 39 3f
        E 966 90 41 49
        E 9 80 39 3f
        E 930 90 39 57
        E 30 80 41 49
        E 450 90 3c 3f
        E 119 80 39 57
        E 361 80 3c 3f
        E 30 90 41 4a
        E 960 80 41 4a
        E 0 90 39 4f
        E 450 90 3c 53
        E 30 80 39 4f
        E 450 90 41 47
        E 26 80 3c 53
        E 934 90 3b 5b
        E 30 80 41 47
        E 465 90 3e 27
        E 135 80 3b 5b
        E 345 90 43 50
        E 15 80 3e 27
        E 945 90 3b 46
        E 15 80 43 50
        E 480 90 3e 27
        E 120 80 3b 46
        E 330 80 3e 27
        E 15 90 43 50
        E 960 80 43 50
        E 465 90 3c 4e
        E 480 80 3c 4e
        E 1 90 48 53
        E 29 90 37 4c
        E 1410 80 37 4c
        E 30 90 36 4a
        E 450 80 36 4a
        E 0 90 37 48
        E 975 80 37 00
        E 0 80 48 00
        E 0 b0 7b 00
        GUID {8906CEBE-543C-45B1-85A4-9E0CBB428408}
        IGNTEMPO 0 120 4 4
        SRCCOLOR 321
        VELLANE -1 100 0
        VELLANE -2 100 100
        CFGEDITVIEW 0 0 55 12 0 0 0 0 0 0.5
        KEYSNAP 0
        TRACKSEL 252
        EVTFILTER 0 -1 -1 -1 -1 0 0 0 0 -1 -1 -1 -1 0 -1 0 -1 -1
        CFGEDIT 1 0 0 1 1 1 1 1 1 1 1 0.125 402 136 1858 934 0 0 0 0 0 0 0 0 0 0.5 0 0 1 64
      >
    >
    <ITEM
      POSITION 56
      SNAPOFFS 0
      LENGTH 28
      LOOP 1
      ALLTAKES 0
      FADEIN 1 0 0 1 0 0
      FADEOUT 1 0 0 1 0 0
      MUTE 0
      COLOR 30403428 R
      SEL 0
      IGUID {590402E0-9C20-4349-AC7F-8F6813E9E0F7}
      IID 11
      NAME "Then There was One - r/guitar - verse (2)"
      VOLPAN 1 0 1 -1
      SOFFS 48 96
      PLAYRATE 1 1 0 -1 0 0.0025
      CHANMODE 0
      GUID {C8F2A024-C3FA-4E8A-82F8-1CC348E8B4D2}
      <SOURCE MIDI
        HASDATA 1 960 QN
        POOLEDEVTS {BADB6DA2-3577-4D36-A355-9CBCA1972897}
        <X 0 0 0 0 3 "EZkeys song"
          /wNFWmtleXMgc29uZw==
        >
        <X 0 0
          /wFCYXJPZmZzZXQgNDIgMC4wMDAwMDAgOC4wMDAwMDAgMTYuMDAwMA==
          MDAgMjAuMDAwMDAwIDI0LjAwMDAwMCA0MC4wMDAwMDAgNDguMDAwMA==
          MDAgNTIuMDAwMDAwIDU2LjAwMDAwMCA2NC4wMDAwMDAgNjguMDAwMA==
          MDAgNzIuMDAwMDAwIDgwLjAwMDAwMCA4NC4wMDAwMDAgODguMDAwMA==
          MDAgOTIuMDAwMDAwIDEwNC4wMDAwMDAgMTEyLjAwMDAwMCAxMTYuMA==
          MDAwMDAgMTIwLjAwMDAwMCAxMzYuMDAwMDAwIDE0NC4wMDAwMDAgMQ==
          NDguMDAwMDAwIDE1Mi4wMDAwMDAgMTYwLjAwMDAwMCAxNjQuMDAwMA==
          MDAgMTY4LjAwMDAwMCAxNzAuMDAwMDAwIDE3Mi4wMDAwMDAgMTc2Lg==
          MDAwMDAwIDE4MC4wMDAwMDAgMTg0LjAwMDAwMCAxODguMDAwMDAwIA==
          MTk2LjAwMDAwMCAyMDIuMDAwMDAwIDIwNC4wMDAwMDAgMjA4LjAwMA==
          MDAwIDIxMi4wMDAwMDAgMjE2LjAwMDAwMCAyMjAuMDAwMDAwIDIyNg==
          LjAwMDAwMCAyMjguMDAwMDAw
        >
        E 0 90 30 4d
        E 480 90 37 1b
        E 480 80 30 4d
        E 15 80 37 1b
        E 0 90 3c 35
        E 930 90 30 4a
        E 30 80 3c 35
        E 465 90 37 2d
        E 465 80 37 2d
        E 15 80 30 4a
        E 0 90 3c 24
        E 967 80 3c 24
        E 8 90 30 4e
        E 480 90 37 2c
        E 450 80 37 2c
        E 0 90 3c 31
        E 15 80 30 4e
        E 480 90 37 3e
        E 465 80 3c 31
        E 15 80 37 3e
        E 0 90 30 50
        E 465 90 37 33
        E 495 80 30 50
        E 0 90 3c 36
        E 15 80 37 33
        E 450 90 37 4b
        E 480 90 2d 51
        E 30 80 3c 36
        E 0 80 37 4b
        E 450 90 34 23
        E 495 80 34 23
        E 15 80 2d 51
        E 0 90 39 3a
        E 930 80 39 3a
        E 15 90 2d 4a
        E 480 90 34 3d
        E 480 80 2d 4a
        E 15 80 34 3d
        E 0 90 39 46
        E 960 80 39 46
        E 0 90 2d 45
        E 480 90 34 1f
        E 450 80 2d 45
        E 0 80 34 1f
        E 15 90 39 3a
        E 465 90 34 32
        E 480 80 39 3a
        E 15 80 34 32
        E 0 90 2d 50
        E 495 90 34 31
        E 465 80 2d 50
        E 0 80 34 31
        E 15 90 39 49
        E 450 90 34 55
        E 480 80 39 49
        E 15 90 29 4f
        E 15 80 34 55
        E 465 90 30 20
        E 465 80 30 20
        E 0 90 35 46
        E 30 80 29 4f
        E 945 80 35 46
        E 15 90 29 48
        E 465 90 30 53
        E 465 80 29 48
        E 15 80 30 53
        E 0 90 35 46
        E 975 80 35 46
        E 0 90 2b 58
        E 480 90 32 2f
        E 450 80 32 2f
        E 0 90 37 4d
        E 30 80 2b 58
        E 450 90 32 4a
        E 495 80 32 4a
        E 15 80 37 4d
        E 0 90 2b 50
        E 480 90 32 37
        E 480 80 2b 50
        E 0 80 32 37
        E 0 90 37 4f
        E 450 90 32 40
        E 495 80 37 4f
        E 0 80 32 40
        E 15 90 30 5c
        E 480 90 37 32
        E 465 80 37 32
        E 0 90 3c 4d
        E 15 80 30 5c
        E 930 80 3c 4d
        E 30 90 30 46
        E 450 90 37 2a
        E 480 90 3c 4d
        E 15 80 30 46
        E 0 80 37 2a
        E 975 80 3c 4d
        E 0 90 30 50
        E 480 90 37 33
        E 450 90 3c 40
        E 15 80 30 50
        E 0 80 37 33
        E 471 90 37 20
        E 474 80 3c 40
        E 0 80 37 20
        E 7 90 30 52
        E 468 90 37 3b
        E 485 90 3c 40
        E 15 80 30 52
        E 15 80 37 3b
        E 930 90 30 46
        E 15 80 3c 40
        E 480 90 37 1b
        E 465 80 37 1b
        E 15 80 30 46
        E 15 90 3c 35
        E 930 80 3c 35
        E 15 90 30 4a
        E 480 90 37 2d
        E 480 90 3c 24
        E 15 80 30 4a
        E 0 80 37 2d
        E 930 90 30 4e
        E 37 80 3c 24
        E 443 90 37 2c
        E 480 80 30 4e
        E 15 90 3c 31
        E 15 80 37 2c
        E 450 90 37 3e
        E 480 80 37 3e
        E 0 90 30 50
        E 15 80 3c 31
        E 465 90 37 33
        E 495 80 30 50
        E 0 90 3c 36
        E 15 80 37 33
        E 465 90 37 4b
        E 480 80 3c 36
        E 0 90 2d 51
        E 15 80 37 4b
        E 465 90 34 23
        E 480 90 39 3a
        E 15 80 2d 51
        E 0 80 34 23
        E 945 80 39 3a
        E 15 90 2d 4a
        E 450 90 34 3d
        E 495 80 2d 4a
        E 0 90 39 46
        E 15 80 34 3d
        E 945 80 39 46
        E 15 90 2d 45
        E 450 90 34 1f
        E 510 80 2d 45
        E 0 80 34 1f
        E 0 90 39 3a
        E 465 90 34 32
        E 465 80 34 32
        E 0 90 2d 50
        E 15 80 39 3a
        E 495 90 34 31
        E 450 90 39 49
        E 15 80 2d 50
        E 15 80 34 31
        E 465 90 34 55
        E 480 90 29 5b
        E 15 80 39 49
        E 0 80 34 55
        E 465 90 30 20
        E 480 80 30 20
        E 15 80 29 5b
        E 0 90 35 46
        E 930 80 35 46
        E 15 90 29 4b
        E 495 90 30 4e
        E 450 80 29 4b
        E 15 80 30 4e
        E 15 90 35 46
        E 945 90 2b 50
        E 15 80 35 46
        E 480 90 32 2f
        E 450 80 2b 50
        E 0 80 32 2f
        E 15 90 37 4d
        E 465 90 32 4a
        E 495 80 37 4d
        E 0 80 32 4a
        E 15 90 2b 50
        E 450 90 32 37
        E 480 80 32 37
        E 0 90 37 4f
        E 15 80 2b 50
        E 465 90 32 40
        E 480 80 37 4f
        E 0 80 32 40
        E 0 90 30 59
        E 480 90 37 32
        E 480 90 3c 4d
        E 15 80 30 59
        E 15 80 37 32
        E 945 90 30 46
        E 15 80 3c 4d
        E 465 90 37 2a
        E 480 80 30 46
        E 0 80 37 2a
        E 15 90 3c 4d
        E 930 90 30 50
        E 30 80 3c 4d
        E 465 90 37 33
        E 465 80 37 33
        E 15 80 30 50
        E 0 90 3c 40
        E 480 80 3c 40
        E 0 90 39 42
        E 240 80 39 20
        E 0 90 37 42
        E 232 90 30 52
        E 8 80 37 20
        E 430 90 37 3b
        E 515 80 30 52
        E 30 80 37 3b
        E 0 90 3c 40
        E 930 80 3c 40
        E 30 90 39 50
        E 930 90 41 4c
        E 30 80 39 50
        E 930 80 41 4c
        E 0 90 39 3f
        E 951 90 41 51
        E 39 80 39 3f
        E 930 80 41 51
        E 0 90 39 57
        E 480 90 3c 3f
        E 89 80 39 57
        E 391 90 41 50
        E 30 80 3c 3f
        E 930 90 39 4f
        E 15 80 41 50
        E 480 80 39 4f
        E 0 90 3c 53
        E 476 80 3c 53
        E 4 90 41 47
        E 975 80 41 47
        E 0 90 37 5b
        E 945 90 3e 4b
        E 15 80 37 5b
        E 945 80 3e 4b
        E 15 90 37 52
        E 930 80 37 52
        E 35 90 3e 4e
        E 925 80 3e 4e
        E 13 90 37 4f
        E 482 90 3b 55
        E 112 80 37 4f
        E 368 90 3e 49
        E 65 80 3b 55
        E 893 90 37 50
        E 17 80 3e 49
        E 465 90 3b 48
        E 142 80 37 50
        E 338 90 3e 53
        E 35 80 3b 48
        E 756 80 3e 53
        E 169 90 39 50
        E 960 90 41 51
        E 105 80 39 50
        E 855 80 41 51
        E 0 90 39 3f
        E 966 90 41 49
        E 9 80 39 3f
        E 930 90 39 57
        E 30 80 41 49
        E 450 90 3c 3f
        E 119 80 39 57
        E 361 80 3c 3f
        E 30 90 41 4a
        E 960 80 41 4a
        E 0 90 39 4f
        E 450 90 3c 53
        E 30 80 39 4f
        E 450 90 41 47
        E 26 80 3c 53
        E 934 90 3b 5b
        E 30 80 41 47
        E 465 90 3e 27
        E 135 80 3b 5b
        E 345 90 43 50
        E 15 80 3e 27
        E 945 90 3b 46
        E 15 80 43 50
        E 480 90 3e 27
        E 120 80 3b 46
        E 330 80 3e 27
        E 15 90 43 50
        E 960 80 43 50
        E 465 90 3c 4e
        E 480 80 3c 4e
        E 30 90 37 4c
        E 1410 80 37 4c
        E 30 90 36 4a
        E 450 80 36 4a
        E 0 90 37 48
        E 975 80 37 48
        E 0 90 30 46
        E 465 90 37 1b
        E 480 80 30 46
        E 30 80 37 1b
        E 0 90 3c 35
        E 945 90 30 4a
        E 15 80 3c 35
        E 450 90 37 2d
        E 480 80 30 4a
        E 30 80 37 2d
        E 0 90 3c 24
        E 930 90 30 49
        E 37 80 3c 24
        E 443 90 37 2c
        E 480 80 37 2c
        E 0 90 3c 31
        E 15 80 30 49
        E 495 90 37 5e
        E 465 80 3c 31
        E 0 90 30 50
        E 15 80 37 3e
        E 465 90 37 33
        E 465 80 30 50
        E 30 80 37 33
        E 0 90 3c 36
        E 450 90 37 4e
        E 480 80 37 4e
        E 0 90 2d 51
        E 30 80 3c 36
        E 465 90 34 23
        E 480 80 2d 51
        E 0 90 39 3a
        E 15 80 34 23
        E 930 80 39 3a
        E 30 90 2d 4a
        E 450 90 34 3d
        E 480 80 2d 4a
        E 15 80 34 3d
        E 0 90 39 46
        E 945 90 2d 45
        E 30 80 39 46
        E 465 90 34 1f
        E 465 80 2d 45
        E 0 90 39 3a
        E 30 80 34 1f
        E 480 90 34 32
        E 450 80 39 3a
        E 0 80 34 32
        E 15 90 2d 50
        E 480 90 34 31
        E 465 80 2d 50
        E 30 80 34 31
        E 0 90 39 49
        E 450 90 34 55
        E 480 80 34 55
        E 15 80 39 49
        E 15 90 29 5b
        E 465 90 30 20
        E 465 80 29 5b
        E 0 80 30 20
        E 0 90 35 46
        E 975 80 35 46
        E 15 90 29 52
        E 480 90 30 35
        E 465 80 30 35
        E 15 80 29 52
        E 0 90 35 46
        E 930 90 2b 50
        E 15 80 35 46
        E 465 90 32 2f
        E 480 80 2b 50
        E 30 80 32 2f
        E 0 90 37 4d
        E 480 90 32 4a
        E 450 80 37 4d
        E 0 80 32 4a
        E 30 90 2b 50
        E 450 90 32 37
        E 480 80 2b 50
        E 0 90 37 4f
        E 15 80 32 37
        E 465 90 32 40
        E 480 80 37 4f
        E 30 80 32 40
        E 0 90 30 53
        E 480 90 37 32
        E 465 80 30 53
        E 0 80 37 32
        E 15 90 3c 4d
        E 930 80 3c 4d
        E 30 90 30 46
        E 450 90 37 2a
        E 480 80 30 46
        E 15 80 37 2a
        E 15 90 3c 4d
        E 945 80 3c 4d
        E 15 90 30 50
        E 465 90 37 33
        E 495 80 30 50
        E 0 80 37 33
        E 0 90 3c 40
        E 486 90 37 20
        E 459 80 37 20
        E 7 90 30 52
        E 8 80 3c 40
        E 415 90 37 3b
        E 530 80 30 52
        E 15 80 37 3b
        E 0 90 3c 40
        E 945 90 30 46
        E 15 80 3c 40
        E 450 90 37 1b
        E 480 80 37 1b
        E 30 80 30 46
        E 0 90 3c 4d
        E 930 90 30 4a
        E 30 80 3c 35
        E 450 90 37 2d
        E 480 80 37 2d
        E 15 80 30 4a
        E 0 90 3c 4b
        E 952 80 3c 24
        E 8 90 30 4a
        E 480 90 37 2c
        E 465 80 37 2c
        E 0 90 3c 31
        E 30 80 30 4a
        E 465 90 37 3e
        E 465 80 37 3e
        E 0 90 30 50
        E 30 80 3c 31
        E 465 90 37 33
        E 480 80 30 50
        E 15 80 37 33
        E 0 90 3c 36
        E 465 90 37 4f
        E 465 80 37 4f
        E 15 80 3c 36
        E 15 90 2d 51
        E 465 90 34 23
        E 465 90 39 3a
        E 15 80 2d 51
        E 15 80 34 23
        E 930 90 2d 4a
        E 15 80 39 3a
        E 465 90 34 3d
        E 480 80 2d 4a
        E 0 90 39 46
        E 30 80 34 3d
        E 930 90 2d 45
        E 15 80 39 46
        E 495 90 34 1f
        E 450 90 39 3a
        E 15 80 2d 45
        E 15 80 34 1f
        E 450 90 34 32
        E 480 80 39 3a
        E 0 90 2d 50
        E 30 80 34 32
        E 480 90 34 31
        E 450 90 39 49
        E 15 80 2d 50
        E 0 80 34 31
        E 465 90 34 55
        E 480 80 39 49
        E 15 90 29 4f
        E 15 80 34 55
        E 450 90 30 20
        E 480 80 30 20
        E 0 90 35 46
        E 15 80 29 4f
        E 945 80 35 46
        E 0 90 29 52
        E 495 90 30 35
        E 465 80 30 35
        E 15 80 29 52
        E 15 90 35 46
        E 930 90 2b 5c
        E 15 80 35 46
        E 465 90 32 2f
        E 480 80 2b 5c
        E 15 90 37 4d
        E 15 80 32 2f
        E 465 90 32 4a
        E 465 80 37 4d
        E 0 80 32 4a
        E 15 90 2b 50
        E 480 90 32 37
        E 465 80 32 37
        E 15 80 2b 50
        E 15 90 37 4f
        E 465 90 32 40
        E 480 80 37 00
        E 0 80 32 00
        E 0 b0 7b 00
        GUID {B2C9AE75-53DF-42E8-930E-C0869F03F641}
        IGNTEMPO 0 120 4 4
        SRCCOLOR 322
        VELLANE -1 100 0
        VELLANE -2 100 100
        CFGEDITVIEW 92117.633182 0.911848 50 12 0 0 0 0 0 0.5
        KEYSNAP 0
        TRACKSEL 252
        EVTFILTER 0 -1 -1 -1 -1 0 0 0 0 -1 -1 -1 -1 0 -1 0 -1 -1
        CFGEDIT 1 0 0 1 1 1 1 1 1 1 1 0.125 402 136 1858 934 0 0 0 0 0 0 0 0 0 0.5 0 0 1 64
      >
    >
    <ITEM
      POSITION 84
      SNAPOFFS 0
      LENGTH 8.0221210584848
      LOOP 1
      ALLTAKES 0
      FADEIN 1 0 0 1 0 0
      FADEOUT 1 0 0 1 0 0
      MUTE 0
      COLOR 30403428 R
      SEL 0
      IGUID {9B4ED692-2D34-4A62-93A9-F5FEC76D73E7}
      IID 11
      NAME "Then There was One - r/guitar - verse (2)"
      VOLPAN 1 0 1 -1
      SOFFS 76 152
      PLAYRATE 1 1 0 -1 0 0.0025
      CHANMODE 0
      GUID {039AA942-7DA2-4566-ADFA-51570AC47B1D}
      <SOURCE MIDI
        HASDATA 1 960 QN
        POOLEDEVTS {34D94FD5-B658-43AA-9FAC-07B1F2E3FF89}
        <X 0 0 0 0 3 "EZkeys song"
          /wNFWmtleXMgc29uZw==
        >
        <X 0 0
          /wFCYXJPZmZzZXQgNDIgMC4wMDAwMDAgOC4wMDAwMDAgMTYuMDAwMA==
          MDAgMjAuMDAwMDAwIDI0LjAwMDAwMCA0MC4wMDAwMDAgNDguMDAwMA==
          MDAgNTIuMDAwMDAwIDU2LjAwMDAwMCA2NC4wMDAwMDAgNjguMDAwMA==
          MDAgNzIuMDAwMDAwIDgwLjAwMDAwMCA4NC4wMDAwMDAgODguMDAwMA==
          MDAgOTIuMDAwMDAwIDEwNC4wMDAwMDAgMTEyLjAwMDAwMCAxMTYuMA==
          MDAwMDAgMTIwLjAwMDAwMCAxMzYuMDAwMDAwIDE0NC4wMDAwMDAgMQ==
          NDguMDAwMDAwIDE1Mi4wMDAwMDAgMTYwLjAwMDAwMCAxNjQuMDAwMA==
          MDAgMTY4LjAwMDAwMCAxNzAuMDAwMDAwIDE3Mi4wMDAwMDAgMTc2Lg==
          MDAwMDAwIDE4MC4wMDAwMDAgMTg0LjAwMDAwMCAxODguMDAwMDAwIA==
          MTk2LjAwMDAwMCAyMDIuMDAwMDAwIDIwNC4wMDAwMDAgMjA4LjAwMA==
          MDAwIDIxMi4wMDAwMDAgMjE2LjAwMDAwMCAyMjAuMDAwMDAwIDIyNg==
          LjAwMDAwMCAyMjguMDAwMDAw
        >
        E 0 90 30 4d
        E 480 90 37 1b
        E 480 80 30 4d
        E 15 80 37 1b
        E 0 90 3c 35
        E 930 90 30 4a
        E 30 80 3c 35
        E 465 90 37 2d
        E 465 80 37 2d
        E 15 80 30 4a
        E 0 90 3c 24
        E 967 80 3c 24
        E 8 90 30 4e
        E 480 90 37 2c
        E 450 80 37 2c
        E 0 90 3c 31
        E 15 80 30 4e
        E 480 90 37 3e
        E 465 80 3c 31
        E 15 80 37 3e
        E 0 90 30 50
        E 465 90 37 33
        E 495 80 30 50
        E 0 90 3c 36
        E 15 80 37 33
        E 450 90 37 4b
        E 480 90 2d 51
        E 30 80 3c 36
        E 0 80 37 4b
        E 450 90 34 23
        E 495 80 34 23
        E 15 80 2d 51
        E 0 90 39 3a
        E 930 80 39 3a
        E 15 90 2d 4a
        E 480 90 34 3d
        E 480 80 2d 4a
        E 15 80 34 3d
        E 0 90 39 46
        E 960 80 39 46
        E 0 90 2d 45
        E 480 90 34 1f
        E 450 80 2d 45
        E 0 80 34 1f
        E 15 90 39 3a
        E 465 90 34 32
        E 480 80 39 3a
        E 15 80 34 32
        E 0 90 2d 50
        E 495 90 34 31
        E 465 80 2d 50
        E 0 80 34 31
        E 15 90 39 49
        E 450 90 34 55
        E 480 80 39 49
        E 15 90 29 4f
        E 15 80 34 55
        E 465 90 30 20
        E 465 80 30 20
        E 0 90 35 46
        E 30 80 29 4f
        E 945 80 35 46
        E 15 90 29 48
        E 465 90 30 53
        E 465 80 29 48
        E 15 80 30 53
        E 0 90 35 46
        E 975 80 35 46
        E 0 90 2b 58
        E 480 90 32 2f
        E 450 80 32 2f
        E 0 90 37 4d
        E 30 80 2b 58
        E 450 90 32 4a
        E 495 80 32 4a
        E 15 80 37 4d
        E 0 90 2b 50
        E 480 90 32 37
        E 480 80 2b 50
        E 0 80 32 37
        E 0 90 37 4f
        E 450 90 32 40
        E 495 80 37 4f
        E 0 80 32 40
        E 15 90 30 5c
        E 480 90 37 32
        E 465 80 37 32
        E 0 90 3c 4d
        E 15 80 30 5c
        E 930 80 3c 4d
        E 30 90 30 46
        E 450 90 37 2a
        E 480 90 3c 4d
        E 15 80 30 46
        E 0 80 37 2a
        E 975 80 3c 4d
        E 0 90 30 50
        E 480 90 37 33
        E 450 90 3c 40
        E 15 80 30 50
        E 0 80 37 33
        E 471 90 37 20
        E 474 80 3c 40
        E 0 80 37 20
        E 7 90 30 52
        E 468 90 37 3b
        E 485 90 3c 40
        E 15 80 30 52
        E 15 80 37 3b
        E 930 90 30 46
        E 15 80 3c 40
        E 480 90 37 1b
        E 465 80 37 1b
        E 15 80 30 46
        E 15 90 3c 35
        E 930 80 3c 35
        E 15 90 30 4a
        E 480 90 37 2d
        E 480 90 3c 24
        E 15 80 30 4a
        E 0 80 37 2d
        E 930 90 30 4e
        E 37 80 3c 24
        E 443 90 37 2c
        E 480 80 30 4e
        E 15 90 3c 31
        E 15 80 37 2c
        E 450 90 37 3e
        E 480 80 37 3e
        E 0 90 30 50
        E 15 80 3c 31
        E 465 90 37 33
        E 495 80 30 50
        E 0 90 3c 36
        E 15 80 37 33
        E 465 90 37 4b
        E 480 80 3c 36
        E 0 90 2d 51
        E 15 80 37 4b
        E 465 90 34 23
        E 480 90 39 3a
        E 15 80 2d 51
        E 0 80 34 23
        E 945 80 39 3a
        E 15 90 2d 4a
        E 450 90 34 3d
        E 495 80 2d 4a
        E 0 90 39 46
        E 15 80 34 3d
        E 945 80 39 46
        E 15 90 2d 45
        E 450 90 34 1f
        E 510 80 2d 45
        E 0 80 34 1f
        E 0 90 39 3a
        E 465 90 34 32
        E 465 80 34 32
        E 0 90 2d 50
        E 15 80 39 3a
        E 495 90 34 31
        E 450 90 39 49
        E 15 80 2d 50
        E 15 80 34 31
        E 465 90 34 55
        E 480 90 29 5b
        E 15 80 39 49
        E 0 80 34 55
        E 465 90 30 20
        E 480 80 30 20
        E 15 80 29 5b
        E 0 90 35 46
        E 930 80 35 46
        E 15 90 29 4b
        E 495 90 30 4e
        E 450 80 29 4b
        E 15 80 30 4e
        E 15 90 35 46
        E 945 90 2b 50
        E 15 80 35 46
        E 480 90 32 2f
        E 450 80 2b 50
        E 0 80 32 2f
        E 15 90 37 4d
        E 465 90 32 4a
        E 495 80 37 4d
        E 0 80 32 4a
        E 15 90 2b 50
        E 450 90 32 37
        E 480 80 32 37
        E 0 90 37 4f
        E 15 80 2b 50
        E 465 90 32 40
        E 480 80 37 4f
        E 0 80 32 40
        E 0 90 30 59
        E 480 90 37 32
        E 480 90 3c 4d
        E 15 80 30 59
        E 15 80 37 32
        E 945 90 30 46
        E 15 80 3c 4d
        E 465 90 37 2a
        E 480 80 30 46
        E 0 80 37 2a
        E 15 90 3c 4d
        E 930 90 30 50
        E 30 80 3c 4d
        E 465 90 37 33
        E 465 80 37 33
        E 15 80 30 50
        E 0 90 3c 40
        E 480 80 3c 40
        E 0 90 39 42
        E 240 80 39 20
        E 0 90 37 42
        E 232 90 30 52
        E 8 80 37 20
        E 430 90 37 3b
        E 515 80 30 52
        E 30 80 37 3b
        E 0 90 3c 40
        E 930 80 3c 40
        E 30 90 39 50
        E 930 90 41 4c
        E 30 80 39 50
        E 930 80 41 4c
        E 0 90 39 3f
        E 951 90 41 51
        E 39 80 39 3f
        E 930 80 41 51
        E 0 90 39 57
        E 480 90 3c 3f
        E 89 80 39 57
        E 391 90 41 50
        E 30 80 3c 3f
        E 930 90 39 4f
        E 15 80 41 50
        E 480 80 39 4f
        E 0 90 3c 53
        E 476 80 3c 53
        E 4 90 41 47
        E 975 80 41 47
        E 0 90 37 5b
        E 945 90 3e 4b
        E 15 80 37 5b
        E 945 80 3e 4b
        E 15 90 37 52
        E 930 80 37 52
        E 35 90 3e 4e
        E 925 80 3e 4e
        E 13 90 37 4f
        E 482 90 3b 55
        E 112 80 37 4f
        E 368 90 3e 49
        E 65 80 3b 55
        E 893 90 37 50
        E 17 80 3e 49
        E 465 90 3b 48
        E 142 80 37 50
        E 338 90 3e 53
        E 35 80 3b 48
        E 756 80 3e 53
        E 169 90 39 50
        E 960 90 41 51
        E 105 80 39 50
        E 855 80 41 51
        E 0 90 39 3f
        E 966 90 41 49
        E 9 80 39 3f
        E 930 90 39 57
        E 30 80 41 49
        E 450 90 3c 3f
        E 119 80 39 57
        E 361 80 3c 3f
        E 30 90 41 4a
        E 960 80 41 4a
        E 0 90 39 4f
        E 450 90 3c 53
        E 30 80 39 4f
        E 450 90 41 47
        E 26 80 3c 53
        E 934 90 3b 5b
        E 30 80 41 47
        E 465 90 3e 27
        E 135 80 3b 5b
        E 345 90 43 50
        E 15 80 3e 27
        E 945 90 3b 46
        E 15 80 43 50
        E 480 90 3e 27
        E 120 80 3b 46
        E 330 80 3e 27
        E 15 90 43 50
        E 960 80 43 50
        E 465 90 3c 4e
        E 480 80 3c 4e
        E 1 90 48 53
        E 29 90 37 4c
        E 1410 80 37 4c
        E 30 90 36 4a
        E 450 80 36 4a
        E 0 90 37 48
        E 975 80 37 48
        E 0 90 30 46
        E 15 80 48 53
        E 450 90 37 1b
        E 480 80 30 46
        E 30 80 37 1b
        E 0 90 3c 35
        E 945 90 30 4a
        E 15 80 3c 35
        E 450 90 37 2d
        E 480 80 30 4a
        E 30 80 37 2d
        E 0 90 3c 24
        E 930 90 30 49
        E 37 80 3c 24
        E 443 90 37 2c
        E 480 80 37 2c
        E 0 90 3c 31
        E 15 80 30 49
        E 495 90 37 5e
        E 465 80 3c 31
        E 0 90 30 50
        E 15 80 37 3e
        E 465 90 37 33
        E 465 80 30 50
        E 30 80 37 33
        E 0 90 3c 36
        E 450 90 37 4e
        E 480 80 37 4e
        E 0 90 2d 51
        E 30 80 3c 36
        E 465 90 34 23
        E 480 80 2d 51
        E 0 90 39 3a
        E 15 80 34 23
        E 930 80 39 3a
        E 30 90 2d 4a
        E 450 90 34 3d
        E 480 80 2d 4a
        E 15 80 34 3d
        E 0 90 39 46
        E 945 90 2d 45
        E 30 80 39 46
        E 465 90 34 1f
        E 465 80 2d 45
        E 0 90 39 3a
        E 30 80 34 1f
        E 480 90 34 32
        E 450 80 39 3a
        E 0 80 34 32
        E 15 90 2d 50
        E 480 90 34 31
        E 465 80 2d 50
        E 30 80 34 31
        E 0 90 39 49
        E 450 90 34 55
        E 480 80 34 55
        E 15 80 39 49
        E 15 90 29 5b
        E 465 90 30 20
        E 465 80 29 5b
        E 0 80 30 20
        E 0 90 35 46
        E 975 80 35 46
        E 15 90 29 52
        E 480 90 30 35
        E 465 80 30 35
        E 15 80 29 52
        E 0 90 35 46
        E 930 90 2b 50
        E 15 80 35 46
        E 465 90 32 2f
        E 480 80 2b 50
        E 30 80 32 2f
        E 0 90 37 4d
        E 480 90 32 4a
        E 450 80 37 4d
        E 0 80 32 4a
        E 30 90 2b 50
        E 450 90 32 37
        E 480 80 2b 50
        E 0 90 37 4f
        E 15 80 32 37
        E 465 90 32 40
        E 480 80 37 4f
        E 30 80 32 40
        E 0 90 30 53
        E 480 90 37 32
        E 465 80 30 53
        E 0 80 37 32
        E 15 90 3c 4d
        E 930 80 3c 4d
        E 30 90 30 46
        E 450 90 37 2a
        E 480 80 30 46
        E 15 80 37 2a
        E 15 90 3c 4d
        E 945 80 3c 4d
        E 15 90 30 50
        E 465 90 37 33
        E 495 80 30 50
        E 0 80 37 33
        E 0 90 3c 40
        E 486 90 37 20
        E 459 80 37 20
        E 7 90 30 52
        E 8 80 3c 40
        E 415 90 37 3b
        E 530 80 30 52
        E 15 80 37 3b
        E 0 90 3c 40
        E 945 90 30 46
        E 15 80 3c 40
        E 450 90 37 1b
        E 480 80 37 1b
        E 30 80 30 46
        E 0 90 3c 4d
        E 930 90 30 4a
        E 30 80 3c 35
        E 450 90 37 2d
        E 480 80 37 2d
        E 15 80 30 4a
        E 0 90 3c 4b
        E 952 80 3c 24
        E 8 90 30 4a
        E 480 90 37 2c
        E 465 80 37 2c
        E 0 90 3c 31
        E 30 80 30 4a
        E 465 90 37 3e
        E 465 80 37 3e
        E 0 90 30 50
        E 30 80 3c 31
        E 465 90 37 33
        E 480 80 30 50
        E 15 80 37 33
        E 0 90 3c 36
        E 465 90 37 4f
        E 465 80 37 4f
        E 15 80 3c 36
        E 15 90 2d 51
        E 465 90 34 23
        E 465 90 39 3a
        E 15 80 2d 51
        E 15 80 34 23
        E 930 90 2d 4a
        E 15 80 39 3a
        E 465 90 34 3d
        E 480 80 2d 4a
        E 0 90 39 46
        E 30 80 34 3d
        E 930 90 2d 45
        E 15 80 39 46
        E 495 90 34 1f
        E 450 90 39 3a
        E 15 80 2d 45
        E 15 80 34 1f
        E 450 90 34 32
        E 480 80 39 3a
        E 0 90 2d 50
        E 30 80 34 32
        E 480 90 34 31
        E 450 90 39 49
        E 15 80 2d 50
        E 0 80 34 31
        E 465 90 34 55
        E 480 80 39 49
        E 15 90 29 4f
        E 15 80 34 55
        E 450 90 30 20
        E 480 80 30 20
        E 0 90 35 46
        E 15 80 29 4f
        E 945 80 35 46
        E 0 90 29 52
        E 495 90 30 35
        E 465 80 30 35
        E 15 80 29 52
        E 15 90 35 46
        E 930 90 2b 5c
        E 15 80 35 46
        E 465 90 32 2f
        E 480 80 2b 5c
        E 15 90 37 4d
        E 15 80 32 2f
        E 465 90 32 4a
        E 465 80 37 4d
        E 0 80 32 4a
        E 15 90 2b 50
        E 480 90 32 37
        E 465 80 32 37
        E 15 80 2b 50
        E 15 90 37 4f
        E 465 90 32 40
        E 480 80 37 4f
        E 0 90 28 57
        E 15 80 32 40
        E 450 90 2f 32
        E 495 80 28 57
        E 0 80 2f 32
        E 0 90 34 4d
        E 960 80 34 4d
        E 0 90 28 51
        E 480 90 2f 3b
        E 465 80 28 46
        E 15 80 2f 2a
        E 0 90 34 4d
        E 960 80 34 4d
        E 15 90 28 50
        E 450 90 2f 33
        E 480 80 2f 33
        E 15 80 28 50
        E 0 90 34 40
        E 471 90 2f 20
        E 474 80 2f 20
        E 7 90 28 52
        E 23 80 34 40
        E 415 90 2f 3b
        E 515 80 2f 3b
        E 0 90 34 40
        E 15 80 28 52
        E 945 80 34 40
        E 15 90 29 4d
        E 465 90 30 1b
        E 480 80 29 4d
        E 0 90 35 35
        E 15 80 30 1b
        E 960 90 29 4a
        E 15 80 35 35
        E 465 90 30 2d
        E 465 80 30 2d
        E 15 80 29 4a
        E 0 90 35 24
        E 945 90 2b 52
        E 7 80 35 24
        E 503 90 32 2c
        E 450 80 2b 52
        E 0 90 37 31
        E 30 80 32 2c
        E 450 90 32 3e
        E 495 80 32 3e
        E 0 90 2b 50
        E 15 80 37 31
        E 450 90 32 33
        E 480 80 32 33
        E 15 90 37 36
        E 15 80 2b 50
        E 465 90 32 4b
        E 465 80 37 36
        E 0 80 32 4b
        E 0 90 34 59
        E 15 90 2d 5b
        E 42 80 34 00
        E 0 80 2d 00
        E 0 b0 7b 00
        GUID {068676E1-DCF6-45DF-B7DA-C756FCF6AE48}
        IGNTEMPO 0 120 4 4
        SRCCOLOR 422
        VELLANE -1 100 0
        VELLANE -2 100 100
        CFGEDITVIEW 0 0 55 12 0 0 0 0 0 0.5
        KEYSNAP 0
        TRACKSEL 252
        EVTFILTER 0 -1 -1 -1 -1 0 0 0 0 -1 -1 -1 -1 0 -1 0 -1 -1
        CFGEDIT 1 0 0 1 1 1 1 1 1 1 1 0.125 402 136 1858 934 0 0 0 0 0 0 0 0 0 0.5 0 0 1 64
      >
    >
    <ITEM
      POSITION 127.97994377535755
      SNAPOFFS 0
      LENGTH 16
      LOOP 1
      ALLTAKES 0
      FADEIN 1 3.082978 0 1 0 0
      FADEOUT 1 0 0 1 0 0
      MUTE 0
      COLOR 31035656 R
      SEL 0
      IGUID {EC9272FC-0F6B-474A-94BC-6F0759A61118}
      IID 11
      NAME "Then There was One - r/guitar - chorus"
      VOLPAN 1 0 1 -1
      SOFFS 32 64
      PLAYRATE 1 1 0 -1 0 0.0025
      CHANMODE 0
      GUID {239362F8-707D-424D-AA02-C2F8EF901230}
      <SOURCE MIDI
        HASDATA 1 960 QN
        POOLEDEVTS {B1EABC41-AC12-4998-90EE-6A358B24815F}
        <X 0 0 0 0 3 "EZkeys song"
          /wNFWmtleXMgc29uZw==
        >
        <X 0 0
          /wFCYXJPZmZzZXQgNDIgMC4wMDAwMDAgOC4wMDAwMDAgMTYuMDAwMA==
          MDAgMjAuMDAwMDAwIDI0LjAwMDAwMCA0MC4wMDAwMDAgNDguMDAwMA==
          MDAgNTIuMDAwMDAwIDU2LjAwMDAwMCA2NC4wMDAwMDAgNjguMDAwMA==
          MDAgNzIuMDAwMDAwIDgwLjAwMDAwMCA4NC4wMDAwMDAgODguMDAwMA==
          MDAgOTIuMDAwMDAwIDEwNC4wMDAwMDAgMTEyLjAwMDAwMCAxMTYuMA==
          MDAwMDAgMTIwLjAwMDAwMCAxMzYuMDAwMDAwIDE0NC4wMDAwMDAgMQ==
          NDguMDAwMDAwIDE1Mi4wMDAwMDAgMTYwLjAwMDAwMCAxNjQuMDAwMA==
          MDAgMTY4LjAwMDAwMCAxNzAuMDAwMDAwIDE3Mi4wMDAwMDAgMTc2Lg==
          MDAwMDAwIDE4MC4wMDAwMDAgMTg0LjAwMDAwMCAxODguMDAwMDAwIA==
          MTk2LjAwMDAwMCAyMDIuMDAwMDAwIDIwNC4wMDAwMDAgMjA4LjAwMA==
          MDAwIDIxMi4wMDAwMDAgMjE2LjAwMDAwMCAyMjAuMDAwMDAwIDIyNg==
          LjAwMDAwMCAyMjguMDAwMDAw
        >
        E 0 90 30 4d
        E 480 90 37 1b
        E 480 80 30 4d
        E 15 80 37 1b
        E 0 90 3c 35
        E 930 90 30 4a
        E 30 80 3c 35
        E 465 90 37 2d
        E 465 80 37 2d
        E 15 80 30 4a
        E 0 90 3c 24
        E 967 80 3c 24
        E 8 90 30 4e
        E 480 90 37 2c
        E 450 80 37 2c
        E 0 90 3c 31
        E 15 80 30 4e
        E 480 90 37 3e
        E 465 80 3c 31
        E 15 80 37 3e
        E 0 90 30 50
        E 465 90 37 33
        E 495 80 30 50
        E 0 90 3c 36
        E 15 80 37 33
        E 450 90 37 4b
        E 480 90 2d 51
        E 30 80 3c 36
        E 0 80 37 4b
        E 450 90 34 23
        E 495 80 34 23
        E 15 80 2d 51
        E 0 90 39 3a
        E 930 80 39 3a
        E 15 90 2d 4a
        E 480 90 34 3d
        E 480 80 2d 4a
        E 15 80 34 3d
        E 0 90 39 46
        E 960 80 39 46
        E 0 90 2d 45
        E 480 90 34 1f
        E 450 80 2d 45
        E 0 80 34 1f
        E 15 90 39 3a
        E 465 90 34 32
        E 480 80 39 3a
        E 15 80 34 32
        E 0 90 2d 50
        E 495 90 34 31
        E 465 80 2d 50
        E 0 80 34 31
        E 15 90 39 49
        E 450 90 34 55
        E 480 80 39 49
        E 15 90 29 4f
        E 15 80 34 55
        E 465 90 30 20
        E 465 80 30 20
        E 0 90 35 46
        E 30 80 29 4f
        E 945 80 35 46
        E 15 90 29 48
        E 465 90 30 53
        E 465 80 29 48
        E 15 80 30 53
        E 0 90 35 46
        E 975 80 35 46
        E 0 90 2b 58
        E 480 90 32 2f
        E 450 80 32 2f
        E 0 90 37 4d
        E 30 80 2b 58
        E 450 90 32 4a
        E 495 80 32 4a
        E 15 80 37 4d
        E 0 90 2b 50
        E 480 90 32 37
        E 480 80 2b 50
        E 0 80 32 37
        E 0 90 37 4f
        E 450 90 32 40
        E 495 80 37 4f
        E 0 80 32 40
        E 15 90 30 5c
        E 480 90 37 32
        E 465 80 37 32
        E 0 90 3c 4d
        E 15 80 30 5c
        E 930 80 3c 4d
        E 30 90 30 46
        E 450 90 37 2a
        E 480 90 3c 4d
        E 15 80 30 46
        E 0 80 37 2a
        E 975 80 3c 4d
        E 0 90 30 50
        E 480 90 37 33
        E 450 90 3c 40
        E 15 80 30 50
        E 0 80 37 33
        E 471 90 37 20
        E 474 80 3c 40
        E 0 80 37 20
        E 7 90 30 52
        E 468 90 37 3b
        E 485 90 3c 40
        E 15 80 30 52
        E 15 80 37 3b
        E 930 90 30 46
        E 15 80 3c 40
        E 480 90 37 1b
        E 465 80 37 1b
        E 15 80 30 46
        E 15 90 3c 35
        E 930 80 3c 35
        E 15 90 30 4a
        E 480 90 37 2d
        E 480 90 3c 24
        E 15 80 30 4a
        E 0 80 37 2d
        E 930 90 30 4e
        E 37 80 3c 24
        E 443 90 37 2c
        E 480 80 30 4e
        E 15 90 3c 31
        E 15 80 37 2c
        E 450 90 37 3e
        E 480 80 37 3e
        E 0 90 30 50
        E 15 80 3c 31
        E 465 90 37 33
        E 495 80 30 50
        E 0 90 3c 36
        E 15 80 37 33
        E 465 90 37 4b
        E 480 80 3c 36
        E 0 90 2d 51
        E 15 80 37 4b
        E 465 90 34 23
        E 480 90 39 3a
        E 15 80 2d 51
        E 0 80 34 23
        E 945 80 39 3a
        E 15 90 2d 4a
        E 450 90 34 3d
        E 495 80 2d 4a
        E 0 90 39 46
        E 15 80 34 3d
        E 945 80 39 46
        E 15 90 2d 45
        E 450 90 34 1f
        E 510 80 2d 45
        E 0 80 34 1f
        E 0 90 39 3a
        E 465 90 34 32
        E 465 80 34 32
        E 0 90 2d 50
        E 15 80 39 3a
        E 495 90 34 31
        E 450 90 39 49
        E 15 80 2d 50
        E 15 80 34 31
        E 465 90 34 55
        E 480 90 29 5b
        E 15 80 39 49
        E 0 80 34 55
        E 465 90 30 20
        E 480 80 30 20
        E 15 80 29 5b
        E 0 90 35 46
        E 930 80 35 46
        E 15 90 29 4b
        E 495 90 30 4e
        E 450 80 29 4b
        E 15 80 30 4e
        E 15 90 35 46
        E 945 90 2b 50
        E 15 80 35 46
        E 480 90 32 2f
        E 450 80 2b 50
        E 0 80 32 2f
        E 15 90 37 4d
        E 465 90 32 4a
        E 495 80 37 4d
        E 0 80 32 4a
        E 15 90 2b 50
        E 450 90 32 37
        E 480 80 32 37
        E 0 90 37 4f
        E 15 80 2b 50
        E 465 90 32 40
        E 480 80 37 4f
        E 0 80 32 40
        E 0 90 30 59
        E 480 90 37 32
        E 480 90 3c 4d
        E 15 80 30 59
        E 15 80 37 32
        E 945 90 30 46
        E 15 80 3c 4d
        E 465 90 37 2a
        E 480 80 30 46
        E 0 80 37 2a
        E 15 90 3c 4d
        E 930 90 30 50
        E 30 80 3c 4d
        E 465 90 37 33
        E 465 80 37 33
        E 15 80 30 50
        E 0 90 3c 40
        E 480 80 3c 40
        E 0 90 39 42
        E 240 80 39 20
        E 0 90 37 42
        E 232 90 30 52
        E 8 80 37 20
        E 430 90 37 3b
        E 515 80 30 52
        E 30 80 37 3b
        E 0 90 3c 40
        E 930 80 3c 40
        E 30 90 39 50
        E 930 90 41 4c
        E 30 80 39 50
        E 930 80 41 4c
        E 0 90 39 3f
        E 951 90 41 51
        E 39 80 39 3f
        E 930 80 41 51
        E 0 90 39 57
        E 480 90 3c 3f
        E 89 80 39 57
        E 391 90 41 50
        E 30 80 3c 3f
        E 930 90 39 4f
        E 15 80 41 50
        E 480 80 39 4f
        E 0 90 3c 53
        E 476 80 3c 53
        E 4 90 41 47
        E 975 80 41 47
        E 0 90 37 5b
        E 945 90 3e 4b
        E 15 80 37 5b
        E 945 80 3e 4b
        E 15 90 37 52
        E 930 80 37 52
        E 35 90 3e 4e
        E 925 80 3e 4e
        E 13 90 37 4f
        E 482 90 3b 55
        E 112 80 37 4f
        E 368 90 3e 49
        E 65 80 3b 55
        E 893 90 37 50
        E 17 80 3e 49
        E 465 90 3b 48
        E 142 80 37 50
        E 338 90 3e 53
        E 35 80 3b 48
        E 756 80 3e 53
        E 169 90 39 50
        E 960 90 41 51
        E 105 80 39 50
        E 855 80 41 51
        E 0 90 39 3f
        E 966 90 41 49
        E 9 80 39 3f
        E 930 90 39 57
        E 30 80 41 49
        E 450 90 3c 3f
        E 119 80 39 57
        E 361 80 3c 3f
        E 30 90 41 4a
        E 960 80 41 4a
        E 0 90 39 4f
        E 450 90 3c 53
        E 30 80 39 4f
        E 450 90 41 47
        E 26 80 3c 53
        E 934 90 3b 5b
        E 30 80 41 47
        E 465 90 3e 27
        E 135 80 3b 5b
        E 345 90 43 50
        E 15 80 3e 27
        E 945 90 3b 46
        E 15 80 43 50
        E 480 90 3e 27
        E 120 80 3b 46
        E 330 80 3e 27
        E 15 90 43 50
        E 960 80 43 50
        E 465 90 3c 4e
        E 480 80 3c 4e
        E 1 90 48 53
        E 29 90 37 4c
        E 1410 80 37 4c
        E 30 90 36 4a
        E 450 80 36 4a
        E 0 90 37 48
        E 975 80 37 00
        E 0 80 48 00
        E 0 b0 7b 00
        GUID {8906CEBE-543C-45B1-85A4-9E0CBB428408}
        IGNTEMPO 0 120 4 4
        SRCCOLOR 321
        VELLANE -1 100 0
        VELLANE -2 100 100
        CFGEDITVIEW 0 0 55 12 0 0 0 0 0 0.5
        KEYSNAP 0
        TRACKSEL 252
        EVTFILTER 0 -1 -1 -1 -1 0 0 0 0 -1 -1 -1 -1 0 -1 0 -1 -1
        CFGEDIT 1 0 0 1 1 1 1 1 1 1 1 0.125 402 136 1858 934 0 0 0 0 0 0 0 0 0 0.5 0 0 1 64
      >
    >
    <ITEM
      POSITION 143.9799437753575
      SNAPOFFS 0
      LENGTH 28
      LOOP 1
      ALLTAKES 0
      FADEIN 1 0 0 1 0 0
      FADEOUT 1 0 0 1 0 0
      MUTE 0
      COLOR 26668347 R
      SEL 0
      IGUID {C4B99F01-A159-4C0E-83AF-52CD82489B94}
      IID 32
      NAME 12StringRhythmFinalBars01.MID
      VOLPAN 1 0 1 -1
      SOFFS 48 96
      PLAYRATE 1 1 0 -1 0 0.0025
      CHANMODE 0
      GUID {F6D17E29-E351-4DA4-AE50-D69B26D446E3}
      <SOURCE MIDI
        HASDATA 1 960 QN
        POOLEDEVTS {2DABADD1-4BFB-465E-94BE-75A3089B3C7E}
        E 0 90 30 46
        E 480 90 37 1b
        E 480 80 30 24
        E 0 80 37 27
        E 0 90 3c 35
        E 960 80 3c 0d
        E 0 90 30 4a
        E 480 90 37 2d
        E 480 80 30 2f
        E 0 80 37 2b
        E 0 90 3c 24
        E 960 90 30 57
        E 7 80 3c 0b
        E 473 90 37 2c
        E 480 80 30 21
        E 0 80 37 1e
        E 0 90 3c 31
        E 480 90 37 3e
        E 480 80 3c 0a
        E 0 80 37 3a
        E 0 90 30 50
        E 480 90 37 33
        E 480 80 30 26
        E 0 80 37 22
        E 0 90 3c 36
        E 480 90 37 59
        E 480 80 3c 25
        E 0 80 37 4a
        E 0 90 2d 4a
        E 480 90 34 23
        E 480 80 2d 23
        E 0 80 34 2c
        E 0 90 39 3a
        E 960 80 39 07
        E 0 90 2d 4a
        E 480 90 34 3d
        E 480 80 2d 20
        E 0 80 34 27
        E 0 90 39 46
        E 960 80 39 0e
        E 0 90 2d 45
        E 480 90 34 1f
        E 480 80 2d 29
        E 0 80 34 29
        E 0 90 39 3a
        E 480 90 34 32
        E 480 80 39 05
        E 0 80 34 3e
        E 0 90 2d 50
        E 480 90 34 31
        E 480 80 2d 0e
        E 0 80 34 19
        E 0 90 39 49
        E 480 90 34 55
        E 480 80 39 18
        E 0 80 34 3a
        E 0 90 29 5f
        E 480 90 30 20
        E 480 80 29 26
        E 0 80 30 2d
        E 0 90 35 46
        E 960 80 35 08
        E 0 90 29 6f
        E 480 90 30 67
        E 480 80 29 3c
        E 0 80 30 1e
        E 0 90 35 46
        E 960 80 35 3f
        E 0 90 2b 5f
        E 480 90 32 2f
        E 480 80 2b 31
        E 0 80 32 22
        E 0 90 37 4d
        E 480 90 32 4a
        E 480 80 37 0e
        E 0 80 32 46
        E 0 90 2b 50
        E 480 90 32 37
        E 480 80 2b 31
        E 0 80 32 3b
        E 0 90 37 4f
        E 480 90 32 40
        E 480 80 37 50
        E 0 80 32 35
        E 0 90 30 57
        E 480 90 37 32
        E 480 80 30 19
        E 0 80 37 30
        E 0 90 3c 4d
        E 960 80 3c 0c
        E 0 90 30 46
        E 480 90 37 2a
        E 480 80 30 0d
        E 0 80 37 28
        E 0 90 3c 4d
        E 960 80 3c 07
        E 0 90 30 50
        E 480 90 37 33
        E 480 80 30 21
        E 0 80 37 2f
        E 0 90 3c 40
        E 486 90 37 20
        E 466 90 30 52
        E 8 80 3c 0d
        E 0 80 37 46
        E 445 90 37 3b
        E 515 80 30 2b
        E 0 80 37 39
        E 0 90 3c 40
        E 960 80 3c 00
        E 0 90 30 46
        E 480 90 37 1b
        E 480 80 30 24
        E 0 80 37 27
        E 0 90 3c 35
        E 960 80 3c 0d
        E 0 90 30 4a
        E 480 90 37 2d
        E 480 80 30 2f
        E 0 80 37 2b
        E 0 90 3c 24
        E 960 90 30 57
        E 7 80 3c 0b
        E 473 90 37 2c
        E 480 80 30 21
        E 0 80 37 1e
        E 0 90 3c 31
        E 480 90 37 3e
        E 480 80 3c 0a
        E 0 80 37 3a
        E 0 90 30 50
        E 480 90 37 33
        E 480 80 30 26
        E 0 80 37 22
        E 0 90 3c 36
        E 480 90 37 59
        E 480 80 3c 25
        E 0 80 37 4a
        E 0 90 2d 4a
        E 480 90 34 23
        E 480 80 2d 23
        E 0 80 34 2c
        E 0 90 39 3a
        E 960 80 39 07
        E 0 90 2d 4a
        E 480 90 34 3d
        E 480 80 2d 20
        E 0 80 34 27
        E 0 90 39 46
        E 960 80 39 0e
        E 0 90 2d 45
        E 480 90 34 1f
        E 480 80 2d 29
        E 0 80 34 29
        E 0 90 39 3a
        E 480 90 34 32
        E 480 80 39 05
        E 0 80 34 3e
        E 0 90 2d 50
        E 480 90 34 31
        E 480 80 2d 0e
        E 0 80 34 19
        E 0 90 39 49
        E 480 90 34 55
        E 480 80 39 18
        E 0 80 34 3a
        E 0 90 29 5f
        E 480 90 30 20
        E 480 80 29 26
        E 0 80 30 2d
        E 0 90 35 46
        E 960 80 35 08
        E 0 90 29 6f
        E 480 90 30 67
        E 480 80 29 3c
        E 0 80 30 1e
        E 0 90 35 46
        E 960 80 35 3f
        E 0 90 2b 5f
        E 480 90 32 2f
        E 480 80 2b 31
        E 0 80 32 22
        E 0 90 37 4d
        E 480 90 32 4a
        E 480 80 37 0e
        E 0 80 32 46
        E 0 90 2b 50
        E 480 90 32 37
        E 480 80 2b 31
        E 0 80 32 3b
        E 0 90 37 4f
        E 480 90 32 40
        E 480 80 37 50
        E 0 80 32 35
        E 0 90 30 57
        E 480 90 37 32
        E 480 80 30 19
        E 0 80 37 30
        E 0 90 3c 4d
        E 960 80 3c 0c
        E 0 90 30 46
        E 480 90 37 2a
        E 480 80 30 0d
        E 0 80 37 28
        E 0 90 3c 4d
        E 960 80 3c 07
        E 0 90 30 50
        E 480 90 37 33
        E 480 80 30 21
        E 0 80 37 2f
        E 0 90 3c 40
        E 486 90 37 20
        E 466 90 30 52
        E 8 80 3c 0d
        E 0 80 37 46
        E 445 90 37 3b
        E 515 80 30 2b
        E 0 80 37 39
        E 0 90 3c 40
        E 960 80 3c 00
        E 0 90 39 49
        E 960 80 39 28
        E 0 90 41 64
        E 960 80 41 36
        E 0 90 39 3f
        E 951 90 41 69
        E 9 80 39 27
        E 960 80 41 27
        E 0 90 39 50
        E 480 90 3c 3f
        E 89 80 39 20
        E 391 80 3c 46
        E 0 90 41 66
        E 960 80 41 22
        E 0 90 39 4f
        E 480 80 39 0f
        E 0 90 3c 53
        E 480 90 41 66
        E 11 80 3c 3f
        E 949 80 41 14
        E 0 90 37 61
        E 960 80 37 0e
        E 0 90 3e 66
        E 960 80 3e 29
        E 0 90 37 52
        E 960 80 37 2d
        E 5 90 3e 5b
        E 955 80 3e 27
        E 13 90 37 4f
        E 467 90 3b 55
        E 97 80 37 25
        E 353 90 3e 5b
        E 80 80 3b 38
        E 908 90 37 50
        E 2 80 3e 13
        E 445 90 3b 59
        E 162 80 37 17
        E 290 90 3e 53
        E 83 80 3b 3e
        E 786 80 3e 18
        E 154 90 39 49
        E 960 90 41 64
        E 120 80 39 28
        E 840 80 41 36
        E 0 90 39 3f
        E 951 90 41 69
        E 9 80 39 27
        E 960 80 41 27
        E 0 90 39 50
        E 480 90 3c 3f
        E 89 80 39 20
        E 391 80 3c 46
        E 0 90 41 66
        E 960 80 41 22
        E 0 90 39 4f
        E 480 80 39 0f
        E 0 90 3c 53
        E 480 90 41 66
        E 11 80 3c 3f
        E 949 80 41 14
        E 0 90 3b 61
        E 480 90 3e 27
        E 120 80 3b 0e
        E 360 80 3e 43
        E 0 90 43 66
        E 960 80 43 29
        E 0 90 3b 61
        E 480 90 3e 27
        E 120 80 3b 0e
        E 360 80 3e 43
        E 0 90 43 66
        E 960 80 43 29
        E 480 90 3c 5b
        E 451 90 48 53
        E 29 80 3c 13
        E 0 90 37 5b
        E 1440 80 37 13
        E 0 90 36 5b
        E 480 80 36 13
        E 0 90 37 5b
        E 960 80 48 00
        E 0 80 37 00
        E 0 90 30 46
        E 480 90 37 1b
        E 480 80 30 24
        E 0 80 37 27
        E 0 90 3c 35
        E 960 80 3c 0d
        E 0 90 30 4a
        E 480 90 37 2d
        E 480 80 30 2f
        E 0 80 37 2b
        E 0 90 3c 24
        E 960 90 30 57
        E 7 80 3c 0b
        E 473 90 37 2c
        E 480 80 30 21
        E 0 80 37 1e
        E 0 90 3c 31
        E 480 90 37 3e
        E 480 80 3c 0a
        E 0 80 37 3a
        E 0 90 30 50
        E 480 90 37 33
        E 480 80 30 26
        E 0 80 37 22
        E 0 90 3c 36
        E 480 90 37 59
        E 480 80 3c 25
        E 0 80 37 4a
        E 0 90 2d 4a
        E 480 90 34 23
        E 480 80 2d 23
        E 0 80 34 2c
        E 0 90 39 3a
        E 960 80 39 07
        E 0 90 2d 4a
        E 480 90 34 3d
        E 480 80 2d 20
        E 0 80 34 27
        E 0 90 39 46
        E 960 80 39 0e
        E 0 90 2d 45
        E 480 90 34 1f
        E 480 80 2d 29
        E 0 80 34 29
        E 0 90 39 3a
        E 480 90 34 32
        E 480 80 39 05
        E 0 80 34 3e
        E 0 90 2d 50
        E 480 90 34 31
        E 480 80 2d 0e
        E 0 80 34 19
        E 0 90 39 49
        E 480 90 34 55
        E 480 80 39 18
        E 0 80 34 3a
        E 0 90 29 5f
        E 480 90 30 20
        E 480 80 29 26
        E 0 80 30 2d
        E 0 90 35 46
        E 960 80 35 08
        E 0 90 29 52
        E 480 90 30 35
        E 480 80 29 3c
        E 0 80 30 1e
        E 0 90 35 46
        E 960 80 35 3f
        E 0 90 2b 5f
        E 480 90 32 2f
        E 480 80 2b 31
        E 0 80 32 22
        E 0 90 37 4d
        E 480 90 32 4a
        E 480 80 37 0e
        E 0 80 32 46
        E 0 90 2b 50
        E 480 90 32 37
        E 480 80 2b 31
        E 0 80 32 3b
        E 0 90 37 4f
        E 480 90 32 40
        E 480 80 37 50
        E 0 80 32 35
        E 0 90 30 57
        E 480 90 37 32
        E 480 80 30 19
        E 0 80 37 30
        E 0 90 3c 4d
        E 960 80 3c 0c
        E 0 90 30 46
        E 480 90 37 2a
        E 480 80 30 0d
        E 0 80 37 28
        E 0 90 3c 4d
        E 960 80 3c 07
        E 0 90 30 50
        E 480 90 37 33
        E 480 80 30 21
        E 0 80 37 2f
        E 0 90 3c 40
        E 486 90 37 20
        E 466 90 30 52
        E 8 80 3c 0d
        E 0 80 37 46
        E 445 90 37 3b
        E 515 80 30 2b
        E 0 80 37 39
        E 0 90 3c 40
        E 960 80 3c 00
        E 0 b0 7b 00
        GUID {F2362B27-30B3-49E9-A039-0BAB257A8ED6}
        IGNTEMPO 0 120 4 4
        SRCCOLOR 398
        VELLANE -1 100 0
        VELLANE -2 100 100
        CFGEDITVIEW 92167.531973 0.041133 58 12 0 0 0 0 0 0.5
        KEYSNAP 0
        TRACKSEL 252
        EVTFILTER 0 -1 -1 -1 -1 0 0 0 0 -1 -1 -1 -1 0 -1 0 -1 -1
        CFGEDIT 1 0 0 1 0 1 1 1 1 1 1 0.125 418 152 1858 934 0 0 0 0 0 0 0 0 0 0.5 0 0 1 64
      >
    >
    <ITEM
      POSITION 171.9799437753575
      SNAPOFFS 0
      LENGTH 4
      LOOP 1
      ALLTAKES 0
      FADEIN 1 0 0 1 0 0
      FADEOUT 1 0 0 1 0 0
      MUTE 0
      SEL 0
      IGUID {FF1FEB3F-3145-4F44-877D-D7DB9D3DC31B}
      IID 145
      NAME "12StringRhythmFinalBars01.MID glued"
      VOLPAN 1 0 1 -1
      SOFFS 0 0
      PLAYRATE 1 1 0 -1 0 0.0025
      CHANMODE 0
      GUID {28803691-01CB-47FA-980F-E63B13B0B471}
      <SOURCE MIDI
        HASDATA 1 960 QN
        POOLEDEVTS {36189BD7-8DC8-4379-9DAA-04D41F86E81C}
        E 0 90 28 57
        E 480 90 2f 32
        E 480 80 28 19
        E 0 80 2f 30
        E 0 90 34 4d
        E 960 80 34 0c
        E 0 90 28 46
        E 480 90 2f 2a
        E 480 80 28 0d
        E 0 80 2f 28
        E 0 90 34 4d
        E 960 80 34 07
        E 0 90 28 50
        E 480 90 2f 33
        E 480 80 28 21
        E 0 80 2f 2f
        E 0 90 34 40
        E 486 90 2f 20
        E 466 90 28 52
        E 8 80 34 0d
        E 0 80 2f 46
        E 445 90 2f 3b
        E 515 80 28 2b
        E 0 80 2f 39
        E 0 90 34 40
        E 960 80 34 00
        E 0 b0 7b 00
        GUID {5F3D807F-2970-4173-9306-239EFDB9F405}
        IGNTEMPO 0 120 4 4
        SRCCOLOR 525
        VELLANE -1 100 0
        VELLANE -2 100 100
      >
    >
    <ITEM
      POSITION 175.9799437753575
      SNAPOFFS 0
      LENGTH 16
      LOOP 1
      ALLTAKES 0
      FADEIN 1 0 0 1 0 0
      FADEOUT 1 0 0 1 0 0
      MUTE 0
      SEL 0
      IGUID {C3328DC3-A8C3-45F4-8E1C-8A65448062F4}
      IID 145
      NAME "12StringRhythmFinalBars01.MID glued"
      VOLPAN 1 0 1 -1
      SOFFS 4 8
      PLAYRATE 1 1 0 -1 0 0.0025
      CHANMODE 0
      GUID {22770DD3-3133-40BB-839A-6321F0A46E32}
      <SOURCE MIDI
        HASDATA 1 960 QN
        POOLEDEVTS {DFA7BD96-98BE-4A94-8B82-CF626AC1D1A5}
        E 0 90 28 57
        E 480 90 2f 32
        E 480 80 28 19
        E 0 80 2f 30
        E 0 90 34 4d
        E 960 80 34 0c
        E 0 90 28 46
        E 480 90 2f 2a
        E 480 80 28 0d
        E 0 80 2f 28
        E 0 90 34 4d
        E 960 80 34 07
        E 0 90 28 50
        E 480 90 2f 33
        E 480 80 28 21
        E 0 80 2f 2f
        E 0 90 34 40
        E 486 90 2f 20
        E 466 90 28 52
        E 8 80 34 0d
        E 0 80 2f 46
        E 445 90 2f 3b
        E 515 80 28 2b
        E 0 80 2f 39
        E 0 90 34 40
        E 960 80 34 00
        E 0 90 29 46
        E 480 90 30 1b
        E 480 80 29 00
        E 0 80 30 00
        E 0 90 35 35
        E 960 80 35 0d
        E 0 90 29 4a
        E 480 90 30 2d
        E 480 80 29 2f
        E 0 80 30 2b
        E 0 90 35 24
        E 960 90 2b 57
        E 7 80 35 0b
        E 473 90 32 2c
        E 480 80 2b 21
        E 0 80 32 1e
        E 0 90 37 31
        E 480 90 32 3e
        E 480 80 37 0a
        E 0 80 32 3a
        E 0 90 2b 50
        E 480 90 32 33
        E 480 80 2b 26
        E 0 80 32 22
        E 0 90 37 36
        E 480 90 32 59
        E 480 80 37 25
        E 0 80 32 4a
        E 0 90 2d 4a
        E 480 90 34 23
        E 480 80 2d 23
        E 0 80 34 2c
        E 0 90 39 3a
        E 960 80 39 07
        E 0 90 2d 4a
        E 480 90 34 3d
        E 480 80 2d 20
        E 0 80 34 27
        E 0 90 39 46
        E 960 80 39 0e
        E 0 90 2b 45
        E 480 90 32 1f
        E 480 80 2b 29
        E 0 80 32 29
        E 0 90 37 3a
        E 480 90 32 32
        E 480 80 37 05
        E 0 80 32 3e
        E 0 90 2b 50
        E 480 90 32 31
        E 480 80 2b 0e
        E 0 80 32 19
        E 0 90 37 49
        E 480 90 32 55
        E 480 80 37 18
        E 0 80 32 3a
        E 0 90 29 5f
        E 480 90 30 20
        E 480 80 29 26
        E 0 80 30 2d
        E 0 90 35 46
        E 960 80 35 08
        E 0 90 29 52
        E 480 90 30 35
        E 480 80 29 3c
        E 0 80 30 1e
        E 0 90 35 46
        E 960 80 35 3f
        E 0 90 2b 5f
        E 480 90 32 2f
        E 480 80 2b 31
        E 0 80 32 22
        E 0 90 37 4d
        E 480 90 32 4a
        E 480 80 37 0e
        E 0 80 32 46
        E 0 90 2b 50
        E 480 90 32 37
        E 480 80 2b 31
        E 0 80 32 3b
        E 0 90 37 4f
        E 480 90 32 40
        E 480 80 37 50
        E 0 80 32 35
        E 0 90 30 57
        E 480 90 37 32
        E 480 80 37 30
        E 0 90 3c 4d
        E 960 80 3c 0c
        E 480 90 37 2a
        E 480 80 37 28
        E 0 90 3c 4d
        E 960 80 30 19
        E 0 80 3c 07
        E 0 90 30 57
        E 3840 80 30 00
        E 0 b0 7b 00
        GUID {2CFE6163-08F8-4379-B47A-7399E2FCADD1}
        IGNTEMPO 0 120 4 4
        SRCCOLOR 526
        VELLANE -1 100 0
        VELLANE -2 100 100
        CFGEDITVIEW 0 0.01125 67 12 0 0 0 0 0 0.5
        KEYSNAP 0
        TRACKSEL 252
        EVTFILTER 0 -1 -1 -1 -1 0 0 0 0 -1 -1 -1 -1 0 -1 0 -1 -1
        CFGEDIT 1 0 0 1 1 1 1 1 1 1 1 0.125 418 152 1858 934 0 0 0 0 0 0 0 0 0 0.5 0 0 1 64
      >
    >
  >
  <TRACK {A85DB082-58C2-408E-B84C-61F8CC406A08}
    NAME "12 string lead"
    PEAKCOL 25854154
    BEAT -1
    AUTOMODE 0
    VOLPAN 0.60809580250146 0 -1 -1 1
    MUTESOLO 0 0 0
    IPHASE 0
    ISBUS 0 0
    BUSCOMP 0 0
    SHOWINMIX 1 0.6667 0.5 1 0.5 0 0 0
    FREEMODE 0
    SEL 1
    REC 0 5088 1 0 0 0 0
    VU 2
    TRACKHEIGHT 0 0 0
    INQ 0 0 0 0.5 100 0 0 100
    NCHAN 2
    FX 1
    TRACKID {A85DB082-58C2-408E-B84C-61F8CC406A08}
    PERF 0
    MIDIOUT -1
    MAINSEND 1 0
    <FXCHAIN
      WNDRECT 2642 231 525 258
      SHOW 0
      LASTSEL 3
      DOCKED 0
      BYPASS 0 0 0
      <VST "VSTi: Dimension Pro (Cakewalk)" "Dimension Pro x64.dll" 0 "" 1684893299<565354646D6E7364696D656E73696F6E> ""
        c25tZO5e7f4AAAAAAgAAAAEAAAAAAAAAAgAAAAAAAAAlCAAAAQAAAAAAEAA=
        eJzt3V9sU1UcwPFztwny4INDEp+2Jixh02wZ0RHc6B+6hYFhuoAwHxrdyLpR3D/WYZEQswcSmNFAIg/MkEDkAQLqE3/mJOGPJmAAM40JqLzM+CAJCShsjjCjv3Nv17V1
        bdeuZHP3+yO/9f4559PTc869l/SwoFSvW6URJzaUuHUqs95UdXvdsalSpCcuY8+fOnnSmSylTqWVqiqcWY5yt5VWLLp5zKUz8edPN+Kd2H3ffq9bp/pPfyXs01QxjTGZ
        PW/DwFtunYnqrx2uNDOxFzv/Pq9tcumcOPv1SLFbZ+IWxNb/dddBl87J9+u9kN1M9P7TjUTzJ/76iz8+3Ux7fGc502t3S0tLTGbvurZixcEGp85E+/Mtyk9fdX5b96nz
        xvXrq7KRs/15iPhIfn0cuFzh1jmxv//yGdfNY+VR15wnLqcM97n2X1yDBU+5upyvurucH7ie+6I2/tolCGJORKq/g8TmubJ7VUue2Z7xNfxhWaVLZ6b1N20y3N9fUe6+
        fdxHCIIgCIJILzw/n8ldumxy34hsfeeNLpZcmfZ3DTg4ODg4ODg4ODg4ODg4ODg4ODg4ODg4ODg4OHPIyer6YO/xGqUuekfvbfaMrDviLPFfS9Huud8/ODg4ODg4ODg4
        ODg4ODg4ODg4ODg4ODg4ODjzyeH3B3FwcHBwcHBwcHBwcHBwcHBwcHBwcHBwcHBw7OOwPoiDg4ODg4ODg4ODg4ODg4ODg4ODg4ODg4ODYx8nN7JVvzqqTIxztLQ/pyi8
        fejOWaNh+LD5/ygbKj52erVTXFDomspxmHXycrShM649Udxtr16vdDWOOuPbbaR2koUn+WkcHBwcHBwcHBwcHBwcHBwcHBwcHBwcHBwcnPnt8PuDODg4ODg4ODg4ODg4
        ODg4ODg4ODg4ODg4ODj2cbK6Pth7vEapi97Re5s9I+uOOEv811K0e+73Dw4ODg4ODg4ODg4ODg4ODg4ODg4ODg4ODg7OfHL4/UEcHBwcHBwcHBwcHBwcHBwcHBwcHBwc
        HBwcHPs4rA/i4ODg4ODg4ODg4ODg4ODg4ODg4ODg4ODg4NjHyY1s1a+OKhPjHC3tzykKbx+6c9ZoGD7s0tuGio+dXu0UFxS6pnIcZp28HG3ojGtPFHfbq9crXY2jzvh2
        G6mdZOFJfhoHBwcHBwcHBwcHBwcHBwcHBwcHBwcHBwcHZ347/P4gDg4ODg4ODg4ODg4ODg4ODg4ODg4ODg4ODo59HNYHcXBwcHBwcHBwcHBwcHBwcHBwcHBwcHBwcHDs
        47A+iIODg4ODg4ODg4ODg4ODg4ODg4ODg4ODg4NjH4f1QRwcHBwcHBwcHBwcHBwcHBwcHBwcHBwcHBwc+zisD+Lg4ODg4ODg4ODg4ODg4ODg4ODg4ODg4ODg2MdhfRAH
        BwcHBwcHBwcHBwcHBwcHBwcHBwcHBwcHxz4O64M4ODg4ODg4ODg4ODg4ODg4ODg4ODg4ODg4OPZxWB/EwcHBwcHBwcHBwcHBwcHBwcHBwcHBwcHBwbGPw/ogDg4ODg4O
        Dg4ODg4ODg4ODg4ODg4ODg4ODo59HNYHcXBwcHBwcHBwcHBwcHBwcHBwcHBwcHBwcHBs7biz56Qql+i8R95/YPXM2/OJN9ahPU+qPf39l0zn1rH7rpm0J9bJtD0xwXym
        PWm35/8ynxv/yFft1Q9D+t95LNQH7q5Pw4ktp42+Ko+6rAosK4PxypHMk3w6vH9oW30SJ/F43Tg1eHvtn/nqfsFwaCbt0f2h63qMOvXVyuGQSuokbs9wqdWOBcrqJ+1l
        0h6zbnOslUl79Puvkdf7D/LNPu6S10za89mDyT5eEymffnui++WumKfMvk5/Pucqa+5oa+BCc67vUbLPFe9Mlns/z/j71sN8c1u/7h7aa2TSP1fzjN9WSRscYeftq8mc
        xP1zPRKP9fHFgyOZjZe+vlqkPbulvvHiXmMgqZO4PQeKWnPrpW7vNsH/ylebCseSjFfi9jw/lq/uSv2ccNvOJx2vZP3z2O0wqtUPo/nm2L88mln/VDXqz7FYnTi5RPXI
        9iLzaPrtGZfP9ZLqMzzOL81L9OHCXVOOe7WqVD5Vr7pVp2qVn02qXebKGhVQbcqvgnKuWo69I9sheW2TLZ+qkbPtcqRDzgekXofUsASfqlM7pFSPHA+aVlfEKVcVUq5U
        slbKBKRMk9QJmnX0lq6jpdfUe1JHq2VytkXtklbq7FbNkgH1rniTZya3ZhAydzwvjIX+kWiWfiu4Mh4alzkxMRYDjZNjcVG2vbqO7HzzyJp3Q+G6P8r+0KXx0O8LFpts
        0WNrLjSeX68+3tJnDHUPGhP3KoccdxmvmHNu6+nXzefFm/LeAbnvNFZYz7DoMr1j1j1Je7U1wyG9v8yw7jN7wsa+JVUyhkp9JNkgN6I9OfpeVJj7bJ71PLoudZZWDIdu
        rdy+Pd8oVvq4Nn6ak/NgheRG2fPLn7aocW7LzpgzD6acB0r5agLt/o5goLPDV9/d2drd1B70la9wlDpqdwR6mrqDvrqm7p5Ah2Njj9/f5ije0h1o3dpTUtYlZbM/IsSs
        ReWUV3jyK7s8fGXre4S+T+tre0vkvC4fkrMrpZzOsnA5JW6THC9Xy6OOEXMhrOdC/L3fIUf0bOgx50aPlNggZ7pka4fcwf1Rz4HYJ0rQnFMb5blizZPNcq5NXpdHngi6
        XIc86bUQMLe1Ev+keENa0illop8YQZk7XeF3U+GfBEEQBEEQxJMM/XfFufc9At8n8X0S3yfxfRIxu8H3SXaOfwGIRS2H
        AEM6XENha2V3YWxrIENvbnRlbnRcUmFwABAAAAA=
      >
      PRESETNAME "C:\Cakewalk Content\Rap"
      FLOATPOS 0 0 0 0
      FXID {B3AEF561-A17E-483B-B26A-FEFC368CA5D5}
      WAK 0
      BYPASS 0 0 0
      <VST "VST: ReaEQ (Cockos)" reaeq.dll 0 "" 1919247729<56535472656571726561657100000000> ""
        cWVlcu5e7f4CAAAAAQAAAAAAAAACAAAAAAAAAAIAAAABAAAAAAAAAAIAAAAAAAAAqAAAAAEAAAAAABAA
        IQAAAAQAAAAAAAAAAQAAAAAcNwJsjVhAomvN4+C2AEAAAAAAAAAAQAEIAAAAAQAAAIDNnBkkenJAQONDQJAy/z8AAAAAAAAAQAEIAAAAAQAAAP//////P49AgR7YoObo
        AUAAAAAAAAAAQAEBAAAAAQAAAMD6wF9kybNAZniW8UrHAkAAAAAAAAAAQAEBAAAAAQAAAPSkA6XxPPA/AAAAAAAAAAAAAAAA
        AAAQAAAA
      >
      FLOATPOS 0 0 0 0
      FXID {64395014-BA80-44FA-8DB0-2B3BF49EA92D}
      WAK 0
      BYPASS 0 0 0
      <VST "VST: ReaVerb (Cockos)" reaverb.dll 0 "" 1919252066<56535472657662726561766572620000> ""
        YnZlcu5e7f4CAAAAAQAAAAAAAAACAAAAAAAAAAIAAAABAAAAAAAAAAIAAAAAAAAAcQAAAAEAAAAAAAAA
        AAAAwZCNuT3NrRJAAAAAAAAAgD8AAIA/AAAAPwAAAAAAAAAAVkVSQkdFTgAYAAAAAAAAAJHgV0QdrLRA3rK7QsHIjEIAAIC/IUVDSE9HRU4AHAAAAMv4tkC1I3VCXc3T
        P6LHXz+ZUa88kc2MQJzEAD8=
        AHN3ZWV0dmVyYm8AAAAAAA==
      >
      PRESETNAME sweetverbo
      FLOATPOS 0 0 0 0
      FXID {96CBADE9-7408-4526-ABDC-56DE07C169FA}
      WAK 0
      BYPASS 0 0 0
      <VST "VST: Guitar Rig 5 (x86) (Native Instruments GmbH)" "Guitar Rig 5.dll" 0 "" 1315522357<5653544E694735677569746172207269> ""
        NUdpTu5e7f4EAAAAAQAAAAAAAAACAAAAAAAAAAQAAAAAAAAACAAAAAAAAAACAAAAAQAAAAAAAAACAAAAAAAAAPEMAAABAAAA//8QAA==
        LWluLQIAAAAjTkkjQ1MjRG9jdW1lbnQjI05JI1NvdW5kU2hlbGwjU291bmQjAAAAAAAAAAAAAABFAQAAYXRhZAIAAABkbnNzYmlsehYAAAAQAAAAeNpjYmBg0PX00zV1
        z/QDMhkAEaUCJ2F0YWQCAAAAb2ZuaWJpbHqnAAAAFgEAAHjaVY9BDoIwEEX3PcWkey0mLFyUslL3Rg9QYSBNsEPaKfH4QhoBl+/lv0lG15/3ABOG6MhX8nQsJKBvqHW+
        r+TzcT2cJUS2vrUDeaykJwm1ETpS8vOooy0ui0IaIQD0GGjEwA6jyqKh9zjnnqOZcS/MLTm2Ae6uh1KrzS+Z2neLsMzBvRLj784qMs9mskNCc+k6bFirTHmr/sY7XI5r
        tX5kxBc77VhBYXRhZAIAAAB0c3JwYmlseoILAABaZgAAeNrtXdl3okgX7++1/wqOr3NoFhG1j+k5GWPS6cTEJGbr0y8loFYEyrCYOH/9VwUFFOKGMYbucV6mLYp7f9y6
        a23hztsP//v06dNF/9Onxt+vlslNDMeFyD4oSV/EEmfYGtKhPTgo3XaP+VqJcz1g68BEtnFQslGJ+/vb58bA4aHteo5vGbbHa0PfHnE9H5o6b/tWz3AOSvhFDVlj/Bbu
        MAbaiIc65lCvikpdrdXkEtd3gGW8ICd8gjlb4Ak5fIymglug5qCkRSYtNtsHt4wdwzUWsPCghUF3hz53qXmcKHOS9FWpfxUrnCzKldK3z585ruEi39Z5HXigB1yDG5io
        B0zeMjwH2cgKkA0hZsJbSDdCoFCH+KOBbRsmZqiWhJASloqDYTACxSw4/F+jD1/5WBwuh4XEQ8+wXNxFoX1me3HkY2p1UcQMbUC+4/os7oo7k46m4RlJE21c/Dbn+6RZ
        ORe9x1dTu7q9N6Xv48f7n/3Ky9XBQYklxRLjBz5MP8NPJ9B4YYYYf83YBJ7B94A9OiiV5j0KgRCNQo6h84QCFapS4mZ/ubBn4n/3gekaRMAp5sISbAxu4OsQcYy2ZL5i
        DIgWergHVnyAOeJ3PGQBL3iBCA8PVdKJDCkxCA9qqY5ShjJLOxgMeBiNxKlNTEozDjUPTgz8rcD0A8XK0sBUiFIyCDjHsBCWpQVeAzDRTxjAFebAEOKXM1+fPHIXCzgQ
        YkrLkoeMPgpZhWzEtul4MbKGkFLzJcqvstoLB9wZsrFNmjmNYBEVagxdsX4hVp1js/V80XIQmAwuj59f9sawljGIC4xBKKI2lecrAifnVajFhKhOHf/rP7R6vep568x7
        LPtXp63Jj/7ewe4dbMFMorZIk8t5E43FhKhJnJ4+H9036+dXt8/2j/O/rNbE17/v3ezeJApmEjKjyIfBSJ7aOY1hLglqBjej13prUm47t/K9oH0/aqqnz+LHRgYpZQbS
        PtvYih5JjD/EJWFOFZp9m2pPq94s/7zXjx9bzR/3h09/PbtjMNznFXO0R8pqT3VTJ8r40LHvcScA2on//FLZuQfNADyJAJ7gseIubeGy348RSh+Pr5vC1x1iwxoiU2eE
        WACQ7bsIZRu4pPEOmb7FRMovNbVSVmsfj/Q8AnoOLUgaZ0ZcLADEZozR6HtcM5wqK5JOXjeZdHWYhbhPjGbLZ3YusQvGxpGhjTgpb+28gAoNcE9PR4+K1Rn+aKmjm2n7
        tNqdnlf+oCrBw1+s4y+WgJ9BHT0jKpbRnDyhcZPgWF87OGYsyYxNHaHxCvvZggWtMPMMPM+I1Q0PNkp8kFgciE4M0QG2O0auUUA5+jFI3y4gvvEkwpcN3IqqSkXB6cQ4
        rw0NOfpsnlEYoLDDzB0Yjsd1kAuJXyje2Jsu64O4Gw+HuAKiNFIoW7b+4YO+OOdYkXWQxwuC2c4qbEVicokbiKEMcWnGBVVa3np7KS2anPSnT53usdJ+aKlHrvDjaHxy
        d/rXxyYnYio5EQtcfUvipuX3nbjQsReg9m5JEbrWK26zgRkpTXFqnXM5qRhxaWsXqVJsl+Oy2/eMQtWwClvDFqp2raRq1yJBO1YjaMfQxI0S18TWXqzJieNqGqM8i7EI
        cqylMRbKMOpJHoOL93/u/yOTJikCbpQj8JC4e35Bv7dFszdJbqHU3h7BdoIrR9TaCZ61I9VupLNudNoJmvUj0k7gbBCFdoMrf+TZDa71o81ulDtHhHkPQA1hLfeO3842
        r1/AKuxUuG9jsecrWrPv00IV3l0f1U8GQ7EFO2h0daHcDCXt8EMLVTlVqMoFLlTVTevUYxQbEXJGRUrYuvFMXheLjetATxvG+NT6xwN0PUezvXj6xXNQzxCaZKd8kcSo
        j/NO0+8UntNPJpb7hmPYWgJPUQoA0G0nE2wmcWJt7Ax+v9qBLNURb8tFk27Ch8x+srvM2vSsipF32nM+ERpGbo2L1mVHfH5uTeHP56peA9Pr0cufs1ctOuEDfE4zyemh
        PiSUml9/dRw0wJrB4WzIcH81kWUhm/64AGT/JHcaH35yf5340AMOR7a9VnBnG9cq3q9Ymr9M9ILJT4wvL2CCP9eEmFMPehZwR8EnhC3vw3sIGdaWb3pwbIaCC2WsCLiM
        cIk1akYCiifr8bZOTnHhx/54HP5r12vSlc3XpDsv8ZLqWtuhPmA16MaOveHU1oqHr2uNFyycy4VZUWv7c0vywsjwzsy5dFHwFb/EY253Mi2iy5ZZ1C+Gnhm7Jj52mCk/
        xjgv2kOR60pdrcr1yhpe7C1K/z6V5zxZbK3krFSYgN8JKEX7D/JlDksI0ezh9XJ8+bPrdbu391PDQx1/1Duz9qul2w59s4HvrsiLpUcxuiNnut7Gl53iu4/x3TP6XBx8
        7Yc43sHXIgHrPDC+gCNHFjiMENqD/+LSUECSRzkWhXJZ7U5mYHNa6m4WYNbU/p2A2UTjdwIspw97nyRmhQm8MYtR2SP9h9b40Abm1M09f76QDM1gtOvptenfP2mib3Z0
        /aT975Vwuz9t9eed1auK8w4l5L0WYBEVqk2TJ0G98I5OvNZZRTl/fL0cjIXLqz/vaINctKMN6ubTSL/LnvKCH8GAN+xUF9dFXHjEbr+R/I/ZSP7bHHPYyo53+WN2vNfZ
        w3P0lOrxQ84wtYAIjVLf9bv+8+gYebfqPxc3F8+jG2cA9znPmnvcN561yblcUcxV0eSphmwPQLJGqoVLUnwwZtCE3jTOFpPr8OZVFni0fTOQoN7joI1pJZf+KREB3KyR
        Lm5MFAvdwXbjoJewjRnfWQ5D5HrMQGE2s+NZe/el3ZlGKvCGjWw+/SAg0xDoBYPhbYOOAUxywaEW3rWDPyB77yB9ZhpOdL8hEVsfDiIJ0qf4leTOH+YtzkTaKJQuvUSQ
        6xg6MBnlD54SLMaEjHRwA0pNIbZgIi+62tFDg4GZXi1fzuUMaqMj9GKvYCRWywwjKWEkrcvo5oVsh+Gk5YwkUakzjOTNGckrGJXFCsOovDmj8gpGFZUdI2VzRsoKRjWp
        yjCqrMlIyjKqpBhJGWVgBaeybFjTjB1v4q5Sqxj4f5MSdfjhchN45WNvTO4f5eN8kG4BwZIOyMZBjNq/75jklwcGZBoEG3T4yxkYiV2Ev6IXo5/0DlWelZCQiCiX1NQV
        UquxalDdVGwXxquXU2xyAcVG91EuE1ilzKpzLbfAKItcohLTokrtn1pTauFu0ZTgyIasGdFtQ+Fqy+VXrbMuu55bfsw+pbfIsAvGa8uO7pNKCa87frvwWGcaH74I4uuq
        eCSXZTYeSZuE2BmOKwKTXKmx/lWS8nK8wDVBM7p7dRkndgE/4SfP4cdKeSa/oR2AYYIpxrJGthMOZibPIQiYFCZZO56TWS4ilSQzITUpTU3KRy3JWEJq8jaoyRG18jao
        lSNqyjaoKRG1yjaoVSJq6jJqqaI6IBeoa8rl0OCfNfqQ85p41AhPdSt45M3w0KgUIqltQ861iFr9TdSyfpHa0NtMMuv8KFlpc7IpD0fJyWuQawjUTdGf71b7NsKJgTkF
        o8K6wyjehi7ZDE7fkVkGwmSmLauaFFZwn35Cv5qax2hQsSWskgwl8dI8m2StGepz5DfUPli82/oSmi/M+5T6Zp+yPNtY8inspM3M2MVdXBuM3SHymPmepC0Y9fjXYoMQ
        Zqg0hBllo83rTLvERGm/YPItyQiTt2NhyPXyyoU2YQOytdrK3fAbkC2L6spLRTZBW1FX7r7biGx15QWkmwihVl4567wJ2qq68ja5Tciq8srjdbE7z+h4OHuXmbAL5/Ew
        T0BMlv4REcwj+lMkfeRYFrDBgCCIZ7tJJxBc48wHFQvwhhz9TesZ5Og4uCXVMOcg7H5Iim2SV0jRjkOMRo5XsTXPdeerIEQcWFLQHuCIgx1Z4F+Eb8FE5Ozff/n2+f+b
        XyttYXRhZAIAAABETlNTYmlsehYAAAAQAAAAeNpjYmBg0PX00zV1z/QDMhkAEaUCJw==
        AEFpcnkgVm9jYWxzABAAAAA=
      >
      PRESETNAME "Airy Vocals"
      FLOATPOS 0 0 0 0
      FXID {B04E1843-A603-4AC4-BDF3-FF2B154822B3}
      WAK 0
    >
    <ITEM
      POSITION 1
      SNAPOFFS 0
      LENGTH 1.000000000015
      LOOP 1
      ALLTAKES 0
      FADEIN 1 0.409553 0 1 0 0
      FADEOUT 1 0 0 1 0 0
      MUTE 0
      COLOR 24838024 R
      SEL 0
      IGUID {A21163B7-A000-4DE7-8178-E58E5E989EFA}
      IID 11
      NAME "Then There was One - r/guitar - chorus"
      VOLPAN 1 0 1 -1
      SOFFS 0 0
      PLAYRATE 1 1 0 -1 0 0.0025
      CHANMODE 0
      GUID {0883D712-FEEA-43D2-8F92-C24A3BB70034}
      <SOURCE MIDI
        HASDATA 1 960 QN
        POOLEDEVTS {14A89A78-2849-4C8A-B7F2-85FC288FD817}
        E 0 80 37 4c
        E 0 90 35 4c
        E 0 90 43 4c
        E 480 80 43 4c
        E 0 90 41 4c
        E 480 80 35 4c
        E 0 80 41 4c
        E 0 90 43 4c
        e 0 90 46 4c
        E 480 80 43 4c
        e 0 80 46 4c
        E 0 90 43 4c
        E 480 80 43 4c
        E 945 90 39 57
        E 480 90 3c 3f
        E 89 80 39 57
        E 391 90 41 50
        E 30 80 3c 3f
        E 930 90 39 4f
        E 15 80 41 50
        E 480 80 39 4f
        E 0 90 3c 53
        E 476 80 3c 53
        E 4 90 41 47
        E 975 80 41 47
        E 0 90 37 5b
        E 945 90 3e 4b
        E 15 80 37 5b
        E 945 80 3e 4b
        E 15 90 37 52
        E 930 80 37 52
        E 35 90 3e 4e
        E 925 80 3e 4e
        E 13 90 37 4f
        E 482 90 3b 55
        E 112 80 37 4f
        E 368 90 3e 49
        E 65 80 3b 55
        E 893 90 37 50
        E 17 80 3e 49
        E 465 90 3b 48
        E 142 80 37 50
        E 338 90 3e 53
        E 35 80 3b 48
        E 756 80 3e 53
        E 169 90 39 50
        E 960 90 41 51
        E 105 80 39 50
        E 855 80 41 51
        E 0 90 39 3f
        E 966 90 41 49
        E 9 80 39 3f
        E 930 90 39 57
        E 30 80 41 49
        E 450 90 3c 3f
        E 119 80 39 57
        E 361 80 3c 3f
        E 30 90 41 4a
        E 960 80 41 4a
        E 0 90 39 4f
        E 450 90 3c 53
        E 30 80 39 4f
        E 450 90 41 47
        E 26 80 3c 53
        E 934 90 3b 5b
        E 30 80 41 47
        E 465 90 3e 27
        E 135 80 3b 5b
        E 345 90 43 50
        E 15 80 3e 27
        E 945 90 3b 46
        E 15 80 43 50
        E 480 90 3e 27
        E 120 80 3b 46
        E 330 80 3e 27
        E 15 90 43 50
        E 960 80 43 50
        E 465 90 3c 4e
        E 480 80 3c 4e
        E 1 90 48 53
        E 29 90 37 4c
        E 1410 80 37 4c
        E 30 90 36 4a
        E 450 80 36 4a
        E 0 90 37 48
        E 975 80 48 00
        E 0 80 37 00
        E 0 b0 7b 00
        GUID {344BA183-A34C-4935-9575-3F03558ADDB9}
        IGNTEMPO 0 120 4 4
        SRCCOLOR 570
        VELLANE -1 100 0
        VELLANE -2 100 100
        CFGEDITVIEW 19982.367347 0.207474 50 12 0 0 0 0 0 0.5
        KEYSNAP 0
        TRACKSEL 252
        EVTFILTER 0 -1 -1 -1 -1 0 0 0 0 -1 -1 -1 -1 0 -1 0 -1 -1
        CFGEDIT 1 0 0 1 1 1 1 1 1 1 1 0.125 402 136 1858 934 0 0 0 0 0 0 0 0 0 0.5 0 0 1 64
      >
    >
    <ITEM
      POSITION 3
      SNAPOFFS 0
      LENGTH 1.000000000015
      LOOP 1
      ALLTAKES 0
      FADEIN 1 0 0 1 0 0
      FADEOUT 1 0 0 1 0 0
      MUTE 0
      COLOR 24838024 R
      SEL 0
      IGUID {EFBD05AB-C399-4728-8BD4-1000741BA069}
      IID 11
      NAME "Then There was One - r/guitar - chorus"
      VOLPAN 1 0 1 -1
      SOFFS 0 0
      PLAYRATE 1 1 0 -1 0 0.0025
      CHANMODE 0
      GUID {A3FBAA0D-0176-497D-9C49-648EBB7C62DA}
      <SOURCE MIDI
        HASDATA 1 960 QN
        POOLEDEVTS {8E7F18F8-2A6A-4761-B85A-82C08C25A07E}
        E 0 80 37 4c
        E 0 90 35 4c
        E 0 90 43 4c
        E 480 80 43 4c
        E 0 90 41 4c
        E 480 80 35 4c
        E 0 80 41 4c
        E 0 90 43 4c
        e 0 90 46 4c
        E 480 80 43 4c
        e 0 80 46 4c
        E 0 90 43 4c
        E 480 80 43 4c
        E 945 90 39 57
        E 480 90 3c 3f
        E 89 80 39 57
        E 391 90 41 50
        E 30 80 3c 3f
        E 930 90 39 4f
        E 15 80 41 50
        E 480 80 39 4f
        E 0 90 3c 53
        E 476 80 3c 53
        E 4 90 41 47
        E 975 80 41 47
        E 0 90 37 5b
        E 945 90 3e 4b
        E 15 80 37 5b
        E 945 80 3e 4b
        E 15 90 37 52
        E 930 80 37 52
        E 35 90 3e 4e
        E 925 80 3e 4e
        E 13 90 37 4f
        E 482 90 3b 55
        E 112 80 37 4f
        E 368 90 3e 49
        E 65 80 3b 55
        E 893 90 37 50
        E 17 80 3e 49
        E 465 90 3b 48
        E 142 80 37 50
        E 338 90 3e 53
        E 35 80 3b 48
        E 756 80 3e 53
        E 169 90 39 50
        E 960 90 41 51
        E 105 80 39 50
        E 855 80 41 51
        E 0 90 39 3f
        E 966 90 41 49
        E 9 80 39 3f
        E 930 90 39 57
        E 30 80 41 49
        E 450 90 3c 3f
        E 119 80 39 57
        E 361 80 3c 3f
        E 30 90 41 4a
        E 960 80 41 4a
        E 0 90 39 4f
        E 450 90 3c 53
        E 30 80 39 4f
        E 450 90 41 47
        E 26 80 3c 53
        E 934 90 3b 5b
        E 30 80 41 47
        E 465 90 3e 27
        E 135 80 3b 5b
        E 345 90 43 50
        E 15 80 3e 27
        E 945 90 3b 46
        E 15 80 43 50
        E 480 90 3e 27
        E 120 80 3b 46
        E 330 80 3e 27
        E 15 90 43 50
        E 960 80 43 50
        E 465 90 3c 4e
        E 480 80 3c 4e
        E 1 90 48 53
        E 29 90 37 4c
        E 1410 80 37 4c
        E 30 90 36 4a
        E 450 80 36 4a
        E 0 90 37 48
        E 975 80 48 00
        E 0 80 37 00
        E 0 b0 7b 00
        GUID {344BA183-A34C-4935-9575-3F03558ADDB9}
        IGNTEMPO 0 120 4 4
        SRCCOLOR 570
        VELLANE -1 100 0
        VELLANE -2 100 100
        CFGEDITVIEW 0 0 55 12 0 0 0 0 0 0.5
        KEYSNAP 0
        TRACKSEL 252
        EVTFILTER 0 -1 -1 -1 -1 0 0 0 0 -1 -1 -1 -1 0 -1 0 -1 -1
        CFGEDIT 1 0 0 1 1 1 1 1 1 1 1 0.125 402 136 1858 934 0 0 0 0 0 0 0 0 0 0.5 0 0 1 64
      >
    >
    <ITEM
      POSITION 5
      SNAPOFFS 0
      LENGTH 1.000000000015
      LOOP 1
      ALLTAKES 0
      FADEIN 1 0.962409 0 1 0 0
      FADEOUT 1 0 0 1 0 0
      MUTE 0
      COLOR 24838024 R
      SEL 0
      IGUID {016E6A96-7C0B-4436-B2B0-B8E843A231CD}
      IID 11
      NAME "Then There was One - r/guitar - chorus"
      VOLPAN 1 0 1 -1
      SOFFS 0 0
      PLAYRATE 1 1 0 -1 0 0.0025
      CHANMODE 0
      GUID {AA1DAD26-97B2-485A-841F-807A268102AD}
      <SOURCE MIDI
        HASDATA 1 960 QN
        POOLEDEVTS {94E3B2AD-BC17-4F3C-82D3-A451E75DD41C}
        E 0 80 37 4c
        E 0 90 35 4c
        E 0 90 43 4c
        E 480 80 43 4c
        E 0 90 41 4c
        E 480 80 35 4c
        E 0 80 41 4c
        E 0 90 43 4c
        e 0 90 46 4c
        E 480 80 43 4c
        e 0 80 46 4c
        E 0 90 43 4c
        E 480 80 43 4c
        E 945 90 39 57
        E 480 90 3c 3f
        E 89 80 39 57
        E 391 90 41 50
        E 30 80 3c 3f
        E 930 90 39 4f
        E 15 80 41 50
        E 480 80 39 4f
        E 0 90 3c 53
        E 476 80 3c 53
        E 4 90 41 47
        E 975 80 41 47
        E 0 90 37 5b
        E 945 90 3e 4b
        E 15 80 37 5b
        E 945 80 3e 4b
        E 15 90 37 52
        E 930 80 37 52
        E 35 90 3e 4e
        E 925 80 3e 4e
        E 13 90 37 4f
        E 482 90 3b 55
        E 112 80 37 4f
        E 368 90 3e 49
        E 65 80 3b 55
        E 893 90 37 50
        E 17 80 3e 49
        E 465 90 3b 48
        E 142 80 37 50
        E 338 90 3e 53
        E 35 80 3b 48
        E 756 80 3e 53
        E 169 90 39 50
        E 960 90 41 51
        E 105 80 39 50
        E 855 80 41 51
        E 0 90 39 3f
        E 966 90 41 49
        E 9 80 39 3f
        E 930 90 39 57
        E 30 80 41 49
        E 450 90 3c 3f
        E 119 80 39 57
        E 361 80 3c 3f
        E 30 90 41 4a
        E 960 80 41 4a
        E 0 90 39 4f
        E 450 90 3c 53
        E 30 80 39 4f
        E 450 90 41 47
        E 26 80 3c 53
        E 934 90 3b 5b
        E 30 80 41 47
        E 465 90 3e 27
        E 135 80 3b 5b
        E 345 90 43 50
        E 15 80 3e 27
        E 945 90 3b 46
        E 15 80 43 50
        E 480 90 3e 27
        E 120 80 3b 46
        E 330 80 3e 27
        E 15 90 43 50
        E 960 80 43 50
        E 465 90 3c 4e
        E 480 80 3c 4e
        E 1 90 48 53
        E 29 90 37 4c
        E 1410 80 37 4c
        E 30 90 36 4a
        E 450 80 36 4a
        E 0 90 37 48
        E 975 80 48 00
        E 0 80 37 00
        E 0 b0 7b 00
        GUID {344BA183-A34C-4935-9575-3F03558ADDB9}
        IGNTEMPO 0 120 4 4
        SRCCOLOR 570
        VELLANE -1 100 0
        VELLANE -2 100 100
        CFGEDITVIEW 0 0 55 12 0 0 0 0 0 0.5
        KEYSNAP 0
        TRACKSEL 252
        EVTFILTER 0 -1 -1 -1 -1 0 0 0 0 -1 -1 -1 -1 0 -1 0 -1 -1
        CFGEDIT 1 0 0 1 1 1 1 1 1 1 1 0.125 402 136 1858 934 0 0 0 0 0 0 0 0 0 0.5 0 0 1 64
      >
    >
    <ITEM
      POSITION 6
      SNAPOFFS 0
      LENGTH 2.000000000015
      LOOP 1
      ALLTAKES 0
      FADEIN 1 1.284259 0 1 0 0
      FADEOUT 1 0 0 1 0 0
      MUTE 0
      COLOR 24838024 R
      SEL 0
      IGUID {9231C4B1-F841-4D60-B62A-B342F2F7C780}
      IID 11
      NAME "Then There was One - r/guitar - chorus"
      VOLPAN 1 0 1 -1
      SOFFS 31.5 63
      PLAYRATE 1 1 0 -1 0 0.0025
      CHANMODE 0
      GUID {D397D614-8519-4C1C-A6B1-8BD89E2D1F68}
      <SOURCE MIDI
        HASDATA 1 960 QN
        POOLEDEVTS {86B45F64-0629-407D-A117-48F54C2742B2}
        <X 0 0 0 0 3 "EZkeys song"
          /wNFWmtleXMgc29uZw==
        >
        <X 0 0
          /wFCYXJPZmZzZXQgNDIgMC4wMDAwMDAgOC4wMDAwMDAgMTYuMDAwMA==
          MDAgMjAuMDAwMDAwIDI0LjAwMDAwMCA0MC4wMDAwMDAgNDguMDAwMA==
          MDAgNTIuMDAwMDAwIDU2LjAwMDAwMCA2NC4wMDAwMDAgNjguMDAwMA==
          MDAgNzIuMDAwMDAwIDgwLjAwMDAwMCA4NC4wMDAwMDAgODguMDAwMA==
          MDAgOTIuMDAwMDAwIDEwNC4wMDAwMDAgMTEyLjAwMDAwMCAxMTYuMA==
          MDAwMDAgMTIwLjAwMDAwMCAxMzYuMDAwMDAwIDE0NC4wMDAwMDAgMQ==
          NDguMDAwMDAwIDE1Mi4wMDAwMDAgMTYwLjAwMDAwMCAxNjQuMDAwMA==
          MDAgMTY4LjAwMDAwMCAxNzAuMDAwMDAwIDE3Mi4wMDAwMDAgMTc2Lg==
          MDAwMDAwIDE4MC4wMDAwMDAgMTg0LjAwMDAwMCAxODguMDAwMDAwIA==
          MTk2LjAwMDAwMCAyMDIuMDAwMDAwIDIwNC4wMDAwMDAgMjA4LjAwMA==
          MDAwIDIxMi4wMDAwMDAgMjE2LjAwMDAwMCAyMjAuMDAwMDAwIDIyNg==
          LjAwMDAwMCAyMjguMDAwMDAw
        >
        E 0 90 30 4d
        E 480 90 37 1b
        E 480 80 30 4d
        E 15 80 37 1b
        E 0 90 3c 35
        E 930 90 30 4a
        E 30 80 3c 35
        E 465 90 37 2d
        E 465 80 37 2d
        E 15 80 30 4a
        E 0 90 3c 24
        E 967 80 3c 24
        E 8 90 30 4e
        E 480 90 37 2c
        E 450 80 37 2c
        E 0 90 3c 31
        E 15 80 30 4e
        E 480 90 37 3e
        E 465 80 3c 31
        E 15 80 37 3e
        E 0 90 30 50
        E 465 90 37 33
        E 495 80 30 50
        E 0 90 3c 36
        E 15 80 37 33
        E 450 90 37 4b
        E 480 90 2d 51
        E 30 80 3c 36
        E 0 80 37 4b
        E 450 90 34 23
        E 495 80 34 23
        E 15 80 2d 51
        E 0 90 39 3a
        E 930 80 39 3a
        E 15 90 2d 4a
        E 480 90 34 3d
        E 480 80 2d 4a
        E 15 80 34 3d
        E 0 90 39 46
        E 960 80 39 46
        E 0 90 2d 45
        E 480 90 34 1f
        E 450 80 2d 45
        E 0 80 34 1f
        E 15 90 39 3a
        E 465 90 34 32
        E 480 80 39 3a
        E 15 80 34 32
        E 0 90 2d 50
        E 495 90 34 31
        E 465 80 2d 50
        E 0 80 34 31
        E 15 90 39 49
        E 450 90 34 55
        E 480 80 39 49
        E 15 90 29 4f
        E 15 80 34 55
        E 465 90 30 20
        E 465 80 30 20
        E 0 90 35 46
        E 30 80 29 4f
        E 945 80 35 46
        E 15 90 29 48
        E 465 90 30 53
        E 465 80 29 48
        E 15 80 30 53
        E 0 90 35 46
        E 975 80 35 46
        E 0 90 2b 58
        E 480 90 32 2f
        E 450 80 32 2f
        E 0 90 37 4d
        E 30 80 2b 58
        E 450 90 32 4a
        E 495 80 32 4a
        E 15 80 37 4d
        E 0 90 2b 50
        E 480 90 32 37
        E 480 80 2b 50
        E 0 80 32 37
        E 0 90 37 4f
        E 450 90 32 40
        E 495 80 37 4f
        E 0 80 32 40
        E 15 90 30 5c
        E 480 90 37 32
        E 465 80 37 32
        E 0 90 3c 4d
        E 15 80 30 5c
        E 930 80 3c 4d
        E 30 90 30 46
        E 450 90 37 2a
        E 480 90 3c 4d
        E 15 80 30 46
        E 0 80 37 2a
        E 975 80 3c 4d
        E 0 90 30 50
        E 480 90 37 33
        E 450 90 3c 40
        E 15 80 30 50
        E 0 80 37 33
        E 471 90 37 20
        E 474 80 3c 40
        E 0 80 37 20
        E 7 90 30 52
        E 468 90 37 3b
        E 485 90 3c 40
        E 15 80 30 52
        E 15 80 37 3b
        E 930 90 30 46
        E 15 80 3c 40
        E 480 90 37 1b
        E 465 80 37 1b
        E 15 80 30 46
        E 15 90 3c 35
        E 930 80 3c 35
        E 15 90 30 4a
        E 480 90 37 2d
        E 480 90 3c 24
        E 15 80 30 4a
        E 0 80 37 2d
        E 930 90 30 4e
        E 37 80 3c 24
        E 443 90 37 2c
        E 480 80 30 4e
        E 15 90 3c 31
        E 15 80 37 2c
        E 450 90 37 3e
        E 480 80 37 3e
        E 0 90 30 50
        E 15 80 3c 31
        E 465 90 37 33
        E 495 80 30 50
        E 0 90 3c 36
        E 15 80 37 33
        E 465 90 37 4b
        E 480 80 3c 36
        E 0 90 2d 51
        E 15 80 37 4b
        E 465 90 34 23
        E 480 90 39 3a
        E 15 80 2d 51
        E 0 80 34 23
        E 945 80 39 3a
        E 15 90 2d 4a
        E 450 90 34 3d
        E 495 80 2d 4a
        E 0 90 39 46
        E 15 80 34 3d
        E 945 80 39 46
        E 15 90 2d 45
        E 450 90 34 1f
        E 510 80 2d 45
        E 0 80 34 1f
        E 0 90 39 3a
        E 465 90 34 32
        E 465 80 34 32
        E 0 90 2d 50
        E 15 80 39 3a
        E 495 90 34 31
        E 450 90 39 49
        E 15 80 2d 50
        E 15 80 34 31
        E 465 90 34 55
        E 480 90 29 5b
        E 15 80 39 49
        E 0 80 34 55
        E 465 90 30 20
        E 480 80 30 20
        E 15 80 29 5b
        E 0 90 35 46
        E 930 80 35 46
        E 15 90 29 4b
        E 495 90 30 4e
        E 450 80 29 4b
        E 15 80 30 4e
        E 15 90 35 46
        E 945 90 2b 50
        E 15 80 35 46
        E 480 90 32 2f
        E 450 80 2b 50
        E 0 80 32 2f
        E 15 90 37 4d
        E 465 90 32 4a
        E 495 80 37 4d
        E 0 80 32 4a
        E 15 90 2b 50
        E 450 90 32 37
        E 480 80 32 37
        E 0 90 37 4f
        E 15 80 2b 50
        E 465 90 32 40
        E 480 80 37 4f
        E 0 80 32 40
        E 0 90 30 59
        E 480 90 37 32
        E 480 90 3c 4d
        E 15 80 30 59
        E 15 80 37 32
        E 945 90 30 46
        E 15 80 3c 4d
        E 465 90 37 2a
        E 480 80 30 46
        E 0 80 37 2a
        E 15 90 3c 4d
        E 930 90 30 50
        E 30 80 3c 4d
        E 465 90 37 33
        E 465 80 37 33
        E 15 80 30 50
        E 0 90 3c 40
        E 480 80 3c 40
        E 0 90 39 42
        E 240 80 39 20
        E 0 90 37 42
        E 232 90 30 52
        E 8 80 37 20
        E 430 90 37 3b
        E 410 90 3c 4c
        E 105 80 30 52
        E 15 90 3c 4c
        E 15 80 37 3b
        E 465 80 3c 4c
        E 0 80 3c 4c
        E 0 90 35 4c
        E 480 80 35 4c
        E 0 90 3a 4c
        E 480 80 3a 4c
        E 0 90 37 4c
        E 480 80 37 4c
        E 0 90 35 4c
        E 0 90 43 4c
        E 480 80 43 4c
        E 0 90 41 4c
        E 480 80 35 4c
        E 0 80 41 4c
        E 0 90 43 4c
        e 0 90 46 4c
        E 480 80 43 4c
        e 0 80 46 4c
        E 0 90 43 4c
        E 480 80 43 4c
        E 945 90 39 57
        E 480 90 3c 3f
        E 89 80 39 57
        E 391 90 41 50
        E 30 80 3c 3f
        E 930 90 39 4f
        E 15 80 41 50
        E 480 80 39 4f
        E 0 90 3c 53
        E 476 80 3c 53
        E 4 90 41 47
        E 975 80 41 47
        E 0 90 37 5b
        E 945 90 3e 4b
        E 15 80 37 5b
        E 945 80 3e 4b
        E 15 90 37 52
        E 930 80 37 52
        E 35 90 3e 4e
        E 925 80 3e 4e
        E 13 90 37 4f
        E 482 90 3b 55
        E 112 80 37 4f
        E 368 90 3e 49
        E 65 80 3b 55
        E 893 90 37 50
        E 17 80 3e 49
        E 465 90 3b 48
        E 142 80 37 50
        E 338 90 3e 53
        E 35 80 3b 48
        E 756 80 3e 53
        E 169 90 39 50
        E 960 90 41 51
        E 105 80 39 50
        E 855 80 41 51
        E 0 90 39 3f
        E 966 90 41 49
        E 9 80 39 3f
        E 930 90 39 57
        E 30 80 41 49
        E 450 90 3c 3f
        E 119 80 39 57
        E 361 80 3c 3f
        E 30 90 41 4a
        E 960 80 41 4a
        E 0 90 39 4f
        E 450 90 3c 53
        E 30 80 39 4f
        E 450 90 41 47
        E 26 80 3c 53
        E 934 90 3b 5b
        E 30 80 41 47
        E 465 90 3e 27
        E 135 80 3b 5b
        E 345 90 43 50
        E 15 80 3e 27
        E 945 90 3b 46
        E 15 80 43 50
        E 480 90 3e 27
        E 120 80 3b 46
        E 330 80 3e 27
        E 15 90 43 50
        E 960 80 43 50
        E 465 90 3c 4e
        E 480 80 3c 4e
        E 1 90 48 53
        E 29 90 37 4c
        E 1410 80 37 4c
        E 30 90 36 4a
        E 450 80 36 4a
        E 0 90 37 48
        E 975 80 48 00
        E 0 80 37 00
        E 0 b0 7b 00
        GUID {8906CEBE-543C-45B1-85A4-9E0CBB428408}
        IGNTEMPO 0 120 4 4
        SRCCOLOR 321
        VELLANE -1 100 0
        VELLANE -2 100 100
        CFGEDITVIEW 60213.35169 0.145906 55 12 0 0 0 0 0 0.5
        KEYSNAP 0
        TRACKSEL 252
        EVTFILTER 0 -1 -1 -1 -1 0 0 0 0 -1 -1 -1 -1 0 -1 0 -1 -1
        CFGEDIT 1 0 0 1 1 1 1 1 1 1 1 0.125 402 136 1858 934 0 0 0 0 0 0 0 0 0 0.5 0 0 1 64
      >
    >
    <ITEM
      POSITION 8.000000000015
      SNAPOFFS 0
      LENGTH 31.999999999985
      LOOP 1
      ALLTAKES 0
      FADEIN 1 0 0 1 0 0
      FADEOUT 1 0 0 1 0 0
      MUTE 0
      COLOR 27202763 R
      SEL 0
      IGUID {9D1F8EFF-9EBB-445E-9042-B35F89C24CC8}
      IID 64
      NAME "02-Dimension Pro-Recorded MIDI glued"
      VOLPAN 1 0 1 -1
      SOFFS 0 0
      PLAYRATE 1 1 0 -1 0 0.0025
      CHANMODE 0
      GUID {90F09E25-2C5B-408C-A208-804639D04620}
      <SOURCE MIDI
        HASDATA 1 960 QN
        POOLEDEVTS {B1D73391-892C-42DD-ABB4-EB643C9A2F78}
        E 480 90 3c 40
        E 480 80 3c 28
        E 0 90 40 45
        E 0 90 43 40
        E 480 80 40 22
        E 0 80 43 28
        E 480 90 40 59
        E 0 90 43 53
        E 480 80 40 30
        E 0 80 43 30
        E 1440 90 41 46
        E 0 90 45 52
        E 475 80 45 29
        E 5 80 41 2c
        E 22 90 43 43
        E 2 90 40 44
        E 456 80 43 26
        E 0 80 40 35
        E 480 90 3c 3a
        E 0 90 40 61
        E 960 80 3c 29
        E 0 80 40 2b
        E 480 90 3b 2d
        E 0 90 3e 40
        E 240 80 3b 37
        E 0 80 3e 30
        E 240 90 37 33
        E 0 90 3b 46
        E 214 80 3b 2a
        E 26 80 37 0b
        E 720 90 39 3a
        E 0 90 3c 3e
        E 480 80 39 2d
        E 0 80 3c 35
        E 960 90 3c 4f
        E 0 90 40 61
        E 1440 80 3c 09
        E 0 80 40 4c
        E 480 90 3e 6f
        E 480 80 3e 40
        E 0 90 40 61
        E 480 80 40 11
        E 0 90 3e 59
        E 480 80 3e 34
        E 0 90 39 5d
        E 0 90 3c 5d
        E 960 80 39 1e
        E 0 80 3c 1e
        E 480 90 37 48
        E 0 90 39 33
        E 480 80 37 36
        E 0 90 3b 6c
        E 20 80 39 40
        E 460 80 3b 43
        E 480 90 39 5d
        E 21 90 3c 5d
        E 939 80 39 1e
        E 0 80 3c 35
        E 480 90 3c 32
        E 0 90 40 57
        E 0 90 43 32
        E 240 80 43 11
        E 240 80 3c 11
        E 0 80 40 11
        E 240 90 3c 0e
        E 240 80 3c 16
        E 0 90 40 6c
        E 240 80 40 41
        E 240 90 40 6c
        E 480 80 40 3b
        E 480 90 3e 6f
        E 960 80 3e 43
        E 0 90 3c 64
        E 960 90 3e 6f
        E 120 80 3c 34
        E 840 80 3e 29
        E 1440 90 40 73
        E 0 90 43 73
        E 960 80 40 32
        E 0 80 43 32
        E 0 90 3e 76
        E 0 90 41 76
        E 960 80 3e 24
        E 0 80 41 24
        E 960 90 3c 5b
        E 0 90 40 6c
        E 960 80 40 43
        E 11 80 3c 29
        E 469 90 3c 59
        E 0 90 3e 4c
        E 0 90 40 4f
        E 469 80 40 17
        E 11 80 3c 23
        E 4 90 3c 73
        E 476 90 39 67
        E 480 80 3c 25
        E 0 90 3c 67
        E 480 80 3e 1b
        E 0 80 39 1d
        E 480 80 3c 00
        E 600 90 3c 50
        E 120 80 3c 28
        E 0 90 3e 40
        E 120 80 3e 28
        E 0 90 42 40
        E 120 80 42 28
        E 0 90 40 45
        E 0 90 43 40
        E 480 80 40 22
        E 0 80 43 28
        E 480 90 40 59
        E 0 90 43 53
        E 480 80 40 30
        E 0 80 43 30
        E 1440 90 41 46
        E 0 90 45 52
        E 475 80 45 29
        E 5 80 41 2c
        E 22 90 43 43
        E 2 90 40 44
        E 456 80 43 26
        E 0 80 40 35
        E 480 90 3c 3a
        E 0 90 40 61
        E 960 80 3c 29
        E 0 80 40 2b
        E 480 90 3b 2d
        E 0 90 3e 40
        E 240 80 3b 37
        E 0 80 3e 30
        E 240 90 37 33
        E 0 90 3b 46
        E 214 80 3b 2a
        E 26 80 37 0b
        E 720 90 39 3a
        E 0 90 3c 3e
        E 480 80 39 2d
        E 0 80 3c 35
        E 960 90 3c 4f
        E 0 90 40 61
        E 1440 80 3c 09
        E 0 80 40 4c
        E 480 90 3e 6f
        E 480 80 3e 40
        E 0 90 40 61
        E 480 80 40 11
        E 0 90 3e 59
        E 480 80 3e 34
        E 0 90 39 5d
        E 0 90 3c 5d
        E 960 80 39 1e
        E 0 80 3c 1e
        E 480 90 37 48
        E 0 90 39 33
        E 480 80 37 36
        E 0 90 3b 6c
        E 20 80 39 40
        E 460 80 3b 43
        E 480 90 39 5d
        E 21 90 3c 5d
        E 939 80 39 1e
        E 0 80 3c 35
        E 480 90 3c 32
        E 0 90 40 32
        E 0 90 43 4c
        E 240 80 43 11
        E 240 80 3c 11
        E 0 80 40 11
        E 240 90 3c 0e
        E 240 80 3c 16
        E 0 90 40 6c
        E 240 80 40 41
        E 240 90 40 6c
        E 480 80 40 3b
        E 480 90 3e 6f
        E 960 80 3e 43
        E 0 90 3c 64
        E 960 90 3e 6f
        E 120 80 3c 34
        E 840 80 3e 29
        E 1440 90 40 73
        E 0 90 43 73
        E 960 80 40 32
        E 0 80 43 32
        E 0 90 3e 76
        E 0 90 41 76
        E 960 80 3e 24
        E 0 80 41 24
        E 960 90 3c 5b
        E 0 90 40 6c
        E 960 80 40 43
        E 11 80 3c 29
        E 469 90 3c 59
        E 0 90 3e 4c
        E 0 90 40 4f
        E 469 80 40 17
        E 11 80 3c 23
        E 4 90 3c 73
        E 476 90 39 67
        E 480 80 3c 25
        E 0 90 3c 67
        E 480 80 3e 1b
        E 0 80 39 1d
        E 480 80 3c 00
        E 0 b0 7b 00
        GUID {F1281028-D74B-4A6D-AC50-C97CA5ECEB32}
        IGNTEMPO 0 120 4 4
        SRCCOLOR 284
        VELLANE -1 100 0
        VELLANE -2 100 100
      >
    >
    <ITEM
      POSITION 40
      SNAPOFFS 0
      LENGTH 16
      LOOP 1
      ALLTAKES 0
      FADEIN 1 0 0 1 0 0
      FADEOUT 1 0 0 1 0 0
      MUTE 0
      COLOR 33531764 R
      SEL 0
      IGUID {830BDB9A-E4FF-46AE-889C-A5C90E3E5C95}
      IID 64
      NAME "02-Dimension Pro-Recorded MIDI glued"
      VOLPAN 1 0 1 -1
      SOFFS 0 0
      PLAYRATE 1 1 0 -1 0 0.0025
      CHANMODE 0
      GUID {D487A8DF-F1CB-4879-9055-50B06ACABE4C}
      <SOURCE MIDI
        HASDATA 1 960 QN
        POOLEDEVTS {CF864277-7B46-4CEB-BE83-88182B0E42FD}
        E 0 80 3c 1d
        E 960 90 3c 66
        E 0 90 45 66
        E 480 90 41 5b
        E 480 80 3c 32
        E 0 80 45 32
        E 0 90 41 00
        E 0 90 41 66
        E 0 90 45 66
        E 480 80 41 20
        E 360 80 45 32
        E 125 90 48 6f
        E 475 80 48 38
        E 480 90 45 64
        E 0 90 48 6c
        E 1440 80 45 32
        E 0 80 48 32
        E 0 90 43 50
        E 0 90 47 69
        E 1440 90 41 5d
        E 0 90 45 4f
        E 878 80 47 46
        E 20 80 43 32
        E 809 80 41 3a
        E 9 80 45 45
        E 204 90 43 55
        E 390 80 43 2d
        E 570 90 40 5f
        E 6 90 43 5b
        E 1554 80 40 38
        E 120 80 43 34
        E 240 90 3e 53
        E 0 90 41 66
        E 1440 90 3c 4a
        E 480 90 40 61
        E 120 80 3e 34
        E 0 80 41 46
        E 960 80 40 55
        E 840 80 3c 37
        E 960 90 3c 66
        E 0 90 45 66
        E 480 90 41 5b
        E 480 80 3c 32
        E 0 80 45 32
        E 0 90 41 00
        E 0 90 41 66
        E 0 90 45 66
        E 480 80 41 20
        E 360 80 45 32
        E 125 90 48 6f
        E 475 80 48 38
        E 480 90 45 64
        E 0 90 48 6c
        E 1440 80 45 32
        E 0 80 48 32
        E 0 90 43 50
        E 0 90 47 69
        E 1440 90 41 5d
        E 0 90 45 4f
        E 878 80 47 46
        E 20 80 43 32
        E 809 80 41 3a
        E 9 80 45 45
        E 204 90 43 55
        E 390 80 43 2d
        E 570 90 40 5f
        E 6 90 43 5b
        E 1554 80 40 38
        E 120 80 43 34
        E 240 90 3e 4f
        E 0 90 45 4f
        E 1716 80 3e 45
        E 204 80 45 45
        E 0 90 40 4f
        E 0 90 47 4f
        E 1920 80 40 00
        E 0 80 47 00
        E 0 b0 7b 00
        GUID {59A32476-01F5-45F7-8A7C-18163108D36F}
        IGNTEMPO 0 120 4 4
        SRCCOLOR 434
        VELLANE -1 100 0
        VELLANE -2 100 100
      >
    >
    <ITEM
      POSITION 56
      SNAPOFFS 0
      LENGTH 24
      LOOP 1
      ALLTAKES 0
      FADEIN 1 0 0 1 0 0
      FADEOUT 1 0 0 1 0 0
      MUTE 0
      COLOR 26775383 R
      SEL 0
      IGUID {AA38E913-2A59-4BD4-A549-8DC5F7A222BD}
      IID 64
      NAME "02-Dimension Pro-Recorded MIDI glued"
      VOLPAN 1 0 1 -1
      SOFFS 16 32
      PLAYRATE 1 1 0 -1 0 0.0025
      CHANMODE 0
      GUID {3DF0B3CA-9BBC-45F9-B6E9-F69258E062CA}
      <SOURCE MIDI
        HASDATA 1 960 QN
        POOLEDEVTS {BF436D14-E32F-46F6-9515-4B7051765C18}
        E 0 80 3c 1d
        E 960 90 3c 66
        E 0 90 45 66
        E 480 90 41 5b
        E 480 80 3c 32
        E 0 80 45 32
        E 0 90 41 00
        E 0 90 41 66
        E 0 90 45 66
        E 480 80 41 20
        E 360 80 45 32
        E 125 90 48 6f
        E 475 80 48 38
        E 480 90 45 64
        E 0 90 48 6c
        E 1440 80 45 32
        E 0 80 48 32
        E 0 90 43 50
        E 0 90 47 69
        E 1440 90 41 5d
        E 0 90 45 4f
        E 878 80 47 46
        E 20 80 43 32
        E 809 80 41 3a
        E 9 80 45 45
        E 204 90 43 55
        E 390 80 43 2d
        E 570 90 40 5f
        E 6 90 43 5b
        E 1554 80 40 38
        E 120 80 43 34
        E 240 90 3e 53
        E 0 90 41 66
        E 1440 90 3c 4a
        E 480 90 40 61
        E 120 80 3e 34
        E 0 80 41 46
        E 960 80 40 55
        E 840 80 3c 37
        E 960 90 3c 66
        E 0 90 45 66
        E 480 90 41 5b
        E 480 80 3c 32
        E 0 80 45 32
        E 0 90 41 00
        E 0 90 41 66
        E 0 90 45 66
        E 480 80 41 20
        E 360 80 45 32
        E 125 90 48 6f
        E 475 80 48 38
        E 480 90 45 64
        E 0 90 48 6c
        E 1440 80 45 32
        E 0 80 48 32
        E 0 90 43 50
        E 0 90 47 69
        E 1440 90 41 5d
        E 0 90 45 4f
        E 878 80 47 46
        E 20 80 43 32
        E 809 80 41 3a
        E 9 80 45 45
        E 204 90 43 55
        E 390 80 43 2d
        E 570 90 40 5f
        E 6 90 43 5b
        E 1554 80 40 38
        E 120 80 43 34
        E 240 90 3e 4f
        E 0 90 45 4f
        E 1716 80 3e 45
        E 204 80 45 45
        E 0 90 40 4f
        E 0 90 47 4f
        E 1920 80 40 00
        E 0 80 47 00
        E 480 90 3c 40
        E 480 80 3c 28
        E 0 90 40 45
        E 0 90 43 40
        E 480 80 40 22
        E 0 80 43 28
        E 480 90 40 59
        E 0 90 43 53
        E 480 80 40 30
        E 0 80 43 30
        E 1440 90 41 46
        E 0 90 45 52
        E 475 80 45 29
        E 5 80 41 2c
        E 22 90 43 43
        E 2 90 40 44
        E 456 80 43 26
        E 0 80 40 35
        E 480 90 3c 3a
        E 0 90 40 61
        E 960 80 3c 29
        E 0 80 40 2b
        E 480 90 3b 2d
        E 0 90 3e 40
        E 240 80 3b 37
        E 0 80 3e 30
        E 240 90 37 33
        E 0 90 3b 46
        E 214 80 3b 2a
        E 26 80 37 0b
        E 720 90 39 3a
        E 0 90 3c 3e
        E 480 80 39 2d
        E 0 80 3c 35
        E 960 90 3c 4f
        E 0 90 40 61
        E 1440 80 3c 09
        E 0 80 40 4c
        E 480 90 3e 6f
        E 480 80 3e 40
        E 0 90 40 61
        E 480 80 40 11
        E 0 90 3e 59
        E 480 80 3e 34
        E 0 90 39 5d
        E 0 90 3c 5d
        E 960 80 39 1e
        E 0 80 3c 1e
        E 480 90 37 48
        E 0 90 39 33
        E 480 80 37 36
        E 0 90 3b 6c
        E 20 80 39 40
        E 460 80 3b 43
        E 480 90 39 5d
        E 21 90 3c 5d
        E 939 80 39 1e
        E 0 80 3c 35
        E 480 90 3c 32
        E 0 90 40 32
        E 0 90 43 57
        E 240 80 43 11
        E 240 80 3c 11
        E 0 80 40 11
        E 240 90 3c 0e
        E 240 80 3c 16
        E 0 90 40 6c
        E 240 80 40 41
        E 240 90 40 6c
        E 480 80 40 3b
        E 480 90 3e 6f
        E 960 80 3e 43
        E 0 90 3c 64
        E 960 90 3e 6f
        E 120 80 3c 34
        E 840 80 3e 29
        E 1440 90 40 73
        E 0 90 43 73
        E 960 80 40 32
        E 0 80 43 32
        E 0 90 3e 76
        E 0 90 41 76
        E 960 80 3e 24
        E 0 80 41 24
        E 960 90 3c 5b
        E 0 90 40 6c
        E 960 80 40 43
        E 11 80 3c 29
        E 469 90 3c 59
        E 0 90 3e 4c
        E 0 90 40 4f
        E 469 80 40 17
        E 11 80 3c 23
        E 4 90 3c 73
        E 476 90 39 67
        E 480 80 3c 25
        E 0 90 3c 67
        E 480 80 3e 1b
        E 0 80 39 1d
        E 480 80 3c 1d
        E 600 90 3c 40
        E 120 80 3c 28
        E 0 90 3e 40
        E 120 80 3e 28
        E 0 90 42 40
        E 120 80 42 28
        E 0 90 40 45
        E 0 90 43 40
        E 480 80 40 22
        E 0 80 43 28
        E 480 90 40 59
        E 0 90 43 53
        E 480 80 40 30
        E 0 80 43 30
        E 1440 90 41 46
        E 0 90 45 52
        E 475 80 45 29
        E 5 80 41 2c
        E 22 90 43 43
        E 2 90 40 44
        E 456 80 43 26
        E 0 80 40 35
        E 480 90 3c 3a
        E 0 90 40 61
        E 960 80 3c 29
        E 0 80 40 2b
        E 480 90 3b 2d
        E 0 90 3e 40
        E 240 80 3b 37
        E 0 80 3e 30
        E 240 90 37 33
        E 0 90 3b 46
        E 214 80 3b 2a
        E 26 80 37 0b
        E 720 90 39 3a
        E 0 90 3c 3e
        E 480 80 39 2d
        E 0 80 3c 35
        E 960 90 3c 4f
        E 0 90 40 61
        E 1440 80 3c 09
        E 0 80 40 4c
        E 480 90 3e 6f
        E 480 80 3e 40
        E 0 90 40 61
        E 480 80 40 11
        E 0 90 3e 59
        E 480 80 3e 34
        E 0 90 39 5d
        E 0 90 3c 5d
        E 960 80 39 1e
        E 0 80 3c 1e
        E 480 90 37 48
        E 0 90 39 33
        E 480 80 37 36
        E 0 90 3b 6c
        E 20 80 39 40
        E 460 80 3b 00
        E 0 b0 7b 00
        GUID {3F55741E-E111-4BFA-A1F4-39FC4AFE9581}
        IGNTEMPO 0 120 4 4
        SRCCOLOR 435
        VELLANE -1 100 0
        VELLANE -2 100 100
      >
    >
    <ITEM
      POSITION 80
      SNAPOFFS 0
      LENGTH 4
      LOOP 1
      ALLTAKES 0
      FADEIN 1 0 0 1 0 0
      FADEOUT 1 0 0 1 0 0
      MUTE 0
      COLOR 27026175 R
      SEL 0
      IGUID {140B3F4B-45FB-485E-9989-43EC057830CE}
      IID 64
      NAME "02-Dimension Pro-Recorded MIDI glued"
      VOLPAN 1 0 1 -1
      SOFFS 71.99999999998499 143.99999999996999
      PLAYRATE 1 1 0 -1 0 0.0025
      CHANMODE 0
      GUID {376469CD-2CE7-459F-9580-F178BA840D2E}
      <SOURCE MIDI
        HASDATA 1 960 QN
        POOLEDEVTS {ACDD37D6-CE20-46FF-86D6-825B57DB7F9E}
        E 480 90 3c 40
        E 480 80 3c 28
        E 0 90 40 45
        E 0 90 43 40
        E 480 80 40 22
        E 0 80 43 28
        E 480 90 40 59
        E 0 90 43 53
        E 480 80 40 30
        E 0 80 43 30
        E 1440 90 41 46
        E 0 90 45 52
        E 475 80 45 29
        E 5 80 41 2c
        E 22 90 43 43
        E 2 90 40 44
        E 456 80 43 26
        E 0 80 40 35
        E 480 90 3c 3a
        E 0 90 40 61
        E 960 80 3c 29
        E 0 80 40 2b
        E 480 90 3b 2d
        E 0 90 3e 40
        E 240 80 3b 37
        E 0 80 3e 30
        E 240 90 37 33
        E 0 90 3b 46
        E 214 80 3b 2a
        E 26 80 37 0b
        E 720 90 39 3a
        E 0 90 3c 3e
        E 480 80 39 2d
        E 0 80 3c 35
        E 960 90 3c 4f
        E 0 90 40 61
        E 1440 80 3c 09
        E 0 80 40 4c
        E 480 90 3e 6f
        E 480 80 3e 40
        E 0 90 40 61
        E 480 80 40 11
        E 0 90 3e 59
        E 480 80 3e 34
        E 0 90 39 5d
        E 0 90 3c 5d
        E 960 80 39 1e
        E 0 80 3c 1e
        E 480 90 37 48
        E 0 90 39 33
        E 480 80 37 36
        E 0 90 3b 6c
        E 20 80 39 40
        E 460 80 3b 43
        E 480 90 39 5d
        E 21 90 3c 5d
        E 939 80 39 1e
        E 0 80 3c 35
        E 480 90 3c 32
        E 0 90 40 57
        E 0 90 43 32
        E 240 80 43 11
        E 240 80 3c 11
        E 0 80 40 11
        E 240 90 3c 0e
        E 240 80 3c 16
        E 0 90 40 6c
        E 240 80 40 41
        E 240 90 40 6c
        E 480 80 40 3b
        E 480 90 3e 6f
        E 960 80 3e 43
        E 0 90 3c 64
        E 960 90 3e 6f
        E 120 80 3c 34
        E 840 80 3e 29
        E 1440 90 40 73
        E 0 90 43 73
        E 960 80 40 32
        E 0 80 43 32
        E 0 90 3e 76
        E 0 90 41 76
        E 960 80 3e 24
        E 0 80 41 24
        E 960 90 3c 5b
        E 0 90 40 6c
        E 960 80 40 43
        E 11 80 3c 29
        E 469 90 3c 59
        E 0 90 3e 4c
        E 0 90 40 4f
        E 469 80 40 17
        E 11 80 3c 23
        E 4 90 3c 73
        E 476 90 39 67
        E 480 80 3c 25
        E 0 90 3c 67
        E 480 80 3e 1b
        E 0 80 39 1d
        E 480 80 3c 00
        E 600 90 3c 50
        E 120 80 3c 28
        E 0 90 3e 40
        E 120 80 3e 28
        E 0 90 42 40
        E 120 80 42 28
        E 0 90 40 45
        E 0 90 43 40
        E 480 80 40 22
        E 0 80 43 28
        E 480 90 40 59
        E 0 90 43 53
        E 480 80 40 30
        E 0 80 43 30
        E 1440 90 41 46
        E 0 90 45 52
        E 475 80 45 29
        E 5 80 41 2c
        E 22 90 43 43
        E 2 90 40 44
        E 456 80 43 26
        E 0 80 40 35
        E 480 90 3c 3a
        E 0 90 40 61
        E 960 80 3c 29
        E 0 80 40 2b
        E 480 90 3b 2d
        E 0 90 3e 40
        E 240 80 3b 37
        E 0 80 3e 30
        E 240 90 37 33
        E 0 90 3b 46
        E 214 80 3b 2a
        E 26 80 37 0b
        E 720 90 39 3a
        E 0 90 3c 3e
        E 480 80 39 2d
        E 0 80 3c 35
        E 960 90 3c 4f
        E 0 90 40 61
        E 1440 80 3c 09
        E 0 80 40 4c
        E 480 90 3e 6f
        E 480 80 3e 40
        E 0 90 40 61
        E 480 80 40 11
        E 0 90 3e 59
        E 480 80 3e 34
        E 0 90 39 5d
        E 0 90 3c 5d
        E 960 80 39 1e
        E 0 80 3c 1e
        E 480 90 37 48
        E 0 90 39 33
        E 480 80 37 36
        E 0 90 3b 6c
        E 20 80 39 40
        E 460 80 3b 43
        E 480 90 39 5d
        E 21 90 3c 5d
        E 939 80 39 1e
        E 0 80 3c 35
        E 480 90 3c 32
        E 0 90 40 32
        E 0 90 43 4c
        E 240 80 43 11
        E 240 80 3c 11
        E 0 80 40 11
        E 240 90 3c 0e
        E 240 80 3c 16
        E 0 90 40 6c
        E 240 80 40 41
        E 240 90 40 6c
        E 480 80 40 3b
        E 480 90 3e 6f
        E 960 80 3e 43
        E 0 90 3c 64
        E 960 90 3e 6f
        E 120 80 3c 34
        E 840 80 3e 29
        E 1440 90 40 73
        E 0 90 43 73
        E 960 80 40 32
        E 0 80 43 32
        E 0 90 3e 76
        E 0 90 41 76
        E 960 80 3e 24
        E 0 80 41 24
        E 960 90 3c 5b
        E 0 90 40 6c
        E 960 80 40 43
        E 11 80 3c 29
        E 469 90 3c 59
        E 0 90 3e 4c
        E 0 90 40 4f
        E 469 80 40 17
        E 11 80 3c 23
        E 4 90 3c 73
        E 476 90 39 67
        E 480 80 3c 25
        E 0 90 3c 67
        E 480 80 3e 1b
        E 0 80 39 1d
        E 480 80 3c 1d
        E 960 90 3c 66
        E 0 90 45 66
        E 480 90 41 5b
        E 480 80 3c 32
        E 0 80 45 32
        E 0 90 41 00
        E 0 90 41 66
        E 0 90 45 66
        E 480 80 41 20
        E 360 80 45 32
        E 125 90 48 6f
        E 475 80 48 38
        E 480 90 45 64
        E 0 90 48 6c
        E 1440 80 45 32
        E 0 80 48 32
        E 0 90 43 50
        E 0 90 47 69
        E 1440 90 41 5d
        E 0 90 45 4f
        E 878 80 47 46
        E 20 80 43 32
        E 809 80 41 3a
        E 9 80 45 45
        E 204 90 43 55
        E 390 80 43 2d
        E 570 90 40 5f
        E 6 90 43 5b
        E 1554 80 40 38
        E 120 80 43 34
        E 240 90 3e 53
        E 0 90 41 66
        E 1440 90 3c 4a
        E 480 90 40 61
        E 120 80 3e 34
        E 0 80 41 46
        E 960 80 40 55
        E 840 80 3c 37
        E 960 90 3c 66
        E 0 90 45 66
        E 480 90 41 5b
        E 480 80 3c 32
        E 0 80 45 32
        E 0 90 41 00
        E 0 90 41 66
        E 0 90 45 66
        E 480 80 41 20
        E 360 80 45 32
        E 125 90 48 6f
        E 475 80 48 38
        E 480 90 45 64
        E 0 90 48 6c
        E 1440 80 45 32
        E 0 80 48 32
        E 0 90 43 50
        E 0 90 47 69
        E 1440 90 41 5d
        E 0 90 45 4f
        E 878 80 47 46
        E 20 80 43 32
        E 809 80 41 3a
        E 9 80 45 45
        E 204 90 43 55
        E 390 80 43 2d
        E 570 90 40 5f
        E 6 90 43 5b
        E 1554 80 40 38
        E 120 80 43 34
        E 240 90 3e 4f
        E 0 90 45 4f
        E 1716 80 3e 45
        E 204 80 45 45
        E 0 90 40 4f
        E 0 90 47 4f
        E 1920 80 40 00
        E 0 80 47 00
        E 480 90 3c 40
        E 480 80 3c 28
        E 0 90 40 45
        E 0 90 43 40
        E 480 80 40 22
        E 0 80 43 28
        E 480 90 40 59
        E 0 90 43 53
        E 480 80 40 30
        E 0 80 43 30
        E 1440 90 41 46
        E 0 90 45 52
        E 475 80 45 29
        E 5 80 41 2c
        E 22 90 43 43
        E 2 90 40 44
        E 456 80 43 26
        E 0 80 40 35
        E 480 90 3c 3a
        E 0 90 40 61
        E 960 80 3c 29
        E 0 80 40 2b
        E 480 90 3b 2d
        E 0 90 3e 40
        E 240 80 3b 37
        E 0 80 3e 30
        E 240 90 37 33
        E 0 90 3b 46
        E 214 80 3b 2a
        E 26 80 37 0b
        E 720 90 39 3a
        E 0 90 3c 3e
        E 480 80 39 2d
        E 0 80 3c 35
        E 960 90 3c 4f
        E 0 90 40 61
        E 1440 80 3c 09
        E 0 80 40 4c
        E 480 90 3e 6f
        E 480 80 3e 40
        E 0 90 40 61
        E 480 80 40 11
        E 0 90 3e 59
        E 480 80 3e 34
        E 0 90 39 5d
        E 0 90 3c 5d
        E 960 80 39 1e
        E 0 80 3c 1e
        E 480 90 37 48
        E 0 90 39 33
        E 480 80 37 36
        E 0 90 3b 6c
        E 20 80 39 40
        E 460 80 3b 43
        E 480 90 39 5d
        E 21 90 3c 5d
        E 939 80 39 1e
        E 0 80 3c 35
        E 480 90 3c 32
        E 0 90 40 32
        E 0 90 43 57
        E 240 80 43 11
        E 240 80 3c 11
        E 0 80 40 11
        E 240 90 3c 0e
        E 240 80 3c 16
        E 0 90 40 6c
        E 240 80 40 41
        E 240 90 40 6c
        E 480 80 40 3b
        E 480 90 3e 6f
        E 960 80 3e 43
        E 0 90 3c 64
        E 960 90 3e 6f
        E 120 80 3c 34
        E 840 80 3e 29
        E 1440 90 40 73
        E 0 90 43 73
        E 960 80 40 32
        E 0 80 43 32
        E 0 90 3e 76
        E 0 90 41 76
        E 960 80 3e 24
        E 0 80 41 24
        E 960 90 3c 5b
        E 0 90 40 6c
        E 960 80 40 43
        E 11 80 3c 29
        E 469 90 3c 59
        E 0 90 3e 4c
        E 0 90 40 4f
        E 469 80 40 17
        E 11 80 3c 23
        E 4 90 3c 73
        E 476 90 39 67
        E 480 80 3c 25
        E 0 90 3c 67
        E 480 80 3e 1b
        E 0 80 39 1d
        E 480 80 3c 1d
        E 600 90 3c 40
        E 120 80 3c 28
        E 0 90 3e 40
        E 120 80 3e 28
        E 0 90 42 40
        E 120 80 42 28
        E 0 90 40 45
        E 0 90 43 40
        E 480 80 40 22
        E 0 80 43 28
        E 480 90 40 59
        E 0 90 43 53
        E 480 80 40 30
        E 0 80 43 30
        E 1440 90 41 46
        E 0 90 45 52
        E 475 80 45 29
        E 5 80 41 2c
        E 22 90 43 43
        E 2 90 40 44
        E 456 80 43 26
        E 0 80 40 35
        E 480 90 3c 3a
        E 0 90 40 61
        E 960 80 3c 29
        E 0 80 40 2b
        E 480 90 3b 2d
        E 0 90 3e 40
        E 240 80 3b 37
        E 0 80 3e 30
        E 240 90 37 33
        E 0 90 3b 46
        E 214 80 3b 2a
        E 26 80 37 0b
        E 720 90 39 3a
        E 0 90 3c 3e
        E 480 80 39 2d
        E 0 80 3c 35
        E 960 90 3c 4f
        E 0 90 40 61
        E 1440 80 3c 09
        E 0 80 40 4c
        E 480 90 3e 6f
        E 480 80 3e 40
        E 0 90 40 61
        E 480 80 40 11
        E 0 90 3e 59
        E 480 80 3e 34
        E 0 90 39 5d
        E 0 90 3c 5d
        E 960 80 39 1e
        E 0 80 3c 1e
        E 480 90 37 48
        E 0 90 39 33
        E 480 80 37 36
        E 0 90 3b 6c
        E 20 80 39 40
        E 460 80 3b 43
        E 480 90 39 5d
        E 21 90 3c 5d
        E 939 80 39 1e
        E 0 80 3c 35
        E 480 90 3c 32
        E 0 90 40 32
        E 0 90 43 32
        E 240 80 43 11
        E 240 80 3c 11
        E 0 80 40 11
        E 240 90 3c 0e
        E 240 80 3c 16
        E 0 90 40 6c
        E 240 80 40 41
        E 240 90 40 6c
        E 480 80 40 3b
        E 480 90 3e 6f
        E 960 80 3e 43
        E 0 90 3c 64
        E 960 90 3e 6f
        E 120 80 3c 34
        E 840 80 3e 29
        E 480 b0 7b 00
        GUID {087A0017-AA7F-4141-A667-0E95EECE7C82}
        IGNTEMPO 0 120 4 4
        SRCCOLOR 349
        VELLANE -1 100 0
        VELLANE -2 100 100
        CFGEDITVIEW 71919.204606 0.007087 55 12 0 0 0 0 0 0.5
        KEYSNAP 0
        TRACKSEL 252
        EVTFILTER 0 -1 -1 -1 -1 0 0 0 0 -1 -1 -1 -1 0 -1 0 -1 -1
        CFGEDIT 1 0 0 1 1 1 1 1 1 1 1 0.125 257 16 1713 814 0 0 0 0 0 0 0 0 0 0.5 0 0 1 64
      >
    >
    <ITEM
      POSITION 92
      SNAPOFFS 0
      LENGTH 2
      LOOP 1
      ALLTAKES 0
      FADEIN 1 0 0 1 0 0
      FADEOUT 1 0 0 1 0 0
      MUTE 0
      COLOR 24294143 R
      SEL 0
      IGUID {E62B1388-16C4-4F40-BD8D-B0EEE81879CF}
      IID 64
      NAME "02-Dimension Pro-Recorded MIDI glued"
      VOLPAN 1 0 1 -1
      SOFFS 83.99999999998499 167.99999999996999
      PLAYRATE 1 1 0 -1 0 0.0025
      CHANMODE 0
      GUID {43B117B6-F05D-481B-881C-1CA02F5330FF}
      <SOURCE MIDI
        HASDATA 1 960 QN
        POOLEDEVTS {4C74CBEE-D043-46B4-BD52-070318A58BC9}
        E 480 90 3c 40
        E 480 80 3c 28
        E 0 90 40 45
        E 0 90 43 40
        E 480 80 40 22
        E 0 80 43 28
        E 480 90 40 59
        E 0 90 43 53
        E 480 80 40 30
        E 0 80 43 30
        E 1440 90 41 46
        E 0 90 45 52
        E 475 80 45 29
        E 5 80 41 2c
        E 22 90 43 43
        E 2 90 40 44
        E 456 80 43 26
        E 0 80 40 35
        E 480 90 3c 3a
        E 0 90 40 61
        E 960 80 3c 29
        E 0 80 40 2b
        E 480 90 3b 2d
        E 0 90 3e 40
        E 240 80 3b 37
        E 0 80 3e 30
        E 240 90 37 33
        E 0 90 3b 46
        E 214 80 3b 2a
        E 26 80 37 0b
        E 720 90 39 3a
        E 0 90 3c 3e
        E 480 80 39 2d
        E 0 80 3c 35
        E 960 90 3c 4f
        E 0 90 40 61
        E 1440 80 3c 09
        E 0 80 40 4c
        E 480 90 3e 6f
        E 480 80 3e 40
        E 0 90 40 61
        E 480 80 40 11
        E 0 90 3e 59
        E 480 80 3e 34
        E 0 90 39 5d
        E 0 90 3c 5d
        E 960 80 39 1e
        E 0 80 3c 1e
        E 480 90 37 48
        E 0 90 39 33
        E 480 80 37 36
        E 0 90 3b 6c
        E 20 80 39 40
        E 460 80 3b 43
        E 480 90 39 5d
        E 21 90 3c 5d
        E 939 80 39 1e
        E 0 80 3c 35
        E 480 90 3c 32
        E 0 90 40 57
        E 0 90 43 32
        E 240 80 43 11
        E 240 80 3c 11
        E 0 80 40 11
        E 240 90 3c 0e
        E 240 80 3c 16
        E 0 90 40 6c
        E 240 80 40 41
        E 240 90 40 6c
        E 480 80 40 3b
        E 480 90 3e 6f
        E 960 80 3e 43
        E 0 90 3c 64
        E 960 90 3e 6f
        E 120 80 3c 34
        E 840 80 3e 29
        E 1440 90 40 73
        E 0 90 43 73
        E 960 80 40 32
        E 0 80 43 32
        E 0 90 3e 76
        E 0 90 41 76
        E 960 80 3e 24
        E 0 80 41 24
        E 960 90 3c 5b
        E 0 90 40 6c
        E 960 80 40 43
        E 11 80 3c 29
        E 469 90 3c 59
        E 0 90 3e 4c
        E 0 90 40 4f
        E 469 80 40 17
        E 11 80 3c 23
        E 4 90 3c 73
        E 476 90 39 67
        E 480 80 3c 25
        E 0 90 3c 67
        E 480 80 3e 1b
        E 0 80 39 1d
        E 480 80 3c 00
        E 600 90 3c 50
        E 120 80 3c 28
        E 0 90 3e 40
        E 120 80 3e 28
        E 0 90 42 40
        E 120 80 42 28
        E 0 90 40 45
        E 0 90 43 40
        E 480 80 40 22
        E 0 80 43 28
        E 480 90 40 59
        E 0 90 43 53
        E 480 80 40 30
        E 0 80 43 30
        E 1440 90 41 46
        E 0 90 45 52
        E 475 80 45 29
        E 5 80 41 2c
        E 22 90 43 43
        E 2 90 40 44
        E 456 80 43 26
        E 0 80 40 35
        E 480 90 3c 3a
        E 0 90 40 61
        E 960 80 3c 29
        E 0 80 40 2b
        E 480 90 3b 2d
        E 0 90 3e 40
        E 240 80 3b 37
        E 0 80 3e 30
        E 240 90 37 33
        E 0 90 3b 46
        E 214 80 3b 2a
        E 26 80 37 0b
        E 720 90 39 3a
        E 0 90 3c 3e
        E 480 80 39 2d
        E 0 80 3c 35
        E 960 90 3c 4f
        E 0 90 40 61
        E 1440 80 3c 09
        E 0 80 40 4c
        E 480 90 3e 6f
        E 480 80 3e 40
        E 0 90 40 61
        E 480 80 40 11
        E 0 90 3e 59
        E 480 80 3e 34
        E 0 90 39 5d
        E 0 90 3c 5d
        E 960 80 39 1e
        E 0 80 3c 1e
        E 480 90 37 48
        E 0 90 39 33
        E 480 80 37 36
        E 0 90 3b 6c
        E 20 80 39 40
        E 460 80 3b 43
        E 480 90 39 5d
        E 21 90 3c 5d
        E 939 80 39 1e
        E 0 80 3c 35
        E 480 90 3c 32
        E 0 90 40 32
        E 0 90 43 4c
        E 240 80 43 11
        E 240 80 3c 11
        E 0 80 40 11
        E 240 90 3c 0e
        E 240 80 3c 16
        E 0 90 40 6c
        E 240 80 40 41
        E 240 90 40 6c
        E 480 80 40 3b
        E 480 90 3e 6f
        E 960 80 3e 43
        E 0 90 3c 64
        E 960 90 3e 6f
        E 120 80 3c 34
        E 840 80 3e 29
        E 1440 90 40 73
        E 0 90 43 73
        E 960 80 40 32
        E 0 80 43 32
        E 0 90 3e 76
        E 0 90 41 76
        E 960 80 3e 24
        E 0 80 41 24
        E 960 90 3c 5b
        E 0 90 40 6c
        E 960 80 40 43
        E 11 80 3c 29
        E 469 90 3c 59
        E 0 90 3e 4c
        E 0 90 40 4f
        E 469 80 40 17
        E 11 80 3c 23
        E 4 90 3c 73
        E 476 90 39 67
        E 480 80 3c 25
        E 0 90 3c 67
        E 480 80 3e 1b
        E 0 80 39 1d
        E 480 80 3c 1d
        E 960 90 3c 66
        E 0 90 45 66
        E 480 90 41 5b
        E 480 80 3c 32
        E 0 80 45 32
        E 0 90 41 00
        E 0 90 41 66
        E 0 90 45 66
        E 480 80 41 20
        E 360 80 45 32
        E 125 90 48 6f
        E 475 80 48 38
        E 480 90 45 64
        E 0 90 48 6c
        E 1440 80 45 32
        E 0 80 48 32
        E 0 90 43 50
        E 0 90 47 69
        E 1440 90 41 5d
        E 0 90 45 4f
        E 878 80 47 46
        E 20 80 43 32
        E 809 80 41 3a
        E 9 80 45 45
        E 204 90 43 55
        E 390 80 43 2d
        E 570 90 40 5f
        E 6 90 43 5b
        E 1554 80 40 38
        E 120 80 43 34
        E 240 90 3e 53
        E 0 90 41 66
        E 1440 90 3c 4a
        E 480 90 40 61
        E 120 80 3e 34
        E 0 80 41 46
        E 960 80 40 55
        E 840 80 3c 37
        E 960 90 3c 66
        E 0 90 45 66
        E 480 90 41 5b
        E 480 80 3c 32
        E 0 80 45 32
        E 0 90 41 00
        E 0 90 41 66
        E 0 90 45 66
        E 480 80 41 20
        E 360 80 45 32
        E 125 90 48 6f
        E 475 80 48 38
        E 480 90 45 64
        E 0 90 48 6c
        E 1440 80 45 32
        E 0 80 48 32
        E 0 90 43 50
        E 0 90 47 69
        E 1440 90 41 5d
        E 0 90 45 4f
        E 878 80 47 46
        E 20 80 43 32
        E 809 80 41 3a
        E 9 80 45 45
        E 204 90 43 55
        E 390 80 43 2d
        E 570 90 40 5f
        E 6 90 43 5b
        E 1554 80 40 38
        E 120 80 43 34
        E 240 90 3e 4f
        E 0 90 45 4f
        E 1716 80 3e 45
        E 204 80 45 45
        E 0 90 40 4f
        E 0 90 47 4f
        E 1920 80 40 00
        E 0 80 47 00
        E 480 90 3c 40
        E 480 80 3c 28
        E 0 90 40 45
        E 0 90 43 40
        E 480 80 40 22
        E 0 80 43 28
        E 480 90 40 59
        E 0 90 43 53
        E 480 80 40 30
        E 0 80 43 30
        E 1440 90 41 46
        E 0 90 45 52
        E 475 80 45 29
        E 5 80 41 2c
        E 22 90 43 43
        E 2 90 40 44
        E 456 80 43 26
        E 0 80 40 35
        E 480 90 3c 3a
        E 0 90 40 61
        E 960 80 3c 29
        E 0 80 40 2b
        E 480 90 3b 2d
        E 0 90 3e 40
        E 240 80 3b 37
        E 0 80 3e 30
        E 240 90 37 33
        E 0 90 3b 46
        E 214 80 3b 2a
        E 26 80 37 0b
        E 720 90 39 3a
        E 0 90 3c 3e
        E 480 80 39 2d
        E 0 80 3c 35
        E 960 90 3c 4f
        E 0 90 40 61
        E 1440 80 3c 09
        E 0 80 40 4c
        E 480 90 3e 6f
        E 480 80 3e 40
        E 0 90 40 61
        E 480 80 40 11
        E 0 90 3e 59
        E 480 80 3e 34
        E 0 90 39 5d
        E 0 90 3c 5d
        E 960 80 39 1e
        E 0 80 3c 1e
        E 480 90 37 48
        E 0 90 39 33
        E 480 80 37 36
        E 0 90 3b 6c
        E 20 80 39 40
        E 460 80 3b 43
        E 480 90 39 5d
        E 21 90 3c 5d
        E 939 80 39 1e
        E 0 80 3c 35
        E 480 90 3c 32
        E 0 90 40 32
        E 0 90 43 57
        E 240 80 43 11
        E 240 80 3c 11
        E 0 80 40 11
        E 240 90 3c 0e
        E 240 80 3c 16
        E 0 90 40 6c
        E 240 80 40 41
        E 240 90 40 6c
        E 480 80 40 3b
        E 480 90 3e 6f
        E 960 80 3e 43
        E 0 90 3c 64
        E 960 90 3e 6f
        E 120 80 3c 34
        E 840 80 3e 29
        E 1440 90 40 73
        E 0 90 43 73
        E 960 80 40 32
        E 0 80 43 32
        E 0 90 3e 76
        E 0 90 41 76
        E 960 80 3e 24
        E 0 80 41 24
        E 960 90 3c 5b
        E 0 90 40 6c
        E 960 80 40 43
        E 11 80 3c 29
        E 469 90 3c 59
        E 0 90 3e 4c
        E 0 90 40 4f
        E 469 80 40 17
        E 11 80 3c 23
        E 4 90 3c 73
        E 476 90 39 67
        E 480 80 3c 25
        E 0 90 3c 67
        E 480 80 3e 1b
        E 0 80 39 1d
        E 480 80 3c 1d
        E 600 90 3c 40
        E 120 80 3c 28
        E 0 90 3e 40
        E 120 80 3e 28
        E 0 90 42 40
        E 120 80 42 28
        E 0 90 40 45
        E 0 90 43 40
        E 480 80 40 22
        E 0 80 43 28
        E 480 90 40 59
        E 0 90 43 53
        E 480 80 40 30
        E 0 80 43 30
        E 1440 90 41 46
        E 0 90 45 52
        E 475 80 45 29
        E 5 80 41 2c
        E 22 90 43 43
        E 2 90 40 44
        E 456 80 43 26
        E 0 80 40 35
        E 480 90 3c 3a
        E 0 90 40 61
        E 960 80 3c 29
        E 0 80 40 2b
        E 480 90 3b 2d
        E 0 90 3e 40
        E 240 80 3b 37
        E 0 80 3e 30
        E 240 90 37 33
        E 0 90 3b 46
        E 214 80 3b 2a
        E 26 80 37 0b
        E 720 90 39 3a
        E 0 90 3c 3e
        E 480 80 39 2d
        E 0 80 3c 35
        E 960 90 3c 4f
        E 0 90 40 61
        E 1440 80 3c 09
        E 0 80 40 4c
        E 480 90 3e 6f
        E 480 80 3e 40
        E 0 90 40 61
        E 480 80 40 11
        E 0 90 3e 59
        E 480 80 3e 34
        E 0 90 39 5d
        E 0 90 3c 5d
        E 960 80 39 1e
        E 0 80 3c 1e
        E 480 90 37 48
        E 0 90 39 33
        E 480 80 37 36
        E 0 90 3b 6c
        E 20 80 39 40
        E 460 80 3b 43
        E 480 90 39 5d
        E 21 90 3c 5d
        E 939 80 39 1e
        E 0 80 3c 35
        E 480 90 3c 32
        E 0 90 40 32
        E 0 90 43 32
        E 240 80 43 11
        E 240 80 3c 11
        E 0 80 40 11
        E 240 90 3c 0e
        E 240 80 3c 16
        E 0 90 40 6c
        E 240 80 40 41
        E 240 90 40 6c
        E 480 80 40 3b
        E 480 90 3e 6f
        E 960 80 3e 43
        E 0 90 3c 64
        E 960 90 3e 6f
        E 120 80 3c 34
        E 840 80 3e 29
        E 1440 90 3b 73
        E 0 90 40 73
        E 960 80 3b 32
        E 0 80 40 32
        E 0 90 3c 76
        E 0 90 40 76
        E 960 80 3c 24
        E 0 80 40 24
        E 480 90 3b 73
        E 0 90 40 73
        E 720 80 3b 32
        E 0 80 40 32
        E 240 90 3b 73
        E 0 90 40 73
        E 480 80 3b 32
        E 0 80 40 32
        E 480 90 3b 67
        E 0 90 40 6c
        E 240 80 3b 1d
        E 0 80 40 43
        E 240 90 3c 5b
        E 0 90 43 5d
        E 480 80 3c 3a
        E 0 90 43 00
        E 240 90 3b 5b
        E 0 90 40 66
        E 240 90 3b 00
        E 0 80 40 20
        E 480 90 3e 66
        E 480 80 3e 20
        E 0 90 3c 66
        E 120 90 40 66
        E 120 90 43 66
        E 120 90 48 66
        E 3480 80 3c 32
        E 0 80 40 32
        E 0 80 43 32
        E 0 80 48 32
        E 0 90 30 5f
        E 0 90 37 5f
        E 466 90 3e 45
        E 14 90 39 45
        E 120 80 30 20
        E 0 80 37 20
        E 360 80 3e 34
        E 0 80 39 34
        E 0 90 3b 5b
        E 0 90 40 5b
        E 480 80 3b 4a
        E 0 80 40 4a
        E 0 90 35 5b
        E 0 90 3c 5b
        E 0 90 41 5b
        E 911 90 30 59
        E 0 90 37 59
        E 101 80 35 31
        E 0 80 3c 31
        E 0 80 41 31
        E 428 90 3e 41
        E 0 90 40 32
        E 49 80 30 1b
        E 0 80 37 1b
        E 431 80 3e 30
        E 0 80 40 03
        E 0 90 3c 55
        E 480 80 3c 38
        E 0 90 39 61
        E 960 80 39 2a
        E 0 90 37 6a
        E 0 90 43 5f
        E 2280 80 43 2a
        E 120 80 37 2a
        E 480 b0 7b 00
        GUID {83CDE25E-E727-4515-82A8-A2A07F23DDB5}
        IGNTEMPO 0 120 4 4
        SRCCOLOR 432
        VELLANE -1 100 0
        VELLANE -2 100 100
        CFGEDITVIEW 159240.968404 0.029688 55 12 0 0 0 0 0 0.5
        KEYSNAP 0
        TRACKSEL 252
        EVTFILTER 0 -1 -1 -1 -1 0 0 0 0 -1 -1 -1 -1 0 -1 0 -1 -1
        CFGEDIT 1 0 0 1 1 1 1 1 1 1 1 0.125 257 16 1713 814 0 0 0 0 0 0 0 0 0 0.5 0 0 1 64
      >
    >
    <ITEM
      POSITION 94
      SNAPOFFS 0
      LENGTH 7
      LOOP 1
      ALLTAKES 0
      FADEIN 1 0 0 1 0 0
      FADEOUT 1 0 0 1 0 0
      MUTE 0
      COLOR 25232067 R
      SEL 0
      IGUID {6B5CAC2E-45D0-4FF2-BDCF-A9664842F072}
      IID 136
      NAME "02-Dimension Pro-Recorded MIDI glued"
      VOLPAN 1 0 1 -1
      SOFFS 0 0
      PLAYRATE 1 1 0 -1 0 0.0025
      CHANMODE 0
      GUID {C3CA4B69-6468-4F5F-8CFB-38863BF8EA2D}
      <SOURCE MIDI
        HASDATA 1 960 QN
        POOLEDEVTS {1653B165-2FA6-43C5-B7AC-C5754347DD8A}
        E 0 90 37 4a
        E 360 80 37 13
        E 120 90 37 4f
        E 0 90 3e 43
        E 248 80 3e 30
        E 112 80 37 13
        E 600 90 34 45
        E 0 90 40 57
        E 480 80 40 32
        E 480 90 3c 4f
        E 480 80 3c 32
        E 0 90 3e 4a
        E 480 80 34 32
        E 480 80 3e 2e
        E 0 90 3b 70
        E 480 80 3b 37
        E 0 90 3c 65
        E 480 80 3c 16
        E 0 90 39 68
        E 480 80 39 16
        E 0 90 37 61
        E 480 80 37 16
        E 960 90 34 26
        E 0 90 37 49
        E 0 90 39 28
        E 480 80 34 16
        E 0 80 37 16
        E 0 80 39 16
        e 0 90 34 72
        E 0 90 39 71
        e 1440 80 34 16
        E 120 80 39 16
        E 4680 b0 7b 00
        GUID {827D5F5A-CB74-42C5-880E-B32D28D5B9C0}
        IGNTEMPO 0 120 4 4
        SRCCOLOR 515
        VELLANE -1 100 0
        VELLANE -2 100 100
        CFGEDITVIEW 27.167347 0.057009 63 12 0 0 0 0 0 0.5
        KEYSNAP 0
        TRACKSEL 252
        EVTFILTER 0 -1 -1 -1 -1 0 0 0 0 -1 -1 -1 -1 0 -1 0 -1 -1
        CFGEDIT 1 0 0 1 1 1 1 1 1 1 1 0.125 418 152 1858 934 0 0 0 0 0 0 0 0 0 0.5 0 0 1 64
      >
    >
    <ITEM
      POSITION 110
      SNAPOFFS 0
      LENGTH 7
      LOOP 1
      ALLTAKES 0
      FADEIN 1 0 0 1 0 0
      FADEOUT 1 0 0 1 0 0
      MUTE 0
      COLOR 26460562 R
      SEL 0
      IGUID {AC7DD1B1-B31C-43B0-8A15-BF55DF0F8A4C}
      IID 136
      NAME "02-Dimension Pro-Recorded MIDI glued"
      VOLPAN 1 0 1 -1
      SOFFS 0 0
      PLAYRATE 1 1 0 -1 0 0.0025
      CHANMODE 0
      GUID {4CA325FC-FDFF-4AFF-A7B9-0ADC4FE61561}
      <SOURCE MIDI
        HASDATA 1 960 QN
        POOLEDEVTS {5B77EF84-1895-44C1-B729-DF17A6205AAE}
        E 0 90 37 4a
        E 360 80 37 13
        E 120 90 37 4f
        E 0 90 3e 43
        E 248 80 3e 30
        E 112 80 37 13
        E 600 90 34 45
        E 0 90 40 57
        E 480 80 40 32
        E 480 90 3c 4f
        E 480 80 3c 32
        E 0 90 3e 4a
        E 480 80 34 32
        E 480 80 3e 2e
        E 0 90 3b 70
        E 480 80 3b 37
        E 0 90 3c 65
        E 480 80 3c 16
        E 0 90 39 68
        E 480 80 39 16
        E 0 90 37 61
        E 480 80 37 16
        E 960 90 34 26
        E 0 90 37 49
        E 0 90 39 28
        E 480 80 34 16
        E 0 80 37 16
        E 0 80 39 16
        e 0 90 34 72
        E 0 90 39 71
        e 1440 80 34 16
        E 120 80 39 16
        E 4680 b0 7b 00
        GUID {827D5F5A-CB74-42C5-880E-B32D28D5B9C0}
        IGNTEMPO 0 120 4 4
        SRCCOLOR 515
        VELLANE -1 100 0
        VELLANE -2 100 100
        CFGEDITVIEW 27.167347 0.057009 63 12 0 0 0 0 0 0.5
        KEYSNAP 0
        TRACKSEL 252
        EVTFILTER 0 -1 -1 -1 -1 0 0 0 0 -1 -1 -1 -1 0 -1 0 -1 -1
        CFGEDIT 1 0 0 1 1 1 1 1 1 1 1 0.125 418 152 1858 934 0 0 0 0 0 0 0 0 0 0.5 0 0 1 64
      >
    >
    <ITEM
      POSITION 127.97994377535755
      SNAPOFFS 0
      LENGTH 16
      LOOP 1
      ALLTAKES 0
      FADEIN 1 3.103034 0 1 0 0
      FADEOUT 1 0 0 1 0 0
      MUTE 0
      COLOR 26131188 R
      SEL 0
      IGUID {2D33216F-5F65-44D4-ABCE-A3B00A565BF0}
      IID 64
      NAME "02-Dimension Pro-Recorded MIDI glued"
      VOLPAN 1 0 1 -1
      SOFFS 0 0
      PLAYRATE 1 1 0 -1 0 0.0025
      CHANMODE 0
      GUID {A4B7DCAB-3FAA-4015-AD1B-10FB539EC5B1}
      <SOURCE MIDI
        HASDATA 1 960 QN
        POOLEDEVTS {43EA06B5-1D3B-422B-8810-3B480EFAAE9F}
        E 0 80 3c 1d
        E 960 90 3c 66
        E 0 90 45 66
        E 480 90 41 5b
        E 480 80 3c 32
        E 0 80 45 32
        E 0 90 41 00
        E 0 90 41 66
        E 0 90 45 66
        E 480 80 41 20
        E 360 80 45 32
        E 125 90 48 6f
        E 475 80 48 38
        E 480 90 45 64
        E 0 90 48 6c
        E 1440 80 45 32
        E 0 80 48 32
        E 0 90 43 50
        E 0 90 47 69
        E 1440 90 41 5d
        E 0 90 45 4f
        E 878 80 47 46
        E 20 80 43 32
        E 809 80 41 3a
        E 9 80 45 45
        E 204 90 43 55
        E 390 80 43 2d
        E 570 90 40 5f
        E 6 90 43 5b
        E 1554 80 40 38
        E 120 80 43 34
        E 240 90 3e 53
        E 0 90 41 66
        E 1440 90 3c 4a
        E 480 90 40 61
        E 120 80 3e 34
        E 0 80 41 46
        E 960 80 40 55
        E 840 80 3c 37
        E 960 90 3c 66
        E 0 90 45 66
        E 480 90 41 5b
        E 480 80 3c 32
        E 0 80 45 32
        E 0 90 41 00
        E 0 90 41 66
        E 0 90 45 66
        E 480 80 41 20
        E 360 80 45 32
        E 125 90 48 6f
        E 475 80 48 38
        E 480 90 45 64
        E 0 90 48 6c
        E 1440 80 45 32
        E 0 80 48 32
        E 0 90 43 50
        E 0 90 47 69
        E 1440 90 41 5d
        E 0 90 45 4f
        E 878 80 47 46
        E 20 80 43 32
        E 809 80 41 3a
        E 9 80 45 45
        E 204 90 43 55
        E 390 80 43 2d
        E 570 90 40 5f
        E 6 90 43 5b
        E 1554 80 40 38
        E 120 80 43 34
        E 240 90 3e 4f
        E 0 90 45 4f
        E 1716 80 3e 45
        E 204 80 45 45
        E 0 90 40 4f
        E 0 90 47 4f
        E 1920 80 40 00
        E 0 80 47 00
        E 0 b0 7b 00
        GUID {59A32476-01F5-45F7-8A7C-18163108D36F}
        IGNTEMPO 0 120 4 4
        SRCCOLOR 434
        VELLANE -1 100 0
        VELLANE -2 100 100
      >
    >
    <ITEM
      POSITION 143.97994377535758
      SNAPOFFS 0
      LENGTH 28.02005622464242
      LOOP 1
      ALLTAKES 0
      FADEIN 1 0 0 1 0 0
      FADEOUT 1 0 0 1 0 0
      MUTE 0
      COLOR 29336795 R
      SEL 0
      IGUID {40A0D279-6791-4882-8EDA-AC328075A3E1}
      IID 64
      NAME "02-Dimension Pro-Recorded MIDI glued"
      VOLPAN 1 0 1 -1
      SOFFS 0 0
      PLAYRATE 1 1 0 -1 0 0.0025
      CHANMODE 0
      GUID {D682414C-081A-4B6F-8764-7824378CC709}
      <SOURCE MIDI
        HASDATA 1 960 QN
        POOLEDEVTS {F3B81F9C-C969-4AD2-A059-1A8F6393C209}
        E 480 90 3c 40
        E 480 80 3c 28
        E 0 90 40 45
        E 0 90 43 40
        E 480 80 40 22
        E 0 80 43 28
        E 480 90 40 59
        E 0 90 43 53
        E 480 80 40 30
        E 0 80 43 30
        E 1440 90 41 46
        E 0 90 45 52
        E 475 80 45 29
        E 5 80 41 2c
        E 22 90 43 43
        E 2 90 40 44
        E 456 80 43 26
        E 0 80 40 35
        E 480 90 3c 3a
        E 0 90 40 61
        E 960 80 3c 29
        E 0 80 40 2b
        E 480 90 3b 2d
        E 0 90 3e 40
        E 240 80 3b 37
        E 0 80 3e 30
        E 240 90 37 33
        E 0 90 3b 46
        E 214 80 3b 2a
        E 26 80 37 0b
        E 720 90 39 3a
        E 0 90 3c 3e
        E 480 80 39 2d
        E 0 80 3c 35
        E 960 90 3c 4f
        E 0 90 40 61
        E 1440 80 3c 09
        E 0 80 40 4c
        E 480 90 3e 6f
        E 480 80 3e 40
        E 0 90 40 61
        E 480 80 40 11
        E 0 90 3e 59
        E 480 80 3e 34
        E 0 90 39 5d
        E 0 90 3c 5d
        E 960 80 39 1e
        E 0 80 3c 1e
        E 480 90 37 48
        E 0 90 39 33
        E 480 80 37 36
        E 0 90 3b 6c
        E 20 80 39 40
        E 460 80 3b 43
        E 480 90 39 5d
        E 21 90 3c 5d
        E 939 80 39 1e
        E 0 80 3c 35
        E 480 90 3c 32
        E 0 90 40 57
        E 0 90 43 32
        E 240 80 43 11
        E 240 80 3c 11
        E 0 80 40 11
        E 240 90 3c 0e
        E 240 80 3c 16
        E 0 90 40 6c
        E 240 80 40 41
        E 240 90 40 6c
        E 480 80 40 3b
        E 480 90 3e 6f
        E 960 80 3e 43
        E 0 90 3c 64
        E 960 90 3e 6f
        E 120 80 3c 34
        E 840 80 3e 29
        E 1440 90 40 73
        E 0 90 43 73
        E 960 80 40 32
        E 0 80 43 32
        E 0 90 3e 76
        E 0 90 41 76
        E 960 80 3e 24
        E 0 80 41 24
        E 960 90 3c 5b
        E 0 90 40 6c
        E 960 80 40 43
        E 11 80 3c 29
        E 469 90 3c 59
        E 0 90 3e 4c
        E 0 90 40 4f
        E 469 80 40 17
        E 11 80 3c 23
        E 4 90 3c 73
        E 476 90 39 67
        E 480 80 3c 25
        E 0 90 3c 67
        E 480 80 3e 1b
        E 0 80 39 1d
        E 480 80 3c 00
        E 39 b0 7b 00
        GUID {F1281028-D74B-4A6D-AC50-C97CA5ECEB32}
        IGNTEMPO 0 120 4 4
        SRCCOLOR 284
        VELLANE -1 100 0
        VELLANE -2 100 100
      >
    >
    <ITEM
      POSITION 172
      SNAPOFFS 0
      LENGTH 3.97994377535758
      LOOP 1
      ALLTAKES 0
      FADEIN 1 0 0 1 0 0
      FADEOUT 1 0 0 1 0 0
      MUTE 0
      COLOR 31588190 R
      SEL 0
      IGUID {8FB925A3-887B-4E49-813E-7C0E4B7CC02F}
      IID 64
      NAME "02-Dimension Pro-Recorded MIDI glued"
      VOLPAN 1 0 1 -1
      SOFFS 28.02005622464242 56.04011244928483
      PLAYRATE 1 1 0 -1 0 0.0025
      CHANMODE 0
      GUID {B1436E4C-C1FB-4E82-81B1-275312BB2E2F}
      <SOURCE MIDI
        HASDATA 1 960 QN
        POOLEDEVTS {48BB64B8-4B7E-4D9C-806E-B453ADF8B54E}
        E 480 90 3c 40
        E 480 80 3c 28
        E 0 90 40 45
        E 0 90 43 40
        E 480 80 40 22
        E 0 80 43 28
        E 480 90 40 59
        E 0 90 43 53
        E 480 80 40 30
        E 0 80 43 30
        E 1440 90 41 46
        E 0 90 45 52
        E 475 80 45 29
        E 5 80 41 2c
        E 22 90 43 43
        E 2 90 40 44
        E 456 80 43 26
        E 0 80 40 35
        E 480 90 3c 3a
        E 0 90 40 61
        E 960 80 3c 29
        E 0 80 40 2b
        E 480 90 3b 2d
        E 0 90 3e 40
        E 240 80 3b 37
        E 0 80 3e 30
        E 240 90 37 33
        E 0 90 3b 46
        E 214 80 3b 2a
        E 26 80 37 0b
        E 720 90 39 3a
        E 0 90 3c 3e
        E 480 80 39 2d
        E 0 80 3c 35
        E 960 90 3c 4f
        E 0 90 40 61
        E 1440 80 3c 09
        E 0 80 40 4c
        E 480 90 3e 6f
        E 480 80 3e 40
        E 0 90 40 61
        E 480 80 40 11
        E 0 90 3e 59
        E 480 80 3e 34
        E 0 90 39 5d
        E 0 90 3c 5d
        E 960 80 39 1e
        E 0 80 3c 1e
        E 480 90 37 48
        E 0 90 39 33
        E 480 80 37 36
        E 0 90 3b 6c
        E 20 80 39 40
        E 460 80 3b 43
        E 480 90 39 5d
        E 21 90 3c 5d
        E 939 80 39 1e
        E 0 80 3c 35
        E 480 90 3c 32
        E 0 90 40 57
        E 0 90 43 32
        E 240 80 43 11
        E 240 80 3c 11
        E 0 80 40 11
        E 240 90 3c 0e
        E 240 80 3c 16
        E 0 90 40 6c
        E 240 80 40 41
        E 240 90 40 6c
        E 480 80 40 3b
        E 480 90 3e 6f
        E 960 80 3e 43
        E 0 90 3c 64
        E 960 90 3e 6f
        E 120 80 3c 34
        E 840 80 3e 29
        E 1440 90 40 73
        E 0 90 43 73
        E 960 80 40 32
        E 0 80 43 32
        E 0 90 3e 76
        E 0 90 41 76
        E 960 80 3e 24
        E 0 80 41 24
        E 960 90 3c 5b
        E 0 90 40 6c
        E 960 80 40 43
        E 11 80 3c 29
        E 469 90 3c 59
        E 0 90 3e 4c
        E 0 90 40 4f
        E 469 80 40 17
        E 11 80 3c 23
        E 4 90 3c 73
        E 476 90 39 67
        E 480 80 3c 25
        E 0 90 3c 67
        E 480 80 3e 1b
        E 0 80 39 1d
        E 480 80 3c 00
        E 600 90 3c 50
        E 120 80 3c 28
        E 0 90 3e 40
        E 120 80 3e 28
        E 0 90 42 40
        E 120 80 42 28
        E 0 90 40 45
        E 0 90 43 40
        E 480 80 40 22
        E 0 80 43 28
        E 480 90 40 59
        E 0 90 43 53
        E 480 80 40 30
        E 0 80 43 30
        E 1440 90 41 46
        E 0 90 45 52
        E 475 80 45 29
        E 5 80 41 2c
        E 22 90 43 43
        E 2 90 40 44
        E 456 80 43 26
        E 0 80 40 35
        E 480 90 3c 3a
        E 0 90 40 61
        E 960 80 3c 29
        E 0 80 40 2b
        E 480 90 3b 2d
        E 0 90 3e 40
        E 240 80 3b 37
        E 0 80 3e 30
        E 240 90 37 33
        E 0 90 3b 46
        E 214 80 3b 2a
        E 26 80 37 0b
        E 720 90 39 3a
        E 0 90 3c 3e
        E 480 80 39 2d
        E 0 80 3c 35
        E 960 90 3c 4f
        E 0 90 40 61
        E 1440 80 3c 09
        E 0 80 40 4c
        E 480 90 3e 6f
        E 480 80 3e 40
        E 0 90 40 61
        E 480 80 40 11
        E 0 90 3e 59
        E 480 80 3e 34
        E 0 90 39 5d
        E 0 90 3c 5d
        E 960 80 39 1e
        E 0 80 3c 1e
        E 480 90 37 48
        E 0 90 39 33
        E 480 80 37 36
        E 0 90 3b 6c
        E 20 80 39 40
        E 460 80 3b 43
        E 480 90 39 5d
        E 21 90 3c 5d
        E 939 80 39 1e
        E 0 80 3c 35
        E 480 90 3c 32
        E 0 90 40 32
        E 0 90 43 4c
        E 240 80 43 11
        E 240 80 3c 11
        E 0 80 40 11
        E 240 90 3c 0e
        E 240 80 3c 16
        E 0 90 40 6c
        E 240 80 40 41
        E 240 90 40 6c
        E 480 80 40 3b
        E 480 90 3e 6f
        E 960 80 3e 43
        E 0 90 3c 64
        E 960 90 3e 6f
        E 120 80 3c 34
        E 840 80 3e 29
        E 1440 90 40 73
        E 0 90 43 73
        E 960 80 40 32
        E 0 80 43 32
        E 0 90 3e 76
        E 0 90 41 76
        E 960 80 3e 24
        E 0 80 41 24
        E 960 90 3c 5b
        E 0 90 40 6c
        E 960 80 40 43
        E 11 80 3c 29
        E 469 90 3c 59
        E 0 90 3e 4c
        E 0 90 40 4f
        E 469 80 40 17
        E 11 80 3c 23
        E 4 90 3c 73
        E 476 90 39 67
        E 480 80 3c 25
        E 0 90 3c 67
        E 480 80 3e 1b
        E 0 80 39 1d
        E 480 80 3c 00
        E 0 b0 7b 00
        GUID {DA890EBE-7A76-48CB-8E48-66650A7ECB17}
        IGNTEMPO 0 120 4 4
        SRCCOLOR 448
        VELLANE -1 100 0
        VELLANE -2 100 100
      >
    >
  >
  <TRACK {A255BBB0-46AC-4140-8A90-60D16A6EA259}
    NAME "R/guitar parts"
    PEAKCOL 16576
    BEAT -1
    AUTOMODE 0
    VOLPAN 1.08695635014794 0 -1 -1 1
    MUTESOLO 0 0 0
    IPHASE 0
    ISBUS 0 0
    BUSCOMP 0 0
    SHOWINMIX 1 0.6667 0.5 1 0.5 0 0 0
    FREEMODE 0
    SEL 0
    REC 0 5088 1 0 0 0 0
    VU 2
    TRACKHEIGHT 0 0 0
    INQ 0 0 0 0.5 100 0 0 100
    NCHAN 2
    FX 1
    TRACKID {A255BBB0-46AC-4140-8A90-60D16A6EA259}
    PERF 0
    MIDIOUT -1
    MAINSEND 1 0
    <FXCHAIN
      WNDRECT 1206 221 773 466
      SHOW 0
      LASTSEL 1
      DOCKED 0
      BYPASS 0 0 0
      <VST "VSTi: Dimension Pro (Cakewalk)" "Dimension Pro x64.dll" 0 "" 1684893299<565354646D6E7364696D656E73696F6E> ""
        c25tZO5e7f4AAAAAAgAAAAEAAAAAAAAAAgAAAAAAAAAGBwAAAQAAAAAAEAA=
        eJzt3V1oXGUaAOBvpqN1/UNLI3pTIxbWm5b2otJUM4lpXb1QUHf9oWbBsU7srEmMO6kpxYUiLUp3WRAU2uKFoCCoFBZBpSysiKJgdRe3bfwpaNUbb/bnxtWr+p2ZSTJn
        zMy0mdTanectX+ec873nmff8H+ajNISdA+GUIsmvb23727TBhvajnPzLL73U36zF/usa2mmOdtu/EC8VqfmeA+/mQ93+eGz5xan9c+XuCxr2V2svE3pT+Tcf39zuGDVG
        atmf3+pJ5b8w0Z+q9+bjB1PzIbyZzOcb9kH/zNQj/XvyHxy6sGk9X+54Ov/tNcdmzST/jRW767ydAxdML5k9Ps/8/WDqu96v2k2j58DSgf379uXrz9/9+66o24adf1vc
        1mk0Hu/G87PT1u76PbvbHwZ6BkZGRmbb4lzT3RvLP/mw/4NDh65frHamt0c0Rvvn3vnTX9XfcxuuucGGNm8MvD72WcWo3otD5do8cNPx+meJEOKMRLN3jsb5+VvPRY90
        dP3uufeqfPus5nHppZlO3xs6DO8YQgghxNkafx0/P3f1L0PI1uYzsz0fDtWlDbZWTvpdgMPhcDgcDofD4XA4HA6Hw+FwOBwOh8Ph/Iwc44McDofD4XA4HA6Hw+FwOBwO
        h8PhcDgcTvc4xgc5HA6Hw+FwOBwOh8PhcDgcDofD4XA4nO5xjA9yOBwOh8PhcDgcDofD4XA4HA6Hw+FwON3jLJmduu2GupyU89yqfdmVtem937yWufv4s03+L+XtQ4lz
        zYor8/M5vSEZj8xlEyNpDfXMDVWGY0PJeGX+vm/7G+vOtHdaxWDrbg6Hw+FwOBwOh8PhcDgcDofD4XA4HA7n/9vx7wc5HA6Hw+FwOBwOh8PhcDgcDofD4XA4nO5xjA9y
        OBwOh8PhcDgcDofD4XA4HA6Hw+FwON3jGB/kcDgcDofD4XA4HA6Hw+FwOBwOh8PhcLrHMT7I4XA4HA6Hw+FwOBwOh8PhcDgcDofD4XSPY3yQw+FwOBwOh8PhcDgcDofD
        4XA4HA6Hw+ke52TGB8fOeeqxvZnHc0l78jTXw+FwOBwOh8PhcDgcDofD4XA4HA6Hw+Fwzuz44PY9A7kTMY78c13uHztXLj0btovD4XA4HA6Hw+FwOBwOh8PhcDgcDofD
        4SxsfPCumLQrtiuyIfwue3rr4XA4HA6Hw+FwOBwOh8PhcDgcDofD4XA4xgc5HA6Hw+FwOBwOh8PhcDgcDofD4XA4HE7njvFBDofD4XA4HA6Hw+FwOBwOh8PhcDgcDqd7
        nJMZH/wp6+FwOBwOh8PhcDgcDofD4XA4HA6Hw+FwOMYHORwOh8PhcDgcDofD4XA4HA6Hw+FwOBxO547xQQ6Hw+FwOBwOh8PhcDgcDofD4XA4HA6nexzjgxwOh8PhcDgc
        DofD4XA4HA6Hw+FwOBxO9zjGBzkcDofD4XA4HA6Hw+FwOBwOh8PhcDicrnYGFs9pl9esfzB+/xs3dF7P/qG0o57TVc9Hh16p1HD0+YmO6ql31ub2LLCeVKTqOS+232R2
        zXa+969lp+Ck8/4U1/3FE4enEm9py3qaH68Tcf1QqykbP5e3dJofr/OePDx1IonobX21ai6knnczu5dc/59l4enc9NT2V6vmQuq5PLZ73rm7sl9y2eGw0HqS/fJ1LoRv
        Pq9uU6al07yevf9eFm6J27Xyi8NTH0Xr3Db1lEYerThHn1/zo3rOrdWRbNem/7Y6f/YPpZ25vGf6pjdfPrg73LeuSr+4YXqz+7N6uqOeVDif1XPW1rMxbAjD4bbw+/Bw
        eDD+XQhjoTf8KpTCaCiGcuzbGJc9FKen4udonIrPjNg7FpeMx/5SXG88rlEVhsOtYVvMmozLyxVrYtZZE9bFvFWx3RRzSjGnENcpV9ZJppJ1Euna2H4d54rxz2icLlS8
        YswYj9OTtW9cHdccCTtab+5JxsYNw5tKY8Xxcunh8eFbt41OlsqFsYnRYnm4b33vqt7yRHFLqTA6XBwtxqTJ3i1bC6Xx1eWRHSE+h5Pn6Nv/WxZ2XJs8/+ZiReZI5fMv
        f4zvM+HTqWTuwu/mnt+vhd+GXbW8S0L1eZy0Y9Hamu3LHvu++g7z8efVd5hknfduvywzs97MdyTz32X6srvq5nuyc3XM9M8sa9b/050HfWF97Twox6XFsCXmJOJw5XgX
        a+Jk7N8Stsae0iIfbSFE+9gw7xXe+g6/pnZlJ/eIR+PS5B5//2x/kj8Ve9fHvKStruWFyp29Ny5ZW7dM/BxivufCpspzuHDKz4S0kpwRN4bt8fwpNGQX4p3/oTi1NmY0
        vivcEZdsjH13xtzkzNsWvQfj9z0Qlw3F+eq65coZlVS2OmZVv1UIIYQQQix23BjfFf2e5PckvycJIdLh96Rujh8A4jwB8g==
        AEM6XFByb2dyYW1EYXRhXENha2V3YWxrABAAAAA=
      >
      PRESETNAME C:\ProgramData\Cakewalk
      FLOATPOS 0 0 0 0
      FXID {2EFDD6F5-5152-4D95-A63E-FF643FE2DEA9}
      WAK 0
      BYPASS 0 0 0
      <VST "VST: ReaEQ (Cockos)" reaeq.dll 0 "" 1919247729<56535472656571726561657100000000> ""
        cWVlcu5e7f4CAAAAAQAAAAAAAAACAAAAAAAAAAIAAAABAAAAAAAAAAIAAAAAAAAAjwEAAAEAAAAAAAAA
        IQAAAAsAAAAAAAAAAQAAAAAAAAAAAElA//idKJTL3z/Fdr6fGi/3PwACAAAAAQAAAAAAAAAAAFlA7xkWZcli9j86MzMzMzPzPwACAAAAAQAAAAAAAAAAAGlAGLi0kp6X
        5j/GzMzMzMz0PwACAAAAAQAAAAAAAAAAAHlA1W/481lz8z/GzMzMzMz0PwACAAAAAQAAAAAAAAAAAIlAQRHZDWvt8j8mXI/C9SjwPwACAAAAAQAAAAAAAAAAcJdA7xkW
        Zcli9j8mXI/C9SjwPwACAAAAAQAAAAAAAAAAcKdAQRHZDWvt8j8mXI/C9SjwPwACAAAAAQAAAAAAAAAAiLNAAAAAAAAA8D8AAAAAAADwPwACAAAAAQAAAAAAAAAAWLtA
        AAAAAAAA8D8AAAAAAADwPwACAAAAAQAAAAAAAAAAiMNAAAAAAAAA8D8AAAAAAADwPwACAAAAAQAAAAAAAAAATM1AAAAAAAAA8D8AAAAAAADwPwABAAAAAQAAAAAAAAAA
        APA/AAAAAAAAAAAAAAAA
        AHN0b2NrIC0gQmFzaWMgMTEgYmFuZCBSb2NrIEJhc3MAAAAAAA==
      >
      PRESETNAME "stock - Basic 11 band Rock Bass"
      FLOATPOS 0 0 0 0
      FXID {2E04732E-16F1-466B-8673-A3BD09A3C7C1}
      WAK 0
      BYPASS 0 0 0
      <VST "VSTi: EZkeys (Toontrack)" EZkeys.dll 0 "" 1702521715<565354657A6B73657A6B657973000000> ""
        c2t6Ze5e7f4AAAAAAgAAAAEAAAAAAAAAAgAAAAAAAACRAQAAAQAAAAAAEAA=
        I1ZlcnNpb24gMS4zLjQKUGx1Z1ZlcnNpb24gMS4zLjQKc2FtcGxlciB7CnNvdW5kbGliICJFWkstR1JBTkRQSUFOTyIKbWFzdGVydm9sIDEKcHJlc2V0ICJEZWZhdWx0
        Igprbm9iIDAgMAprbm9iIDEgMC44Cmtub2IgMiAwCmtub2IgMyAwLjUKcGtub2IgMCAwLjUKfQpQaXRjaFdoZWVsT25Tb25nVHJhY2sgMQpFZGl0b3IgeyAKU29uZ1Ry
        YWNrIHsKVmlzaWJsZUFyZWEgMCA2NQpUcmFja05hbWUgIiIKVHJhY2tMZW5ndGggODAwCkNsZWFyVHJhY2tGaXJzdApUaW1lU2lnIDQgNApHcmlkUmVzIDMyCkxvb3BB
        cmVhIDAgMApMb29wQWN0aXZlIDAKU3RhcnROdW1iZXIgMQp9CktleVNpZ24gMCAxCn0KbWlkaWxlYXJuIHsKfQpTeW5jVG9Ib3N0IDEgMTIwCk1pZGlPdXRFbmFibGVk
        IDAKdmVsdHJhZm8gewp9CgA=
        AEJhc2ljABAAAAA=
      >
      PRESETNAME Basic
      FLOATPOS 0 0 0 0
      FXID {0F557C16-D0F6-4E76-84B0-803F78FDCC0C}
      WAK 0
    >
    <ITEM
      POSITION 83.99793516615759
      SNAPOFFS 0
      LENGTH 8
      LOOP 1
      ALLTAKES 0
      FADEIN 1 0 0 1 0 0
      FADEOUT 1 0 0 1 0 0
      MUTE 0
      COLOR 30209401 R
      SEL 0
      IGUID {F28E37A7-C885-4FB6-9EB2-66D209535B38}
      IID 64
      NAME "02-Dimension Pro-Recorded MIDI glued"
      VOLPAN 1 0 1 -1
      SOFFS 75.99999999998499 151.99999999996999
      PLAYRATE 1 1 0 -1 0 0.0025
      CHANMODE 0
      GUID {856A5297-A4F3-4964-BFE8-5C17BB012E9C}
      <SOURCE MIDI
        HASDATA 1 960 QN
        POOLEDEVTS {91089946-E0D9-4BEE-96FD-3FA70C8597F6}
        E 480 90 3c 40
        E 480 80 3c 28
        E 0 90 40 45
        E 0 90 43 40
        E 480 80 40 22
        E 0 80 43 28
        E 480 90 40 59
        E 0 90 43 53
        E 480 80 40 30
        E 0 80 43 30
        E 1440 90 41 46
        E 0 90 45 52
        E 475 80 45 29
        E 5 80 41 2c
        E 22 90 43 43
        E 2 90 40 44
        E 456 80 43 26
        E 0 80 40 35
        E 480 90 3c 3a
        E 0 90 40 61
        E 960 80 3c 29
        E 0 80 40 2b
        E 480 90 3b 2d
        E 0 90 3e 40
        E 240 80 3b 37
        E 0 80 3e 30
        E 240 90 37 33
        E 0 90 3b 46
        E 214 80 3b 2a
        E 26 80 37 0b
        E 720 90 39 3a
        E 0 90 3c 3e
        E 480 80 39 2d
        E 0 80 3c 35
        E 960 90 3c 4f
        E 0 90 40 61
        E 1440 80 3c 09
        E 0 80 40 4c
        E 480 90 3e 6f
        E 480 80 3e 40
        E 0 90 40 61
        E 480 80 40 11
        E 0 90 3e 59
        E 480 80 3e 34
        E 0 90 39 5d
        E 0 90 3c 5d
        E 960 80 39 1e
        E 0 80 3c 1e
        E 480 90 37 48
        E 0 90 39 33
        E 480 80 37 36
        E 0 90 3b 6c
        E 20 80 39 40
        E 460 80 3b 43
        E 480 90 39 5d
        E 21 90 3c 5d
        E 939 80 39 1e
        E 0 80 3c 35
        E 480 90 3c 32
        E 0 90 40 57
        E 0 90 43 32
        E 240 80 43 11
        E 240 80 3c 11
        E 0 80 40 11
        E 240 90 3c 0e
        E 240 80 3c 16
        E 0 90 40 6c
        E 240 80 40 41
        E 240 90 40 6c
        E 480 80 40 3b
        E 480 90 3e 6f
        E 960 80 3e 43
        E 0 90 3c 64
        E 960 90 3e 6f
        E 120 80 3c 34
        E 840 80 3e 29
        E 1440 90 40 73
        E 0 90 43 73
        E 960 80 40 32
        E 0 80 43 32
        E 0 90 3e 76
        E 0 90 41 76
        E 960 80 3e 24
        E 0 80 41 24
        E 960 90 3c 5b
        E 0 90 40 6c
        E 960 80 40 43
        E 11 80 3c 29
        E 469 90 3c 59
        E 0 90 3e 4c
        E 0 90 40 4f
        E 469 80 40 17
        E 11 80 3c 23
        E 4 90 3c 73
        E 476 90 39 67
        E 480 80 3c 25
        E 0 90 3c 67
        E 480 80 3e 1b
        E 0 80 39 1d
        E 480 80 3c 00
        E 600 90 3c 50
        E 120 80 3c 28
        E 0 90 3e 40
        E 120 80 3e 28
        E 0 90 42 40
        E 120 80 42 28
        E 0 90 40 45
        E 0 90 43 40
        E 480 80 40 22
        E 0 80 43 28
        E 480 90 40 59
        E 0 90 43 53
        E 480 80 40 30
        E 0 80 43 30
        E 1440 90 41 46
        E 0 90 45 52
        E 475 80 45 29
        E 5 80 41 2c
        E 22 90 43 43
        E 2 90 40 44
        E 456 80 43 26
        E 0 80 40 35
        E 480 90 3c 3a
        E 0 90 40 61
        E 960 80 3c 29
        E 0 80 40 2b
        E 480 90 3b 2d
        E 0 90 3e 40
        E 240 80 3b 37
        E 0 80 3e 30
        E 240 90 37 33
        E 0 90 3b 46
        E 214 80 3b 2a
        E 26 80 37 0b
        E 720 90 39 3a
        E 0 90 3c 3e
        E 480 80 39 2d
        E 0 80 3c 35
        E 960 90 3c 4f
        E 0 90 40 61
        E 1440 80 3c 09
        E 0 80 40 4c
        E 480 90 3e 6f
        E 480 80 3e 40
        E 0 90 40 61
        E 480 80 40 11
        E 0 90 3e 59
        E 480 80 3e 34
        E 0 90 39 5d
        E 0 90 3c 5d
        E 960 80 39 1e
        E 0 80 3c 1e
        E 480 90 37 48
        E 0 90 39 33
        E 480 80 37 36
        E 0 90 3b 6c
        E 20 80 39 40
        E 460 80 3b 43
        E 480 90 39 5d
        E 21 90 3c 5d
        E 939 80 39 1e
        E 0 80 3c 35
        E 480 90 3c 32
        E 0 90 40 32
        E 0 90 43 4c
        E 240 80 43 11
        E 240 80 3c 11
        E 0 80 40 11
        E 240 90 3c 0e
        E 240 80 3c 16
        E 0 90 40 6c
        E 240 80 40 41
        E 240 90 40 6c
        E 480 80 40 3b
        E 480 90 3e 6f
        E 960 80 3e 43
        E 0 90 3c 64
        E 960 90 3e 6f
        E 120 80 3c 34
        E 840 80 3e 29
        E 1440 90 40 73
        E 0 90 43 73
        E 960 80 40 32
        E 0 80 43 32
        E 0 90 3e 76
        E 0 90 41 76
        E 960 80 3e 24
        E 0 80 41 24
        E 960 90 3c 5b
        E 0 90 40 6c
        E 960 80 40 43
        E 11 80 3c 29
        E 469 90 3c 59
        E 0 90 3e 4c
        E 0 90 40 4f
        E 469 80 40 17
        E 11 80 3c 23
        E 4 90 3c 73
        E 476 90 39 67
        E 480 80 3c 25
        E 0 90 3c 67
        E 480 80 3e 1b
        E 0 80 39 1d
        E 480 80 3c 1d
        E 960 90 3c 66
        E 0 90 45 66
        E 480 90 41 5b
        E 480 80 3c 32
        E 0 80 45 32
        E 0 90 41 00
        E 0 90 41 66
        E 0 90 45 66
        E 480 80 41 20
        E 360 80 45 32
        E 125 90 48 6f
        E 475 80 48 38
        E 480 90 45 64
        E 0 90 48 6c
        E 1440 80 45 32
        E 0 80 48 32
        E 0 90 43 50
        E 0 90 47 69
        E 1440 90 41 5d
        E 0 90 45 4f
        E 878 80 47 46
        E 20 80 43 32
        E 809 80 41 3a
        E 9 80 45 45
        E 204 90 43 55
        E 390 80 43 2d
        E 570 90 40 5f
        E 6 90 43 5b
        E 1554 80 40 38
        E 120 80 43 34
        E 240 90 3e 53
        E 0 90 41 66
        E 1440 90 3c 4a
        E 480 90 40 61
        E 120 80 3e 34
        E 0 80 41 46
        E 960 80 40 55
        E 840 80 3c 37
        E 960 90 3c 66
        E 0 90 45 66
        E 480 90 41 5b
        E 480 80 3c 32
        E 0 80 45 32
        E 0 90 41 00
        E 0 90 41 66
        E 0 90 45 66
        E 480 80 41 20
        E 360 80 45 32
        E 125 90 48 6f
        E 475 80 48 38
        E 480 90 45 64
        E 0 90 48 6c
        E 1440 80 45 32
        E 0 80 48 32
        E 0 90 43 50
        E 0 90 47 69
        E 1440 90 41 5d
        E 0 90 45 4f
        E 878 80 47 46
        E 20 80 43 32
        E 809 80 41 3a
        E 9 80 45 45
        E 204 90 43 55
        E 390 80 43 2d
        E 570 90 40 5f
        E 6 90 43 5b
        E 1554 80 40 38
        E 120 80 43 34
        E 240 90 3e 4f
        E 0 90 45 4f
        E 1716 80 3e 45
        E 204 80 45 45
        E 0 90 40 4f
        E 0 90 47 4f
        E 1920 80 40 00
        E 0 80 47 00
        E 480 90 3c 40
        E 480 80 3c 28
        E 0 90 40 45
        E 0 90 43 40
        E 480 80 40 22
        E 0 80 43 28
        E 480 90 40 59
        E 0 90 43 53
        E 480 80 40 30
        E 0 80 43 30
        E 1440 90 41 46
        E 0 90 45 52
        E 475 80 45 29
        E 5 80 41 2c
        E 22 90 43 43
        E 2 90 40 44
        E 456 80 43 26
        E 0 80 40 35
        E 480 90 3c 3a
        E 0 90 40 61
        E 960 80 3c 29
        E 0 80 40 2b
        E 480 90 3b 2d
        E 0 90 3e 40
        E 240 80 3b 37
        E 0 80 3e 30
        E 240 90 37 33
        E 0 90 3b 46
        E 214 80 3b 2a
        E 26 80 37 0b
        E 720 90 39 3a
        E 0 90 3c 3e
        E 480 80 39 2d
        E 0 80 3c 35
        E 960 90 3c 4f
        E 0 90 40 61
        E 1440 80 3c 09
        E 0 80 40 4c
        E 480 90 3e 6f
        E 480 80 3e 40
        E 0 90 40 61
        E 480 80 40 11
        E 0 90 3e 59
        E 480 80 3e 34
        E 0 90 39 5d
        E 0 90 3c 5d
        E 960 80 39 1e
        E 0 80 3c 1e
        E 480 90 37 48
        E 0 90 39 33
        E 480 80 37 36
        E 0 90 3b 6c
        E 20 80 39 40
        E 460 80 3b 43
        E 480 90 39 5d
        E 21 90 3c 5d
        E 939 80 39 1e
        E 0 80 3c 35
        E 480 90 3c 32
        E 0 90 40 32
        E 0 90 43 57
        E 240 80 43 11
        E 240 80 3c 11
        E 0 80 40 11
        E 240 90 3c 0e
        E 240 80 3c 16
        E 0 90 40 6c
        E 240 80 40 41
        E 240 90 40 6c
        E 480 80 40 3b
        E 480 90 3e 6f
        E 960 80 3e 43
        E 0 90 3c 64
        E 960 90 3e 6f
        E 120 80 3c 34
        E 840 80 3e 29
        E 1440 90 40 73
        E 0 90 43 73
        E 960 80 40 32
        E 0 80 43 32
        E 0 90 3e 76
        E 0 90 41 76
        E 960 80 3e 24
        E 0 80 41 24
        E 960 90 3c 5b
        E 0 90 40 6c
        E 960 80 40 43
        E 11 80 3c 29
        E 469 90 3c 59
        E 0 90 3e 4c
        E 0 90 40 4f
        E 469 80 40 17
        E 11 80 3c 23
        E 4 90 3c 73
        E 476 90 39 67
        E 480 80 3c 25
        E 0 90 3c 67
        E 480 80 3e 1b
        E 0 80 39 1d
        E 480 80 3c 1d
        E 600 90 3c 40
        E 120 80 3c 28
        E 0 90 3e 40
        E 120 80 3e 28
        E 0 90 42 40
        E 120 80 42 28
        E 0 90 40 45
        E 0 90 43 40
        E 480 80 40 22
        E 0 80 43 28
        E 480 90 40 59
        E 0 90 43 53
        E 480 80 40 30
        E 0 80 43 30
        E 1440 90 41 46
        E 0 90 45 52
        E 475 80 45 29
        E 5 80 41 2c
        E 22 90 43 43
        E 2 90 40 44
        E 456 80 43 26
        E 0 80 40 35
        E 480 90 3c 3a
        E 0 90 40 61
        E 960 80 3c 29
        E 0 80 40 2b
        E 480 90 3b 2d
        E 0 90 3e 40
        E 240 80 3b 37
        E 0 80 3e 30
        E 240 90 37 33
        E 0 90 3b 46
        E 214 80 3b 2a
        E 26 80 37 0b
        E 720 90 39 3a
        E 0 90 3c 3e
        E 480 80 39 2d
        E 0 80 3c 35
        E 960 90 3c 4f
        E 0 90 40 61
        E 1440 80 3c 09
        E 0 80 40 4c
        E 480 90 3e 6f
        E 480 80 3e 40
        E 0 90 40 61
        E 480 80 40 11
        E 0 90 3e 59
        E 480 80 3e 34
        E 0 90 39 5d
        E 0 90 3c 5d
        E 960 80 39 1e
        E 0 80 3c 1e
        E 480 90 37 48
        E 0 90 39 33
        E 480 80 37 36
        E 0 90 3b 6c
        E 20 80 39 40
        E 460 80 3b 43
        E 480 90 39 5d
        E 21 90 3c 5d
        E 939 80 39 1e
        E 0 80 3c 35
        E 480 90 3c 32
        E 0 90 40 32
        E 0 90 43 32
        E 240 80 43 11
        E 240 80 3c 11
        E 0 80 40 11
        E 240 90 3c 0e
        E 240 80 3c 16
        E 0 90 40 6c
        E 240 80 40 41
        E 240 90 40 6c
        E 480 80 40 3b
        E 480 90 3e 6f
        E 960 80 3e 43
        E 0 90 3c 64
        E 960 90 3e 6f
        E 120 80 3c 34
        E 840 80 3e 29
        E 1440 90 3b 73
        E 0 90 40 73
        E 960 80 3b 32
        E 0 80 40 32
        E 0 90 3c 76
        E 0 90 40 76
        E 960 80 3c 24
        E 0 80 40 24
        E 480 90 3b 73
        E 0 90 40 73
        E 720 80 3b 32
        E 0 80 40 32
        E 240 90 3b 73
        E 0 90 40 73
        E 480 80 3b 32
        E 0 80 40 32
        E 480 90 3b 67
        E 0 90 40 6c
        E 240 80 3b 1d
        E 0 80 40 43
        E 240 90 3c 5b
        E 0 90 43 5d
        E 480 80 3c 3a
        E 0 90 43 00
        E 240 90 3b 5b
        E 0 90 40 66
        E 240 90 3b 00
        E 0 80 40 20
        E 480 90 3e 66
        E 480 80 3e 20
        E 0 90 3c 66
        E 120 90 40 66
        E 120 90 43 66
        E 120 90 48 66
        E 3480 80 3c 32
        E 0 80 40 32
        E 0 80 43 32
        E 0 80 48 32
        E 0 90 30 5f
        E 0 90 37 5f
        E 466 90 3e 45
        E 14 90 39 45
        E 120 80 30 20
        E 0 80 37 20
        E 360 80 3e 34
        E 0 80 39 34
        E 0 90 3b 5b
        E 0 90 40 5b
        E 480 80 3b 4a
        E 0 80 40 4a
        E 0 90 35 5b
        E 0 90 3c 5b
        E 0 90 41 5b
        E 911 90 30 59
        E 0 90 37 59
        E 101 80 35 31
        E 0 80 3c 31
        E 0 80 41 31
        E 428 90 3e 41
        E 0 90 40 32
        E 49 80 30 1b
        E 0 80 37 1b
        E 431 80 3e 30
        E 0 80 40 03
        E 0 90 3c 55
        E 480 80 3c 00
        E 0 b0 7b 00
        GUID {9FB66562-D577-42F3-8EAB-28174F36E7B4}
        IGNTEMPO 0 120 4 4
        SRCCOLOR 431
        VELLANE -1 100 0
        VELLANE -2 100 100
        CFGEDITVIEW 0 0 55 12 0 0 0 0 0 0.5
        KEYSNAP 0
        TRACKSEL 252
        EVTFILTER 0 -1 -1 -1 -1 0 0 0 0 -1 -1 -1 -1 0 -1 0 -1 -1
        CFGEDIT 1 0 0 1 1 1 1 1 1 1 1 0.125 257 16 1713 814 0 0 0 0 0 0 0 0 0 0.5 0 0 1 64
      >
    >
    <ITEM
      POSITION 92.0200562246424
      SNAPOFFS 0
      LENGTH 1.9799437753576
      LOOP 1
      ALLTAKES 0
      FADEIN 1 0 0 1 0 0
      FADEOUT 1 0 0 1 0 0
      MUTE 0
      COLOR 25708672 R
      SEL 0
      IGUID {C876D44F-A802-4DF1-9D85-FE1B2274D48E}
      IID 11
      NAME "Then There was One - r/guitar - transition to bridge"
      VOLPAN 1 0 1 -1
      SOFFS 84.02212105848481 168.04424211696963
      PLAYRATE 1 1 0 -1 0 0.0025
      CHANMODE 0
      GUID {71AC8600-98EA-4795-8E36-F37EB7A350F5}
      <SOURCE MIDI
        HASDATA 1 960 QN
        POOLEDEVTS {E7F02ADF-0CC3-462F-BBC4-F560C62FBE7A}
        <X 0 0 0 0 3 "EZkeys song"
          /wNFWmtleXMgc29uZw==
        >
        <X 0 0
          /wFCYXJPZmZzZXQgNDIgMC4wMDAwMDAgOC4wMDAwMDAgMTYuMDAwMA==
          MDAgMjAuMDAwMDAwIDI0LjAwMDAwMCA0MC4wMDAwMDAgNDguMDAwMA==
          MDAgNTIuMDAwMDAwIDU2LjAwMDAwMCA2NC4wMDAwMDAgNjguMDAwMA==
          MDAgNzIuMDAwMDAwIDgwLjAwMDAwMCA4NC4wMDAwMDAgODguMDAwMA==
          MDAgOTIuMDAwMDAwIDEwNC4wMDAwMDAgMTEyLjAwMDAwMCAxMTYuMA==
          MDAwMDAgMTIwLjAwMDAwMCAxMzYuMDAwMDAwIDE0NC4wMDAwMDAgMQ==
          NDguMDAwMDAwIDE1Mi4wMDAwMDAgMTYwLjAwMDAwMCAxNjQuMDAwMA==
          MDAgMTY4LjAwMDAwMCAxNzAuMDAwMDAwIDE3Mi4wMDAwMDAgMTc2Lg==
          MDAwMDAwIDE4MC4wMDAwMDAgMTg0LjAwMDAwMCAxODguMDAwMDAwIA==
          MTk2LjAwMDAwMCAyMDIuMDAwMDAwIDIwNC4wMDAwMDAgMjA4LjAwMA==
          MDAwIDIxMi4wMDAwMDAgMjE2LjAwMDAwMCAyMjAuMDAwMDAwIDIyNg==
          LjAwMDAwMCAyMjguMDAwMDAw
        >
        E 0 90 30 4d
        E 480 90 37 1b
        E 480 80 30 4d
        E 15 80 37 1b
        E 0 90 3c 35
        E 930 90 30 4a
        E 30 80 3c 35
        E 465 90 37 2d
        E 465 80 37 2d
        E 15 80 30 4a
        E 0 90 3c 24
        E 967 80 3c 24
        E 8 90 30 4e
        E 480 90 37 2c
        E 450 80 37 2c
        E 0 90 3c 31
        E 15 80 30 4e
        E 480 90 37 3e
        E 465 80 3c 31
        E 15 80 37 3e
        E 0 90 30 50
        E 465 90 37 33
        E 495 80 30 50
        E 0 90 3c 36
        E 15 80 37 33
        E 450 90 37 4b
        E 480 90 2d 51
        E 30 80 3c 36
        E 0 80 37 4b
        E 450 90 34 23
        E 495 80 34 23
        E 15 80 2d 51
        E 0 90 39 3a
        E 930 80 39 3a
        E 15 90 2d 4a
        E 480 90 34 3d
        E 480 80 2d 4a
        E 15 80 34 3d
        E 0 90 39 46
        E 960 80 39 46
        E 0 90 2d 45
        E 480 90 34 1f
        E 450 80 2d 45
        E 0 80 34 1f
        E 15 90 39 3a
        E 465 90 34 32
        E 480 80 39 3a
        E 15 80 34 32
        E 0 90 2d 50
        E 495 90 34 31
        E 465 80 2d 50
        E 0 80 34 31
        E 15 90 39 49
        E 450 90 34 55
        E 480 80 39 49
        E 15 90 29 4f
        E 15 80 34 55
        E 465 90 30 20
        E 465 80 30 20
        E 0 90 35 46
        E 30 80 29 4f
        E 945 80 35 46
        E 15 90 29 48
        E 465 90 30 53
        E 465 80 29 48
        E 15 80 30 53
        E 0 90 35 46
        E 975 80 35 46
        E 0 90 2b 58
        E 480 90 32 2f
        E 450 80 32 2f
        E 0 90 37 4d
        E 30 80 2b 58
        E 450 90 32 4a
        E 495 80 32 4a
        E 15 80 37 4d
        E 0 90 2b 50
        E 480 90 32 37
        E 480 80 2b 50
        E 0 80 32 37
        E 0 90 37 4f
        E 450 90 32 40
        E 495 80 37 4f
        E 0 80 32 40
        E 15 90 30 5c
        E 480 90 37 32
        E 465 80 37 32
        E 0 90 3c 4d
        E 15 80 30 5c
        E 930 80 3c 4d
        E 30 90 30 46
        E 450 90 37 2a
        E 480 90 3c 4d
        E 15 80 30 46
        E 0 80 37 2a
        E 975 80 3c 4d
        E 0 90 30 50
        E 480 90 37 33
        E 450 90 3c 40
        E 15 80 30 50
        E 0 80 37 33
        E 471 90 37 20
        E 474 80 3c 40
        E 0 80 37 20
        E 7 90 30 52
        E 468 90 37 3b
        E 485 90 3c 40
        E 15 80 30 52
        E 15 80 37 3b
        E 930 90 30 46
        E 15 80 3c 40
        E 480 90 37 1b
        E 465 80 37 1b
        E 15 80 30 46
        E 15 90 3c 35
        E 930 80 3c 35
        E 15 90 30 4a
        E 480 90 37 2d
        E 480 90 3c 24
        E 15 80 30 4a
        E 0 80 37 2d
        E 930 90 30 4e
        E 37 80 3c 24
        E 443 90 37 2c
        E 480 80 30 4e
        E 15 90 3c 31
        E 15 80 37 2c
        E 450 90 37 3e
        E 480 80 37 3e
        E 0 90 30 50
        E 15 80 3c 31
        E 465 90 37 33
        E 495 80 30 50
        E 0 90 3c 36
        E 15 80 37 33
        E 465 90 37 4b
        E 480 80 3c 36
        E 0 90 2d 51
        E 15 80 37 4b
        E 465 90 34 23
        E 480 90 39 3a
        E 15 80 2d 51
        E 0 80 34 23
        E 945 80 39 3a
        E 15 90 2d 4a
        E 450 90 34 3d
        E 495 80 2d 4a
        E 0 90 39 46
        E 15 80 34 3d
        E 945 80 39 46
        E 15 90 2d 45
        E 450 90 34 1f
        E 510 80 2d 45
        E 0 80 34 1f
        E 0 90 39 3a
        E 465 90 34 32
        E 465 80 34 32
        E 0 90 2d 50
        E 15 80 39 3a
        E 495 90 34 31
        E 450 90 39 49
        E 15 80 2d 50
        E 15 80 34 31
        E 465 90 34 55
        E 480 90 29 5b
        E 15 80 39 49
        E 0 80 34 55
        E 465 90 30 20
        E 480 80 30 20
        E 15 80 29 5b
        E 0 90 35 46
        E 930 80 35 46
        E 15 90 29 4b
        E 495 90 30 4e
        E 450 80 29 4b
        E 15 80 30 4e
        E 15 90 35 46
        E 945 90 2b 50
        E 15 80 35 46
        E 480 90 32 2f
        E 450 80 2b 50
        E 0 80 32 2f
        E 15 90 37 4d
        E 465 90 32 4a
        E 495 80 37 4d
        E 0 80 32 4a
        E 15 90 2b 50
        E 450 90 32 37
        E 480 80 32 37
        E 0 90 37 4f
        E 15 80 2b 50
        E 465 90 32 40
        E 480 80 37 4f
        E 0 80 32 40
        E 0 90 30 59
        E 480 90 37 32
        E 480 90 3c 4d
        E 15 80 30 59
        E 15 80 37 32
        E 945 90 30 46
        E 15 80 3c 4d
        E 465 90 37 2a
        E 480 80 30 46
        E 0 80 37 2a
        E 15 90 3c 4d
        E 930 90 30 50
        E 30 80 3c 4d
        E 465 90 37 33
        E 465 80 37 33
        E 15 80 30 50
        E 0 90 3c 40
        E 480 80 3c 40
        E 0 90 39 42
        E 240 80 39 20
        E 0 90 32 42
        E 0 90 37 42
        E 232 90 30 52
        E 8 80 37 20
        E 430 90 37 3b
        E 50 80 32 20
        E 465 80 30 52
        E 30 80 37 3b
        E 0 90 3c 40
        E 930 80 3c 40
        E 30 90 39 50
        E 930 90 41 4c
        E 30 80 39 50
        E 930 80 41 4c
        E 0 90 39 3f
        E 951 90 41 51
        E 39 80 39 3f
        E 930 80 41 51
        E 0 90 39 57
        E 480 90 3c 3f
        E 89 80 39 57
        E 391 90 41 50
        E 30 80 3c 3f
        E 930 90 39 4f
        E 15 80 41 50
        E 480 80 39 4f
        E 0 90 3c 53
        E 476 80 3c 53
        E 4 90 41 47
        E 975 80 41 47
        E 0 90 37 5b
        E 945 90 3e 4b
        E 15 80 37 5b
        E 945 80 3e 4b
        E 15 90 37 52
        E 930 80 37 52
        E 35 90 3e 4e
        E 925 80 3e 4e
        E 13 90 37 4f
        E 482 90 3b 55
        E 112 80 37 4f
        E 368 90 3e 49
        E 65 80 3b 55
        E 893 90 37 50
        E 17 80 3e 49
        E 465 90 3b 48
        E 142 80 37 50
        E 338 90 3e 53
        E 35 80 3b 48
        E 756 80 3e 53
        E 169 90 39 50
        E 960 90 41 51
        E 105 80 39 50
        E 855 80 41 51
        E 0 90 39 3f
        E 966 90 41 49
        E 9 80 39 3f
        E 930 90 39 57
        E 30 80 41 49
        E 450 90 3c 3f
        E 119 80 39 57
        E 361 80 3c 3f
        E 30 90 41 4a
        E 960 80 41 4a
        E 0 90 39 4f
        E 450 90 3c 53
        E 30 80 39 4f
        E 450 90 41 47
        E 26 80 3c 53
        E 934 90 3b 5b
        E 30 80 41 47
        E 465 90 3e 27
        E 135 80 3b 5b
        E 345 90 43 50
        E 15 80 3e 27
        E 945 90 3b 46
        E 15 80 43 50
        E 480 90 3e 27
        E 120 80 3b 46
        E 330 80 3e 27
        E 15 90 43 50
        E 960 80 43 50
        E 465 90 3c 4e
        E 480 80 3c 4e
        E 1 90 48 53
        E 29 90 37 4c
        E 1410 80 37 4c
        E 30 90 36 4a
        E 450 80 36 4a
        E 0 90 37 48
        E 975 80 37 48
        E 0 90 30 46
        E 15 80 48 53
        E 450 90 37 1b
        E 480 80 30 46
        E 30 80 37 1b
        E 0 90 3c 35
        E 945 90 30 4a
        E 15 80 3c 35
        E 450 90 37 2d
        E 480 80 30 4a
        E 30 80 37 2d
        E 0 90 3c 24
        E 930 90 30 49
        E 37 80 3c 24
        E 443 90 37 2c
        E 480 80 37 2c
        E 0 90 3c 31
        E 15 80 30 49
        E 495 90 37 5e
        E 465 80 3c 31
        E 0 90 30 50
        E 15 80 37 3e
        E 465 90 37 33
        E 465 80 30 50
        E 30 80 37 33
        E 0 90 3c 36
        E 450 90 37 4e
        E 480 80 37 4e
        E 0 90 2d 51
        E 30 80 3c 36
        E 465 90 34 23
        E 480 80 2d 51
        E 0 90 39 3a
        E 15 80 34 23
        E 930 80 39 3a
        E 30 90 2d 4a
        E 450 90 34 3d
        E 480 80 2d 4a
        E 15 80 34 3d
        E 0 90 39 46
        E 945 90 2d 45
        E 30 80 39 46
        E 465 90 34 1f
        E 465 80 2d 45
        E 0 90 39 3a
        E 30 80 34 1f
        E 480 90 34 32
        E 450 80 39 3a
        E 0 80 34 32
        E 15 90 2d 50
        E 480 90 34 31
        E 465 80 2d 50
        E 30 80 34 31
        E 0 90 39 49
        E 450 90 34 55
        E 480 80 34 55
        E 15 80 39 49
        E 15 90 29 5b
        E 465 90 30 20
        E 465 80 29 5b
        E 0 80 30 20
        E 0 90 35 46
        E 975 80 35 46
        E 15 90 29 52
        E 480 90 30 35
        E 465 80 30 35
        E 15 80 29 52
        E 0 90 35 46
        E 930 90 2b 50
        E 15 80 35 46
        E 465 90 32 2f
        E 480 80 2b 50
        E 30 80 32 2f
        E 0 90 37 4d
        E 480 90 32 4a
        E 450 80 37 4d
        E 0 80 32 4a
        E 30 90 2b 50
        E 450 90 32 37
        E 480 80 2b 50
        E 0 90 37 4f
        E 15 80 32 37
        E 465 90 32 40
        E 480 80 37 4f
        E 30 80 32 40
        E 0 90 30 53
        E 480 90 37 32
        E 465 80 30 53
        E 0 80 37 32
        E 15 90 3c 4d
        E 930 80 3c 4d
        E 30 90 30 46
        E 450 90 37 2a
        E 480 80 30 46
        E 15 80 37 2a
        E 15 90 3c 4d
        E 945 80 3c 4d
        E 15 90 30 50
        E 465 90 37 33
        E 495 80 30 50
        E 0 80 37 33
        E 0 90 3c 40
        E 486 90 37 20
        E 459 80 37 20
        E 7 90 30 52
        E 8 80 3c 40
        E 415 90 37 3b
        E 530 80 30 52
        E 15 80 37 3b
        E 0 90 3c 40
        E 945 90 30 46
        E 15 80 3c 40
        E 450 90 37 1b
        E 480 80 37 1b
        E 30 80 30 46
        E 0 90 3c 4d
        E 930 90 30 4a
        E 30 80 3c 35
        E 450 90 37 2d
        E 480 80 37 2d
        E 15 80 30 4a
        E 0 90 3c 4b
        E 952 80 3c 24
        E 8 90 30 4a
        E 480 90 37 2c
        E 465 80 37 2c
        E 0 90 3c 31
        E 30 80 30 4a
        E 465 90 37 3e
        E 465 80 37 3e
        E 0 90 30 50
        E 30 80 3c 31
        E 465 90 37 33
        E 480 80 30 50
        E 15 80 37 33
        E 0 90 3c 36
        E 465 90 37 4f
        E 465 80 37 4f
        E 15 80 3c 36
        E 15 90 2d 51
        E 465 90 34 23
        E 465 90 39 3a
        E 15 80 2d 51
        E 15 80 34 23
        E 930 90 2d 4a
        E 15 80 39 3a
        E 465 90 34 3d
        E 480 80 2d 4a
        E 0 90 39 46
        E 30 80 34 3d
        E 930 90 2d 45
        E 15 80 39 46
        E 495 90 34 1f
        E 450 90 39 3a
        E 15 80 2d 45
        E 15 80 34 1f
        E 450 90 34 32
        E 480 80 39 3a
        E 0 90 2d 50
        E 30 80 34 32
        E 480 90 34 31
        E 450 90 39 49
        E 15 80 2d 50
        E 0 80 34 31
        E 465 90 34 55
        E 480 80 39 49
        E 15 90 29 4f
        E 15 80 34 55
        E 450 90 30 20
        E 480 80 30 20
        E 0 90 35 46
        E 15 80 29 4f
        E 945 80 35 46
        E 0 90 29 52
        E 495 90 30 35
        E 465 80 30 35
        E 15 80 29 52
        E 15 90 35 46
        E 930 90 2b 5c
        E 15 80 35 46
        E 465 90 32 2f
        E 480 80 2b 5c
        E 15 90 37 4d
        E 15 80 32 2f
        E 465 90 32 4a
        E 465 80 37 4d
        E 0 80 32 4a
        E 15 90 2b 50
        E 480 90 32 37
        E 465 80 32 37
        E 15 80 2b 50
        E 15 90 37 4f
        E 465 90 32 40
        E 480 80 37 4f
        E 0 90 28 57
        E 15 80 32 40
        E 450 90 2f 32
        E 495 80 28 57
        E 0 80 2f 32
        E 0 90 34 4d
        E 960 80 34 4d
        E 0 90 28 51
        E 480 90 2f 3b
        E 465 80 28 46
        E 15 80 2f 2a
        E 0 90 34 4d
        E 960 80 34 4d
        E 15 90 28 50
        E 450 90 2f 33
        E 480 80 2f 33
        E 15 80 28 50
        E 0 90 34 40
        E 471 90 2f 20
        E 474 80 2f 20
        E 7 90 28 52
        E 23 80 34 40
        E 415 90 2f 3b
        E 515 80 2f 3b
        E 0 90 34 40
        E 15 80 28 52
        E 945 80 34 40
        E 15 90 29 4d
        E 465 90 30 1b
        E 480 80 29 4d
        E 0 90 35 35
        E 15 80 30 1b
        E 960 90 29 4a
        E 15 80 35 35
        E 465 90 30 2d
        E 465 80 30 2d
        E 15 80 29 4a
        E 0 90 35 24
        E 945 90 2b 52
        E 7 80 35 24
        E 503 90 32 2c
        E 450 80 2b 52
        E 0 90 37 31
        E 30 80 32 2c
        E 450 90 32 3e
        E 495 80 32 3e
        E 0 90 2b 50
        E 15 80 37 31
        E 450 90 32 33
        E 480 80 32 33
        E 15 90 37 36
        E 15 80 2b 50
        E 465 90 32 4b
        E 465 80 37 36
        E 0 80 32 4b
        E 0 90 34 59
        E 15 90 2d 5b
        E 1920 80 2d 3f
        E 0 90 2a 4d
        E 0 90 39 61
        E 15 80 34 59
        E 930 80 2a 4f
        E 0 90 2b 4f
        E 15 80 39 1f
        E 0 90 34 5d
        E 945 90 34 3f
        E 15 80 2b 4f
        E 0 80 34 1f
        E 0 90 2d 3f
        E 4 80 2d 00
        E 0 b0 7b 00
        GUID {1963BCB1-2A6B-4D4D-96B9-00F2E3AD233F}
        IGNTEMPO 0 120 4 4
        SRCCOLOR 316
        VELLANE -1 100 0
        VELLANE -2 100 100
        CFGEDITVIEW 0 0.002616 55 12 0 0 0 0 0 0.5
        KEYSNAP 0
        TRACKSEL 252
        EVTFILTER 0 -1 -1 -1 -1 0 0 0 0 -1 -1 -1 -1 0 -1 0 -1 -1
        CFGEDIT 1 0 0 1 1 1 1 1 1 1 1 0.125 257 16 1713 814 0 0 0 0 0 0 0 0 0 0.5 0 0 1 64
      >
    >
    <ITEM
      POSITION 94
      SNAPOFFS 0
      LENGTH 15.99042899930031
      LOOP 1
      ALLTAKES 0
      FADEIN 1 0 0 1 0 0
      FADEOUT 1 0 0 1 0 0
      MUTE 0
      COLOR 28954920 R
      SEL 0
      IGUID {0CD6FF6C-C934-4FDB-BAC0-DF5ADF7A2359}
      IID 11
      NAME "Then There was One - r/guitar - bridge(1)"
      VOLPAN 1 0 1 -1
      SOFFS 86.00206483384241 172.00412966768482
      PLAYRATE 1 1 0 -1 0 0.0025
      CHANMODE 0
      GUID {AA6D8664-898B-4DE5-82A5-1A84F55F3396}
      <SOURCE MIDI
        HASDATA 1 960 QN
        POOLEDEVTS {FA4D5C3D-68C2-477E-95D8-18F0F20AF277}
        <X 0 0 0 0 3 "EZkeys song"
          /wNFWmtleXMgc29uZw==
        >
        <X 0 0
          /wFCYXJPZmZzZXQgNDIgMC4wMDAwMDAgOC4wMDAwMDAgMTYuMDAwMA==
          MDAgMjAuMDAwMDAwIDI0LjAwMDAwMCA0MC4wMDAwMDAgNDguMDAwMA==
          MDAgNTIuMDAwMDAwIDU2LjAwMDAwMCA2NC4wMDAwMDAgNjguMDAwMA==
          MDAgNzIuMDAwMDAwIDgwLjAwMDAwMCA4NC4wMDAwMDAgODguMDAwMA==
          MDAgOTIuMDAwMDAwIDEwNC4wMDAwMDAgMTEyLjAwMDAwMCAxMTYuMA==
          MDAwMDAgMTIwLjAwMDAwMCAxMzYuMDAwMDAwIDE0NC4wMDAwMDAgMQ==
          NDguMDAwMDAwIDE1Mi4wMDAwMDAgMTYwLjAwMDAwMCAxNjQuMDAwMA==
          MDAgMTY4LjAwMDAwMCAxNzAuMDAwMDAwIDE3Mi4wMDAwMDAgMTc2Lg==
          MDAwMDAwIDE4MC4wMDAwMDAgMTg0LjAwMDAwMCAxODguMDAwMDAwIA==
          MTk2LjAwMDAwMCAyMDIuMDAwMDAwIDIwNC4wMDAwMDAgMjA4LjAwMA==
          MDAwIDIxMi4wMDAwMDAgMjE2LjAwMDAwMCAyMjAuMDAwMDAwIDIyNg==
          LjAwMDAwMCAyMjguMDAwMDAw
        >
        E 0 90 30 4d
        E 480 90 37 1b
        E 480 80 30 4d
        E 15 80 37 1b
        E 0 90 3c 35
        E 930 90 30 4a
        E 30 80 3c 35
        E 465 90 37 2d
        E 465 80 37 2d
        E 15 80 30 4a
        E 0 90 3c 24
        E 967 80 3c 24
        E 8 90 30 4e
        E 480 90 37 2c
        E 450 80 37 2c
        E 0 90 3c 31
        E 15 80 30 4e
        E 480 90 37 3e
        E 465 80 3c 31
        E 15 80 37 3e
        E 0 90 30 50
        E 465 90 37 33
        E 495 80 30 50
        E 0 90 3c 36
        E 15 80 37 33
        E 450 90 37 4b
        E 480 90 2d 51
        E 30 80 3c 36
        E 0 80 37 4b
        E 450 90 34 23
        E 495 80 34 23
        E 15 80 2d 51
        E 0 90 39 3a
        E 930 80 39 3a
        E 15 90 2d 4a
        E 480 90 34 3d
        E 480 80 2d 4a
        E 15 80 34 3d
        E 0 90 39 46
        E 960 80 39 46
        E 0 90 2d 45
        E 480 90 34 1f
        E 450 80 2d 45
        E 0 80 34 1f
        E 15 90 39 3a
        E 465 90 34 32
        E 480 80 39 3a
        E 15 80 34 32
        E 0 90 2d 50
        E 495 90 34 31
        E 465 80 2d 50
        E 0 80 34 31
        E 15 90 39 49
        E 450 90 34 55
        E 480 80 39 49
        E 15 90 29 4f
        E 15 80 34 55
        E 465 90 30 20
        E 465 80 30 20
        E 0 90 35 46
        E 30 80 29 4f
        E 945 80 35 46
        E 15 90 29 48
        E 465 90 30 53
        E 465 80 29 48
        E 15 80 30 53
        E 0 90 35 46
        E 975 80 35 46
        E 0 90 2b 58
        E 480 90 32 2f
        E 450 80 32 2f
        E 0 90 37 4d
        E 30 80 2b 58
        E 450 90 32 4a
        E 495 80 32 4a
        E 15 80 37 4d
        E 0 90 2b 50
        E 480 90 32 37
        E 480 80 2b 50
        E 0 80 32 37
        E 0 90 37 4f
        E 450 90 32 40
        E 495 80 37 4f
        E 0 80 32 40
        E 15 90 30 5c
        E 480 90 37 32
        E 465 80 37 32
        E 0 90 3c 4d
        E 15 80 30 5c
        E 930 80 3c 4d
        E 30 90 30 46
        E 450 90 37 2a
        E 480 90 3c 4d
        E 15 80 30 46
        E 0 80 37 2a
        E 975 80 3c 4d
        E 0 90 30 50
        E 480 90 37 33
        E 450 90 3c 40
        E 15 80 30 50
        E 0 80 37 33
        E 471 90 37 20
        E 474 80 3c 40
        E 0 80 37 20
        E 7 90 30 52
        E 468 90 37 3b
        E 485 90 3c 40
        E 15 80 30 52
        E 15 80 37 3b
        E 930 90 30 46
        E 15 80 3c 40
        E 480 90 37 1b
        E 465 80 37 1b
        E 15 80 30 46
        E 15 90 3c 35
        E 930 80 3c 35
        E 15 90 30 4a
        E 480 90 37 2d
        E 480 90 3c 24
        E 15 80 30 4a
        E 0 80 37 2d
        E 930 90 30 4e
        E 37 80 3c 24
        E 443 90 37 2c
        E 480 80 30 4e
        E 15 90 3c 31
        E 15 80 37 2c
        E 450 90 37 3e
        E 480 80 37 3e
        E 0 90 30 50
        E 15 80 3c 31
        E 465 90 37 33
        E 495 80 30 50
        E 0 90 3c 36
        E 15 80 37 33
        E 465 90 37 4b
        E 480 80 3c 36
        E 0 90 2d 51
        E 15 80 37 4b
        E 465 90 34 23
        E 480 90 39 3a
        E 15 80 2d 51
        E 0 80 34 23
        E 945 80 39 3a
        E 15 90 2d 4a
        E 450 90 34 3d
        E 495 80 2d 4a
        E 0 90 39 46
        E 15 80 34 3d
        E 945 80 39 46
        E 15 90 2d 45
        E 450 90 34 1f
        E 510 80 2d 45
        E 0 80 34 1f
        E 0 90 39 3a
        E 465 90 34 32
        E 465 80 34 32
        E 0 90 2d 50
        E 15 80 39 3a
        E 495 90 34 31
        E 450 90 39 49
        E 15 80 2d 50
        E 15 80 34 31
        E 465 90 34 55
        E 480 90 29 5b
        E 15 80 39 49
        E 0 80 34 55
        E 465 90 30 20
        E 480 80 30 20
        E 15 80 29 5b
        E 0 90 35 46
        E 930 80 35 46
        E 15 90 29 4b
        E 495 90 30 4e
        E 450 80 29 4b
        E 15 80 30 4e
        E 15 90 35 46
        E 945 90 2b 50
        E 15 80 35 46
        E 480 90 32 2f
        E 450 80 2b 50
        E 0 80 32 2f
        E 15 90 37 4d
        E 465 90 32 4a
        E 495 80 37 4d
        E 0 80 32 4a
        E 15 90 2b 50
        E 450 90 32 37
        E 480 80 32 37
        E 0 90 37 4f
        E 15 80 2b 50
        E 465 90 32 40
        E 480 80 37 4f
        E 0 80 32 40
        E 0 90 30 59
        E 480 90 37 32
        E 480 90 3c 4d
        E 15 80 30 59
        E 15 80 37 32
        E 945 90 30 46
        E 15 80 3c 4d
        E 465 90 37 2a
        E 480 80 30 46
        E 0 80 37 2a
        E 15 90 3c 4d
        E 930 90 30 50
        E 30 80 3c 4d
        E 465 90 37 33
        E 465 80 37 33
        E 15 80 30 50
        E 0 90 3c 40
        E 480 80 3c 40
        E 0 90 39 42
        E 240 80 39 20
        E 0 90 32 42
        E 0 90 37 42
        E 232 90 30 52
        E 8 80 37 20
        E 430 90 37 3b
        E 50 80 32 20
        E 465 80 30 52
        E 30 80 37 3b
        E 0 90 3c 40
        E 930 80 3c 40
        E 30 90 39 50
        E 930 90 41 4c
        E 30 80 39 50
        E 930 80 41 4c
        E 0 90 39 3f
        E 951 90 41 51
        E 39 80 39 3f
        E 930 80 41 51
        E 0 90 39 57
        E 480 90 3c 3f
        E 89 80 39 57
        E 391 90 41 50
        E 30 80 3c 3f
        E 930 90 39 4f
        E 15 80 41 50
        E 480 80 39 4f
        E 0 90 3c 53
        E 476 80 3c 53
        E 4 90 41 47
        E 975 80 41 47
        E 0 90 37 5b
        E 945 90 3e 4b
        E 15 80 37 5b
        E 945 80 3e 4b
        E 15 90 37 52
        E 930 80 37 52
        E 35 90 3e 4e
        E 925 80 3e 4e
        E 13 90 37 4f
        E 482 90 3b 55
        E 112 80 37 4f
        E 368 90 3e 49
        E 65 80 3b 55
        E 893 90 37 50
        E 17 80 3e 49
        E 465 90 3b 48
        E 142 80 37 50
        E 338 90 3e 53
        E 35 80 3b 48
        E 756 80 3e 53
        E 169 90 39 50
        E 960 90 41 51
        E 105 80 39 50
        E 855 80 41 51
        E 0 90 39 3f
        E 966 90 41 49
        E 9 80 39 3f
        E 930 90 39 57
        E 30 80 41 49
        E 450 90 3c 3f
        E 119 80 39 57
        E 361 80 3c 3f
        E 30 90 41 4a
        E 960 80 41 4a
        E 0 90 39 4f
        E 450 90 3c 53
        E 30 80 39 4f
        E 450 90 41 47
        E 26 80 3c 53
        E 934 90 3b 5b
        E 30 80 41 47
        E 465 90 3e 27
        E 135 80 3b 5b
        E 345 90 43 50
        E 15 80 3e 27
        E 945 90 3b 46
        E 15 80 43 50
        E 480 90 3e 27
        E 120 80 3b 46
        E 330 80 3e 27
        E 15 90 43 50
        E 960 80 43 50
        E 465 90 3c 4e
        E 480 80 3c 4e
        E 1 90 48 53
        E 29 90 37 4c
        E 1410 80 37 4c
        E 30 90 36 4a
        E 450 80 36 4a
        E 0 90 37 48
        E 975 80 37 48
        E 0 90 30 46
        E 15 80 48 53
        E 450 90 37 1b
        E 480 80 30 46
        E 30 80 37 1b
        E 0 90 3c 35
        E 945 90 30 4a
        E 15 80 3c 35
        E 450 90 37 2d
        E 480 80 30 4a
        E 30 80 37 2d
        E 0 90 3c 24
        E 930 90 30 49
        E 37 80 3c 24
        E 443 90 37 2c
        E 480 80 37 2c
        E 0 90 3c 31
        E 15 80 30 49
        E 495 90 37 5e
        E 465 80 3c 31
        E 0 90 30 50
        E 15 80 37 3e
        E 465 90 37 33
        E 465 80 30 50
        E 30 80 37 33
        E 0 90 3c 36
        E 450 90 37 4e
        E 480 80 37 4e
        E 0 90 2d 51
        E 30 80 3c 36
        E 465 90 34 23
        E 480 80 2d 51
        E 0 90 39 3a
        E 15 80 34 23
        E 930 80 39 3a
        E 30 90 2d 4a
        E 450 90 34 3d
        E 480 80 2d 4a
        E 15 80 34 3d
        E 0 90 39 46
        E 945 90 2d 45
        E 30 80 39 46
        E 465 90 34 1f
        E 465 80 2d 45
        E 0 90 39 3a
        E 30 80 34 1f
        E 480 90 34 32
        E 450 80 39 3a
        E 0 80 34 32
        E 15 90 2d 50
        E 480 90 34 31
        E 465 80 2d 50
        E 30 80 34 31
        E 0 90 39 49
        E 450 90 34 55
        E 480 80 34 55
        E 15 80 39 49
        E 15 90 29 5b
        E 465 90 30 20
        E 465 80 29 5b
        E 0 80 30 20
        E 0 90 35 46
        E 975 80 35 46
        E 15 90 29 52
        E 480 90 30 35
        E 465 80 30 35
        E 15 80 29 52
        E 0 90 35 46
        E 930 90 2b 50
        E 15 80 35 46
        E 465 90 32 2f
        E 480 80 2b 50
        E 30 80 32 2f
        E 0 90 37 4d
        E 480 90 32 4a
        E 450 80 37 4d
        E 0 80 32 4a
        E 30 90 2b 50
        E 450 90 32 37
        E 480 80 2b 50
        E 0 90 37 4f
        E 15 80 32 37
        E 465 90 32 40
        E 480 80 37 4f
        E 30 80 32 40
        E 0 90 30 53
        E 480 90 37 32
        E 465 80 30 53
        E 0 80 37 32
        E 15 90 3c 4d
        E 930 80 3c 4d
        E 30 90 30 46
        E 450 90 37 2a
        E 480 80 30 46
        E 15 80 37 2a
        E 15 90 3c 4d
        E 945 80 3c 4d
        E 15 90 30 50
        E 465 90 37 33
        E 495 80 30 50
        E 0 80 37 33
        E 0 90 3c 40
        E 486 90 37 20
        E 459 80 37 20
        E 7 90 30 52
        E 8 80 3c 40
        E 415 90 37 3b
        E 530 80 30 52
        E 15 80 37 3b
        E 0 90 3c 40
        E 945 90 30 46
        E 15 80 3c 40
        E 450 90 37 1b
        E 480 80 37 1b
        E 30 80 30 46
        E 0 90 3c 4d
        E 930 90 30 4a
        E 30 80 3c 35
        E 450 90 37 2d
        E 480 80 37 2d
        E 15 80 30 4a
        E 0 90 3c 4b
        E 952 80 3c 24
        E 8 90 30 4a
        E 480 90 37 2c
        E 465 80 37 2c
        E 0 90 3c 31
        E 30 80 30 4a
        E 465 90 37 3e
        E 465 80 37 3e
        E 0 90 30 50
        E 30 80 3c 31
        E 465 90 37 33
        E 480 80 30 50
        E 15 80 37 33
        E 0 90 3c 36
        E 465 90 37 4f
        E 465 80 37 4f
        E 15 80 3c 36
        E 15 90 2d 51
        E 465 90 34 23
        E 465 90 39 3a
        E 15 80 2d 51
        E 15 80 34 23
        E 930 90 2d 4a
        E 15 80 39 3a
        E 465 90 34 3d
        E 480 80 2d 4a
        E 0 90 39 46
        E 30 80 34 3d
        E 930 90 2d 45
        E 15 80 39 46
        E 495 90 34 1f
        E 450 90 39 3a
        E 15 80 2d 45
        E 15 80 34 1f
        E 450 90 34 32
        E 480 80 39 3a
        E 0 90 2d 50
        E 30 80 34 32
        E 480 90 34 31
        E 450 90 39 49
        E 15 80 2d 50
        E 0 80 34 31
        E 465 90 34 55
        E 480 80 39 49
        E 15 90 29 4f
        E 15 80 34 55
        E 450 90 30 20
        E 480 80 30 20
        E 0 90 35 46
        E 15 80 29 4f
        E 945 80 35 46
        E 0 90 29 52
        E 495 90 30 35
        E 465 80 30 35
        E 15 80 29 52
        E 15 90 35 46
        E 930 90 2b 5c
        E 15 80 35 46
        E 465 90 32 2f
        E 480 80 2b 5c
        E 15 90 37 4d
        E 15 80 32 2f
        E 465 90 32 4a
        E 465 80 37 4d
        E 0 80 32 4a
        E 15 90 2b 50
        E 480 90 32 37
        E 465 80 32 37
        E 15 80 2b 50
        E 15 90 37 4f
        E 465 90 32 40
        E 480 80 37 4f
        E 0 90 28 57
        E 15 80 32 40
        E 450 90 2f 32
        E 495 80 28 57
        E 0 80 2f 32
        E 0 90 34 4d
        E 960 80 34 4d
        E 0 90 28 51
        E 480 90 2f 3b
        E 465 80 28 46
        E 15 80 2f 2a
        E 0 90 34 4d
        E 960 80 34 4d
        E 15 90 28 50
        E 450 90 2f 33
        E 480 80 2f 33
        E 15 80 28 50
        E 0 90 34 40
        E 471 90 2f 20
        E 474 80 2f 20
        E 7 90 28 52
        E 23 80 34 40
        E 415 90 2f 3b
        E 515 80 2f 3b
        E 0 90 34 40
        E 15 80 28 52
        E 945 80 34 40
        E 15 90 29 4d
        E 465 90 30 1b
        E 480 80 29 4d
        E 0 90 35 35
        E 15 80 30 1b
        E 960 90 29 4a
        E 15 80 35 35
        E 465 90 30 2d
        E 465 80 30 2d
        E 15 80 29 4a
        E 0 90 35 24
        E 945 90 2b 52
        E 7 80 35 24
        E 503 90 32 2c
        E 450 80 2b 52
        E 0 90 37 31
        E 30 80 32 2c
        E 450 90 32 3e
        E 495 80 32 3e
        E 0 90 2b 50
        E 15 80 37 31
        E 450 90 32 33
        E 480 80 32 33
        E 15 90 37 36
        E 15 80 2b 50
        E 465 90 32 4b
        E 465 80 37 36
        E 0 80 32 4b
        E 0 90 34 59
        E 15 90 2d 5b
        E 1920 80 2d 3f
        E 0 90 2a 4d
        E 0 90 39 61
        E 15 80 34 59
        E 930 80 2a 4f
        E 0 90 2b 4f
        E 15 80 39 1f
        E 0 90 34 5d
        E 945 90 34 3f
        E 15 80 2b 4f
        E 0 80 34 1f
        E 0 90 2d 3f
        E 19 90 21 54
        E 431 80 34 3f
        E 480 90 34 41
        E 495 80 34 41
        E 360 80 2d 3f
        E 135 90 2d 42
        E 15 90 34 3a
        E 450 80 2d 42
        E 30 80 34 3a
        E 465 90 34 4a
        E 39 90 2d 4f
        E 441 80 34 4a
        E 0 80 2d 4f
        E 480 90 2d 3f
        E 0 90 34 3f
        E 15 80 21 54
        E 419 80 2d 3f
        E 46 80 34 3f
        E 0 90 39 6f
        E 480 80 39 4f
        E 0 90 34 41
        E 0 90 3b 47
        E 15 90 2d 45
        E 465 80 3b 47
        E 0 80 2d 45
        E 0 90 3c 52
        E 30 80 34 41
        E 420 80 3c 52
        E 0 90 2d 42
        E 15 90 34 38
        E 15 90 39 69
        E 450 80 2d 42
        E 30 80 34 38
        E 15 80 39 3c
        E 459 90 2d 4f
        E 6 90 34 40
        E 15 90 39 3c
        E 465 80 34 40
        E 0 80 39 3c
        E 1 90 39 56
        E 29 80 2d 4f
        E 420 90 29 5b
        E 0 90 2d 52
        E 30 80 39 3c
        E 20 90 39 53
        E 10 90 30 46
        E 435 80 39 53
        E 15 80 2d 52
        E 0 80 30 46
        E 15 90 32 4a
        E 15 90 3b 53
        E 420 80 32 4a
        E 30 90 2d 40
        E 0 90 35 4b
        E 30 80 3b 53
        E 0 90 39 27
        E 420 80 2d 40
        E 15 90 34 51
        E 30 80 39 27
        E 0 90 3c 4a
        E 15 80 35 4b
        E 420 90 35 2d
        E 15 80 3c 4a
        E 0 90 28 51
        E 15 80 29 5b
        E 0 80 34 51
        E 0 90 2d 3b
        E 465 80 2d 3b
        E 15 80 35 2d
        E 0 90 3c 51
        E 15 80 28 51
        E 435 90 3b 47
        E 30 90 29 6f
        E 0 90 2d 3a
        E 30 80 3c 35
        E 396 90 39 49
        E 39 80 29 42
        E 15 80 2d 3a
        E 39 80 3b 47
        E 426 80 39 49
        E 15 90 30 58
        E 15 90 29 58
        E 435 90 32 47
        E 15 80 30 58
        E 15 80 29 58
        E 15 90 39 45
        E 433 90 3b 4c
        E 8 80 32 47
        E 9 90 29 3b
        E 28 80 39 45
        E 6 90 26 3c
        E 429 90 39 45
        E 17 80 29 3b
        E 28 80 3b 4c
        E 2 80 26 3c
        E 448 80 39 45
        E 17 90 32 4d
        E 0 90 3e 6b
        E 2 90 35 4b
        E 28 90 26 4f
        E 430 90 3c 53
        E 7 80 26 4f
        E 11 80 3e 21
        E 2 80 35 21
        E 46 80 32 4d
        E 432 90 3b 51
        E 7 90 29 3d
        E 8 80 3c 53
        E 2 90 26 41
        E 480 80 29 3d
        E 0 80 26 41
        E 0 90 39 51
        E 13 80 3b 51
        E 437 90 2d 57
        E 15 80 39 51
        E 22 90 35 59
        E 8 90 3b 6a
        E 435 80 35 59
        E 15 80 2d 57
        E 450 90 35 47
        E 15 90 2d 4f
        E 15 90 3c 2a
        E 15 80 3b 5a
        E 435 80 2d 4f
        E 15 80 3c 2a
        E 15 80 35 47
        E 0 90 39 49
        E 465 90 34 4d
        E 30 90 2d 49
        E 450 80 34 4d
        E 15 80 2d 49
        E 480 90 34 49
        E 6 90 2d 3d
        E 444 80 34 49
        E 15 80 2d 3d
        E 491 90 2d 53
        E 4 80 39 49
        E 0 90 3b 4f
        E 18 90 35 3e
        E 459 80 2d 53
        E 3 90 39 49
        E 17 80 3b 4f
        E 7 80 35 3e
        E 441 90 3c 53
        E 30 80 39 49
        E 0 90 2d 4b
        E 0 90 35 49
        E 435 90 3b 4d
        E 30 80 2d 4b
        E 15 80 3c 53
        E 15 80 35 49
        E 435 90 2d 50
        E 15 90 34 53
        E 465 80 3b 4d
        E 15 90 39 51
        E 7 80 34 53
        E 8 80 2d 50
        E 450 90 34 49
        E 480 80 34 49
        E 480 90 3b 53
        E 30 80 39 51
        E 0 90 40 53
        E 15 90 2d 5c
        E 900 80 40 53
        E 14 80 3b 53
        E 1 80 2d 5c
        E 15 90 2d 4f
        E 0 90 37 51
        E 0 90 3b 42
        E 959 80 2d 4f
        E 1 80 3b 42
        E 0 90 2d 53
        E 0 90 34 51
        E 15 80 37 51
        E 15 90 39 4f
        E 435 90 28 4b
        E 485 80 28 4b
        E 10 80 2d 53
        E 36 90 2d 49
        E 444 80 2d 49
        E 29 90 28 48
        E 421 80 39 4f
        E 15 80 34 51
        E 0 80 28 48
        E 0 90 2d 46
        E 30 90 34 4b
        E 465 90 39 64
        E 480 80 39 4b
        E 0 90 37 51
        E 465 90 2b 46
        E 15 80 2d 31
        E 0 80 37 51
        E 480 80 2b 31
        E 15 80 34 4b
        E 0 90 2a 60
        E 15 90 30 53
        E 945 90 2b 4f
        E 15 80 2a 4e
        E 900 80 2b 4f
        E 16 80 30 00
        E 0 b0 7b 00
        GUID {A01DB822-E44B-4BFE-9E89-9C9D2011E0B8}
        IGNTEMPO 0 120 4 4
        SRCCOLOR 317
        VELLANE -1 100 0
        VELLANE -2 100 100
        CFGEDITVIEW 0 0 55 12 0 0 0 0 0 0.5
        KEYSNAP 0
        TRACKSEL 252
        EVTFILTER 0 -1 -1 -1 -1 0 0 0 0 -1 -1 -1 -1 0 -1 0 -1 -1
        CFGEDIT 1 0 0 1 1 1 1 1 1 1 1 0.125 257 16 1713 814 0 0 0 0 0 0 0 0 0 0.5 0 0 1 64
      >
    >
    <ITEM
      POSITION 109.99793516615759
      SNAPOFFS 0
      LENGTH 15.99042899930031
      LOOP 1
      ALLTAKES 0
      FADEIN 1 0 0 1 0 0
      FADEOUT 1 0 0 1 0 0
      MUTE 0
      COLOR 25135414 R
      SEL 0
      IGUID {7CA65AFC-3137-4306-B875-36F4C0E3B8C3}
      IID 11
      NAME "Then There was One - r/guitar - bridge (2)"
      VOLPAN 1 0 1 -1
      SOFFS 86.00206483384243 172.00412966768485
      PLAYRATE 1 1 0 -1 0 0.0025
      CHANMODE 0
      GUID {55A151E8-2B0B-43A5-BD6E-A693B25CDB65}
      <SOURCE MIDI
        HASDATA 1 960 QN
        POOLEDEVTS {80999A6A-8EA7-41D4-90AC-CF7E722C1633}
        <X 0 0 0 0 3 "EZkeys song"
          /wNFWmtleXMgc29uZw==
        >
        <X 0 0
          /wFCYXJPZmZzZXQgNDIgMC4wMDAwMDAgOC4wMDAwMDAgMTYuMDAwMA==
          MDAgMjAuMDAwMDAwIDI0LjAwMDAwMCA0MC4wMDAwMDAgNDguMDAwMA==
          MDAgNTIuMDAwMDAwIDU2LjAwMDAwMCA2NC4wMDAwMDAgNjguMDAwMA==
          MDAgNzIuMDAwMDAwIDgwLjAwMDAwMCA4NC4wMDAwMDAgODguMDAwMA==
          MDAgOTIuMDAwMDAwIDEwNC4wMDAwMDAgMTEyLjAwMDAwMCAxMTYuMA==
          MDAwMDAgMTIwLjAwMDAwMCAxMzYuMDAwMDAwIDE0NC4wMDAwMDAgMQ==
          NDguMDAwMDAwIDE1Mi4wMDAwMDAgMTYwLjAwMDAwMCAxNjQuMDAwMA==
          MDAgMTY4LjAwMDAwMCAxNzAuMDAwMDAwIDE3Mi4wMDAwMDAgMTc2Lg==
          MDAwMDAwIDE4MC4wMDAwMDAgMTg0LjAwMDAwMCAxODguMDAwMDAwIA==
          MTk2LjAwMDAwMCAyMDIuMDAwMDAwIDIwNC4wMDAwMDAgMjA4LjAwMA==
          MDAwIDIxMi4wMDAwMDAgMjE2LjAwMDAwMCAyMjAuMDAwMDAwIDIyNg==
          LjAwMDAwMCAyMjguMDAwMDAw
        >
        E 0 90 30 4d
        E 480 90 37 1b
        E 480 80 30 4d
        E 15 80 37 1b
        E 0 90 3c 35
        E 930 90 30 4a
        E 30 80 3c 35
        E 465 90 37 2d
        E 465 80 37 2d
        E 15 80 30 4a
        E 0 90 3c 24
        E 967 80 3c 24
        E 8 90 30 4e
        E 480 90 37 2c
        E 450 80 37 2c
        E 0 90 3c 31
        E 15 80 30 4e
        E 480 90 37 3e
        E 465 80 3c 31
        E 15 80 37 3e
        E 0 90 30 50
        E 465 90 37 33
        E 495 80 30 50
        E 0 90 3c 36
        E 15 80 37 33
        E 450 90 37 4b
        E 480 90 2d 51
        E 30 80 3c 36
        E 0 80 37 4b
        E 450 90 34 23
        E 495 80 34 23
        E 15 80 2d 51
        E 0 90 39 3a
        E 930 80 39 3a
        E 15 90 2d 4a
        E 480 90 34 3d
        E 480 80 2d 4a
        E 15 80 34 3d
        E 0 90 39 46
        E 960 80 39 46
        E 0 90 2d 45
        E 480 90 34 1f
        E 450 80 2d 45
        E 0 80 34 1f
        E 15 90 39 3a
        E 465 90 34 32
        E 480 80 39 3a
        E 15 80 34 32
        E 0 90 2d 50
        E 495 90 34 31
        E 465 80 2d 50
        E 0 80 34 31
        E 15 90 39 49
        E 450 90 34 55
        E 480 80 39 49
        E 15 90 29 4f
        E 15 80 34 55
        E 465 90 30 20
        E 465 80 30 20
        E 0 90 35 46
        E 30 80 29 4f
        E 945 80 35 46
        E 15 90 29 48
        E 465 90 30 53
        E 465 80 29 48
        E 15 80 30 53
        E 0 90 35 46
        E 975 80 35 46
        E 0 90 2b 58
        E 480 90 32 2f
        E 450 80 32 2f
        E 0 90 37 4d
        E 30 80 2b 58
        E 450 90 32 4a
        E 495 80 32 4a
        E 15 80 37 4d
        E 0 90 2b 50
        E 480 90 32 37
        E 480 80 2b 50
        E 0 80 32 37
        E 0 90 37 4f
        E 450 90 32 40
        E 495 80 37 4f
        E 0 80 32 40
        E 15 90 30 5c
        E 480 90 37 32
        E 465 80 37 32
        E 0 90 3c 4d
        E 15 80 30 5c
        E 930 80 3c 4d
        E 30 90 30 46
        E 450 90 37 2a
        E 480 90 3c 4d
        E 15 80 30 46
        E 0 80 37 2a
        E 975 80 3c 4d
        E 0 90 30 50
        E 480 90 37 33
        E 450 90 3c 40
        E 15 80 30 50
        E 0 80 37 33
        E 471 90 37 20
        E 474 80 3c 40
        E 0 80 37 20
        E 7 90 30 52
        E 468 90 37 3b
        E 485 90 3c 40
        E 15 80 30 52
        E 15 80 37 3b
        E 930 90 30 46
        E 15 80 3c 40
        E 480 90 37 1b
        E 465 80 37 1b
        E 15 80 30 46
        E 15 90 3c 35
        E 930 80 3c 35
        E 15 90 30 4a
        E 480 90 37 2d
        E 480 90 3c 24
        E 15 80 30 4a
        E 0 80 37 2d
        E 930 90 30 4e
        E 37 80 3c 24
        E 443 90 37 2c
        E 480 80 30 4e
        E 15 90 3c 31
        E 15 80 37 2c
        E 450 90 37 3e
        E 480 80 37 3e
        E 0 90 30 50
        E 15 80 3c 31
        E 465 90 37 33
        E 495 80 30 50
        E 0 90 3c 36
        E 15 80 37 33
        E 465 90 37 4b
        E 480 80 3c 36
        E 0 90 2d 51
        E 15 80 37 4b
        E 465 90 34 23
        E 480 90 39 3a
        E 15 80 2d 51
        E 0 80 34 23
        E 945 80 39 3a
        E 15 90 2d 4a
        E 450 90 34 3d
        E 495 80 2d 4a
        E 0 90 39 46
        E 15 80 34 3d
        E 945 80 39 46
        E 15 90 2d 45
        E 450 90 34 1f
        E 510 80 2d 45
        E 0 80 34 1f
        E 0 90 39 3a
        E 465 90 34 32
        E 465 80 34 32
        E 0 90 2d 50
        E 15 80 39 3a
        E 495 90 34 31
        E 450 90 39 49
        E 15 80 2d 50
        E 15 80 34 31
        E 465 90 34 55
        E 480 90 29 5b
        E 15 80 39 49
        E 0 80 34 55
        E 465 90 30 20
        E 480 80 30 20
        E 15 80 29 5b
        E 0 90 35 46
        E 930 80 35 46
        E 15 90 29 4b
        E 495 90 30 4e
        E 450 80 29 4b
        E 15 80 30 4e
        E 15 90 35 46
        E 945 90 2b 50
        E 15 80 35 46
        E 480 90 32 2f
        E 450 80 2b 50
        E 0 80 32 2f
        E 15 90 37 4d
        E 465 90 32 4a
        E 495 80 37 4d
        E 0 80 32 4a
        E 15 90 2b 50
        E 450 90 32 37
        E 480 80 32 37
        E 0 90 37 4f
        E 15 80 2b 50
        E 465 90 32 40
        E 480 80 37 4f
        E 0 80 32 40
        E 0 90 30 59
        E 480 90 37 32
        E 480 90 3c 4d
        E 15 80 30 59
        E 15 80 37 32
        E 945 90 30 46
        E 15 80 3c 4d
        E 465 90 37 2a
        E 480 80 30 46
        E 0 80 37 2a
        E 15 90 3c 4d
        E 930 90 30 50
        E 30 80 3c 4d
        E 465 90 37 33
        E 465 80 37 33
        E 15 80 30 50
        E 0 90 3c 40
        E 480 80 3c 40
        E 0 90 39 42
        E 240 80 39 20
        E 0 90 32 42
        E 0 90 37 42
        E 232 90 30 52
        E 8 80 37 20
        E 430 90 37 3b
        E 50 80 32 20
        E 465 80 30 52
        E 30 80 37 3b
        E 0 90 3c 40
        E 930 80 3c 40
        E 30 90 39 50
        E 930 90 41 4c
        E 30 80 39 50
        E 930 80 41 4c
        E 0 90 39 3f
        E 951 90 41 51
        E 39 80 39 3f
        E 930 80 41 51
        E 0 90 39 57
        E 480 90 3c 3f
        E 89 80 39 57
        E 391 90 41 50
        E 30 80 3c 3f
        E 930 90 39 4f
        E 15 80 41 50
        E 480 80 39 4f
        E 0 90 3c 53
        E 476 80 3c 53
        E 4 90 41 47
        E 975 80 41 47
        E 0 90 37 5b
        E 945 90 3e 4b
        E 15 80 37 5b
        E 945 80 3e 4b
        E 15 90 37 52
        E 930 80 37 52
        E 35 90 3e 4e
        E 925 80 3e 4e
        E 13 90 37 4f
        E 482 90 3b 55
        E 112 80 37 4f
        E 368 90 3e 49
        E 65 80 3b 55
        E 893 90 37 50
        E 17 80 3e 49
        E 465 90 3b 48
        E 142 80 37 50
        E 338 90 3e 53
        E 35 80 3b 48
        E 756 80 3e 53
        E 169 90 39 50
        E 960 90 41 51
        E 105 80 39 50
        E 855 80 41 51
        E 0 90 39 3f
        E 966 90 41 49
        E 9 80 39 3f
        E 930 90 39 57
        E 30 80 41 49
        E 450 90 3c 3f
        E 119 80 39 57
        E 361 80 3c 3f
        E 30 90 41 4a
        E 960 80 41 4a
        E 0 90 39 4f
        E 450 90 3c 53
        E 30 80 39 4f
        E 450 90 41 47
        E 26 80 3c 53
        E 934 90 3b 5b
        E 30 80 41 47
        E 465 90 3e 27
        E 135 80 3b 5b
        E 345 90 43 50
        E 15 80 3e 27
        E 945 90 3b 46
        E 15 80 43 50
        E 480 90 3e 27
        E 120 80 3b 46
        E 330 80 3e 27
        E 15 90 43 50
        E 960 80 43 50
        E 465 90 3c 4e
        E 480 80 3c 4e
        E 1 90 48 53
        E 29 90 37 4c
        E 1410 80 37 4c
        E 30 90 36 4a
        E 450 80 36 4a
        E 0 90 37 48
        E 975 80 37 48
        E 0 90 30 46
        E 15 80 48 53
        E 450 90 37 1b
        E 480 80 30 46
        E 30 80 37 1b
        E 0 90 3c 35
        E 945 90 30 4a
        E 15 80 3c 35
        E 450 90 37 2d
        E 480 80 30 4a
        E 30 80 37 2d
        E 0 90 3c 24
        E 930 90 30 49
        E 37 80 3c 24
        E 443 90 37 2c
        E 480 80 37 2c
        E 0 90 3c 31
        E 15 80 30 49
        E 495 90 37 5e
        E 465 80 3c 31
        E 0 90 30 50
        E 15 80 37 3e
        E 465 90 37 33
        E 465 80 30 50
        E 30 80 37 33
        E 0 90 3c 36
        E 450 90 37 4e
        E 480 80 37 4e
        E 0 90 2d 51
        E 30 80 3c 36
        E 465 90 34 23
        E 480 80 2d 51
        E 0 90 39 3a
        E 15 80 34 23
        E 930 80 39 3a
        E 30 90 2d 4a
        E 450 90 34 3d
        E 480 80 2d 4a
        E 15 80 34 3d
        E 0 90 39 46
        E 945 90 2d 45
        E 30 80 39 46
        E 465 90 34 1f
        E 465 80 2d 45
        E 0 90 39 3a
        E 30 80 34 1f
        E 480 90 34 32
        E 450 80 39 3a
        E 0 80 34 32
        E 15 90 2d 50
        E 480 90 34 31
        E 465 80 2d 50
        E 30 80 34 31
        E 0 90 39 49
        E 450 90 34 55
        E 480 80 34 55
        E 15 80 39 49
        E 15 90 29 5b
        E 465 90 30 20
        E 465 80 29 5b
        E 0 80 30 20
        E 0 90 35 46
        E 975 80 35 46
        E 15 90 29 52
        E 480 90 30 35
        E 465 80 30 35
        E 15 80 29 52
        E 0 90 35 46
        E 930 90 2b 50
        E 15 80 35 46
        E 465 90 32 2f
        E 480 80 2b 50
        E 30 80 32 2f
        E 0 90 37 4d
        E 480 90 32 4a
        E 450 80 37 4d
        E 0 80 32 4a
        E 30 90 2b 50
        E 450 90 32 37
        E 480 80 2b 50
        E 0 90 37 4f
        E 15 80 32 37
        E 465 90 32 40
        E 480 80 37 4f
        E 30 80 32 40
        E 0 90 30 53
        E 480 90 37 32
        E 465 80 30 53
        E 0 80 37 32
        E 15 90 3c 4d
        E 930 80 3c 4d
        E 30 90 30 46
        E 450 90 37 2a
        E 480 80 30 46
        E 15 80 37 2a
        E 15 90 3c 4d
        E 945 80 3c 4d
        E 15 90 30 50
        E 465 90 37 33
        E 495 80 30 50
        E 0 80 37 33
        E 0 90 3c 40
        E 486 90 37 20
        E 459 80 37 20
        E 7 90 30 52
        E 8 80 3c 40
        E 415 90 37 3b
        E 530 80 30 52
        E 15 80 37 3b
        E 0 90 3c 40
        E 945 90 30 46
        E 15 80 3c 40
        E 450 90 37 1b
        E 480 80 37 1b
        E 30 80 30 46
        E 0 90 3c 4d
        E 930 90 30 4a
        E 30 80 3c 35
        E 450 90 37 2d
        E 480 80 37 2d
        E 15 80 30 4a
        E 0 90 3c 4b
        E 952 80 3c 24
        E 8 90 30 4a
        E 480 90 37 2c
        E 465 80 37 2c
        E 0 90 3c 31
        E 30 80 30 4a
        E 465 90 37 3e
        E 465 80 37 3e
        E 0 90 30 50
        E 30 80 3c 31
        E 465 90 37 33
        E 480 80 30 50
        E 15 80 37 33
        E 0 90 3c 36
        E 465 90 37 4f
        E 465 80 37 4f
        E 15 80 3c 36
        E 15 90 2d 51
        E 465 90 34 23
        E 465 90 39 3a
        E 15 80 2d 51
        E 15 80 34 23
        E 930 90 2d 4a
        E 15 80 39 3a
        E 465 90 34 3d
        E 480 80 2d 4a
        E 0 90 39 46
        E 30 80 34 3d
        E 930 90 2d 45
        E 15 80 39 46
        E 495 90 34 1f
        E 450 90 39 3a
        E 15 80 2d 45
        E 15 80 34 1f
        E 450 90 34 32
        E 480 80 39 3a
        E 0 90 2d 50
        E 30 80 34 32
        E 480 90 34 31
        E 450 90 39 49
        E 15 80 2d 50
        E 0 80 34 31
        E 465 90 34 55
        E 480 80 39 49
        E 15 90 29 4f
        E 15 80 34 55
        E 450 90 30 20
        E 480 80 30 20
        E 0 90 35 46
        E 15 80 29 4f
        E 945 80 35 46
        E 0 90 29 52
        E 495 90 30 35
        E 465 80 30 35
        E 15 80 29 52
        E 15 90 35 46
        E 930 90 2b 5c
        E 15 80 35 46
        E 465 90 32 2f
        E 480 80 2b 5c
        E 15 90 37 4d
        E 15 80 32 2f
        E 465 90 32 4a
        E 465 80 37 4d
        E 0 80 32 4a
        E 15 90 2b 50
        E 480 90 32 37
        E 465 80 32 37
        E 15 80 2b 50
        E 15 90 37 4f
        E 465 90 32 40
        E 480 80 37 4f
        E 0 90 28 57
        E 15 80 32 40
        E 450 90 2f 32
        E 495 80 28 57
        E 0 80 2f 32
        E 0 90 34 4d
        E 960 80 34 4d
        E 0 90 28 51
        E 480 90 2f 3b
        E 465 80 28 46
        E 15 80 2f 2a
        E 0 90 34 4d
        E 960 80 34 4d
        E 15 90 28 50
        E 450 90 2f 33
        E 480 80 2f 33
        E 15 80 28 50
        E 0 90 34 40
        E 471 90 2f 20
        E 474 80 2f 20
        E 7 90 28 52
        E 23 80 34 40
        E 415 90 2f 3b
        E 515 80 2f 3b
        E 0 90 34 40
        E 15 80 28 52
        E 945 80 34 40
        E 15 90 29 4d
        E 465 90 30 1b
        E 480 80 29 4d
        E 0 90 35 35
        E 15 80 30 1b
        E 960 90 29 4a
        E 15 80 35 35
        E 465 90 30 2d
        E 465 80 30 2d
        E 15 80 29 4a
        E 0 90 35 24
        E 945 90 2b 52
        E 7 80 35 24
        E 503 90 32 2c
        E 450 80 2b 52
        E 0 90 37 31
        E 30 80 32 2c
        E 450 90 32 3e
        E 495 80 32 3e
        E 0 90 2b 50
        E 15 80 37 31
        E 450 90 32 33
        E 480 80 32 33
        E 15 90 37 36
        E 15 80 2b 50
        E 465 90 32 4b
        E 465 80 37 36
        E 0 80 32 4b
        E 0 90 34 59
        E 15 90 2d 5b
        E 1920 80 2d 3f
        E 0 90 2a 4d
        E 0 90 39 61
        E 15 80 34 59
        E 930 80 2a 4f
        E 0 90 2b 4f
        E 15 80 39 1f
        E 0 90 34 5d
        E 945 90 34 3f
        E 15 80 2b 4f
        E 0 80 34 1f
        E 0 90 2d 3f
        E 19 90 21 54
        E 431 80 34 3f
        E 480 90 34 41
        E 495 80 34 41
        E 360 80 2d 3f
        E 135 90 2d 42
        E 15 90 34 3a
        E 450 80 2d 42
        E 30 80 34 3a
        E 465 90 34 4a
        E 39 90 2d 4f
        E 441 80 34 4a
        E 0 80 2d 4f
        E 480 90 2d 3f
        E 0 90 34 3f
        E 15 80 21 54
        E 419 80 2d 3f
        E 46 80 34 3f
        E 0 90 39 6f
        E 480 80 39 4f
        E 0 90 34 41
        E 0 90 3b 47
        E 15 90 2d 45
        E 465 80 3b 47
        E 0 80 2d 45
        E 0 90 3c 52
        E 30 80 34 41
        E 420 80 3c 52
        E 0 90 2d 42
        E 15 90 34 38
        E 15 90 39 69
        E 450 80 2d 42
        E 30 80 34 38
        E 15 80 39 3c
        E 459 90 2d 4f
        E 6 90 34 40
        E 15 90 39 3c
        E 465 80 34 40
        E 0 80 39 3c
        E 1 90 39 56
        E 29 80 2d 4f
        E 420 90 29 5b
        E 0 90 2d 52
        E 30 80 39 3c
        E 20 90 39 53
        E 10 90 30 46
        E 435 80 39 53
        E 15 80 2d 52
        E 0 80 30 46
        E 15 90 32 4a
        E 15 90 3b 53
        E 420 80 32 4a
        E 30 90 2d 40
        E 0 90 35 4b
        E 30 80 3b 53
        E 0 90 39 27
        E 420 80 2d 40
        E 15 90 34 51
        E 30 80 39 27
        E 0 90 3c 4a
        E 15 80 35 4b
        E 420 90 35 2d
        E 15 80 3c 4a
        E 0 90 28 51
        E 15 80 29 5b
        E 0 80 34 51
        E 0 90 2d 3b
        E 465 80 2d 3b
        E 15 80 35 2d
        E 0 90 3c 51
        E 15 80 28 51
        E 435 90 3b 47
        E 30 90 29 6f
        E 0 90 2d 3a
        E 30 80 3c 35
        E 396 90 39 49
        E 39 80 29 42
        E 15 80 2d 3a
        E 39 80 3b 47
        E 426 80 39 49
        E 15 90 30 58
        E 15 90 29 58
        E 435 90 32 47
        E 15 80 30 58
        E 15 80 29 58
        E 15 90 39 45
        E 433 90 3b 4c
        E 8 80 32 47
        E 9 90 29 3b
        E 28 80 39 45
        E 6 90 26 3c
        E 429 90 39 45
        E 17 80 29 3b
        E 28 80 3b 4c
        E 2 80 26 3c
        E 448 80 39 45
        E 17 90 32 4d
        E 0 90 3e 6b
        E 2 90 35 4b
        E 28 90 26 4f
        E 430 90 3c 53
        E 7 80 26 4f
        E 11 80 3e 21
        E 2 80 35 21
        E 46 80 32 4d
        E 432 90 3b 51
        E 7 90 29 3d
        E 8 80 3c 53
        E 2 90 26 41
        E 480 80 29 3d
        E 0 80 26 41
        E 0 90 39 51
        E 13 80 3b 51
        E 437 90 2d 57
        E 15 80 39 51
        E 22 90 35 59
        E 8 90 3b 6a
        E 435 80 35 59
        E 15 80 2d 57
        E 450 90 35 47
        E 15 90 2d 4f
        E 15 90 3c 2a
        E 15 80 3b 5a
        E 435 80 2d 4f
        E 15 80 3c 2a
        E 15 80 35 47
        E 0 90 39 49
        E 465 90 34 4d
        E 30 90 2d 49
        E 450 80 34 4d
        E 15 80 2d 49
        E 480 90 34 49
        E 6 90 2d 3d
        E 444 80 34 49
        E 15 80 2d 3d
        E 491 90 2d 53
        E 4 80 39 49
        E 0 90 3b 4f
        E 18 90 35 3e
        E 459 80 2d 53
        E 3 90 39 49
        E 17 80 3b 4f
        E 7 80 35 3e
        E 441 90 3c 53
        E 30 80 39 49
        E 0 90 2d 4b
        E 0 90 35 49
        E 435 90 3b 4d
        E 30 80 2d 4b
        E 15 80 3c 53
        E 15 80 35 49
        E 435 90 2d 50
        E 15 90 34 53
        E 465 80 3b 4d
        E 15 90 39 51
        E 7 80 34 53
        E 8 80 2d 50
        E 450 90 34 49
        E 480 80 34 49
        E 480 90 3b 53
        E 30 80 39 51
        E 0 90 40 53
        E 15 90 2d 5c
        E 900 80 40 53
        E 14 80 3b 53
        E 1 80 2d 5c
        E 15 90 2d 4f
        E 0 90 37 51
        E 0 90 3b 42
        E 959 80 2d 4f
        E 1 80 3b 42
        E 0 90 2d 53
        E 0 90 34 51
        E 15 80 37 51
        E 15 90 39 4f
        E 435 90 28 4b
        E 485 80 28 4b
        E 10 80 2d 53
        E 36 90 2d 49
        E 444 80 2d 49
        E 29 90 28 48
        E 421 80 39 4f
        E 15 80 34 51
        E 0 80 28 48
        E 0 90 2d 46
        E 30 90 34 4b
        E 465 90 39 64
        E 480 80 39 4b
        E 0 90 37 51
        E 465 90 2b 46
        E 15 80 2d 31
        E 0 80 37 51
        E 480 80 2b 31
        E 15 80 34 4b
        E 0 90 2a 60
        E 15 90 30 53
        E 945 90 2b 4f
        E 15 80 2a 4e
        E 900 80 2b 4f
        E 16 80 30 00
        E 0 b0 7b 00
        GUID {A01DB822-E44B-4BFE-9E89-9C9D2011E0B8}
        IGNTEMPO 0 120 4 4
        SRCCOLOR 317
        VELLANE -1 100 0
        VELLANE -2 100 100
        CFGEDITVIEW 0 0 55 12 0 0 0 0 0 0.5
        KEYSNAP 0
        TRACKSEL 252
        EVTFILTER 0 -1 -1 -1 -1 0 0 0 0 -1 -1 -1 -1 0 -1 0 -1 -1
        CFGEDIT 1 0 0 1 1 1 1 1 1 1 1 0.125 257 16 1713 814 0 0 0 0 0 0 0 0 0 0.5 0 0 1 64
      >
    >
    <ITEM
      POSITION 125.99793516615759
      SNAPOFFS 0
      LENGTH 1.97994377535757
      LOOP 1
      ALLTAKES 0
      FADEIN 1 0 0 1 0 0
      FADEOUT 1 0 0 1 0 0
      MUTE 0
      COLOR 29360000 R
      SEL 0
      IGUID {A5D2AAA0-3838-4BF6-AF40-7F6B9F825BEC}
      IID 11
      NAME "Then There was One - r/guitar - transition to bridge"
      VOLPAN 1 0 1 -1
      SOFFS 84.02212105848483 168.04424211696966
      PLAYRATE 1 1 0 -1 0 0.0025
      CHANMODE 0
      GUID {7D00DC9A-FECB-49E1-81E2-1D3BF8375D97}
      <SOURCE MIDI
        HASDATA 1 960 QN
        POOLEDEVTS {86173CBA-5E39-428B-8BF2-A070A97457F8}
        <X 0 0 0 0 3 "EZkeys song"
          /wNFWmtleXMgc29uZw==
        >
        <X 0 0
          /wFCYXJPZmZzZXQgNDIgMC4wMDAwMDAgOC4wMDAwMDAgMTYuMDAwMA==
          MDAgMjAuMDAwMDAwIDI0LjAwMDAwMCA0MC4wMDAwMDAgNDguMDAwMA==
          MDAgNTIuMDAwMDAwIDU2LjAwMDAwMCA2NC4wMDAwMDAgNjguMDAwMA==
          MDAgNzIuMDAwMDAwIDgwLjAwMDAwMCA4NC4wMDAwMDAgODguMDAwMA==
          MDAgOTIuMDAwMDAwIDEwNC4wMDAwMDAgMTEyLjAwMDAwMCAxMTYuMA==
          MDAwMDAgMTIwLjAwMDAwMCAxMzYuMDAwMDAwIDE0NC4wMDAwMDAgMQ==
          NDguMDAwMDAwIDE1Mi4wMDAwMDAgMTYwLjAwMDAwMCAxNjQuMDAwMA==
          MDAgMTY4LjAwMDAwMCAxNzAuMDAwMDAwIDE3Mi4wMDAwMDAgMTc2Lg==
          MDAwMDAwIDE4MC4wMDAwMDAgMTg0LjAwMDAwMCAxODguMDAwMDAwIA==
          MTk2LjAwMDAwMCAyMDIuMDAwMDAwIDIwNC4wMDAwMDAgMjA4LjAwMA==
          MDAwIDIxMi4wMDAwMDAgMjE2LjAwMDAwMCAyMjAuMDAwMDAwIDIyNg==
          LjAwMDAwMCAyMjguMDAwMDAw
        >
        E 0 90 30 4d
        E 480 90 37 1b
        E 480 80 30 4d
        E 15 80 37 1b
        E 0 90 3c 35
        E 930 90 30 4a
        E 30 80 3c 35
        E 465 90 37 2d
        E 465 80 37 2d
        E 15 80 30 4a
        E 0 90 3c 24
        E 967 80 3c 24
        E 8 90 30 4e
        E 480 90 37 2c
        E 450 80 37 2c
        E 0 90 3c 31
        E 15 80 30 4e
        E 480 90 37 3e
        E 465 80 3c 31
        E 15 80 37 3e
        E 0 90 30 50
        E 465 90 37 33
        E 495 80 30 50
        E 0 90 3c 36
        E 15 80 37 33
        E 450 90 37 4b
        E 480 90 2d 51
        E 30 80 3c 36
        E 0 80 37 4b
        E 450 90 34 23
        E 495 80 34 23
        E 15 80 2d 51
        E 0 90 39 3a
        E 930 80 39 3a
        E 15 90 2d 4a
        E 480 90 34 3d
        E 480 80 2d 4a
        E 15 80 34 3d
        E 0 90 39 46
        E 960 80 39 46
        E 0 90 2d 45
        E 480 90 34 1f
        E 450 80 2d 45
        E 0 80 34 1f
        E 15 90 39 3a
        E 465 90 34 32
        E 480 80 39 3a
        E 15 80 34 32
        E 0 90 2d 50
        E 495 90 34 31
        E 465 80 2d 50
        E 0 80 34 31
        E 15 90 39 49
        E 450 90 34 55
        E 480 80 39 49
        E 15 90 29 4f
        E 15 80 34 55
        E 465 90 30 20
        E 465 80 30 20
        E 0 90 35 46
        E 30 80 29 4f
        E 945 80 35 46
        E 15 90 29 48
        E 465 90 30 53
        E 465 80 29 48
        E 15 80 30 53
        E 0 90 35 46
        E 975 80 35 46
        E 0 90 2b 58
        E 480 90 32 2f
        E 450 80 32 2f
        E 0 90 37 4d
        E 30 80 2b 58
        E 450 90 32 4a
        E 495 80 32 4a
        E 15 80 37 4d
        E 0 90 2b 50
        E 480 90 32 37
        E 480 80 2b 50
        E 0 80 32 37
        E 0 90 37 4f
        E 450 90 32 40
        E 495 80 37 4f
        E 0 80 32 40
        E 15 90 30 5c
        E 480 90 37 32
        E 465 80 37 32
        E 0 90 3c 4d
        E 15 80 30 5c
        E 930 80 3c 4d
        E 30 90 30 46
        E 450 90 37 2a
        E 480 90 3c 4d
        E 15 80 30 46
        E 0 80 37 2a
        E 975 80 3c 4d
        E 0 90 30 50
        E 480 90 37 33
        E 450 90 3c 40
        E 15 80 30 50
        E 0 80 37 33
        E 471 90 37 20
        E 474 80 3c 40
        E 0 80 37 20
        E 7 90 30 52
        E 468 90 37 3b
        E 485 90 3c 40
        E 15 80 30 52
        E 15 80 37 3b
        E 930 90 30 46
        E 15 80 3c 40
        E 480 90 37 1b
        E 465 80 37 1b
        E 15 80 30 46
        E 15 90 3c 35
        E 930 80 3c 35
        E 15 90 30 4a
        E 480 90 37 2d
        E 480 90 3c 24
        E 15 80 30 4a
        E 0 80 37 2d
        E 930 90 30 4e
        E 37 80 3c 24
        E 443 90 37 2c
        E 480 80 30 4e
        E 15 90 3c 31
        E 15 80 37 2c
        E 450 90 37 3e
        E 480 80 37 3e
        E 0 90 30 50
        E 15 80 3c 31
        E 465 90 37 33
        E 495 80 30 50
        E 0 90 3c 36
        E 15 80 37 33
        E 465 90 37 4b
        E 480 80 3c 36
        E 0 90 2d 51
        E 15 80 37 4b
        E 465 90 34 23
        E 480 90 39 3a
        E 15 80 2d 51
        E 0 80 34 23
        E 945 80 39 3a
        E 15 90 2d 4a
        E 450 90 34 3d
        E 495 80 2d 4a
        E 0 90 39 46
        E 15 80 34 3d
        E 945 80 39 46
        E 15 90 2d 45
        E 450 90 34 1f
        E 510 80 2d 45
        E 0 80 34 1f
        E 0 90 39 3a
        E 465 90 34 32
        E 465 80 34 32
        E 0 90 2d 50
        E 15 80 39 3a
        E 495 90 34 31
        E 450 90 39 49
        E 15 80 2d 50
        E 15 80 34 31
        E 465 90 34 55
        E 480 90 29 5b
        E 15 80 39 49
        E 0 80 34 55
        E 465 90 30 20
        E 480 80 30 20
        E 15 80 29 5b
        E 0 90 35 46
        E 930 80 35 46
        E 15 90 29 4b
        E 495 90 30 4e
        E 450 80 29 4b
        E 15 80 30 4e
        E 15 90 35 46
        E 945 90 2b 50
        E 15 80 35 46
        E 480 90 32 2f
        E 450 80 2b 50
        E 0 80 32 2f
        E 15 90 37 4d
        E 465 90 32 4a
        E 495 80 37 4d
        E 0 80 32 4a
        E 15 90 2b 50
        E 450 90 32 37
        E 480 80 32 37
        E 0 90 37 4f
        E 15 80 2b 50
        E 465 90 32 40
        E 480 80 37 4f
        E 0 80 32 40
        E 0 90 30 59
        E 480 90 37 32
        E 480 90 3c 4d
        E 15 80 30 59
        E 15 80 37 32
        E 945 90 30 46
        E 15 80 3c 4d
        E 465 90 37 2a
        E 480 80 30 46
        E 0 80 37 2a
        E 15 90 3c 4d
        E 930 90 30 50
        E 30 80 3c 4d
        E 465 90 37 33
        E 465 80 37 33
        E 15 80 30 50
        E 0 90 3c 40
        E 480 80 3c 40
        E 0 90 39 42
        E 240 80 39 20
        E 0 90 32 42
        E 0 90 37 42
        E 232 90 30 52
        E 8 80 37 20
        E 430 90 37 3b
        E 50 80 32 20
        E 465 80 30 52
        E 30 80 37 3b
        E 0 90 3c 40
        E 930 80 3c 40
        E 30 90 39 50
        E 930 90 41 4c
        E 30 80 39 50
        E 930 80 41 4c
        E 0 90 39 3f
        E 951 90 41 51
        E 39 80 39 3f
        E 930 80 41 51
        E 0 90 39 57
        E 480 90 3c 3f
        E 89 80 39 57
        E 391 90 41 50
        E 30 80 3c 3f
        E 930 90 39 4f
        E 15 80 41 50
        E 480 80 39 4f
        E 0 90 3c 53
        E 476 80 3c 53
        E 4 90 41 47
        E 975 80 41 47
        E 0 90 37 5b
        E 945 90 3e 4b
        E 15 80 37 5b
        E 945 80 3e 4b
        E 15 90 37 52
        E 930 80 37 52
        E 35 90 3e 4e
        E 925 80 3e 4e
        E 13 90 37 4f
        E 482 90 3b 55
        E 112 80 37 4f
        E 368 90 3e 49
        E 65 80 3b 55
        E 893 90 37 50
        E 17 80 3e 49
        E 465 90 3b 48
        E 142 80 37 50
        E 338 90 3e 53
        E 35 80 3b 48
        E 756 80 3e 53
        E 169 90 39 50
        E 960 90 41 51
        E 105 80 39 50
        E 855 80 41 51
        E 0 90 39 3f
        E 966 90 41 49
        E 9 80 39 3f
        E 930 90 39 57
        E 30 80 41 49
        E 450 90 3c 3f
        E 119 80 39 57
        E 361 80 3c 3f
        E 30 90 41 4a
        E 960 80 41 4a
        E 0 90 39 4f
        E 450 90 3c 53
        E 30 80 39 4f
        E 450 90 41 47
        E 26 80 3c 53
        E 934 90 3b 5b
        E 30 80 41 47
        E 465 90 3e 27
        E 135 80 3b 5b
        E 345 90 43 50
        E 15 80 3e 27
        E 945 90 3b 46
        E 15 80 43 50
        E 480 90 3e 27
        E 120 80 3b 46
        E 330 80 3e 27
        E 15 90 43 50
        E 960 80 43 50
        E 465 90 3c 4e
        E 480 80 3c 4e
        E 1 90 48 53
        E 29 90 37 4c
        E 1410 80 37 4c
        E 30 90 36 4a
        E 450 80 36 4a
        E 0 90 37 48
        E 975 80 37 48
        E 0 90 30 46
        E 15 80 48 53
        E 450 90 37 1b
        E 480 80 30 46
        E 30 80 37 1b
        E 0 90 3c 35
        E 945 90 30 4a
        E 15 80 3c 35
        E 450 90 37 2d
        E 480 80 30 4a
        E 30 80 37 2d
        E 0 90 3c 24
        E 930 90 30 49
        E 37 80 3c 24
        E 443 90 37 2c
        E 480 80 37 2c
        E 0 90 3c 31
        E 15 80 30 49
        E 495 90 37 5e
        E 465 80 3c 31
        E 0 90 30 50
        E 15 80 37 3e
        E 465 90 37 33
        E 465 80 30 50
        E 30 80 37 33
        E 0 90 3c 36
        E 450 90 37 4e
        E 480 80 37 4e
        E 0 90 2d 51
        E 30 80 3c 36
        E 465 90 34 23
        E 480 80 2d 51
        E 0 90 39 3a
        E 15 80 34 23
        E 930 80 39 3a
        E 30 90 2d 4a
        E 450 90 34 3d
        E 480 80 2d 4a
        E 15 80 34 3d
        E 0 90 39 46
        E 945 90 2d 45
        E 30 80 39 46
        E 465 90 34 1f
        E 465 80 2d 45
        E 0 90 39 3a
        E 30 80 34 1f
        E 480 90 34 32
        E 450 80 39 3a
        E 0 80 34 32
        E 15 90 2d 50
        E 480 90 34 31
        E 465 80 2d 50
        E 30 80 34 31
        E 0 90 39 49
        E 450 90 34 55
        E 480 80 34 55
        E 15 80 39 49
        E 15 90 29 5b
        E 465 90 30 20
        E 465 80 29 5b
        E 0 80 30 20
        E 0 90 35 46
        E 975 80 35 46
        E 15 90 29 52
        E 480 90 30 35
        E 465 80 30 35
        E 15 80 29 52
        E 0 90 35 46
        E 930 90 2b 50
        E 15 80 35 46
        E 465 90 32 2f
        E 480 80 2b 50
        E 30 80 32 2f
        E 0 90 37 4d
        E 480 90 32 4a
        E 450 80 37 4d
        E 0 80 32 4a
        E 30 90 2b 50
        E 450 90 32 37
        E 480 80 2b 50
        E 0 90 37 4f
        E 15 80 32 37
        E 465 90 32 40
        E 480 80 37 4f
        E 30 80 32 40
        E 0 90 30 53
        E 480 90 37 32
        E 465 80 30 53
        E 0 80 37 32
        E 15 90 3c 4d
        E 930 80 3c 4d
        E 30 90 30 46
        E 450 90 37 2a
        E 480 80 30 46
        E 15 80 37 2a
        E 15 90 3c 4d
        E 945 80 3c 4d
        E 15 90 30 50
        E 465 90 37 33
        E 495 80 30 50
        E 0 80 37 33
        E 0 90 3c 40
        E 486 90 37 20
        E 459 80 37 20
        E 7 90 30 52
        E 8 80 3c 40
        E 415 90 37 3b
        E 530 80 30 52
        E 15 80 37 3b
        E 0 90 3c 40
        E 945 90 30 46
        E 15 80 3c 40
        E 450 90 37 1b
        E 480 80 37 1b
        E 30 80 30 46
        E 0 90 3c 4d
        E 930 90 30 4a
        E 30 80 3c 35
        E 450 90 37 2d
        E 480 80 37 2d
        E 15 80 30 4a
        E 0 90 3c 4b
        E 952 80 3c 24
        E 8 90 30 4a
        E 480 90 37 2c
        E 465 80 37 2c
        E 0 90 3c 31
        E 30 80 30 4a
        E 465 90 37 3e
        E 465 80 37 3e
        E 0 90 30 50
        E 30 80 3c 31
        E 465 90 37 33
        E 480 80 30 50
        E 15 80 37 33
        E 0 90 3c 36
        E 465 90 37 4f
        E 465 80 37 4f
        E 15 80 3c 36
        E 15 90 2d 51
        E 465 90 34 23
        E 465 90 39 3a
        E 15 80 2d 51
        E 15 80 34 23
        E 930 90 2d 4a
        E 15 80 39 3a
        E 465 90 34 3d
        E 480 80 2d 4a
        E 0 90 39 46
        E 30 80 34 3d
        E 930 90 2d 45
        E 15 80 39 46
        E 495 90 34 1f
        E 450 90 39 3a
        E 15 80 2d 45
        E 15 80 34 1f
        E 450 90 34 32
        E 480 80 39 3a
        E 0 90 2d 50
        E 30 80 34 32
        E 480 90 34 31
        E 450 90 39 49
        E 15 80 2d 50
        E 0 80 34 31
        E 465 90 34 55
        E 480 80 39 49
        E 15 90 29 4f
        E 15 80 34 55
        E 450 90 30 20
        E 480 80 30 20
        E 0 90 35 46
        E 15 80 29 4f
        E 945 80 35 46
        E 0 90 29 52
        E 495 90 30 35
        E 465 80 30 35
        E 15 80 29 52
        E 15 90 35 46
        E 930 90 2b 5c
        E 15 80 35 46
        E 465 90 32 2f
        E 480 80 2b 5c
        E 15 90 37 4d
        E 15 80 32 2f
        E 465 90 32 4a
        E 465 80 37 4d
        E 0 80 32 4a
        E 15 90 2b 50
        E 480 90 32 37
        E 465 80 32 37
        E 15 80 2b 50
        E 15 90 37 4f
        E 465 90 32 40
        E 480 80 37 4f
        E 0 90 28 57
        E 15 80 32 40
        E 450 90 2f 32
        E 495 80 28 57
        E 0 80 2f 32
        E 0 90 34 4d
        E 960 80 34 4d
        E 0 90 28 51
        E 480 90 2f 3b
        E 465 80 28 46
        E 15 80 2f 2a
        E 0 90 34 4d
        E 960 80 34 4d
        E 15 90 28 50
        E 450 90 2f 33
        E 480 80 2f 33
        E 15 80 28 50
        E 0 90 34 40
        E 471 90 2f 20
        E 474 80 2f 20
        E 7 90 28 52
        E 23 80 34 40
        E 415 90 2f 3b
        E 515 80 2f 3b
        E 0 90 34 40
        E 15 80 28 52
        E 945 80 34 40
        E 15 90 29 4d
        E 465 90 30 1b
        E 480 80 29 4d
        E 0 90 35 35
        E 15 80 30 1b
        E 960 90 29 4a
        E 15 80 35 35
        E 465 90 30 2d
        E 465 80 30 2d
        E 15 80 29 4a
        E 0 90 35 24
        E 945 90 2b 52
        E 7 80 35 24
        E 503 90 32 2c
        E 450 80 2b 52
        E 0 90 37 31
        E 30 80 32 2c
        E 450 90 32 3e
        E 495 80 32 3e
        E 0 90 2b 50
        E 15 80 37 31
        E 450 90 32 33
        E 480 80 32 33
        E 15 90 37 36
        E 15 80 2b 50
        E 465 90 32 4b
        E 465 80 37 36
        E 0 80 32 4b
        E 0 90 34 59
        E 15 90 2d 5b
        E 1920 80 2d 3f
        E 0 90 2a 4d
        E 0 90 39 61
        E 15 80 34 59
        E 930 80 2a 4f
        E 0 90 2b 4f
        E 15 80 39 1f
        E 0 90 34 5d
        E 945 90 34 3f
        E 15 80 2b 4f
        E 0 80 34 1f
        E 0 90 2d 3f
        E 4 80 2d 00
        E 0 b0 7b 00
        GUID {1963BCB1-2A6B-4D4D-96B9-00F2E3AD233F}
        IGNTEMPO 0 120 4 4
        SRCCOLOR 316
        VELLANE -1 100 0
        VELLANE -2 100 100
        CFGEDITVIEW 0 0.002616 55 12 0 0 0 0 0 0.5
        KEYSNAP 0
        TRACKSEL 252
        EVTFILTER 0 -1 -1 -1 -1 0 0 0 0 -1 -1 -1 -1 0 -1 0 -1 -1
        CFGEDIT 1 0 0 1 1 1 1 1 1 1 1 0.125 257 16 1713 814 0 0 0 0 0 0 0 0 0 0.5 0 0 1 64
      >
    >
    <ITEM
      POSITION 127.97787894151516
      SNAPOFFS 0
      LENGTH 16
      LOOP 1
      ALLTAKES 0
      FADEIN 1 0 0 1 0 0
      FADEOUT 1 0 0 1 0 0
      MUTE 0
      COLOR 32543009 R
      SEL 0
      IGUID {AB217F5D-CE07-4AB1-800C-0397926F7B81}
      IID 64
      NAME "02-Dimension Pro-Recorded MIDI glued"
      VOLPAN 1 0 1 -1
      SOFFS 0 0
      PLAYRATE 1 1 0 -1 0 0.0025
      CHANMODE 0
      GUID {C0F760D3-4A05-4013-A393-64ED59F08BCA}
      <SOURCE MIDI
        HASDATA 1 960 QN
        POOLEDEVTS {335F439C-13A7-4AA3-8B95-545EBD9B5F4F}
        E 0 80 3c 1d
        E 960 90 3c 66
        E 0 90 45 66
        E 480 90 41 5b
        E 480 80 3c 32
        E 0 80 45 32
        E 0 90 41 00
        E 0 90 41 66
        E 0 90 45 66
        E 480 80 41 20
        E 360 80 45 32
        E 125 90 48 6f
        E 475 80 48 38
        E 480 90 45 64
        E 0 90 48 6c
        E 1440 80 45 32
        E 0 80 48 32
        E 0 90 43 50
        E 0 90 47 69
        E 1440 90 41 5d
        E 0 90 45 4f
        E 878 80 47 46
        E 20 80 43 32
        E 809 80 41 3a
        E 9 80 45 45
        E 204 90 43 55
        E 390 80 43 2d
        E 570 90 40 5f
        E 6 90 43 5b
        E 1554 80 40 38
        E 120 80 43 34
        E 240 90 3e 53
        E 0 90 41 66
        E 1440 90 3c 4a
        E 480 90 40 61
        E 120 80 3e 34
        E 0 80 41 46
        E 960 80 40 55
        E 840 80 3c 37
        E 960 90 3c 66
        E 0 90 45 66
        E 480 90 41 5b
        E 480 80 3c 32
        E 0 80 45 32
        E 0 90 41 00
        E 0 90 41 66
        E 0 90 45 66
        E 480 80 41 20
        E 360 80 45 32
        E 125 90 48 6f
        E 475 80 48 38
        E 480 90 45 64
        E 0 90 48 6c
        E 1440 80 45 32
        E 0 80 48 32
        E 0 90 43 50
        E 0 90 47 69
        E 1440 90 41 5d
        E 0 90 45 4f
        E 878 80 47 46
        E 20 80 43 32
        E 809 80 41 3a
        E 9 80 45 45
        E 204 90 43 55
        E 390 80 43 2d
        E 570 90 40 5f
        E 6 90 43 5b
        E 1554 80 40 38
        E 120 80 43 34
        E 240 90 3e 4f
        E 0 90 45 4f
        E 1716 80 3e 45
        E 204 80 45 45
        E 0 90 40 4f
        E 0 90 47 4f
        E 1920 80 40 00
        E 0 80 47 00
        E 0 b0 7b 00
        GUID {59A32476-01F5-45F7-8A7C-18163108D36F}
        IGNTEMPO 0 120 4 4
        SRCCOLOR 434
        VELLANE -1 100 0
        VELLANE -2 100 100
      >
    >
    <ITEM
      POSITION 175.99793516615756
      SNAPOFFS 0
      LENGTH 16.81468329334331
      LOOP 1
      ALLTAKES 0
      FADEIN 1 0 0 1 0 0
      FADEOUT 1 0 0 1 0 0
      MUTE 0
      COLOR 32543009 R
      SEL 0
      IGUID {B88F5D52-2C16-4626-9D33-0E7EDC2AB5E5}
      IID 64
      NAME "02-Dimension Pro-Recorded MIDI glued"
      VOLPAN 1 0 1 -1
      SOFFS 0 0
      PLAYRATE 1 1 0 -1 0 0.0025
      CHANMODE 0
      GUID {8E8ECC2B-293D-4674-9C2D-B92B1DE04F30}
      <SOURCE MIDI
        HASDATA 1 960 QN
        POOLEDEVTS {0E133EC8-F2CD-46DE-B51A-816F1DE980B2}
        E 960 90 3c 66
        E 0 90 45 66
        E 480 90 41 5b
        E 480 80 3c 32
        E 0 80 45 32
        E 0 90 41 00
        E 0 90 41 66
        E 0 90 45 66
        E 480 80 41 20
        E 360 80 45 32
        E 125 90 48 6f
        E 475 80 48 38
        E 480 90 45 64
        E 0 90 48 6c
        E 1440 80 45 32
        E 0 80 48 32
        E 0 90 43 50
        E 0 90 47 69
        E 1440 90 41 5d
        E 0 90 45 4f
        E 878 80 47 46
        E 20 80 43 32
        E 809 80 41 3a
        E 9 80 45 45
        E 204 90 43 55
        E 390 80 43 2d
        E 570 90 40 5f
        E 6 90 43 5b
        E 1554 80 40 38
        E 120 80 43 34
        E 240 90 3e 53
        E 0 90 41 66
        E 1440 90 3c 4a
        E 480 90 40 61
        E 120 80 3e 34
        E 0 80 41 46
        E 960 80 40 55
        E 840 80 3c 37
        E 960 90 3c 66
        E 0 90 45 66
        E 480 90 41 5b
        E 480 80 3c 32
        E 0 80 45 32
        E 0 90 41 00
        E 0 90 41 66
        E 0 90 45 66
        E 480 80 41 20
        E 360 80 45 32
        E 125 90 48 6f
        E 475 80 48 38
        E 480 90 45 64
        E 0 90 48 6c
        E 1440 80 45 32
        E 0 80 48 32
        E 0 90 47 69
        E 1440 80 47 46
        E 0 90 41 5d
        E 0 90 48 4f
        E 924 90 3c 4f
        E 36 80 41 3a
        E 0 80 48 45
        E 0 90 40 5f
        E 6 90 48 5b
        E 1434 90 41 4f
        E 120 80 40 38
        E 120 80 3c 45
        E 0 80 48 34
        E 1200 80 41 45
        E 0 90 43 4f
        E 0 90 48 4f
        E 924 90 3c 4f
        E 36 80 43 00
        E 0 80 48 00
        E 0 90 40 4f
        E 960 80 3c 45
        E 0 80 40 00
        e 444 90 3c 4f
        e 36 90 40 4f
        e 3840 80 3c 45
        e 0 80 40 00
        E 120 b0 7b 00
        GUID {59A32476-01F5-45F7-8A7C-18163108D36F}
        IGNTEMPO 0 120 4 4
        SRCCOLOR 434
        VELLANE -1 100 0
        VELLANE -2 100 100
        CFGEDITVIEW 9600 0.033216 55 12 0 0 0 0 0 0.5
        KEYSNAP 0
        TRACKSEL 252
        EVTFILTER 0 -1 -1 -1 -1 0 0 0 0 -1 -1 -1 -1 0 -1 0 -1 -1
        CFGEDIT 1 0 0 1 1 1 1 1 1 1 1 0.125 273 32 1713 814 0 0 0 0 0 0 0 0 0 0.5 0 0 1 64
      >
    >
  >
  <TRACK {C2D269B8-B72E-41ED-A52C-A941125F4966}
    NAME drums
    PEAKCOL 16576
    BEAT -1
    AUTOMODE 0
    VOLPAN 1.23169460501479 0 -1 -1 1
    MUTESOLO 0 0 0
    IPHASE 0
    ISBUS 0 0
    BUSCOMP 0 0
    SHOWINMIX 1 0.6667 0.5 1 0.5 0 0 0
    FREEMODE 0
    SEL 0
    REC 0 5088 1 0 0 0 0
    VU 2
    TRACKHEIGHT 0 0 0
    INQ 0 0 0 0.5 100 0 0 100
    NCHAN 2
    FX 1
    TRACKID {C2D269B8-B72E-41ED-A52C-A941125F4966}
    PERF 0
    MIDIOUT -1
    MAINSEND 1 0
    <FXCHAIN
      WNDRECT 486 94 1146 773
      SHOW 2
      LASTSEL 1
      DOCKED 0
      BYPASS 0 0 0
      <VST "VST: ReaEQ (Cockos)" reaeq.dll 0 "" 1919247729<56535472656571726561657100000000> ""
        cWVlcu5e7f4CAAAAAQAAAAAAAAACAAAAAAAAAAIAAAABAAAAAAAAAAIAAAAAAAAAqAAAAAEAAAAAABAA
        IQAAAAQAAAAIAAAAAQAAAAAAAAAAAFlAAAAAAAAA8D8AAAAAAAAAQAEIAAAAAQAAAAAAAAAAwHJAAAAAAAAA8D8AAAAAAAAAQAEIAAAAAQAAAAAAAAAAQI9AAAAAAAAA
        8D8AAAAAAAAAQAEBAAAAAQAAAAAAAAAAiLNAAAAAAAAA8D8AAAAAAAAAQAEBAAAAAQAAABSNEWHKTgFAAAAAAA8CAABhAQAA
        AAAQAAAA
      >
      FLOATPOS 0 0 0 0
      FXID {3F0135D8-1CBD-44C1-8064-B4C5EBC8631E}
      WAK 0
      BYPASS 0 0 0
      <VST "VSTi: EZdrummer (Toontrack) (32 out)" EZdrummer.dll 0 "" 1684432997<56535464666865657A6472756D6D6572> ""
        ZWhmZO5e7f4AAAAAIAAAAAEAAAAAAAAAAgAAAAAAAAAEAAAAAAAAAAgAAAAAAAAAEAAAAAAAAAAgAAAAAAAAAEAAAAAAAAAAgAAAAAAAAAAAAQAAAAAAAAACAAAAAAAA
        AAQAAAAAAAAACAAAAAAAAAAQAAAAAAAAACAAAAAAAAAAQAAAAAAAAACAAAAAAAAAAAABAAAAAAAAAAIAAAAAAAAABAAAAAAAAAAIAAAAAAAAABAAAAAAAAAAIAAAAAAA
        AABAAAAAAAAAAIAAAAAAAAAAAAEAAAAAAAAAAgAAAAAAAAAEAAAAAAAAAAgAAAAAAAAAEAAAAAAAAAAgAAAAAAAAAEAAAAAAAAAAgAAAAADKCwAAAQAAABYAEAA=
        dmVyc2lvbiAxCkVaWCAiRVpYMl9FWmRydW1tZXIyX01vZGVybiIKaHVtYW5pemUgMgpwb3MgIktpY2siICIxODIyR01TIgpwb3MgIlNuYXJlIiAiMTNHTVMiCnBvcyAi
        SGF0cyIgIjE0SEhYIgpwb3MgIlRvbTEiICIxMEdNUzEiCnBvcyAiVG9tMiIgIjEyR01TMSIKcG9zICJUb20zIiAiMTRHTVMxIgpwb3MgIlRvbTQiICIxNkdNUzEiCnBv
        cyAiVG9tNSIgIjE4R01TMSIKcG9zICJSaWRlNCIgIjIxUmlkZVZpbnRhZ2UiCnBvcyAiQ3Jhc2gxIiAiMTlTYWJpYW4xIgpwb3MgIkNyYXNoMiIgIjE4U2FiaWFuMiIK
        cG9zICJDcmFzaDMiICIxOFNhYmlhbjMiCnBvcyAiQ3Jhc2g0IiAiMThTYWJpYW41IgptaXhlciB7CmJ1c3MgMCB7CnBhbiAwLjUKdm9sdW1lIDAuNzA3OTQ3CnBoYXNl
        cmV2ZXJzZSAwCnNvbG8gMAptdXRlIDAKcm91dGUgMAp9CmJ1c3MgMSB7CnBhbiAwLjUKdm9sdW1lIDAuNzA3OTQ3CnBoYXNlcmV2ZXJzZSAwCnNvbG8gMAptdXRlIDAK
        cm91dGUgMAp9CmJ1c3MgMiB7CnBhbiAwLjUKdm9sdW1lIDAuNzA3OTQ3CnBoYXNlcmV2ZXJzZSAwCnNvbG8gMAptdXRlIDAKcm91dGUgMAp9CmJ1c3MgMyB7CnBhbiAw
        LjUKdm9sdW1lIDAuNzA3OTQ3CnBoYXNlcmV2ZXJzZSAwCnNvbG8gMAptdXRlIDAKcm91dGUgMAp9CmJ1c3MgNCB7CnBhbiAwLjM3NQp2b2x1bWUgMC4zNTQ4MTQKcGhh
        c2VyZXZlcnNlIDAKc29sbyAwCm11dGUgMApyb3V0ZSAwCn0KYnVzcyA1IHsKcGFuIDAuMzc1CnZvbHVtZSAwLjM1NDgxNApwaGFzZXJldmVyc2UgMApzb2xvIDAKbXV0
        ZSAwCnJvdXRlIDAKfQpidXNzIDYgewpwYW4gMAp2b2x1bWUgMQpwaGFzZXJldmVyc2UgMApzb2xvIDAKbXV0ZSAwCnJvdXRlIDAKfQpidXNzIDcgewpwYW4gMQp2b2x1
        bWUgMQpwaGFzZXJldmVyc2UgMApzb2xvIDAKbXV0ZSAwCnJvdXRlIDAKfQpidXNzIDggewpwYW4gMAp2b2x1bWUgMC42MzA5NTgKcGhhc2VyZXZlcnNlIDAKc29sbyAw
        Cm11dGUgMApyb3V0ZSAwCn0KYnVzcyA5IHsKcGFuIDEKdm9sdW1lIDAuNjMwOTU4CnBoYXNlcmV2ZXJzZSAwCnNvbG8gMAptdXRlIDAKcm91dGUgMAp9CmJ1c3MgMTAg
        ewpwYW4gMAp2b2x1bWUgMC4zNDU1MTEKcGhhc2VyZXZlcnNlIDAKc29sbyAwCm11dGUgMApyb3V0ZSAwCn0KYnVzcyAxMSB7CnBhbiAxCnZvbHVtZSAwLjM0NTUxMQpw
        aGFzZXJldmVyc2UgMApzb2xvIDAKbXV0ZSAwCnJvdXRlIDAKfQpidXNzIDEyIHsKcGFuIDAKdm9sdW1lIDAuNDc1MjUxCnBoYXNlcmV2ZXJzZSAwCnNvbG8gMAptdXRl
        IDAKcm91dGUgMAp9CmJ1c3MgMTMgewpwYW4gMQp2b2x1bWUgMC40NzUyNTEKcGhhc2VyZXZlcnNlIDAKc29sbyAwCm11dGUgMApyb3V0ZSAwCn0KYnVzcyAxNCB7CnBh
        biAwCnZvbHVtZSAwLjE4MjYxNgpwaGFzZXJldmVyc2UgMApzb2xvIDAKbXV0ZSAwCnJvdXRlIDAKfQpidXNzIDE1IHsKcGFuIDEKdm9sdW1lIDAuMTgyNjE2CnBoYXNl
        cmV2ZXJzZSAwCnNvbG8gMAptdXRlIDAKcm91dGUgMAp9CmJ1c3MgMTYgewpwYW4gMC41CnZvbHVtZSAwLjcwNzk0NwpwaGFzZXJldmVyc2UgMApzb2xvIDAKbXV0ZSAw
        CnJvdXRlIDAKfQpidXNzIDE3IHsKcGFuIDAuNQp2b2x1bWUgMC43MDc5NDcKcGhhc2VyZXZlcnNlIDAKc29sbyAwCm11dGUgMApyb3V0ZSAwCn0KYnVzcyAxOCB7CnBh
        biAwLjEzODg4OQp2b2x1bWUgMC42MzA5NTgKcGhhc2VyZXZlcnNlIDAKc29sbyAwCm11dGUgMApyb3V0ZSAwCn0KYnVzcyAxOSB7CnBhbiAwLjEzODg4OQp2b2x1bWUg
        MC42MzA5NTgKcGhhc2VyZXZlcnNlIDAKc29sbyAwCm11dGUgMApyb3V0ZSAwCn0KYnVzcyAyMCB7CnBhbiAwLjgzMzMzMwp2b2x1bWUgMC42MzA5NTgKcGhhc2VyZXZl
        cnNlIDAKc29sbyAwCm11dGUgMApyb3V0ZSAwCn0KYnVzcyAyMSB7CnBhbiAwLjgzMzMzMwp2b2x1bWUgMC42MzA5NTgKcGhhc2VyZXZlcnNlIDAKc29sbyAwCm11dGUg
        MApyb3V0ZSAwCn0KYnVzcyAyMiB7CnBhbiAwCnZvbHVtZSAwLjI3OTM1MwpwaGFzZXJldmVyc2UgMApzb2xvIDAKbXV0ZSAwCnJvdXRlIDAKfQpidXNzIDIzIHsKcGFu
        IDEKdm9sdW1lIDAuMjc5MzUzCnBoYXNlcmV2ZXJzZSAwCnNvbG8gMAptdXRlIDAKcm91dGUgMAp9Cn0KRVoxc3R1ZmZFTkQgewp9CnNhbXBsZXIgewptYXN0ZXJ2b2wg
        Mi4wNTg5CnJldmVyc2UgMApwcmVzZXQgIkJhc2ljIgprbm9iIDAgMC40ODUxNDkKa25vYiAxIDAuNTA0OTUxCmtub2IgMiAwLjUKa25vYiAzIDAuNQprbm9iIDQgMQpr
        bm9iIDUgMQpkcnVtcHJvcHMgewoiWFBlcmMtMCIgeCAiRVpYUF9FWmRydW1tZXIyX1BlcmN1c3Npb24iICJPbmVzaG90IiAiQ2xhcHMyIgoiWFBlcmMtMSIgeCAiRVpY
        UF9FWmRydW1tZXIyX1BlcmN1c3Npb24iICJTaGFrZXIiICJTaGFrZXIxIgoiWFBlcmMtMiIgeCAiRVpYUF9FWmRydW1tZXIyX1BlcmN1c3Npb24iICJUYW1ib3VyaW5l
        IiAiVGFtYjEiCn0KfQplZHJ1bSBub25lIG5vbmUKbWlkaWxlYXJuIHsKfQpFZGl0b3IgeyAKU29uZ1RyYWNrIHsKVmlzaWJsZUFyZWEgMzgyLjU4OSA0NDcuNTg5ClRy
        YWNrTmFtZSAiIgpUcmFja0xlbmd0aCA4MDAKQ2xlYXJUcmFja0ZpcnN0ClRpbWVTaWcgNCA0CkdyaWRSZXMgMzIKTG9vcEFyZWEgMCAwCkxvb3BBY3RpdmUgMApTdGFy
        dE51bWJlciAxCn0KVmlzaWJsZVJlc3VsdENvbHVtbnMgMjEsMjgsMCwwOzIyLDI4LDAsMDswLDE4NSwwLDA7MTEsMjAwLDAsMDs0LDE1MCwwLDA7NiwxMzAsMCwwOzcs
        NDUsMCwwOzgsNDYsMCwwOzMsNDUsMCwwOwpWaXNpYmxlRmlsdGVyQ29sdW1ucyA0Ozc7NTsxOzU7Mjs2OzI7CkJyb3dzZXJIZWlnaHQgMTY2ClNlbGVjdGVkVGFncyAK
        RXhjbHVkZWRUYWdzIApTZWxlY3RlZEZpbGUgClNlbGVjdGVkQnJvd3NlclBhdGggIiIKQ2xlYXJUYXAyRmluZApCcm93c2VySXNGYXZvcml0ZSAwClByZXZpZXdJbk9y
        aWdpbmFsVGVtcG8gMQpNaWRpU3RyZXRjaEZhY3RvciAxCkJyb3dzZXJWZWxvY2l0eSAwCkNsZWFyU29uZ0NyZWF0b3IgMApWaXNpYmxlVGFiIDEKfQpTeW5jVG9Ib3N0
        IDEgMTIwCk1pZGlPdXRFbmFibGVkIDAKTWlkaUluQ2hhbm5lbCAtMQoA
        AAAQAAAA
      >
      FLOATPOS 0 0 0 0
      FXID {8C2FD938-5353-4F8B-A419-DF888815C6DF}
      WAK 0
    >
    <ITEM
      POSITION 0
      SNAPOFFS 0
      LENGTH 6
      LOOP 1
      ALLTAKES 0
      FADEIN 1 5.967106 0 1 0 0
      FADEOUT 1 0 0 1 0 0
      MUTE 0
      SEL 0
      IGUID {882BCAE7-CBDC-4FA9-90E3-9FC246D0349E}
      IID 181
      NAME "EZdrummer 2 Midi - EZdrummer2Drag0.mid"
      VOLPAN 1 0 1 -1
      SOFFS 0 0
      PLAYRATE 1 1 0 -1 0 0.0025
      CHANMODE 0
      GUID {5D464ADC-487B-479F-A2BF-C1544B341FCF}
      <SOURCE MIDI
        HASDATA 1 960 QN
        POOLEDEVTS {078EADBC-DE5B-488F-B886-44DE6C79206F}
        <X 0 0 0 0 3 "EZdrummer 2 Midi"
          /wNFWmRydW1tZXIgMiBNaWRp
        >
        E 0 90 24 6a
        E 3 90 3e 56
        E 204 90 24 00
        E 3 90 3e 00
        E 750 90 26 7c
        E 0 90 3e 56
        E 205 90 26 00
        E 1 90 3e 00
        E 273 90 24 6a
        E 208 90 24 00
        E 275 90 3e 56
        E 206 90 3e 00
        E 273 90 24 6a
        E 209 90 24 00
        E 270 90 26 7c
        E 3 90 3e 56
        E 204 90 26 00
        E 6 90 3e 00
        E 268 90 24 60
        E 208 90 24 00
        E 272 90 24 6a
        E 3 90 3e 56
        E 198 90 24 00
        E 10 90 3e 00
        E 748 90 26 7c
        E 8 90 3e 56
        E 198 90 26 00
        E 6 90 3e 00
        E 270 90 24 6a
        E 209 90 24 00
        E 273 90 3e 56
        E 207 90 3e 00
        E 271 90 24 6a
        E 204 90 24 00
        E 274 90 26 7c
        E 5 90 3e 56
        E 203 90 26 00
        E 5 90 3e 00
        E 267 90 24 60
        E 208 90 24 00
        E 272 90 24 6a
        E 2 90 3e 56
        E 202 90 24 00
        E 4 90 3e 00
        E 752 90 26 7c
        E 0 90 3e 56
        E 207 90 26 00
        E 1 90 3e 00
        E 272 90 24 6a
        E 200 90 24 00
        E 283 90 3e 56
        E 205 90 3e 00
        E 272 90 24 6a
        E 208 90 24 00
        E 272 90 26 7c
        E 3 90 3e 56
        E 204 90 26 00
        E 0 90 3e 00
        E 273 90 24 60
        E 207 90 24 00
        E 273 b0 7b 00
        GUID {0E0626BE-B775-43A0-8AF4-DB8E46A2DE62}
        IGNTEMPO 0 120 4 4
        SRCCOLOR 567
        VELLANE -1 100 0
        VELLANE -2 100 100
      >
    >
    <ITEM
      POSITION 6
      SNAPOFFS 0
      LENGTH 10.000000000015
      LOOP 1
      ALLTAKES 0
      FADEIN 1 0 0 1 0 0
      FADEOUT 1 0 0 1 0 0
      MUTE 0
      SEL 0
      IGUID {51E84D99-89F1-4DC1-B29F-511F8F7CBA96}
      IID 114
      NAME "Variation 01 - Variation_01.mid"
      VOLPAN 1 0 1 -1
      SOFFS 0 0
      PLAYRATE 1 1 0 -1 0 0.0025
      CHANMODE 0
      GUID {0134E510-9C88-4EB7-A511-60331886EEED}
      <SOURCE MIDI
        HASDATA 1 960 QN
        POOLEDEVTS {3029258C-305B-4583-9F61-F7ABBD8A888B}
        <X 0 0 0 0 3 "Variation 01"
          /wNWYXJpYXRpb24gMDE=
        >
        E 0 90 24 77
        E 3 90 15 77
        E 186 90 24 00
        E 3 90 15 00
        E 301 90 3f 29
        E 157 90 3f 00
        E 329 90 25 49
        E 2 90 3e 77
        E 143 90 3e 00
        E 19 90 25 00
        E 305 90 24 7b
        E 34 90 3f 23
        E 131 90 24 00
        E 12 90 3f 00
        E 303 90 3e 71
        E 140 90 3e 00
        E 355 90 3f 29
        E 141 90 3f 00
        E 318 90 25 46
        E 11 90 3e 7b
        E 132 90 25 00
        E 8 90 3e 00
        E 345 90 3f 2b
        E 142 90 3f 00
        E 319 90 24 7c
        E 8 90 3e 6c
        E 136 90 24 00
        E 7 90 3e 00
        E 356 90 3f 23
        E 143 90 3f 00
        E 313 90 25 46
        E 4 90 3e 7b
        E 138 90 25 00
        E 3 90 3e 00
        E 338 90 24 7a
        E 3 90 3f 1f
        E 140 90 24 00
        E 2 90 3f 00
        E 331 90 3e 6f
        E 143 90 3e 00
        E 350 90 3f 2d
        E 142 90 3f 00
        E 325 90 25 45
        E 10 90 3e 7b
        E 133 90 25 00
        E 9 90 3e 00
        E 337 90 3f 26
        E 145 90 3f 00
        E 325 90 24 7b
        E 10 90 3e 71
        E 133 90 24 00
        E 10 90 3e 00
        E 354 90 3f 2e
        E 142 90 3f 00
        E 318 90 25 46
        E 8 90 3e 78
        E 132 90 25 00
        E 11 90 3e 00
        E 334 90 24 7b
        E 9 90 3f 31
        E 133 90 24 00
        E 9 90 3f 00
        E 332 90 3e 6c
        E 143 90 3e 00
        E 330 90 3f 25
        E 143 90 3f 00
        E 332 90 25 4a
        E 11 90 3e 7c
        E 132 90 25 00
        E 11 90 3e 00
        E 342 90 3f 1d
        E 142 90 3f 00
        E 325 90 24 7b
        E 16 90 3e 69
        E 129 90 24 00
        E 13 90 3e 00
        E 335 90 3f 26
        E 143 90 3f 00
        e 325 90 25 49
        E 0 90 3e 77
        e 137 90 25 00
        E 7 90 3e 00
        E 335 90 24 7a
        E 6 90 3f 30
        E 138 90 24 00
        E 0 90 3f 00
        E 345 90 3e 6b
        E 140 90 3e 00
        E 182 90 3f 25
        E 141 90 3f 00
        E 15 90 3e 3b
        E 141 90 3e 00
        E 169 90 24 61
        E 143 90 24 00
        E 13 90 26 7b
        E 143 90 26 00
        E 345 90 3c 7a
        E 138 90 3c 00
        E 17 90 26 1a
        E 143 90 26 00
        E 24 90 26 2a
        E 142 90 26 00
        E 9 90 24 7b
        E 3 90 15 40
        E 139 90 24 00
        E 3 90 15 00
        E 341 90 3f 1d
        E 141 90 3f 00
        E 335 90 25 7a
        E 6 90 3e 79
        E 136 90 25 00
        E 5 90 3e 00
        E 337 90 24 7a
        E 3 90 3f 21
        E 139 90 3f 00
        E 1 90 24 00
        E 334 90 3e 69
        E 143 90 3e 00
        E 358 90 3f 2a
        E 142 90 3f 00
        E 316 90 25 7e
        E 4 90 3e 79
        E 136 90 25 00
        E 6 90 3e 00
        E 337 90 3f 1d
        E 144 90 3f 00
        E 326 90 24 79
        E 11 90 3e 5c
        E 127 90 24 00
        E 16 90 3e 00
        E 346 90 3f 2e
        E 144 90 3f 00
        E 319 90 25 7c
        E 11 90 3e 78
        E 132 90 25 00
        E 12 90 3e 00
        E 329 90 24 7b
        E 9 90 3f 21
        E 134 90 24 00
        E 9 90 3f 00
        E 332 90 3e 6c
        E 142 90 3e 00
        E 342 90 3f 31
        E 143 90 3f 00
        E 331 90 25 7e
        E 10 90 3e 79
        E 132 90 25 00
        E 12 90 3e 00
        E 348 90 3f 24
        E 144 90 3f 00
        E 310 90 24 7b
        E 8 90 3e 69
        E 134 90 24 00
        E 8 90 3e 00
        E 336 90 3f 29
        E 138 90 3f 00
        E 335 90 25 7e
        E 8 90 3e 79
        E 133 90 25 00
        E 7 90 3e 00
        E 337 90 24 7a
        E 4 90 3f 21
        E 137 90 24 00
        E 6 90 3f 00
        E 347 90 3e 70
        E 143 90 3e 00
        E 332 90 3f 29
        E 142 90 3f 00
        E 325 90 25 7c
        E 10 90 3e 77
        E 131 90 25 00
        E 10 90 3e 00
        E 366 90 3f 1c
        E 142 90 3f 00
        E 313 90 24 7b
        E 8 90 3e 68
        E 135 90 24 00
        E 6 90 3e 00
        E 340 90 3f 22
        E 141 90 3f 00
        E 336 90 25 7e
        E 3 90 3e 7a
        E 137 90 25 00
        E 6 90 3e 00
        E 324 90 24 7a
        E 30 90 3f 2a
        E 112 90 24 00
        E 28 90 3f 00
        E 318 90 3e 66
        E 142 90 3e 00
        E 148 90 26 4d
        E 142 90 26 00
        E 49 90 3f 25
        E 142 90 3f 00
        E 151 90 3f 49
        E 142 90 3f 00
        E 42 90 26 7e
        E 5 90 3e 6e
        E 136 90 26 00
        E 5 90 3e 00
        E 322 90 3c 78
        E 141 90 3c 00
        E 337 b0 7b 00
        GUID {3C440CDB-76A6-4EE7-A6A9-872C38EF272B}
        IGNTEMPO 0 120 4 4
        SRCCOLOR 490
        VELLANE -1 100 0
        VELLANE -2 100 100
        CFGEDITVIEW -1207.375125 0.033216 51 12 0 0 0 0 0 0.5
        KEYSNAP 0
        TRACKSEL 252
        EVTFILTER 0 -1 -1 -1 -1 0 0 0 0 -1 -1 -1 -1 0 -1 0 -1 -1
        CFGEDIT 1 1 0 1 0 1 1 1 1 1 1 0.125 268 116 1708 898 0 0 0 0 0 0 0 1 0 0.5 0 0 1 64
      >
    >
    <ITEM
      POSITION 16
      SNAPOFFS 0
      LENGTH 24
      LOOP 1
      ALLTAKES 0
      FADEIN 1 0 0 1 0 0
      FADEOUT 1 0 0 1 0 0
      MUTE 0
      COLOR 31853485 R
      SEL 0
      IGUID {F032060B-762F-4951-818A-6F7BAE5A83CB}
      IID 28
      NAME "Verse 6 - EZdrummer2Drag3.mid"
      VOLPAN 1 0 1 -1
      SOFFS 0.00000000000777 0.00000000001554
      PLAYRATE 1 1 0 -1 0 0.0025
      CHANMODE 0
      GUID {4A0DF00E-67B7-4192-81A7-FE7BFD2A6E5F}
      <SOURCE MIDI
        HASDATA 1 960 QN
        POOLEDEVTS {E3C5363B-CE02-49B9-9B5F-132E641A72F0}
        <X 0 0 0 0 3 "Verse 6"
          /wNWZXJzZSA2
        >
        E 0 90 24 5f
        E 2 80 24 5f
        E 0 90 3e 4b
        E 2 80 3e 4b
        E 468 90 3f 2d
        E 2 80 3f 2d
        E 480 90 3e 5a
        E 2 80 3e 5a
        E 4 90 26 64
        E 2 80 26 64
        E 478 90 3f 32
        E 2 80 3f 32
        E 478 90 24 64
        E 2 80 24 64
        E 12 90 3e 50
        E 2 80 3e 50
        E 458 90 3c 41
        E 2 80 3c 41
        E 484 90 26 69
        E 2 80 26 69
        E 4 90 2c 46
        E 2 80 2c 46
        E 6 90 3f 46
        E 2 80 3f 46
        E 462 90 3e 41
        E 2 80 3e 41
        E 480 b0 7b 00
        GUID {AD469D5A-77F9-4A9F-862F-C6CC2E6C5D9D}
        IGNTEMPO 0 120 4 4
        SRCCOLOR 156
        VELLANE -1 100 0
        VELLANE -2 100 100
      >
    >
    <ITEM
      POSITION 40
      SNAPOFFS 0
      LENGTH 16
      LOOP 1
      ALLTAKES 0
      FADEIN 1 0 0 1 0 0
      FADEOUT 1 0 0 1 0 0
      MUTE 0
      COLOR 23758335 R
      SEL 0
      IGUID {D3D2AB1C-9158-418D-B09F-EFEEEB02B7C3}
      IID 24
      NAME "Variation 01 - Variation_01.mid"
      VOLPAN 1 0 1 -1
      SOFFS 0 0
      PLAYRATE 1 1 0 -1 0 0.0025
      CHANMODE 0
      GUID {B3C32C55-943D-4F9A-B64F-0EB8B63E6D4D}
      <SOURCE MIDI
        HASDATA 1 960 QN
        POOLEDEVTS {21C13A7C-7AEF-4443-AF17-8191649E04C1}
        <X 0 0 0 0 3 "Variation 01"
          /wNWYXJpYXRpb24gMDE=
        >
        E 0 90 24 6e
        E 122 90 24 00
        E 842 90 26 79
        E 122 90 26 00
        E 844 90 24 74
        E 122 90 24 00
        E 837 90 26 79
        E 122 90 26 00
        E 361 90 24 65
        E 122 90 24 00
        E 346 90 24 7a
        E 122 90 24 00
        E 846 90 26 79
        E 122 90 26 00
        E 841 90 24 71
        E 121 90 24 00
        E 833 90 26 79
        E 122 90 26 00
        E 359 90 24 55
        E 122 90 24 00
        E 352 90 24 76
        E 122 90 24 00
        E 845 90 26 79
        E 121 90 26 00
        E 837 90 24 75
        E 122 90 24 00
        E 837 90 26 79
        E 122 90 26 00
        E 361 90 24 56
        E 122 90 24 00
        E 351 90 24 7c
        E 122 90 24 00
        E 843 90 26 79
        E 122 90 26 00
        E 840 90 24 77
        E 122 90 24 00
        E 835 90 26 79
        E 122 90 26 00
        E 364 90 24 57
        E 122 90 24 00
        E 348 90 24 7e
        E 122 90 24 00
        E 846 90 26 79
        E 122 90 26 00
        E 837 90 24 6e
        E 122 90 24 00
        E 835 90 26 79
        E 122 90 26 00
        E 363 90 24 5c
        E 122 90 24 00
        E 349 90 24 7a
        E 122 90 24 00
        E 844 90 26 79
        E 122 90 26 00
        E 838 90 24 79
        E 122 90 24 00
        E 838 90 26 79
        E 122 90 26 00
        E 361 90 24 5f
        E 122 90 24 00
        E 349 90 24 76
        E 122 90 24 00
        E 845 90 26 79
        E 122 90 26 00
        E 837 90 24 71
        E 122 90 24 00
        E 843 90 26 79
        E 122 90 26 00
        E 353 90 24 60
        E 122 90 24 00
        E 352 90 24 78
        E 122 90 24 00
        E 843 90 26 79
        E 122 90 26 00
        E 840 90 24 78
        E 122 90 24 00
        E 840 90 26 79
        E 122 90 26 00
        E 359 90 24 5c
        E 122 90 24 00
        E 348 b0 7b 00
        GUID {A4AE504B-A99C-4DEB-B3F4-E29E94E11BE2}
        IGNTEMPO 0 120 4 4
        SRCCOLOR 128
        VELLANE -1 100 0
        VELLANE -2 100 100
        CFGEDITVIEW -378.688398 0.104486 89 12 0 0 0 0 0 0.5
        KEYSNAP 0
        TRACKSEL 252
        EVTFILTER 0 -1 -1 -1 -1 0 0 0 0 -1 -1 -1 -1 0 -1 0 -1 -1
        CFGEDIT 1 1 0 1 0 1 1 1 1 1 1 0.125 252 100 1708 898 0 0 0 0 0 0 0 0 0 0.5 0 0 1 64
      >
    >
    <ITEM
      POSITION 56
      SNAPOFFS 0
      LENGTH 24
      LOOP 1
      ALLTAKES 0
      FADEIN 1 0 0 1 0 0
      FADEOUT 1 0 0 1 0 0
      MUTE 0
      SEL 0
      IGUID {20F6C18A-D591-4757-AC9B-81A058465EDC}
      IID 114
      NAME "Variation 01 - Variation_01.mid"
      VOLPAN 1 0 1 -1
      SOFFS 8 16
      PLAYRATE 1 1 0 -1 0 0.0025
      CHANMODE 0
      GUID {2A58C5C0-B935-48B3-828A-6B6A37876FAE}
      <SOURCE MIDI
        HASDATA 1 960 QN
        POOLEDEVTS {34BEDB48-6B9D-4B91-B90C-32667C4E9A05}
        <X 0 0 0 0 3 "Variation 01"
          /wNWYXJpYXRpb24gMDE=
        >
        E 0 90 24 77
        E 3 90 15 77
        E 186 90 24 00
        E 3 90 15 00
        E 301 90 3f 29
        E 157 90 3f 00
        E 329 90 25 45
        E 2 90 3e 77
        E 143 90 3e 00
        E 19 90 25 00
        E 305 90 24 7b
        E 34 90 3f 23
        E 131 90 24 00
        E 12 90 3f 00
        E 303 90 3e 71
        E 140 90 3e 00
        E 355 90 3f 29
        E 141 90 3f 00
        E 318 90 25 47
        E 11 90 3e 7b
        E 132 90 25 00
        E 8 90 3e 00
        E 345 90 3f 2b
        E 142 90 3f 00
        E 319 90 24 7c
        E 8 90 3e 6c
        E 136 90 24 00
        E 7 90 3e 00
        E 356 90 3f 23
        E 143 90 3f 00
        E 313 90 25 47
        E 4 90 3e 7b
        E 138 90 25 00
        E 3 90 3e 00
        E 338 90 24 7a
        E 3 90 3f 1f
        E 140 90 24 00
        E 2 90 3f 00
        E 331 90 3e 6f
        E 143 90 3e 00
        E 350 90 3f 2d
        E 142 90 3f 00
        E 325 90 25 46
        E 10 90 3e 7b
        E 133 90 25 00
        E 9 90 3e 00
        E 337 90 3f 26
        E 145 90 3f 00
        E 325 90 24 7b
        E 10 90 3e 71
        E 133 90 24 00
        E 10 90 3e 00
        E 354 90 3f 2e
        E 142 90 3f 00
        E 318 90 25 43
        E 8 90 3e 78
        E 132 90 25 00
        E 11 90 3e 00
        E 334 90 24 7b
        E 9 90 3f 31
        E 133 90 24 00
        E 9 90 3f 00
        E 332 90 3e 6c
        E 143 90 3e 00
        E 330 90 3f 25
        E 143 90 3f 00
        E 332 90 25 49
        E 11 90 3e 7c
        E 132 90 25 00
        E 11 90 3e 00
        E 342 90 3f 1d
        E 142 90 3f 00
        E 325 90 24 7b
        E 16 90 3e 69
        E 129 90 24 00
        E 13 90 3e 00
        E 335 90 3f 26
        E 143 90 3f 00
        E 325 90 25 4b
        E 0 90 3e 77
        E 137 90 25 00
        E 7 90 3e 00
        E 335 90 24 7a
        E 6 90 3f 30
        E 138 90 24 00
        E 0 90 3f 00
        E 345 90 3e 6b
        E 140 90 3e 00
        E 182 90 3f 25
        E 141 90 3f 00
        E 15 90 3e 3b
        E 141 90 3e 00
        E 169 90 24 61
        E 143 90 24 00
        E 13 90 26 7b
        E 143 90 26 00
        E 345 90 3c 7a
        E 138 90 3c 00
        E 17 90 26 1a
        E 143 90 26 00
        E 24 90 26 2a
        E 142 90 26 00
        E 9 90 24 7b
        E 3 90 15 40
        E 139 90 24 00
        E 3 90 15 00
        E 341 90 3f 1d
        E 141 90 3f 00
        e 335 90 25 47
        E 6 90 3e 79
        e 136 90 25 00
        E 5 90 3e 00
        E 337 90 24 7a
        E 3 90 3f 21
        E 139 90 3f 00
        E 1 90 24 00
        E 334 90 3e 69
        E 143 90 3e 00
        E 358 90 3f 2a
        E 142 90 3f 00
        E 316 90 25 48
        E 4 90 3e 79
        E 136 90 25 00
        E 6 90 3e 00
        E 337 90 3f 1d
        E 144 90 3f 00
        E 326 90 24 79
        E 11 90 3e 5c
        E 127 90 24 00
        E 16 90 3e 00
        E 346 90 3f 2e
        E 144 90 3f 00
        E 319 90 25 46
        E 11 90 3e 78
        E 132 90 25 00
        E 12 90 3e 00
        E 329 90 24 7b
        E 9 90 3f 21
        E 134 90 24 00
        E 9 90 3f 00
        E 332 90 3e 6c
        E 142 90 3e 00
        E 342 90 3f 31
        E 143 90 3f 00
        E 331 90 25 4c
        E 10 90 3e 79
        E 132 90 25 00
        E 12 90 3e 00
        E 348 90 3f 24
        E 144 90 3f 00
        E 310 90 24 7b
        E 8 90 3e 69
        E 134 90 24 00
        E 8 90 3e 00
        E 336 90 3f 29
        E 138 90 3f 00
        E 335 90 25 4c
        E 8 90 3e 79
        E 133 90 25 00
        E 7 90 3e 00
        E 337 90 24 7a
        E 4 90 3f 21
        E 137 90 24 00
        E 6 90 3f 00
        E 347 90 3e 70
        E 143 90 3e 00
        E 332 90 3f 29
        E 142 90 3f 00
        E 325 90 25 44
        E 10 90 3e 77
        E 131 90 25 00
        E 10 90 3e 00
        E 366 90 3f 1c
        E 142 90 3f 00
        E 313 90 24 7b
        E 8 90 3e 68
        E 135 90 24 00
        E 6 90 3e 00
        E 340 90 3f 22
        E 141 90 3f 00
        E 336 90 25 49
        E 3 90 3e 7a
        E 137 90 25 00
        E 6 90 3e 00
        E 324 90 24 7a
        E 30 90 3f 2a
        E 112 90 24 00
        E 28 90 3f 00
        E 318 90 3e 66
        E 142 90 3e 00
        E 339 90 3f 25
        E 142 90 3f 00
        E 151 90 3f 49
        E 142 90 3f 00
        E 42 90 26 7e
        E 5 90 3e 6e
        E 136 90 26 00
        E 5 90 3e 00
        E 322 90 3c 78
        E 141 90 3c 00
        E 337 b0 7b 00
        GUID {3C440CDB-76A6-4EE7-A6A9-872C38EF272B}
        IGNTEMPO 0 120 4 4
        SRCCOLOR 490
        VELLANE -1 100 0
        VELLANE -2 100 100
        CFGEDITVIEW 9275.692908 0.058911 60 12 0 0 0 0 0 0.5
        KEYSNAP 0
        TRACKSEL 252
        EVTFILTER 0 -1 -1 -1 -1 0 0 0 0 -1 -1 -1 -1 0 -1 0 -1 -1
        CFGEDIT 1 1 0 1 0 1 1 1 1 1 1 0.125 -8 -8 1928 1048 0 0 0 0 0 0 0 0 0 0.5 0 0 1 64
      >
    >
    <ITEM
      POSITION 80
      SNAPOFFS 0
      LENGTH 14
      LOOP 1
      ALLTAKES 0
      FADEIN 1 0 0 1 0 0
      FADEOUT 1 0 0 1 0 0
      MUTE 0
      COLOR 28093126 R
      SEL 0
      IGUID {99B482DA-243D-4DDE-9DCE-4608D91CE95C}
      IID 24
      NAME "Variation 01 - Variation_01.mid"
      VOLPAN 1 0 1 -1
      SOFFS 0 0
      PLAYRATE 1 1 0 -1 0 0.0025
      CHANMODE 0
      GUID {82630493-5424-43A5-A081-77259C04D2D7}
      <SOURCE MIDI
        HASDATA 1 960 QN
        POOLEDEVTS {2DC56BBC-8FFA-408E-9497-C716D4AA8425}
        <X 0 0 0 0 3 "Variation 01"
          /wNWYXJpYXRpb24gMDE=
        >
        E 0 90 24 6e
        E 122 90 24 00
        E 842 90 26 79
        E 122 90 26 00
        E 844 90 24 74
        E 122 90 24 00
        E 837 90 26 79
        E 122 90 26 00
        E 361 90 24 65
        E 122 90 24 00
        E 346 90 24 7a
        E 122 90 24 00
        E 846 90 26 79
        E 122 90 26 00
        E 841 90 24 71
        E 121 90 24 00
        E 833 90 26 79
        E 122 90 26 00
        E 359 90 24 55
        E 122 90 24 00
        E 352 90 24 76
        E 122 90 24 00
        E 845 90 26 79
        E 121 90 26 00
        E 837 90 24 75
        E 122 90 24 00
        E 837 90 26 79
        E 122 90 26 00
        E 361 90 24 56
        E 122 90 24 00
        E 351 90 24 7c
        E 122 90 24 00
        E 843 90 26 79
        E 122 90 26 00
        E 840 90 24 77
        E 122 90 24 00
        E 835 90 26 79
        E 122 90 26 00
        E 364 90 24 57
        E 122 90 24 00
        E 348 90 24 7e
        E 122 90 24 00
        E 846 90 26 79
        E 122 90 26 00
        E 837 90 24 6e
        E 122 90 24 00
        E 835 90 26 79
        E 122 90 26 00
        E 363 90 24 5c
        E 122 90 24 00
        E 349 90 24 7a
        E 122 90 24 00
        E 844 90 26 79
        E 122 90 26 00
        E 838 90 24 79
        E 122 90 24 00
        E 838 90 26 79
        E 122 90 26 00
        E 361 90 24 5f
        E 122 90 24 00
        E 349 90 24 76
        E 122 90 24 00
        E 845 90 26 79
        E 122 90 26 00
        E 837 90 24 71
        E 122 90 24 00
        E 843 90 26 79
        E 122 90 26 00
        E 353 90 24 60
        E 122 90 24 00
        E 352 90 24 78
        E 122 90 24 00
        E 843 90 26 79
        E 122 90 26 00
        E 840 90 24 78
        E 122 90 24 00
        E 840 90 26 79
        E 122 90 26 00
        E 359 90 24 5c
        E 122 90 24 00
        E 348 b0 7b 00
        GUID {A4AE504B-A99C-4DEB-B3F4-E29E94E11BE2}
        IGNTEMPO 0 120 4 4
        SRCCOLOR 128
        VELLANE -1 100 0
        VELLANE -2 100 100
        CFGEDITVIEW -378.688398 0.104486 89 12 0 0 0 0 0 0.5
        KEYSNAP 0
        TRACKSEL 252
        EVTFILTER 0 -1 -1 -1 -1 0 0 0 0 -1 -1 -1 -1 0 -1 0 -1 -1
        CFGEDIT 1 1 0 1 0 1 1 1 1 1 1 0.125 252 100 1708 898 0 0 0 0 0 0 0 0 0 0.5 0 0 1 64
      >
    >
    <ITEM
      POSITION 94
      SNAPOFFS 0
      LENGTH 49.99793516615756
      LOOP 1
      ALLTAKES 0
      FADEIN 1 0 0 1 0 0
      FADEOUT 1 0 0 1 0 0
      MUTE 0
      COLOR 24011597 R
      SEL 0
      IGUID {28A7A888-920E-4D58-A4EB-2D3F765B4DB8}
      IID 28
      NAME "Verse 6 - EZdrummer2Drag3.mid"
      VOLPAN 1 0 1 -1
      SOFFS 0.00206483385018 0.00412966770037
      PLAYRATE 1 1 0 -1 0 0.0025
      CHANMODE 0
      GUID {AE3F5889-5C11-4C2A-B081-C427655D8BA8}
      <SOURCE MIDI
        HASDATA 1 960 QN
        POOLEDEVTS {75A96810-66B4-401A-83CD-C6AD0A5A468A}
        <X 0 0 0 0 3 "Verse 6"
          /wNWZXJzZSA2
        >
        E 0 90 24 5f
        E 2 80 24 5f
        E 0 90 3e 4b
        E 2 80 3e 4b
        E 468 90 3f 2d
        E 2 80 3f 2d
        E 480 90 3e 5a
        E 2 80 3e 5a
        E 4 90 26 64
        E 2 80 26 64
        E 478 90 3f 32
        E 2 80 3f 32
        E 478 90 24 64
        E 2 80 24 64
        E 12 90 3e 50
        E 2 80 3e 50
        E 458 90 3c 41
        E 2 80 3c 41
        E 484 90 26 69
        E 2 80 26 69
        E 4 90 2c 46
        E 2 80 2c 46
        E 6 90 3f 46
        E 2 80 3f 46
        E 462 90 3e 41
        E 2 80 3e 41
        E 480 b0 7b 00
        GUID {AD469D5A-77F9-4A9F-862F-C6CC2E6C5D9D}
        IGNTEMPO 0 120 4 4
        SRCCOLOR 156
        VELLANE -1 100 0
        VELLANE -2 100 100
      >
    >
    <ITEM
      POSITION 143.99793516615756
      SNAPOFFS 0
      LENGTH 16
      LOOP 1
      ALLTAKES 0
      FADEIN 1 0 0 1 0 0
      FADEOUT 1 0 0 1 0 0
      MUTE 0
      COLOR 31470226 R
      SEL 0
      IGUID {03F91C0E-D2D9-4C6D-B73B-44D2135D2412}
      IID 24
      NAME "Variation 01 - Variation_01.mid"
      VOLPAN 1 0 1 -1
      SOFFS 8 16
      PLAYRATE 1 1 0 -1 0 0.0025
      CHANMODE 0
      GUID {939091DE-8585-4028-8253-CC54F02E0FDF}
      <SOURCE MIDI
        HASDATA 1 960 QN
        POOLEDEVTS {18FD369C-0675-4A57-86AE-854B65F7FF6E}
        <X 0 0 0 0 3 "Variation 01"
          /wNWYXJpYXRpb24gMDE=
        >
        E 0 90 24 6e
        E 122 90 24 00
        E 842 90 26 79
        E 122 90 26 00
        E 844 90 24 74
        E 122 90 24 00
        E 837 90 26 79
        E 122 90 26 00
        E 361 90 24 65
        E 122 90 24 00
        E 346 90 24 7a
        E 122 90 24 00
        E 846 90 26 79
        E 122 90 26 00
        E 841 90 24 71
        E 121 90 24 00
        E 833 90 26 79
        E 122 90 26 00
        E 359 90 24 55
        E 122 90 24 00
        E 352 90 24 76
        E 122 90 24 00
        E 845 90 26 79
        E 121 90 26 00
        E 837 90 24 75
        E 122 90 24 00
        E 837 90 26 79
        E 122 90 26 00
        E 361 90 24 56
        E 122 90 24 00
        E 351 90 24 7c
        E 122 90 24 00
        E 843 90 26 79
        E 122 90 26 00
        E 840 90 24 77
        E 122 90 24 00
        E 835 90 26 79
        E 122 90 26 00
        E 364 90 24 57
        E 122 90 24 00
        E 348 90 24 7e
        E 122 90 24 00
        E 846 90 26 79
        E 122 90 26 00
        E 837 90 24 6e
        E 122 90 24 00
        E 835 90 26 79
        E 122 90 26 00
        E 363 90 24 5c
        E 122 90 24 00
        E 349 90 24 7a
        E 122 90 24 00
        E 844 90 26 79
        E 122 90 26 00
        E 838 90 24 79
        E 122 90 24 00
        E 838 90 26 79
        E 122 90 26 00
        E 361 90 24 5f
        E 122 90 24 00
        E 349 90 24 76
        E 122 90 24 00
        E 845 90 26 79
        E 122 90 26 00
        E 837 90 24 71
        E 122 90 24 00
        E 843 90 26 79
        E 122 90 26 00
        E 353 90 24 60
        E 122 90 24 00
        E 352 90 24 78
        E 122 90 24 00
        E 843 90 26 79
        E 122 90 26 00
        E 840 90 24 78
        E 122 90 24 00
        E 840 90 26 79
        E 122 90 26 00
        E 359 90 24 5c
        E 122 90 24 00
        E 348 b0 7b 00
        GUID {A4AE504B-A99C-4DEB-B3F4-E29E94E11BE2}
        IGNTEMPO 0 120 4 4
        SRCCOLOR 128
        VELLANE -1 100 0
        VELLANE -2 100 100
        CFGEDITVIEW -378.688398 0.104486 89 12 0 0 0 0 0 0.5
        KEYSNAP 0
        TRACKSEL 252
        EVTFILTER 0 -1 -1 -1 -1 0 0 0 0 -1 -1 -1 -1 0 -1 0 -1 -1
        CFGEDIT 1 1 0 1 0 1 1 1 1 1 1 0.125 252 100 1708 898 0 0 0 0 0 0 0 0 0 0.5 0 0 1 64
      >
    >
    <ITEM
      POSITION 159.99793516615756
      SNAPOFFS 0
      LENGTH 31
      LOOP 1
      ALLTAKES 0
      FADEIN 1 0 0 1 0 0
      FADEOUT 1 0 0 1 0 0
      MUTE 0
      COLOR 31470226 R
      SEL 0
      IGUID {3566E5A9-CF16-4F2D-9E78-CD11DDEA20FC}
      IID 24
      NAME "Variation 01 - Variation_01.mid"
      VOLPAN 1 0 1 -1
      SOFFS 8 16
      PLAYRATE 1 1 0 -1 0 0.0025
      CHANMODE 0
      GUID {2FED00CC-CFD2-4699-B92D-94F4835C926A}
      <SOURCE MIDI
        HASDATA 1 960 QN
        POOLEDEVTS {B280070B-048F-4E0D-B356-81B5C01D479A}
        <X 0 0 0 0 3 "Variation 01"
          /wNWYXJpYXRpb24gMDE=
        >
        E 0 90 24 6e
        E 122 90 24 00
        E 842 90 26 79
        E 122 90 26 00
        E 844 90 24 74
        E 122 90 24 00
        E 837 90 26 79
        E 122 90 26 00
        E 361 90 24 65
        E 122 90 24 00
        E 346 90 24 7a
        E 122 90 24 00
        E 846 90 26 79
        E 122 90 26 00
        E 841 90 24 71
        E 121 90 24 00
        E 833 90 26 79
        E 122 90 26 00
        E 359 90 24 55
        E 122 90 24 00
        E 352 90 24 76
        E 122 90 24 00
        E 845 90 26 79
        E 121 90 26 00
        E 837 90 24 75
        E 122 90 24 00
        E 837 90 26 79
        E 122 90 26 00
        E 361 90 24 56
        E 122 90 24 00
        E 351 90 24 7c
        E 122 90 24 00
        E 843 90 26 79
        E 122 90 26 00
        E 840 90 24 77
        E 122 90 24 00
        E 835 90 26 79
        E 122 90 26 00
        E 364 90 24 57
        E 122 90 24 00
        E 348 90 24 7e
        E 122 90 24 00
        E 846 90 26 79
        E 122 90 26 00
        E 837 90 24 6e
        E 122 90 24 00
        E 835 90 26 79
        E 122 90 26 00
        E 363 90 24 5c
        E 122 90 24 00
        E 349 90 24 7a
        E 122 90 24 00
        E 844 90 26 79
        E 122 90 26 00
        E 838 90 24 79
        E 122 90 24 00
        E 838 90 26 79
        E 122 90 26 00
        E 361 90 24 5f
        E 122 90 24 00
        E 349 90 24 76
        E 122 90 24 00
        E 845 90 26 79
        E 122 90 26 00
        E 837 90 24 71
        E 122 90 24 00
        E 843 90 26 79
        E 122 90 26 00
        E 353 90 24 60
        E 122 90 24 00
        E 352 90 24 78
        E 122 90 24 00
        E 843 90 26 79
        E 122 90 26 00
        E 840 90 24 78
        E 122 90 24 00
        E 840 90 26 79
        E 122 90 26 00
        E 359 90 24 5c
        E 122 90 24 00
        E 348 b0 7b 00
        GUID {531E0769-06F8-4181-B29B-32B51159D6AF}
        IGNTEMPO 0 120 4 4
        SRCCOLOR 520
        VELLANE -1 100 0
        VELLANE -2 100 100
        CFGEDITVIEW 0 0 89 12 0 0 0 0 0 0.5
        KEYSNAP 0
        TRACKSEL 252
        EVTFILTER 0 -1 -1 -1 -1 0 0 0 0 -1 -1 -1 -1 0 -1 0 -1 -1
        CFGEDIT 1 1 0 1 0 1 1 1 1 1 1 0.125 252 100 1708 898 0 0 0 0 0 0 0 0 0 0.5 0 0 1 64
      >
    >
  >
  <TRACK {58308028-4E22-4177-BE87-9017A0C4F011}
    NAME "bass - full acoustic(mf) - Dim Pro"
    PEAKCOL 16576
    BEAT -1
    AUTOMODE 0
    VOLPAN 1.54096138720483 0 -1 -1 1
    MUTESOLO 0 0 0
    IPHASE 0
    ISBUS 0 0
    BUSCOMP 0 0
    SHOWINMIX 1 0.6667 0.5 1 0.5 0 0 0
    FREEMODE 0
    SEL 0
    REC 0 5088 1 0 0 0 0
    VU 2
    TRACKHEIGHT 0 0 0
    INQ 0 0 0 0.5 100 0 0 100
    NCHAN 2
    FX 1
    TRACKID {58308028-4E22-4177-BE87-9017A0C4F011}
    PERF 0
    MIDIOUT -32
    MAINSEND 1 0
    <FXCHAIN
      WNDRECT 417 114 773 466
      SHOW 0
      LASTSEL 1
      DOCKED 0
      BYPASS 0 0 0
      <VST "VSTi: Dimension Pro (Cakewalk)" "Dimension Pro x64.dll" 0 "" 1684893299<565354646D6E7364696D656E73696F6E> ""
        c25tZO5e7f4AAAAAAgAAAAEAAAAAAAAAAgAAAAAAAABoBAAAAQAAAAAAEAA=
        eJzt3c1OE1EYBuCjbr2IGhN/YiQaTEz8gwLiyoS47qYixcYWCEOjceXSSzDGK8DEpXHnDaA34cLb8BskwBSl1FaRnOclpwxnzjw9wwz0pF8IKb2aSkOlHL+/Ddw/oE33
        ter+95ubdw9rMeZ2X/vLGXT+Y88RvoeVlrk36vUZdP+++jzeNmr6z7F//qO2oa/HiWqtVqvSRrsW8mVr684423Gfj/Rn6N+plZ+3Dw+aU32v9787pnyue/3H72si8l+k
        f601cE1x3Bl13SAiIiKZ5sOVd+n8xb2vT+1ufZ3ZN2z6cOXI6yEOh8PhcDgcDofD4XA4HA6Hw+FwOBwOh/MfOeqDHA6Hw+FwOBwOh8PhcDgcDofD4XA4HE4+jvogh8Ph
        cDgcDofD4XA4HA6Hw+FwOBwOh5OPoz7I4XA4HA6Hw+FwOBwOh8PhcDgcDofD4eTjnNndWqjvG3Mk5/SB/jf10rl+dvbuMM5O9kqV6dxsWa+cuPmx/F/u6dv3h8M4h4XD
        4XA4HA6Hw+FwOBwOh8PhcDgcDofDydrx94McDofD4XA4HA6Hw+FwOBwOh8PhcDgcTj6O+iCHw+FwOBwOh8PhcDgcDofD4XA4HA6Hk4+jPsjhcDgcDofD4XA4HA6Hw+Fw
        OBwOh8Ph5OOoD3I4HA6Hw+FwOBwOh8PhcDgcDofD4XA4+TjqgxwOh8PhcDgcDofD4XA4HA6Hw+FwOBxOPo76IIfD4XA4HA6Hw+FwOBwOh8PhcDgcDoeTj6M+yOFwOBwO
        h8PhcDgcDofD4XA4HA6Hw+Hk46gPcjgcDofD4XA4HA6Hw+FwOBwOh8PhcDj5OOqDHA6Hw+FwOBwOh8PhcDgcDofD4XA4HE4+jvogh8PhcDgcDofD4XA4HA6Hw+FwOBwO
        h5OPoz7I4XA4HA6Hw+FwOBwOh8PhcDgcDofD4eTjqA9yOBwOh8PhcDgcDofD4XA4HA6Hw+FwOPk46oMcDofD4XA4HA6Hw+FwOBwOh8PhcDgcTj6O+iCHw+FwOBwOh8Ph
        cDgcDofD4XA4HA6Hk4+jPsjhcDgcDofD4XA4HA6Hw+FwOBwOh8PhZO1Mjc8ZNO53+6fj+T/VR5/P25mqYz5/az5n0utt50nrwkjzqTp/Op9K3M/mc8LnU4n72XxO+Hwq
        cT+bz4mdz2y6lRppIa2n1bQcj83UTbU0n9qpk5ZSEftmo+9ZbD+Pz53YaqS52NuNnpXY347jVuKIn0IjPUy9GLUR/cW2tbbrXE83YtzVaM20GGN70VuOW4yex9FXxMfP
        kQf398JZj+3l9DT6auG24rGVXqSJGNVKLw8/bRE5Yhpz7e7SStFeXWksrK8urze7RePaZO1q7dFSs1ObaRbFUtGY73U6tfriaq/YaC/WLnVblyfWYvBxz11ExplfrQ/m
        4nEj2rBrg6pSvtJfS5M7a4JHcUxp1NJMZS0wv72eKPvrB1YFl7bXAZdjDbC2I4uIiIjIv8z9WCt6P0lE9uL9JJHc8wOH0qak
        AEM6XFByb2dyYW1EYXRhXENha2V3YWxrABAAAAA=
      >
      PRESETNAME C:\ProgramData\Cakewalk
      FLOATPOS 0 0 0 0
      FXID {63608140-BDD1-47AC-9853-6200306F1661}
      WAK 0
      BYPASS 0 0 0
      <VST "VST: ReaEQ (Cockos)" reaeq.dll 0 "" 1919247729<56535472656571726561657100000000> ""
        cWVlcu5e7f4CAAAAAQAAAAAAAAACAAAAAAAAAAIAAAABAAAAAAAAAAIAAAAAAAAAqAAAAAEAAAAAABAA
        IQAAAAQAAAABAAAAAQAAAEGZ79pk0aFALPP++AIP9D8AAAAAAAAAQAEIAAAAAQAAACBG5MEts4BAv2LTxQa6+T8AAAAAAAAAQAEIAAAAAQAAAIGpX7/77pBAEm1uGD7W
        9T8AAAAAAAAAQAEBAAAAAQAAAP/LRgBM+m5AwSAmgRB66j8AAAAAAAAAQAEBAAAAAQAAAB2YygJfzfc/AAAAAA8CAABhAQAA
        AAAQAAAA
      >
      FLOATPOS 0 0 0 0
      FXID {CD8DD4C9-B22B-472A-B742-5AD93A648A4C}
      WAK 0
    >
    <ITEM
      POSITION 6
      SNAPOFFS 0
      LENGTH 20
      LOOP 1
      ALLTAKES 0
      FADEIN 1 0 0 1 0 0
      FADEOUT 1 0 0 1 0 0
      MUTE 0
      SEL 0
      IGUID {A0071CFB-D2BE-460A-B7BF-FD27C982D0BA}
      IID 129
      NAME "04-Z3TA+ 2-Recorded MIDI glued"
      VOLPAN 1 0 1 -1
      SOFFS 0 0
      PLAYRATE 1 1 0 -1 0 0.0025
      CHANMODE 0
      GUID {568F9771-44C5-4315-B0E4-C1D43957BB0D}
      <SOURCE MIDI
        HASDATA 1 960 QN
        POOLEDEVTS {54A92D0F-D229-4B67-BAAE-A943414185A9}
        E 0 90 30 55
        E 480 80 30 36
        E 0 90 37 50
        E 480 80 37 24
        E 0 90 37 50
        E 480 80 37 24
        E 480 90 3c 53
        E 960 80 3c 22
        e 0 90 3a 50
        e 480 80 3a 24
        E 0 90 37 57
        E 960 80 37 29
        E 480 90 30 57
        E 960 80 30 29
        E 0 90 30 57
        E 1440 80 30 29
        E 2400 90 32 57
        E 0 90 3e 57
        E 480 80 32 29
        E 0 80 3e 29
        E 0 90 33 57
        E 0 90 3f 57
        E 480 80 33 29
        E 0 80 3f 29
        E 0 90 30 57
        E 0 90 3c 57
        E 960 80 30 29
        E 0 80 3c 29
        E 0 90 2d 57
        E 0 90 39 57
        E 2040 80 2d 29
        E 0 80 39 29
        E 5640 90 35 55
        E 1440 90 30 4f
        E 120 80 35 07
        E 365 90 35 61
        E 89 80 30 2f
        E 1826 80 35 3b
        E 0 90 37 49
        E 1440 90 30 4f
        E 120 80 37 27
        E 365 90 37 61
        E 89 80 30 2f
        E 1826 80 37 3b
        E 0 90 30 53
        E 907 80 30 22
        E 533 90 30 55
        E 480 90 37 5f
        E 7 80 30 29
        E 1433 80 37 28
        E 0 90 30 53
        E 960 80 30 22
        E 0 90 30 53
        E 480 80 30 22
        E 480 90 30 55
        E 480 90 37 5f
        E 7 80 30 29
        E 1433 80 37 28
        E 480 90 3c 5f
        E 960 80 3c 28
        E 480 90 37 5f
        E 480 80 37 28
        E 0 90 3c 5f
        E 1440 80 3c 28
        E 480 b0 7b 00
        GUID {D56F718E-E185-4C90-A4C5-3DC6C50FC515}
        IGNTEMPO 0 120 4 4
        SRCCOLOR 506
        VELLANE -1 100 0
        VELLANE -2 100 100
        CFGEDITVIEW 38397.823129 0.026573 56 12 0 0 0 0 0 0.5
        KEYSNAP 0
        TRACKSEL 252
        EVTFILTER 0 -1 -1 -1 -1 0 0 0 0 -1 -1 -1 -1 0 -1 0 -1 -1
        CFGEDIT 1 1 0 1 1 1 1 1 1 1 1 0.125 268 116 1708 898 0 0 0 0 0 0 0 0 0 0.5 0 0 1 64
      >
    >
    <ITEM
      POSITION 26
      SNAPOFFS 0
      LENGTH 14.000000000015
      LOOP 1
      ALLTAKES 0
      FADEIN 1 0 0 1 0 0
      FADEOUT 1 0 0 1 0 0
      MUTE 0
      COLOR 24284671 R
      SEL 0
      IGUID {3269A654-C4A2-408C-AEF0-88B300631BD2}
      IID 48
      NAME "04-Z3TA+ 2-Recorded MIDI"
      VOLPAN 1 0 1 -1
      SOFFS 19.999999999985 39.99999999997
      PLAYRATE 1 1 0 -1 0 0.0025
      CHANMODE 0
      GUID {90663D45-9EA0-4BB2-8BB9-1A56406DA3A6}
      RECPASS 10
      <SOURCE MIDI
        HASDATA 1 960 QN
        POOLEDEVTS {CC818EA3-440F-4757-AA60-DDDDBF55340D}
        E 34456 90 30 50
        E 1064 80 30 24
        E 480 90 30 55
        E 480 90 37 53
        E 46 80 30 36
        E 1255 80 37 22
        E 137 90 30 57
        E 482 80 30 29
        E 480 90 30 5b
        E 480 80 30 2b
        E 343 90 30 5d
        E 565 80 30 31
        E 52 90 37 4f
        E 1768 80 37 30
        E 152 90 2d 50
        E 960 80 2d 37
        E 359 90 2d 55
        E 595 80 2d 3a
        E 6 90 34 55
        E 1920 80 34 2f
        E 0 90 2d 57
        E 831 80 2d 26
        E 609 90 2d 50
        E 480 90 34 59
        E 105 80 2d 2c
        E 1656 80 34 0d
        E 159 90 29 55
        E 996 80 29 2d
        E 444 90 29 52
        E 480 80 29 37
        E 0 90 30 5d
        E 1920 80 30 4d
        E 0 90 2b 59
        E 1039 80 2b 2d
        E 284 90 2b 50
        E 597 90 32 55
        E 42 80 2b 3a
        E 1878 80 32 07
        E 0 90 30 49
        E 960 80 30 27
        E 480 90 30 4f
        E 485 90 37 61
        E 89 80 30 2f
        E 1826 80 37 3b
        E 0 90 30 53
        E 907 80 30 22
        E 533 90 30 55
        E 480 90 37 5f
        E 7 80 30 29
        E 1518 80 37 28
        E 395 b0 7b 00
        GUID {7BE03207-6F4F-4F38-879F-3EEA10A927B7}
        IGNTEMPO 0 120 4 4
        SRCCOLOR 193
        VELLANE -1 100 0
        VELLANE -2 100 100
        CFGEDITVIEW 190356.636735 0.087208 68 12 0 0 0 0 0 0.5
        KEYSNAP 0
        TRACKSEL 252
        EVTFILTER 0 -1 -1 -1 -1 0 0 0 0 -1 -1 -1 -1 0 -1 0 -1 -1
        CFGEDIT 1 1 0 1 1 1 1 1 1 1 1 0.125 252 100 1708 898 0 0 0 0 0 0 0 0 0 0.5 0 0 1 64
      >
    >
    <ITEM
      POSITION 40.00000000000501
      SNAPOFFS 0
      LENGTH 15.99999999999499
      LOOP 1
      ALLTAKES 0
      FADEIN 1 0 0 1 0 0
      FADEOUT 1 0 0 1 0 0
      MUTE 0
      COLOR 28486617 R
      SEL 0
      IGUID {2BCE63A9-B47E-48CA-9CDA-0C9A29B528D0}
      IID 56
      NAME "04-Z3TA+ 2-Recorded MIDI glued"
      VOLPAN 1 0 1 -1
      SOFFS 0 0
      PLAYRATE 1 1 0 -1 0 0.0025
      CHANMODE 0
      GUID {8F41A626-E7A4-4C4E-9E6A-0E120E948E19}
      <SOURCE MIDI
        HASDATA 1 960 QN
        POOLEDEVTS {88D867EA-465C-4550-9DA2-470177C81DE7}
        E 480 90 2d 49
        E 480 90 30 2b
        E 24 80 2d 1e
        E 456 80 30 0f
        E 0 90 32 41
        E 480 80 32 46
        E 0 90 34 49
        E 1920 80 34 2d
        E 480 90 2d 49
        E 480 90 30 2b
        E 24 80 2d 1e
        E 456 80 30 0f
        E 0 90 32 41
        E 480 80 32 46
        E 0 90 34 49
        E 1920 80 34 2d
        E 480 90 2b 46
        E 480 80 2b 26
        E 0 90 2f 32
        E 480 90 30 1a
        E 26 80 2f 22
        E 454 80 30 3e
        E 0 90 32 46
        E 480 80 32 26
        E 0 90 30 34
        E 480 80 30 0d
        E 0 90 2f 3d
        E 975 80 2f 11
        E 465 90 2b 46
        E 480 80 2b 26
        E 0 90 2f 32
        E 480 90 30 1a
        E 26 80 2f 22
        E 454 80 30 3e
        E 0 90 32 46
        E 1920 80 32 26
        E 480 90 2d 49
        E 480 90 30 2b
        E 24 80 2d 1e
        E 456 80 30 0f
        E 0 90 32 41
        E 480 80 32 46
        E 0 90 34 49
        E 1920 80 34 2d
        E 480 90 2d 49
        E 480 90 30 2b
        E 24 80 2d 1e
        E 456 80 30 0f
        E 0 90 32 41
        E 480 80 32 46
        E 0 90 34 49
        E 1920 80 34 2d
        E 0 90 2f 4d
        E 480 80 2f 27
        E 0 90 32 44
        E 480 90 34 43
        E 9 80 32 20
        E 470 80 34 45
        E 1 90 35 59
        E 960 80 35 37
        E 0 90 34 4c
        E 470 90 32 5b
        E 10 80 34 11
        E 523 80 32 48
        E 437 90 37 52
        E 1310 80 37 3e
        E 111 90 37 52
        E 2419 80 37 00
        E 0 b0 7b 00
        GUID {162449E6-7749-4C35-9952-0912DE4EBAA9}
        IGNTEMPO 0 120 4 4
        SRCCOLOR 210
        VELLANE -1 100 0
        VELLANE -2 100 100
        CFGEDITVIEW 120752.152381 0.161921 63 12 0 0 0 0 0 0.5
        KEYSNAP 0
        TRACKSEL 252
        EVTFILTER 0 -1 -1 -1 -1 0 0 0 0 -1 -1 -1 -1 0 -1 0 -1 -1
        CFGEDIT 1 1 0 1 1 1 1 1 1 1 1 0.125 268 116 1708 898 0 0 0 0 0 0 0 0 0 0.5 0 0 1 64
      >
    >
    <ITEM
      POSITION 56
      SNAPOFFS 0
      LENGTH 41.60104166667166
      LOOP 1
      ALLTAKES 0
      FADEIN 1 0 0 1 0 0
      FADEOUT 1 0 0 1 0 0
      MUTE 0
      COLOR 28303503 R
      SEL 0
      IGUID {798F1BA7-0F6C-40C3-8A2B-1952B8FEDCBB}
      IID 56
      NAME "04-Z3TA+ 2-Recorded MIDI glued"
      VOLPAN 1 0 1 -1
      SOFFS 0 0
      PLAYRATE 1 1 0 -1 0 0.0025
      CHANMODE 0
      GUID {34C24B15-F2AC-4A40-BE82-D3854BA8F3F9}
      <SOURCE MIDI
        HASDATA 1 960 QN
        POOLEDEVTS {5142FF40-6347-435E-A041-2C514412CC84}
        E 0 80 37 2d
        E 960 90 30 55
        E 480 90 34 39
        E 49 80 30 2c
        E 431 90 35 52
        E 22 80 34 38
        E 938 90 37 45
        E 74 80 35 45
        E 406 90 30 38
        E 60 80 37 30
        E 642 80 30 2f
        E 298 90 30 3f
        E 440 90 34 44
        E 125 80 30 21
        E 355 90 37 4f
        E 26 80 34 3a
        E 934 90 35 0a
        E 207 80 37 23
        E 273 90 34 59
        E 156 80 35 0d
        E 324 90 30 39
        E 67 80 34 26
        E 203 80 30 3c
        E 180 90 2d 46
        E 990 80 2d 23
        E 0 90 30 2e
        E 480 80 30 21
        E 0 90 32 35
        E 439 80 32 33
        E 41 90 34 53
        E 859 90 2d 27
        E 139 80 34 2b
        E 211 80 2d 1f
        E 219 90 2d 2a
        E 395 80 2d 08
        E 543 90 2d 40
        E 514 90 30 2d
        E 61 80 2d 17
        E 419 90 32 3f
        E 17 80 30 24
        E 458 80 32 3f
        E 5 90 34 45
        E 960 90 30 43
        E 110 80 34 26
        E 270 90 2d 3d
        E 80 80 30 20
        E 163 80 2d 35
        E 303 90 29 5d
        E 936 80 29 27
        E 445 90 29 48
        E 504 90 2d 55
        E 66 80 29 3a
        E 963 90 30 49
        E 6 80 2d 35
        E 954 80 30 44
        E 0 90 2b 52
        E 1222 80 2b 23
        E 698 90 2b 55
        E 466 80 2b 2d
        E 14 90 2f 38
        E 480 80 2f 23
        E 0 90 30 31
        E 468 90 32 3e
        E 19 80 30 31
        E 953 80 32 45
        E 0 90 30 4c
        E 480 80 30 2e
        E 1440 90 34 24
        E 480 90 35 44
        E 9 80 34 2e
        E 471 80 35 43
        E 0 90 37 4f
        E 1440 80 37 36
        E 0 90 35 57
        E 480 80 35 33
        E 0 90 34 3e
        E 480 80 34 3c
        E 0 90 35 4d
        E 480 80 35 0f
        E 0 90 34 4d
        E 480 90 30 4d
        E 17 80 34 0f
        E 943 80 30 24
        E 480 90 30 45
        E 480 80 30 29
        E 0 90 34 49
        E 461 90 35 38
        E 19 80 34 20
        E 480 80 35 38
        E 3 90 37 46
        E 957 80 37 27
        E 0 90 35 2f
        E 480 80 35 32
        E 0 90 34 55
        E 480 80 34 32
        E 0 90 35 3e
        E 712 80 35 2a
        E 248 90 35 3f
        E 480 90 34 3e
        E 10 80 35 38
        E 470 90 35 3c
        E 21 80 34 32
        E 459 80 35 0f
        E 0 90 34 36
        E 480 90 30 2c
        E 41 80 34 30
        E 890 80 30 2d
        E 958 90 2d 4c
        E 511 90 30 44
        E 14 80 2d 10
        E 466 80 30 27
        E 0 90 34 43
        E 960 90 32 59
        E 81 80 34 38
        E 399 90 30 41
        E 21 80 32 36
        E 459 80 30 32
        E 0 90 32 50
        E 768 80 32 20
        E 192 90 32 46
        E 480 90 30 2f
        E 7 80 32 38
        E 457 80 30 38
        E 16 90 32 3e
        E 480 90 30 40
        E 102 80 32 14
        E 306 90 2d 41
        E 60 80 30 13
        E 498 80 2d 23
        E 941 90 29 4d
        E 480 90 2d 4c
        E 95 80 29 20
        E 397 90 2f 39
        E 109 80 2d 1a
        E 372 90 30 53
        E 30 80 2f 3e
        E 913 90 2f 52
        E 17 80 30 2b
        E 407 90 2d 3d
        E 153 80 2f 0e
        E 328 80 2d 23
        E 1027 90 2b 49
        E 412 90 2d 41
        E 91 80 2b 2b
        E 452 80 2d 2c
        E 10 90 2f 53
        E 459 90 29 35
        E 75 80 2f 22
        E 387 90 2d 32
        E 144 80 29 0e
        E 323 80 2d 2e
        E 50 90 2f 3f
        E 242 80 2f 35
        E 240 90 2f 4d
        E 480 80 2f 27
        E 240 90 2f 4d
        E 480 80 2f 27
        E 240 90 2f 4d
        E 240 80 2f 27
        E 240 90 32 4d
        E 720 80 32 27
        E 0 90 2f 4d
        E 240 80 2f 27
        E 240 90 2d 32
        E 467 80 2d 2e
        E 253 90 2f 4d
        E 480 80 2f 27
        E 240 90 2f 4d
        E 480 80 2f 27
        E 240 90 2f 4d
        E 240 80 2f 27
        E 240 90 32 4d
        E 720 80 32 27
        E 0 90 2f 4d
        E 240 80 2f 27
        E 253 90 2d 32
        E 467 80 2d 2e
        E 240 90 2b 49
        E 3840 80 2b 2b
        E 0 90 34 51
        E 480 80 34 2b
        E 480 90 37 51
        E 960 80 37 2b
        E 0 90 2f 51
        E 480 80 2f 2b
        E 0 90 32 51
        E 480 80 32 2b
        E 0 90 34 51
        E 480 80 34 2b
        E 480 90 2d 51
        E 1920 80 2d 2b
        E 8834 b0 7b 00
        GUID {A1F03A82-6845-4999-A7BE-B14014AB68DE}
        IGNTEMPO 0 120 4 4
        SRCCOLOR 440
        VELLANE -1 100 0
        VELLANE -2 100 100
        CFGEDITVIEW 0 0 63 12 0 0 0 0 0 0.5
        KEYSNAP 0
        TRACKSEL 252
        EVTFILTER 0 -1 -1 -1 -1 0 0 0 0 -1 -1 -1 -1 0 -1 0 -1 -1
        CFGEDIT 1 1 0 1 1 1 1 1 1 1 1 0.125 268 116 1708 898 0 0 0 0 0 0 0 0 0 0.5 0 0 1 64
      >
    >
    <ITEM
      POSITION 128
      SNAPOFFS 0
      LENGTH 15.999999999995
      LOOP 1
      ALLTAKES 0
      FADEIN 1 0 0 1 0 0
      FADEOUT 1 0 0 1 0 0
      MUTE 0
      COLOR 28486617 R
      SEL 0
      IGUID {C7BC48E7-169E-4EEC-8893-86467E57E8A3}
      IID 56
      NAME "04-Z3TA+ 2-Recorded MIDI glued"
      VOLPAN 1 0 1 -1
      SOFFS 0 0
      PLAYRATE 1 1 0 -1 0 0.0025
      CHANMODE 0
      GUID {7DDF712A-DB1B-4BE3-B135-4B316E855DB3}
      <SOURCE MIDI
        HASDATA 1 960 QN
        POOLEDEVTS {18560824-FD28-4297-BE0B-DBF8789EE810}
        E 480 90 2d 49
        E 480 90 30 2b
        E 24 80 2d 1e
        E 456 80 30 0f
        E 0 90 32 41
        E 480 80 32 46
        E 0 90 34 49
        E 1920 80 34 2d
        E 480 90 2d 49
        E 480 90 30 2b
        E 24 80 2d 1e
        E 456 80 30 0f
        E 0 90 32 41
        E 480 80 32 46
        E 0 90 34 49
        E 1920 80 34 2d
        E 480 90 2b 46
        E 480 80 2b 26
        E 0 90 2f 32
        E 480 90 30 1a
        E 26 80 2f 22
        E 454 80 30 3e
        E 0 90 32 46
        E 480 80 32 26
        E 0 90 30 34
        E 480 80 30 0d
        E 0 90 2f 3d
        E 975 80 2f 11
        E 465 90 2b 46
        E 480 80 2b 26
        E 0 90 2f 32
        E 480 90 30 1a
        E 26 80 2f 22
        E 454 80 30 3e
        E 0 90 32 46
        E 1920 80 32 26
        E 480 90 2d 49
        E 480 90 30 2b
        E 24 80 2d 1e
        E 456 80 30 0f
        E 0 90 32 41
        E 480 80 32 46
        E 0 90 34 49
        E 1920 80 34 2d
        E 480 90 2d 49
        E 480 90 30 2b
        E 24 80 2d 1e
        E 456 80 30 0f
        E 0 90 32 41
        E 480 80 32 46
        E 0 90 34 49
        E 1920 80 34 2d
        E 0 90 2f 4d
        E 480 80 2f 27
        E 0 90 32 44
        E 480 90 34 43
        E 9 80 32 20
        E 470 80 34 45
        E 1 90 35 59
        E 960 80 35 37
        E 0 90 34 4c
        E 470 90 32 5b
        E 10 80 34 11
        E 523 80 32 48
        E 437 90 37 52
        E 1310 80 37 3e
        E 111 90 37 52
        E 2419 80 37 00
        E 0 b0 7b 00
        GUID {162449E6-7749-4C35-9952-0912DE4EBAA9}
        IGNTEMPO 0 120 4 4
        SRCCOLOR 210
        VELLANE -1 100 0
        VELLANE -2 100 100
        CFGEDITVIEW 120752.152381 0.161921 63 12 0 0 0 0 0 0.5
        KEYSNAP 0
        TRACKSEL 252
        EVTFILTER 0 -1 -1 -1 -1 0 0 0 0 -1 -1 -1 -1 0 -1 0 -1 -1
        CFGEDIT 1 1 0 1 1 1 1 1 1 1 1 0.125 268 116 1708 898 0 0 0 0 0 0 0 0 0 0.5 0 0 1 64
      >
    >
    <ITEM
      POSITION 144
      SNAPOFFS 0
      LENGTH 16
      LOOP 1
      ALLTAKES 0
      FADEIN 1 0 0 1 0 0
      FADEOUT 1 0 0 1 0 0
      MUTE 0
      SEL 0
      IGUID {88AE3144-BFF1-4E8F-90D3-6AA5DD252557}
      IID 107
      NAME "04-Z3TA+ 2-Recorded MIDI glued"
      VOLPAN 1 0 1 -1
      SOFFS 0 0
      PLAYRATE 1 1 0 -1 0 0.0025
      CHANMODE 0
      GUID {819390A0-2DA4-4933-818E-D498F393F9F6}
      <SOURCE MIDI
        HASDATA 1 960 QN
        POOLEDEVTS {DDFA1AA0-2ADB-461E-B7DC-73A739670D86}
        E 0 90 30 50
        E 960 80 30 24
        E 480 90 30 55
        E 480 90 37 53
        E 46 80 30 36
        E 1255 80 37 22
        E 137 90 30 57
        E 482 80 30 29
        E 480 90 30 5b
        E 480 80 30 2b
        E 343 90 30 5d
        E 565 80 30 31
        E 52 90 37 4f
        E 1768 80 37 30
        E 152 90 2d 50
        E 960 80 2d 37
        E 359 90 2d 55
        E 595 80 2d 3a
        E 6 90 34 55
        E 1920 80 34 2f
        E 0 90 2d 57
        E 831 80 2d 26
        E 609 90 2d 50
        E 480 90 34 59
        E 105 80 2d 2c
        E 1656 80 34 0d
        E 159 90 29 55
        E 996 80 29 2d
        E 444 90 29 52
        E 480 80 29 37
        E 0 90 30 5d
        E 1920 80 30 4d
        E 0 90 2b 59
        E 1039 80 2b 2d
        E 284 90 2b 50
        E 597 90 32 55
        E 42 80 2b 3a
        E 1878 80 32 07
        E 0 90 30 49
        E 960 80 30 27
        E 480 90 30 4f
        E 485 90 37 61
        E 89 80 30 2f
        E 1826 80 37 3b
        E 0 90 30 53
        E 907 80 30 22
        E 533 90 30 55
        E 480 90 37 5f
        E 7 80 30 29
        E 1518 80 37 28
        E 395 b0 7b 00
        GUID {DA3B8334-9347-4DDD-A307-75944C15402C}
        IGNTEMPO 0 120 4 4
        SRCCOLOR 447
        VELLANE -1 100 0
        VELLANE -2 100 100
      >
    >
    <ITEM
      POSITION 160
      SNAPOFFS 0
      LENGTH 34.125
      LOOP 1
      ALLTAKES 0
      FADEIN 1 0 0 1 0 0
      FADEOUT 1 0 0 1 0 0
      MUTE 0
      SEL 0
      IGUID {2CDD154F-3F88-4291-AEFE-B38B1C532C1A}
      IID 107
      NAME "04-Z3TA+ 2-Recorded MIDI glued"
      VOLPAN 1 0 1 -1
      SOFFS 0 0
      PLAYRATE 1 1 0 -1 0 0.0025
      CHANMODE 0
      GUID {F5FF8124-C610-4E4D-AB82-01A0A3797F51}
      <SOURCE MIDI
        HASDATA 1 960 QN
        POOLEDEVTS {3E051C67-FC24-4947-997B-2410FA5DB0EB}
        E 0 90 30 50
        E 960 80 30 24
        E 74 90 30 55
        E 526 80 30 36
        E 360 90 30 53
        E 1200 80 30 22
        E 238 90 30 57
        E 482 80 30 29
        E 480 90 30 5b
        E 480 80 30 2b
        E 343 90 30 5d
        E 565 80 30 31
        E 52 90 37 4f
        E 1768 80 37 30
        E 152 90 2d 50
        E 960 80 2d 37
        E 359 90 2d 55
        E 595 80 2d 3a
        E 6 90 34 55
        E 1920 80 34 2f
        E 0 90 2d 57
        E 831 80 2d 26
        E 609 90 2d 50
        E 480 90 34 59
        E 105 80 2d 2c
        E 1656 80 34 0d
        E 159 90 29 55
        E 996 80 29 2d
        E 444 90 29 52
        E 480 80 29 37
        E 0 90 30 5d
        E 1920 80 30 4d
        E 0 90 2b 59
        E 1039 80 2b 2d
        E 284 90 2b 50
        E 597 90 32 55
        E 42 80 2b 3a
        E 1878 80 32 07
        E 0 90 28 49
        E 960 80 28 27
        E 360 90 28 4f
        E 574 80 28 2f
        E 31 90 2f 61
        E 1915 80 2f 3b
        E 0 90 2f 53
        E 907 80 2f 22
        E 533 90 2f 55
        E 480 90 34 5f
        E 7 80 2f 29
        E 1518 80 34 28
        E 395 90 29 55
        E 996 80 29 2d
        E 444 90 29 52
        E 480 80 29 37
        E 0 90 30 5d
        E 1920 80 30 4d
        E 0 90 2b 59
        E 1039 80 2b 2d
        E 284 90 2b 50
        E 597 90 32 55
        E 42 80 2b 3a
        E 1878 80 32 07
        E 960 90 39 55
        E 480 90 37 55
        E 120 80 39 07
        E 360 90 39 55
        E 480 80 37 07
        E 1560 80 39 07
        E 840 90 37 55
        E 480 90 35 55
        E 120 80 37 07
        E 360 90 37 55
        E 480 80 35 07
        E 1440 90 29 55
        E 120 80 37 07
        E 876 80 29 2d
        E 444 90 29 52
        E 480 80 29 37
        E 0 90 30 5d
        E 1920 80 30 4d
        E 0 90 2b 59
        E 1039 80 2b 2d
        E 284 90 2b 50
        E 597 90 32 55
        E 42 80 2b 3a
        E 1878 80 32 07
        E 0 90 3e 55
        E 2040 80 3e 07
        E 0 90 3c 55
        E 1800 80 3c 07
        E 120 90 37 55
        E 1800 80 37 07
        E 0 90 30 55
        E 120 90 3c 55
        E 5640 80 3c 07
        E 120 80 30 07
        E 5400 b0 7b 00
        GUID {4AC05CEC-5C6F-4440-931F-3AE5F3F7A13F}
        IGNTEMPO 0 120 4 4
        SRCCOLOR 521
        VELLANE -1 100 0
        VELLANE -2 100 100
        CFGEDITVIEW -3898.499926 0.010227 64 12 0 0 0 0 0 0.5
        KEYSNAP 0
        TRACKSEL 252
        EVTFILTER 0 -1 -1 -1 -1 0 0 0 0 -1 -1 -1 -1 0 -1 0 -1 -1
        CFGEDIT 1 1 0 1 1 1 1 1 1 1 1 0.125 284 132 1708 898 0 0 0 0 0 0 0 0 0 0.5 0 0 1 64
      >
    >
  >
  <EXTENSIONS
  >
>
